# Created by Kenney (www.kenney.nl)

mtllib detail-tree-large.mtl

g detail-tree-large

v 0.06875 0 -0.06875 1 1 1
v -0.06875 0 -0.06875 1 1 1
v 0.06875 0 0.06875 1 1 1
v -0.06875 0 0.06875 1 1 1
v -0.053125 0.15 -0.053125 1 1 1
v -0.053125 0.15 0.053125 1 1 1
v 0.053125 0.15 -0.053125 1 1 1
v 0.053125 0.15 0.053125 1 1 1
v 0.02262742 0.76 0.02262742 1 1 1
v 0 0.436 0.2 1 1 1
v -0.02262742 0.76 0.02262742 1 1 1
v 0.02262742 0.76 -0.02262742 1 1 1
v 0.2 0.436 0 1 1 1
v -0.02262742 0.76 -0.02262742 1 1 1
v 0 0.436 -0.2 1 1 1
v 0.1414214 0.436 0.1414214 1 1 1
v 0.1414214 0.436 -0.1414214 1 1 1
v -0.1414214 0.436 0.1414214 1 1 1
v -0.2 0.436 0 1 1 1
v -0.1414214 0.436 -0.1414214 1 1 1
v 0 0.35 -0.168566 1 1 1
v 0.1191942 0.35 -0.1191942 1 1 1
v -0.225 0.15 0 1 1 1
v -0.25 0.23 0 1 1 1
v -0.159099 0.15 0.159099 1 1 1
v -0.1767767 0.23 0.1767767 1 1 1
v 0.168566 0.35 -1.443823E-15 1 1 1
v 0.25 0.23 0 1 1 1
v 0.1191942 0.35 0.1191942 1 1 1
v 0.1767767 0.23 0.1767767 1 1 1
v 0 0.35 0.168566 1 1 1
v -0.1767767 0.23 -0.1767767 1 1 1
v -0.1191942 0.35 -0.1191942 1 1 1
v -0.168566 0.35 -1.443823E-15 1 1 1
v 0.225 0.15 0 1 1 1
v 0.159099 0.15 -0.159099 1 1 1
v 0.159099 0.15 0.159099 1 1 1
v 0 0.15 0.225 1 1 1
v 0 0.15 -0.225 1 1 1
v -0.159099 0.15 -0.159099 1 1 1
v 0 0.23 0.25 1 1 1
v -0.1191942 0.35 0.1191942 1 1 1
v 0 0.23 -0.25 1 1 1
v 0.1767767 0.23 -0.1767767 1 1 1

vn 0 -1 0
vn 0 1 0
vn -0.9946185 0.1036061 0
vn 0.9946185 -0.1036061 0
vn 0.9946185 0.1036061 0
vn -0.9946185 -0.1036061 0
vn 0 0.1036061 -0.9946185
vn 0 -0.1036061 0.9946185
vn 0 0.1036061 0.9946185
vn 0 -0.1036061 -0.9946185
vn 0.5779995 0.5760496 0.5779995
vn 0 0.4612523 0.887269
vn -0.5779995 0.5760496 0.5779995
vn 0.5779995 -0.5760496 -0.5779995
vn 0 -0.4612523 -0.887269
vn -0.5779995 -0.5760496 -0.5779995
vn 0.5779995 0.5760496 -0.5779995
vn 0.887269 0.4612523 0
vn -0.887269 -0.4612523 0
vn -0.5779995 -0.5760496 0.5779995
vn -0.5779995 0.5760496 -0.5779995
vn 0 0.4612523 -0.887269
vn 0 -0.4612523 0.887269
vn 0.5779995 -0.5760496 0.5779995
vn 0.6277373 0.4603172 0.6277373
vn -0.6277373 -0.4603172 -0.6277373
vn 0.6277373 0.4603172 -0.6277373
vn -0.6277373 -0.4603172 0.6277373
vn -0.6277373 0.4603172 0.6277373
vn 0.6277373 -0.4603172 -0.6277373
vn -0.887269 0.4612523 0
vn 0.887269 -0.4612523 0
vn -0.6277373 0.4603172 -0.6277373
vn 0.6277373 -0.4603172 0.6277373
vn 0 -0.343298 -0.9392266
vn 0.6641335 -0.343298 -0.6641335
vn 0 0.343298 0.9392266
vn -0.6641335 0.343298 0.6641335
vn -0.95448 -0.298275 0
vn -0.6749192 -0.298275 0.6749192
vn 0.6749192 0.298275 -0.6749192
vn 0.95448 0.298275 0
vn 0.8274584 0.561527 0
vn 0.5851015 0.561527 0.5851015
vn -0.5851015 -0.561527 -0.5851015
vn -0.8274584 -0.561527 0
vn 0.6641335 -0.343298 0.6641335
vn 0 -0.343298 0.9392266
vn -0.6641335 0.343298 -0.6641335
vn 0 0.343298 -0.9392266
vn -0.5851015 0.561527 -0.5851015
vn -0.8274584 0.561527 0
vn 0.8274584 -0.561527 0
vn 0.5851015 -0.561527 0.5851015
vn 0 -0.298275 0.95448
vn 0 0.298275 -0.95448
vn -0.6641335 -0.343298 0.6641335
vn 0.6641335 0.343298 -0.6641335
vn 0.9392266 -0.343298 0
vn -0.9392266 0.343298 0
vn -0.6749192 -0.298275 -0.6749192
vn 0.6749192 0.298275 0.6749192
vn 0 -0.298275 -0.95448
vn 0 0.298275 0.95448
vn -0.6641335 -0.343298 -0.6641335
vn 0.6641335 0.343298 0.6641335
vn -0.9392266 -0.343298 0
vn 0.9392266 0.343298 0
vn 0.95448 -0.298275 0
vn 0.6749192 -0.298275 0.6749192
vn -0.6749192 0.298275 -0.6749192
vn -0.95448 0.298275 0
vn 0 0.561527 -0.8274584
vn 0.5851015 0.561527 -0.5851015
vn 0 -0.561527 0.8274584
vn -0.5851015 -0.561527 0.5851015
vn 0.6749192 -0.298275 -0.6749192
vn -0.6749192 0.298275 0.6749192
vn 0 0.561527 0.8274584
vn 0 -0.561527 -0.8274584
vn -0.5851015 0.561527 0.5851015
vn 0.5851015 -0.561527 -0.5851015

vt 0.09375 0.275
vt 0.09375 0.3144737
vt 0.59375 0.475
vt 0.59375 0.3897368
vt 0.59375 0.3671052
vt 0.59375 0.3144737
vt 0.59375 0.3355263

usemtl colormap

f 3/1/1 2/1/1 1/1/1
f 2/1/1 3/1/1 4/1/1
f 1/1/2 2/1/2 3/1/2
f 4/1/2 3/1/2 2/1/2
f 4/1/3 5/2/3 2/1/3
f 5/2/3 4/1/3 6/2/3
f 2/1/4 5/2/4 4/1/4
f 6/2/4 4/1/4 5/2/4
f 7/2/5 3/1/5 1/1/5
f 3/1/5 7/2/5 8/2/5
f 1/1/6 3/1/6 7/2/6
f 8/2/6 7/2/6 3/1/6
f 5/2/7 1/1/7 2/1/7
f 1/1/7 5/2/7 7/2/7
f 2/1/8 1/1/8 5/2/8
f 7/2/8 5/2/8 1/1/8
f 8/2/9 4/1/9 3/1/9
f 4/1/9 8/2/9 6/2/9
f 3/1/10 4/1/10 8/2/10
f 6/2/10 8/2/10 4/1/10
f 11/3/13 10/4/12 9/3/11
f 9/3/16 10/4/15 11/3/14
f 9/3/11 13/4/18 12/3/17
f 12/3/20 13/4/19 9/3/16
f 12/3/17 15/4/22 14/3/21
f 14/3/24 15/4/23 12/3/20
f 16/4/25 13/4/18 9/3/11
f 9/3/16 13/4/19 16/4/26
f 13/4/18 17/4/27 12/3/17
f 12/3/20 17/4/28 13/4/19
f 11/3/13 18/4/29 10/4/12
f 10/4/15 18/4/30 11/3/14
f 11/3/13 14/3/21 19/4/31
f 19/4/32 14/3/24 11/3/14
f 18/4/29 11/3/13 19/4/31
f 19/4/32 11/3/14 18/4/30
f 9/3/11 10/4/12 16/4/25
f 16/4/26 10/4/15 9/3/16
f 14/3/21 15/4/22 20/4/33
f 20/4/34 15/4/23 14/3/24
f 12/3/17 17/4/27 15/4/22
f 15/4/23 17/4/28 12/3/20
f 19/4/31 14/3/21 20/4/33
f 20/4/34 14/3/24 19/4/32
f 15/4/35 22/5/36 21/5/35
f 17/4/36 22/5/36 15/4/35
f 21/5/37 22/5/38 15/4/37
f 15/4/37 22/5/38 17/4/38
f 25/6/40 24/7/39 23/6/39
f 24/7/39 25/6/40 26/7/40
f 23/6/42 24/7/42 25/6/41
f 26/7/41 25/6/41 24/7/42
f 29/5/44 28/7/43 27/5/43
f 28/7/43 29/5/44 30/7/44
f 27/5/46 28/7/46 29/5/45
f 30/7/45 29/5/45 28/7/46
f 16/4/47 31/5/48 29/5/47
f 10/4/48 31/5/48 16/4/47
f 29/5/49 31/5/50 16/4/49
f 16/4/49 31/5/50 10/4/50
f 24/7/52 33/5/51 32/7/51
f 33/5/51 24/7/52 34/5/52
f 32/7/54 33/5/54 24/7/53
f 34/5/53 24/7/53 33/5/54
f 37/6/1 36/6/1 35/6/1
f 36/6/1 37/6/1 38/6/1
f 36/6/1 38/6/1 8/6/1
f 36/6/1 8/6/1 7/6/1
f 7/6/1 39/6/1 36/6/1
f 39/6/1 7/6/1 5/6/1
f 8/6/1 38/6/1 6/6/1
f 39/6/1 5/6/1 40/6/1
f 40/6/1 5/6/1 6/6/1
f 6/6/1 38/6/1 25/6/1
f 40/6/1 6/6/1 25/6/1
f 40/6/1 25/6/1 23/6/1
f 35/6/2 36/6/2 37/6/2
f 38/6/2 37/6/2 36/6/2
f 8/6/2 38/6/2 36/6/2
f 7/6/2 8/6/2 36/6/2
f 36/6/2 39/6/2 7/6/2
f 5/6/2 7/6/2 39/6/2
f 6/6/2 38/6/2 8/6/2
f 40/6/2 5/6/2 39/6/2
f 6/6/2 5/6/2 40/6/2
f 25/6/2 38/6/2 6/6/2
f 25/6/2 6/6/2 40/6/2
f 23/6/2 25/6/2 40/6/2
f 41/7/55 25/6/40 38/6/55
f 25/6/40 41/7/55 26/7/40
f 38/6/56 25/6/41 41/7/56
f 26/7/41 41/7/56 25/6/41
f 18/4/57 42/5/57 10/4/48
f 10/4/48 42/5/57 31/5/48
f 10/4/50 42/5/58 18/4/58
f 31/5/50 42/5/58 10/4/50
f 16/4/47 27/5/59 13/4/59
f 16/4/47 29/5/47 27/5/59
f 13/4/60 27/5/60 16/4/49
f 27/5/60 29/5/49 16/4/49
f 40/6/61 24/7/39 32/7/61
f 24/7/39 40/6/61 23/6/39
f 32/7/62 24/7/42 40/6/62
f 23/6/42 40/6/62 24/7/42
f 32/7/61 39/6/63 40/6/61
f 39/6/63 32/7/61 43/7/63
f 40/6/62 39/6/64 32/7/62
f 43/7/64 32/7/62 39/6/64
f 20/4/65 21/5/35 33/5/65
f 15/4/35 21/5/35 20/4/65
f 33/5/66 21/5/37 20/4/66
f 20/4/66 21/5/37 15/4/37
f 34/5/67 20/4/65 33/5/65
f 19/4/67 20/4/65 34/5/67
f 33/5/66 20/4/66 34/5/68
f 34/5/68 20/4/66 19/4/68
f 30/7/70 35/6/69 28/7/69
f 35/6/69 30/7/70 37/6/70
f 28/7/72 35/6/72 30/7/71
f 37/6/71 30/7/71 35/6/72
f 13/4/59 27/5/59 22/5/36
f 13/4/59 22/5/36 17/4/36
f 22/5/38 27/5/60 13/4/60
f 17/4/38 22/5/38 13/4/60
f 21/5/73 44/7/74 43/7/73
f 44/7/74 21/5/73 22/5/74
f 43/7/75 44/7/76 21/5/75
f 22/5/76 21/5/75 44/7/76
f 14/3/2 9/3/2 12/3/2
f 9/3/2 14/3/2 11/3/2
f 12/3/1 9/3/1 14/3/1
f 11/3/1 14/3/1 9/3/1
f 43/7/63 36/6/77 39/6/63
f 36/6/77 43/7/63 44/7/77
f 39/6/64 36/6/78 43/7/64
f 44/7/78 43/7/64 36/6/78
f 29/5/44 41/7/79 30/7/44
f 41/7/79 29/5/44 31/5/79
f 30/7/45 41/7/80 29/5/45
f 31/5/80 29/5/45 41/7/80
f 28/7/69 36/6/77 44/7/77
f 36/6/77 28/7/69 35/6/69
f 44/7/78 36/6/78 28/7/72
f 35/6/72 28/7/72 36/6/78
f 30/7/70 38/6/55 37/6/70
f 38/6/55 30/7/70 41/7/55
f 37/6/71 38/6/56 30/7/71
f 41/7/56 30/7/71 38/6/56
f 22/5/74 28/7/43 44/7/74
f 28/7/43 22/5/74 27/5/43
f 44/7/76 28/7/46 22/5/76
f 27/5/46 22/5/76 28/7/46
f 18/4/57 19/4/67 42/5/57
f 42/5/57 19/4/67 34/5/67
f 42/5/58 19/4/68 18/4/58
f 34/5/68 19/4/68 42/5/58
f 31/5/79 26/7/81 41/7/79
f 26/7/81 31/5/79 42/5/81
f 41/7/80 26/7/82 31/5/80
f 42/5/82 31/5/80 26/7/82
f 33/5/51 43/7/73 32/7/51
f 43/7/73 33/5/51 21/5/73
f 32/7/54 43/7/75 33/5/54
f 21/5/75 33/5/54 43/7/75
f 24/7/52 42/5/81 34/5/52
f 42/5/81 24/7/52 26/7/81
f 34/5/53 42/5/82 24/7/53
f 26/7/82 24/7/53 42/5/82

g detail-tree-large




usemtl colormap

f 3/1/1 2/1/1 1/1/1
f 2/1/1 3/1/1 4/1/1
f 1/1/2 2/1/2 3/1/2
f 4/1/2 3/1/2 2/1/2
f 4/1/3 5/2/3 2/1/3
f 5/2/3 4/1/3 6/2/3
f 2/1/4 5/2/4 4/1/4
f 6/2/4 4/1/4 5/2/4
f 7/2/5 3/1/5 1/1/5
f 3/1/5 7/2/5 8/2/5
f 1/1/6 3/1/6 7/2/6
f 8/2/6 7/2/6 3/1/6
f 5/2/7 1/1/7 2/1/7
f 1/1/7 5/2/7 7/2/7
f 2/1/8 1/1/8 5/2/8
f 7/2/8 5/2/8 1/1/8
f 8/2/9 4/1/9 3/1/9
f 4/1/9 8/2/9 6/2/9
f 3/1/10 4/1/10 8/2/10
f 6/2/10 8/2/10 4/1/10
f 11/3/13 10/4/12 9/3/11
f 9/3/16 10/4/15 11/3/14
f 9/3/11 13/4/18 12/3/17
f 12/3/20 13/4/19 9/3/16
f 12/3/17 15/4/22 14/3/21
f 14/3/24 15/4/23 12/3/20
f 16/4/25 13/4/18 9/3/11
f 9/3/16 13/4/19 16/4/26
f 13/4/18 17/4/27 12/3/17
f 12/3/20 17/4/28 13/4/19
f 11/3/13 18/4/29 10/4/12
f 10/4/15 18/4/30 11/3/14
f 11/3/13 14/3/21 19/4/31
f 19/4/32 14/3/24 11/3/14
f 18/4/29 11/3/13 19/4/31
f 19/4/32 11/3/14 18/4/30
f 9/3/11 10/4/12 16/4/25
f 16/4/26 10/4/15 9/3/16
f 14/3/21 15/4/22 20/4/33
f 20/4/34 15/4/23 14/3/24
f 12/3/17 17/4/27 15/4/22
f 15/4/23 17/4/28 12/3/20
f 19/4/31 14/3/21 20/4/33
f 20/4/34 14/3/24 19/4/32
f 15/4/35 22/5/36 21/5/35
f 17/4/36 22/5/36 15/4/35
f 21/5/37 22/5/38 15/4/37
f 15/4/37 22/5/38 17/4/38
f 25/6/40 24/7/39 23/6/39
f 24/7/39 25/6/40 26/7/40
f 23/6/42 24/7/42 25/6/41
f 26/7/41 25/6/41 24/7/42
f 29/5/44 28/7/43 27/5/43
f 28/7/43 29/5/44 30/7/44
f 27/5/46 28/7/46 29/5/45
f 30/7/45 29/5/45 28/7/46
f 16/4/47 31/5/48 29/5/47
f 10/4/48 31/5/48 16/4/47
f 29/5/49 31/5/50 16/4/49
f 16/4/49 31/5/50 10/4/50
f 24/7/52 33/5/51 32/7/51
f 33/5/51 24/7/52 34/5/52
f 32/7/54 33/5/54 24/7/53
f 34/5/53 24/7/53 33/5/54
f 37/6/1 36/6/1 35/6/1
f 36/6/1 37/6/1 38/6/1
f 36/6/1 38/6/1 8/6/1
f 36/6/1 8/6/1 7/6/1
f 7/6/1 39/6/1 36/6/1
f 39/6/1 7/6/1 5/6/1
f 8/6/1 38/6/1 6/6/1
f 39/6/1 5/6/1 40/6/1
f 40/6/1 5/6/1 6/6/1
f 6/6/1 38/6/1 25/6/1
f 40/6/1 6/6/1 25/6/1
f 40/6/1 25/6/1 23/6/1
f 35/6/2 36/6/2 37/6/2
f 38/6/2 37/6/2 36/6/2
f 8/6/2 38/6/2 36/6/2
f 7/6/2 8/6/2 36/6/2
f 36/6/2 39/6/2 7/6/2
f 5/6/2 7/6/2 39/6/2
f 6/6/2 38/6/2 8/6/2
f 40/6/2 5/6/2 39/6/2
f 6/6/2 5/6/2 40/6/2
f 25/6/2 38/6/2 6/6/2
f 25/6/2 6/6/2 40/6/2
f 23/6/2 25/6/2 40/6/2
f 41/7/55 25/6/40 38/6/55
f 25/6/40 41/7/55 26/7/40
f 38/6/56 25/6/41 41/7/56
f 26/7/41 41/7/56 25/6/41
f 18/4/57 42/5/57 10/4/48
f 10/4/48 42/5/57 31/5/48
f 10/4/50 42/5/58 18/4/58
f 31/5/50 42/5/58 10/4/50
f 16/4/47 27/5/59 13/4/59
f 16/4/47 29/5/47 27/5/59
f 13/4/60 27/5/60 16/4/49
f 27/5/60 29/5/49 16/4/49
f 40/6/61 24/7/39 32/7/61
f 24/7/39 40/6/61 23/6/39
f 32/7/62 24/7/42 40/6/62
f 23/6/42 40/6/62 24/7/42
f 32/7/61 39/6/63 40/6/61
f 39/6/63 32/7/61 43/7/63
f 40/6/62 39/6/64 32/7/62
f 43/7/64 32/7/62 39/6/64
f 20/4/65 21/5/35 33/5/65
f 15/4/35 21/5/35 20/4/65
f 33/5/66 21/5/37 20/4/66
f 20/4/66 21/5/37 15/4/37
f 34/5/67 20/4/65 33/5/65
f 19/4/67 20/4/65 34/5/67
f 33/5/66 20/4/66 34/5/68
f 34/5/68 20/4/66 19/4/68
f 30/7/70 35/6/69 28/7/69
f 35/6/69 30/7/70 37/6/70
f 28/7/72 35/6/72 30/7/71
f 37/6/71 30/7/71 35/6/72
f 13/4/59 27/5/59 22/5/36
f 13/4/59 22/5/36 17/4/36
f 22/5/38 27/5/60 13/4/60
f 17/4/38 22/5/38 13/4/60
f 21/5/73 44/7/74 43/7/73
f 44/7/74 21/5/73 22/5/74
f 43/7/75 44/7/76 21/5/75
f 22/5/76 21/5/75 44/7/76
f 14/3/2 9/3/2 12/3/2
f 9/3/2 14/3/2 11/3/2
f 12/3/1 9/3/1 14/3/1
f 11/3/1 14/3/1 9/3/1
f 43/7/63 36/6/77 39/6/63
f 36/6/77 43/7/63 44/7/77
f 39/6/64 36/6/78 43/7/64
f 44/7/78 43/7/64 36/6/78
f 29/5/44 41/7/79 30/7/44
f 41/7/79 29/5/44 31/5/79
f 30/7/45 41/7/80 29/5/45
f 31/5/80 29/5/45 41/7/80
f 28/7/69 36/6/77 44/7/77
f 36/6/77 28/7/69 35/6/69
f 44/7/78 36/6/78 28/7/72
f 35/6/72 28/7/72 36/6/78
f 30/7/70 38/6/55 37/6/70
f 38/6/55 30/7/70 41/7/55
f 37/6/71 38/6/56 30/7/71
f 41/7/56 30/7/71 38/6/56
f 22/5/74 28/7/43 44/7/74
f 28/7/43 22/5/74 27/5/43
f 44/7/76 28/7/46 22/5/76
f 27/5/46 22/5/76 28/7/46
f 18/4/57 19/4/67 42/5/57
f 42/5/57 19/4/67 34/5/67
f 42/5/58 19/4/68 18/4/58
f 34/5/68 19/4/68 42/5/58
f 31/5/79 26/7/81 41/7/79
f 26/7/81 31/5/79 42/5/81
f 41/7/80 26/7/82 31/5/80
f 42/5/82 31/5/80 26/7/82
f 33/5/51 43/7/73 32/7/51
f 43/7/73 33/5/51 21/5/73
f 32/7/54 43/7/75 33/5/54
f 21/5/75 33/5/54 43/7/75
f 24/7/52 42/5/81 34/5/52
f 42/5/81 24/7/52 26/7/81
f 34/5/53 42/5/82 24/7/53
f 26/7/82 24/7/53 42/5/82

