# Created by Kenney (www.kenney.nl)

mtllib detail-rocks-large.mtl

g detail-rocks-large

v 0.1801662 0.2563797 0.3139017 1 1 1
v 0.2691907 0.2563797 0.1977713 1 1 1
v 0.2788735 0.1281898 0.2973819 1 1 1
v -0.04979321 0 0.04542917 1 1 1
v -0.07951927 0 0.265241 1 1 1
v 0.1547556 0 -0.04036529 1 1 1
v 0.3295783 0 0.09365209 1 1 1
v 0.09530345 0 0.3992584 1 1 1
v 0.2998522 0 0.313464 1 1 1
v -0.007835746 0.2563797 0.07759336 1 1 1
v 0.1476213 0.2563797 0.01238956 1 1 1
v -0.03042755 0.2563797 0.2446504 1 1 1
v 0.1024377 0.2563797 0.3465036 1 1 1
v 0.2804866 0.2563797 0.1142428 1 1 1
v 0.4583048 0 -0.0846266 1 1 1
v 0.3785851 0 -0.3295154 1 1 1
v 0.2915539 0 0.1116383 1 1 1
v 0.1321144 0 -0.3781393 1 1 1
v 0.04508328 0 0.06301442 1 1 1
v -0.03463648 0 -0.1818744 1 1 1
v 0.3991519 0.1321153 -0.09629634 1 1 1
v 0.2724212 0.1321153 0.052865 1 1 1
v 0.3385649 0.1321153 -0.2824118 1 1 1
v 0.1512472 0.1321153 -0.319366 1 1 1
v 0.0851035 0.1321153 0.01591083 1 1 1
v 0.02451649 0.1321153 -0.1702047 1 1 1
v -0.1722791 0.2313242 -0.2830991 1 1 1
v -0.1595758 0.1156621 -0.3714286 1 1 1
v -0.07070951 0.2313242 -0.3632883 1 1 1
v -0.174317 0 -0.3901002 1 1 1
v -0.2465395 0 -0.2067899 1 1 1
v 0.02074893 0 -0.417814 1 1 1
v -0.123696 0 -0.05119322 1 1 1
v 0.1435924 0 -0.2622173 1 1 1
v 0.07136998 0 -0.07890691 1 1 1
v -0.1997236 0.2313242 -0.2134412 1 1 1
v 0.00341554 0.2313242 -0.3738194 1 1 1
v -0.1063626 0.2313242 -0.09518772 1 1 1
v 0.09677659 0.2313242 -0.255566 1 1 1
v 0.04188753 0.2313242 -0.1162501 1 1 1
v 0.2631187 0.2072731 -0.03659821 1 1 1
v 0.2052787 0.4145461 0.04593621 1 1 1
v 0.1866891 0.4145461 -0.09887493 1 1 1
v -0.01127943 0 0.1990325 1 1 1
v 0.2052844 0 0.1663588 1 1 1
v -0.1440213 0 0.02482845 1 1 1
v -0.0601993 0 -0.1820494 1 1 1
v 0.2891064 0 -0.04051907 1 1 1
v 0.1563645 0 -0.2147232 1 1 1
v 0.008837849 0.4145461 0.1493818 1 1 1
v -0.09204596 0.4145461 0.01698675 1 1 1
v 0.1734263 0.4145461 0.1245498 1 1 1
v -0.02834126 0.4145461 -0.1402404 1 1 1
v 0.1362472 0.4145461 -0.1650725 1 1 1
v -0.3610184 0.08284169 0.1351105 1 1 1
v -0.2883685 0.08284169 0.3082687 1 1 1
v -0.4034055 0.04142085 0.2571442 1 1 1
v 0.07394522 -4.511946E-17 0.04212971 1 1 1
v -0.1486017 -4.511946E-17 -0.1285253 1 1 1
v 0.04258223 -4.511946E-17 0.3271541 1 1 1
v -0.2113278 -4.511946E-17 0.4415235 1 1 1
v -0.4025117 -4.511946E-17 -0.01415592 1 1 1
v -0.4338747 -4.511946E-17 0.2708685 1 1 1
v -0.1561289 0.08284169 -0.06011945 1 1 1
v 0.01300684 0.08284169 0.06957836 1 1 1
v -0.01082906 0.08284169 0.2861969 1 1 1
v -0.2038006 0.08284169 0.3731176 1 1 1
v -0.3491004 0.08284169 0.02680127 1 1 1

vn 0.7004501 0.4701547 0.5369583
vn -0.7004501 -0.4701547 -0.5369583
vn 0 -1 0
vn 0 1 0
vn -0.777282 0.2019583 -0.5958568
vn 0.1234647 0.2032987 -0.9713012
vn -0.1234647 -0.2032987 0.9713012
vn 0.777282 -0.2019583 0.5958568
vn -0.1234647 0.2032987 0.9713012
vn -0.9059057 0.2032988 0.3714896
vn 0.1234647 -0.2032987 -0.9713012
vn 0.9059057 -0.2032988 -0.3714896
vn 0.9059057 0.2032988 -0.3714896
vn -0.9059057 -0.2032988 0.3714896
vn 0.3807369 0.17619 0.9077425
vn -0.3807369 -0.17619 -0.9077425
vn 0.9754767 0.17619 0.1319177
vn -0.9754767 -0.17619 -0.1319177
vn -0.8925383 0.4151759 -0.1760806
vn -0.6059085 0.4236189 0.6733661
vn 0.6059085 -0.4236189 -0.6733661
vn 0.8925383 -0.4151759 0.1760806
vn -0.3047805 0.423619 -0.8530275
vn 0.3047805 -0.423619 0.8530275
vn 0.8925383 0.4151759 0.1760806
vn 0.3047805 0.423619 0.8530275
vn -0.3047805 -0.423619 -0.8530275
vn -0.8925383 -0.4151759 -0.1760806
vn 0.6059085 0.4236189 -0.6733661
vn -0.6059085 -0.4236189 0.6733661
vn -0.5472085 0.4692164 -0.6931081
vn 0.5472085 -0.4692164 0.6931081
vn 0.6069515 0.2014624 0.7687801
vn 0.9689916 0.2002679 -0.1447339
vn -0.9689916 -0.2002679 0.1447339
vn -0.6069515 -0.2014624 -0.7687801
vn -0.3656387 0.2002679 0.9089561
vn 0.3656387 -0.2002679 -0.9089561
vn -0.6069515 0.2014624 -0.7687801
vn -0.1384901 0.1750113 -0.9747777
vn 0.3656387 0.2002679 -0.9089561
vn 0.1384901 -0.1750113 0.9747777
vn 0.6069515 -0.2014624 0.7687801
vn -0.3656387 -0.2002679 0.9089561
vn -0.9689916 0.2002679 0.1447339
vn 0.9689916 -0.2002679 -0.1447339
vn -0.9160331 0.1750113 -0.3609079
vn 0.9160331 -0.1750113 0.3609079
vn 0.9426036 0.3112181 -0.1210031
vn -0.9426036 -0.3112181 0.1210031
vn 0.3724256 0.1281633 -0.9191699
vn -0.6185427 0.1257605 -0.775622
vn -0.3724256 -0.1281633 0.9191699
vn 0.6185427 -0.1257605 0.775622
vn 0.790527 0.1105101 -0.6023742
vn -0.790527 -0.1105101 0.6023742
vn -0.3724256 0.1281633 0.9191699
vn -0.9839861 0.1257605 0.1263154
vn 0.9839861 -0.1257605 -0.1263154
vn 0.3724256 -0.1281633 -0.9191699
vn 0.9213462 0.1084557 0.3733075
vn 0.6185427 0.1257605 0.775622
vn -0.9213462 -0.1084557 -0.3733075
vn -0.6185427 -0.1257605 -0.775622
vn -0.3990107 0.9015348 0.1674081
vn 0.3990107 -0.9015348 -0.1674081
vn 0.08791419 0.6389953 -0.7641702
vn 0.7148998 0.6278542 -0.3077621
vn 0.08999705 0.6389889 -0.7639331
vn 0.7175295 0.6277867 -0.3017204
vn -0.08999705 -0.6389889 0.7639331
vn -0.7148998 -0.6278542 0.3077621
vn -0.08791419 -0.6389953 0.7641702
vn -0.7175295 -0.6277867 0.3017204
vn 0.6260219 0.6304941 0.4588833
vn -0.08791419 0.6389953 0.7641702
vn 0.6311933 0.6303783 0.4519051
vn -0.08999705 0.6389889 0.7639331
vn -0.6311933 -0.6303783 -0.4519051
vn 0.08791419 -0.6389953 -0.7641702
vn -0.6260219 -0.6304941 -0.4588833
vn 0.08999705 -0.6389889 -0.7639331
vn -0.6260219 0.6304941 -0.4588833
vn -0.6311933 0.6303783 -0.4519051
vn 0.6311933 -0.6303783 0.4519051
vn 0.6260219 -0.6304941 0.4588833
vn -0.7148998 0.6278542 0.3077621
vn -0.7168699 0.6278063 0.3032438
vn -0.4960404 0.5792219 0.646874
vn 0.7148998 -0.6278542 -0.3077621
vn 0.7168699 -0.6278063 -0.3032438
vn 0.4960404 -0.5792219 -0.646874
vn -0.81625 0.5706741 -0.08981712
vn 0.81625 -0.5706741 0.08981712

vt 0.59375 0.4615554
vt 0.59375 0.4178261
vt 0.59375 0.3740968
vt 0.59375 0.3769305
vt 0.59375 0.3397377
vt 0.59375 0.4428282
vt 0.59375 0.3727103
vt 0.59375 0.3025923
vt 0.59375 0.3539136
vt 0.59375 0.3326061
vt 0.59375 0.3752211
vt 0.59375 0.4367602
vt 0.59375 0.3741728
vt 0.59375 0.3115854

usemtl colormap

f 3/2/1 2/1/1 1/1/1
f 1/1/2 2/1/2 3/2/2
f 6/3/3 5/3/3 4/3/3
f 5/3/3 6/3/3 7/3/3
f 5/3/3 7/3/3 8/3/3
f 8/3/3 7/3/3 9/3/3
f 4/3/4 5/3/4 6/3/4
f 7/3/4 6/3/4 5/3/4
f 8/3/4 7/3/4 5/3/4
f 9/3/4 7/3/4 8/3/4
f 12/1/4 11/1/4 10/1/4
f 11/1/4 12/1/4 13/1/4
f 11/1/4 13/1/4 14/1/4
f 14/1/4 13/1/4 1/1/4
f 14/1/4 1/1/4 2/1/4
f 10/1/3 11/1/3 12/1/3
f 13/1/3 12/1/3 11/1/3
f 14/1/3 13/1/3 11/1/3
f 1/1/3 13/1/3 14/1/3
f 2/1/3 1/1/3 14/1/3
f 11/1/6 4/3/5 10/1/5
f 4/3/5 11/1/6 6/3/6
f 10/1/8 4/3/8 11/1/7
f 6/3/7 11/1/7 4/3/8
f 13/1/9 5/3/10 8/3/9
f 5/3/10 13/1/9 12/1/10
f 8/3/11 5/3/12 13/1/11
f 12/1/12 13/1/11 5/3/12
f 11/1/6 7/3/13 6/3/6
f 7/3/13 11/1/6 14/1/13
f 6/3/7 7/3/14 11/1/7
f 14/1/14 11/1/7 7/3/14
f 12/1/10 4/3/5 5/3/10
f 4/3/5 12/1/10 10/1/5
f 5/3/12 4/3/8 12/1/12
f 10/1/8 12/1/12 4/3/8
f 9/3/15 13/1/9 8/3/9
f 13/1/9 9/3/15 1/1/15
f 1/1/15 9/3/15 3/2/15
f 8/3/11 13/1/11 9/3/16
f 1/1/16 9/3/16 13/1/11
f 3/2/16 9/3/16 1/1/16
f 7/3/13 3/2/17 9/3/17
f 3/2/17 7/3/13 2/1/17
f 2/1/17 7/3/13 14/1/13
f 9/3/18 3/2/18 7/3/14
f 2/1/18 7/3/14 3/2/18
f 14/1/14 7/3/14 2/1/18
f 17/4/3 16/4/3 15/4/3
f 16/4/3 17/4/3 18/4/3
f 18/4/3 17/4/3 19/4/3
f 18/4/3 19/4/3 20/4/3
f 15/4/4 16/4/4 17/4/4
f 18/4/4 17/4/4 16/4/4
f 19/4/4 17/4/4 18/4/4
f 20/4/4 19/4/4 18/4/4
f 23/5/4 22/5/4 21/5/4
f 22/5/4 23/5/4 24/5/4
f 22/5/4 24/5/4 25/5/4
f 25/5/4 24/5/4 26/5/4
f 21/5/3 22/5/3 23/5/3
f 24/5/3 23/5/3 22/5/3
f 25/5/3 24/5/3 22/5/3
f 26/5/3 24/5/3 25/5/3
f 19/4/20 26/5/19 20/4/19
f 26/5/19 19/4/20 25/5/20
f 20/4/22 26/5/22 19/4/21
f 25/5/21 19/4/21 26/5/22
f 20/4/19 24/5/23 18/4/23
f 24/5/23 20/4/19 26/5/19
f 18/4/24 24/5/24 20/4/22
f 26/5/22 20/4/22 24/5/24
f 22/5/26 15/4/25 21/5/25
f 15/4/25 22/5/26 17/4/26
f 21/5/28 15/4/28 22/5/27
f 17/4/27 22/5/27 15/4/28
f 24/5/23 16/4/29 18/4/23
f 16/4/29 24/5/23 23/5/29
f 18/4/24 16/4/30 24/5/24
f 23/5/30 24/5/24 16/4/30
f 22/5/26 19/4/20 17/4/26
f 19/4/20 22/5/26 25/5/20
f 17/4/27 19/4/21 22/5/27
f 25/5/21 22/5/27 19/4/21
f 23/5/29 15/4/25 16/4/29
f 15/4/25 23/5/29 21/5/25
f 16/4/30 15/4/28 23/5/30
f 21/5/28 23/5/30 15/4/28
f 29/6/31 28/7/31 27/6/31
f 27/6/32 28/7/32 29/6/32
f 32/8/3 31/8/3 30/8/3
f 31/8/3 32/8/3 33/8/3
f 33/8/3 32/8/3 34/8/3
f 33/8/3 34/8/3 35/8/3
f 30/8/4 31/8/4 32/8/4
f 33/8/4 32/8/4 31/8/4
f 34/8/4 32/8/4 33/8/4
f 35/8/4 34/8/4 33/8/4
f 36/6/4 29/6/4 27/6/4
f 29/6/4 36/6/4 37/6/4
f 37/6/4 36/6/4 38/6/4
f 37/6/4 38/6/4 39/6/4
f 39/6/4 38/6/4 40/6/4
f 27/6/3 29/6/3 36/6/3
f 37/6/3 36/6/3 29/6/3
f 38/6/3 36/6/3 37/6/3
f 39/6/3 38/6/3 37/6/3
f 40/6/3 38/6/3 39/6/3
f 34/8/34 40/6/33 35/8/33
f 40/6/33 34/8/34 39/6/34
f 35/8/36 40/6/36 34/8/35
f 39/6/35 34/8/35 40/6/36
f 35/8/33 38/6/37 33/8/37
f 38/6/37 35/8/33 40/6/33
f 33/8/38 38/6/38 35/8/36
f 40/6/36 35/8/36 38/6/38
f 29/6/40 30/8/39 28/7/39
f 30/8/39 29/6/40 32/8/41
f 32/8/41 29/6/40 37/6/41
f 28/7/43 30/8/43 29/6/42
f 32/8/44 29/6/42 30/8/43
f 37/6/44 29/6/42 32/8/44
f 38/6/37 31/8/45 33/8/37
f 31/8/45 38/6/37 36/6/45
f 33/8/38 31/8/46 38/6/38
f 36/6/46 38/6/38 31/8/46
f 37/6/41 34/8/34 32/8/41
f 34/8/34 37/6/41 39/6/34
f 32/8/44 34/8/35 37/6/44
f 39/6/35 37/6/44 34/8/35
f 36/6/45 30/8/39 31/8/45
f 30/8/39 36/6/45 27/6/47
f 30/8/39 27/6/47 28/7/39
f 31/8/46 30/8/43 36/6/46
f 27/6/48 36/6/46 30/8/43
f 28/7/43 27/6/48 30/8/43
f 43/10/49 42/10/49 41/9/49
f 41/9/50 42/10/50 43/10/50
f 46/11/3 45/11/3 44/11/3
f 45/11/3 46/11/3 47/11/3
f 45/11/3 47/11/3 48/11/3
f 48/11/3 47/11/3 49/11/3
f 44/11/4 45/11/4 46/11/4
f 47/11/4 46/11/4 45/11/4
f 48/11/4 47/11/4 45/11/4
f 49/11/4 47/11/4 48/11/4
f 52/10/4 51/10/4 50/10/4
f 51/10/4 52/10/4 42/10/4
f 51/10/4 42/10/4 53/10/4
f 53/10/4 42/10/4 43/10/4
f 53/10/4 43/10/4 54/10/4
f 50/10/3 51/10/3 52/10/3
f 42/10/3 52/10/3 51/10/3
f 53/10/3 42/10/3 51/10/3
f 43/10/3 42/10/3 53/10/3
f 54/10/3 43/10/3 53/10/3
f 49/11/51 53/10/52 54/10/51
f 53/10/52 49/11/51 47/11/52
f 54/10/53 53/10/54 49/11/53
f 47/11/54 49/11/53 53/10/54
f 49/11/51 41/9/55 48/11/55
f 41/9/55 49/11/51 43/10/55
f 43/10/55 49/11/51 54/10/51
f 48/11/56 41/9/56 49/11/53
f 43/10/56 49/11/53 41/9/56
f 54/10/53 49/11/53 43/10/56
f 51/10/58 44/11/57 50/10/57
f 44/11/57 51/10/58 46/11/58
f 50/10/60 44/11/60 51/10/59
f 46/11/59 51/10/59 44/11/60
f 41/9/61 45/11/62 48/11/61
f 45/11/62 41/9/61 52/10/62
f 52/10/62 41/9/61 42/10/61
f 48/11/63 45/11/64 41/9/63
f 52/10/64 41/9/63 45/11/64
f 42/10/63 41/9/63 52/10/64
f 51/10/58 47/11/52 46/11/58
f 47/11/52 51/10/58 53/10/52
f 46/11/59 47/11/54 51/10/59
f 53/10/54 51/10/59 47/11/54
f 52/10/62 44/11/57 45/11/62
f 44/11/57 52/10/62 50/10/57
f 45/11/64 44/11/60 52/10/64
f 50/10/60 52/10/64 44/11/60
f 57/13/65 56/12/65 55/12/65
f 55/12/66 56/12/66 57/13/66
f 60/14/3 59/14/3 58/14/3
f 59/14/3 60/14/3 61/14/3
f 59/14/3 61/14/3 62/14/3
f 62/14/3 61/14/3 63/14/3
f 58/14/4 59/14/4 60/14/4
f 61/14/4 60/14/4 59/14/4
f 62/14/4 61/14/4 59/14/4
f 63/14/4 61/14/4 62/14/4
f 64/12/69 58/14/68 59/14/67
f 58/14/68 64/12/69 65/12/70
f 59/14/73 58/14/72 64/12/71
f 65/12/74 64/12/71 58/14/72
f 64/12/4 66/12/4 65/12/4
f 66/12/4 64/12/4 67/12/4
f 67/12/4 64/12/4 68/12/4
f 67/12/4 68/12/4 56/12/4
f 56/12/4 68/12/4 55/12/4
f 65/12/3 66/12/3 64/12/3
f 67/12/3 64/12/3 66/12/3
f 68/12/3 64/12/3 67/12/3
f 56/12/3 68/12/3 67/12/3
f 55/12/3 68/12/3 56/12/3
f 66/12/77 61/14/76 60/14/75
f 61/14/76 66/12/77 67/12/78
f 60/14/81 61/14/80 66/12/79
f 67/12/82 66/12/79 61/14/80
f 68/12/84 59/14/67 62/14/83
f 59/14/67 68/12/84 64/12/69
f 62/14/86 59/14/73 68/12/85
f 64/12/71 68/12/85 59/14/73
f 67/12/78 63/14/87 61/14/76
f 63/14/87 67/12/78 57/13/88
f 57/13/88 67/12/78 56/12/89
f 61/14/80 63/14/90 67/12/82
f 57/13/91 67/12/82 63/14/90
f 56/12/92 67/12/82 57/13/91
f 65/12/70 60/14/75 58/14/68
f 60/14/75 65/12/70 66/12/77
f 58/14/72 60/14/81 65/12/74
f 66/12/79 65/12/74 60/14/81
f 63/14/87 68/12/84 62/14/83
f 68/12/84 63/14/87 55/12/93
f 55/12/93 63/14/87 57/13/88
f 62/14/86 68/12/85 63/14/90
f 55/12/94 63/14/90 68/12/85
f 57/13/91 63/14/90 55/12/94

g detail-rocks-large




usemtl colormap

f 3/2/1 2/1/1 1/1/1
f 1/1/2 2/1/2 3/2/2
f 6/3/3 5/3/3 4/3/3
f 5/3/3 6/3/3 7/3/3
f 5/3/3 7/3/3 8/3/3
f 8/3/3 7/3/3 9/3/3
f 4/3/4 5/3/4 6/3/4
f 7/3/4 6/3/4 5/3/4
f 8/3/4 7/3/4 5/3/4
f 9/3/4 7/3/4 8/3/4
f 12/1/4 11/1/4 10/1/4
f 11/1/4 12/1/4 13/1/4
f 11/1/4 13/1/4 14/1/4
f 14/1/4 13/1/4 1/1/4
f 14/1/4 1/1/4 2/1/4
f 10/1/3 11/1/3 12/1/3
f 13/1/3 12/1/3 11/1/3
f 14/1/3 13/1/3 11/1/3
f 1/1/3 13/1/3 14/1/3
f 2/1/3 1/1/3 14/1/3
f 11/1/6 4/3/5 10/1/5
f 4/3/5 11/1/6 6/3/6
f 10/1/8 4/3/8 11/1/7
f 6/3/7 11/1/7 4/3/8
f 13/1/9 5/3/10 8/3/9
f 5/3/10 13/1/9 12/1/10
f 8/3/11 5/3/12 13/1/11
f 12/1/12 13/1/11 5/3/12
f 11/1/6 7/3/13 6/3/6
f 7/3/13 11/1/6 14/1/13
f 6/3/7 7/3/14 11/1/7
f 14/1/14 11/1/7 7/3/14
f 12/1/10 4/3/5 5/3/10
f 4/3/5 12/1/10 10/1/5
f 5/3/12 4/3/8 12/1/12
f 10/1/8 12/1/12 4/3/8
f 9/3/15 13/1/9 8/3/9
f 13/1/9 9/3/15 1/1/15
f 1/1/15 9/3/15 3/2/15
f 8/3/11 13/1/11 9/3/16
f 1/1/16 9/3/16 13/1/11
f 3/2/16 9/3/16 1/1/16
f 7/3/13 3/2/17 9/3/17
f 3/2/17 7/3/13 2/1/17
f 2/1/17 7/3/13 14/1/13
f 9/3/18 3/2/18 7/3/14
f 2/1/18 7/3/14 3/2/18
f 14/1/14 7/3/14 2/1/18
f 17/4/3 16/4/3 15/4/3
f 16/4/3 17/4/3 18/4/3
f 18/4/3 17/4/3 19/4/3
f 18/4/3 19/4/3 20/4/3
f 15/4/4 16/4/4 17/4/4
f 18/4/4 17/4/4 16/4/4
f 19/4/4 17/4/4 18/4/4
f 20/4/4 19/4/4 18/4/4
f 23/5/4 22/5/4 21/5/4
f 22/5/4 23/5/4 24/5/4
f 22/5/4 24/5/4 25/5/4
f 25/5/4 24/5/4 26/5/4
f 21/5/3 22/5/3 23/5/3
f 24/5/3 23/5/3 22/5/3
f 25/5/3 24/5/3 22/5/3
f 26/5/3 24/5/3 25/5/3
f 19/4/20 26/5/19 20/4/19
f 26/5/19 19/4/20 25/5/20
f 20/4/22 26/5/22 19/4/21
f 25/5/21 19/4/21 26/5/22
f 20/4/19 24/5/23 18/4/23
f 24/5/23 20/4/19 26/5/19
f 18/4/24 24/5/24 20/4/22
f 26/5/22 20/4/22 24/5/24
f 22/5/26 15/4/25 21/5/25
f 15/4/25 22/5/26 17/4/26
f 21/5/28 15/4/28 22/5/27
f 17/4/27 22/5/27 15/4/28
f 24/5/23 16/4/29 18/4/23
f 16/4/29 24/5/23 23/5/29
f 18/4/24 16/4/30 24/5/24
f 23/5/30 24/5/24 16/4/30
f 22/5/26 19/4/20 17/4/26
f 19/4/20 22/5/26 25/5/20
f 17/4/27 19/4/21 22/5/27
f 25/5/21 22/5/27 19/4/21
f 23/5/29 15/4/25 16/4/29
f 15/4/25 23/5/29 21/5/25
f 16/4/30 15/4/28 23/5/30
f 21/5/28 23/5/30 15/4/28
f 29/6/31 28/7/31 27/6/31
f 27/6/32 28/7/32 29/6/32
f 32/8/3 31/8/3 30/8/3
f 31/8/3 32/8/3 33/8/3
f 33/8/3 32/8/3 34/8/3
f 33/8/3 34/8/3 35/8/3
f 30/8/4 31/8/4 32/8/4
f 33/8/4 32/8/4 31/8/4
f 34/8/4 32/8/4 33/8/4
f 35/8/4 34/8/4 33/8/4
f 36/6/4 29/6/4 27/6/4
f 29/6/4 36/6/4 37/6/4
f 37/6/4 36/6/4 38/6/4
f 37/6/4 38/6/4 39/6/4
f 39/6/4 38/6/4 40/6/4
f 27/6/3 29/6/3 36/6/3
f 37/6/3 36/6/3 29/6/3
f 38/6/3 36/6/3 37/6/3
f 39/6/3 38/6/3 37/6/3
f 40/6/3 38/6/3 39/6/3
f 34/8/34 40/6/33 35/8/33
f 40/6/33 34/8/34 39/6/34
f 35/8/36 40/6/36 34/8/35
f 39/6/35 34/8/35 40/6/36
f 35/8/33 38/6/37 33/8/37
f 38/6/37 35/8/33 40/6/33
f 33/8/38 38/6/38 35/8/36
f 40/6/36 35/8/36 38/6/38
f 29/6/40 30/8/39 28/7/39
f 30/8/39 29/6/40 32/8/41
f 32/8/41 29/6/40 37/6/41
f 28/7/43 30/8/43 29/6/42
f 32/8/44 29/6/42 30/8/43
f 37/6/44 29/6/42 32/8/44
f 38/6/37 31/8/45 33/8/37
f 31/8/45 38/6/37 36/6/45
f 33/8/38 31/8/46 38/6/38
f 36/6/46 38/6/38 31/8/46
f 37/6/41 34/8/34 32/8/41
f 34/8/34 37/6/41 39/6/34
f 32/8/44 34/8/35 37/6/44
f 39/6/35 37/6/44 34/8/35
f 36/6/45 30/8/39 31/8/45
f 30/8/39 36/6/45 27/6/47
f 30/8/39 27/6/47 28/7/39
f 31/8/46 30/8/43 36/6/46
f 27/6/48 36/6/46 30/8/43
f 28/7/43 27/6/48 30/8/43
f 43/10/49 42/10/49 41/9/49
f 41/9/50 42/10/50 43/10/50
f 46/11/3 45/11/3 44/11/3
f 45/11/3 46/11/3 47/11/3
f 45/11/3 47/11/3 48/11/3
f 48/11/3 47/11/3 49/11/3
f 44/11/4 45/11/4 46/11/4
f 47/11/4 46/11/4 45/11/4
f 48/11/4 47/11/4 45/11/4
f 49/11/4 47/11/4 48/11/4
f 52/10/4 51/10/4 50/10/4
f 51/10/4 52/10/4 42/10/4
f 51/10/4 42/10/4 53/10/4
f 53/10/4 42/10/4 43/10/4
f 53/10/4 43/10/4 54/10/4
f 50/10/3 51/10/3 52/10/3
f 42/10/3 52/10/3 51/10/3
f 53/10/3 42/10/3 51/10/3
f 43/10/3 42/10/3 53/10/3
f 54/10/3 43/10/3 53/10/3
f 49/11/51 53/10/52 54/10/51
f 53/10/52 49/11/51 47/11/52
f 54/10/53 53/10/54 49/11/53
f 47/11/54 49/11/53 53/10/54
f 49/11/51 41/9/55 48/11/55
f 41/9/55 49/11/51 43/10/55
f 43/10/55 49/11/51 54/10/51
f 48/11/56 41/9/56 49/11/53
f 43/10/56 49/11/53 41/9/56
f 54/10/53 49/11/53 43/10/56
f 51/10/58 44/11/57 50/10/57
f 44/11/57 51/10/58 46/11/58
f 50/10/60 44/11/60 51/10/59
f 46/11/59 51/10/59 44/11/60
f 41/9/61 45/11/62 48/11/61
f 45/11/62 41/9/61 52/10/62
f 52/10/62 41/9/61 42/10/61
f 48/11/63 45/11/64 41/9/63
f 52/10/64 41/9/63 45/11/64
f 42/10/63 41/9/63 52/10/64
f 51/10/58 47/11/52 46/11/58
f 47/11/52 51/10/58 53/10/52
f 46/11/59 47/11/54 51/10/59
f 53/10/54 51/10/59 47/11/54
f 52/10/62 44/11/57 45/11/62
f 44/11/57 52/10/62 50/10/57
f 45/11/64 44/11/60 52/10/64
f 50/10/60 52/10/64 44/11/60
f 57/13/65 56/12/65 55/12/65
f 55/12/66 56/12/66 57/13/66
f 60/14/3 59/14/3 58/14/3
f 59/14/3 60/14/3 61/14/3
f 59/14/3 61/14/3 62/14/3
f 62/14/3 61/14/3 63/14/3
f 58/14/4 59/14/4 60/14/4
f 61/14/4 60/14/4 59/14/4
f 62/14/4 61/14/4 59/14/4
f 63/14/4 61/14/4 62/14/4
f 64/12/69 58/14/68 59/14/67
f 58/14/68 64/12/69 65/12/70
f 59/14/73 58/14/72 64/12/71
f 65/12/74 64/12/71 58/14/72
f 64/12/4 66/12/4 65/12/4
f 66/12/4 64/12/4 67/12/4
f 67/12/4 64/12/4 68/12/4
f 67/12/4 68/12/4 56/12/4
f 56/12/4 68/12/4 55/12/4
f 65/12/3 66/12/3 64/12/3
f 67/12/3 64/12/3 66/12/3
f 68/12/3 64/12/3 67/12/3
f 56/12/3 68/12/3 67/12/3
f 55/12/3 68/12/3 56/12/3
f 66/12/77 61/14/76 60/14/75
f 61/14/76 66/12/77 67/12/78
f 60/14/81 61/14/80 66/12/79
f 67/12/82 66/12/79 61/14/80
f 68/12/84 59/14/67 62/14/83
f 59/14/67 68/12/84 64/12/69
f 62/14/86 59/14/73 68/12/85
f 64/12/71 68/12/85 59/14/73
f 67/12/78 63/14/87 61/14/76
f 63/14/87 67/12/78 57/13/88
f 57/13/88 67/12/78 56/12/89
f 61/14/80 63/14/90 67/12/82
f 57/13/91 67/12/82 63/14/90
f 56/12/92 67/12/82 57/13/91
f 65/12/70 60/14/75 58/14/68
f 60/14/75 65/12/70 66/12/77
f 58/14/72 60/14/81 65/12/74
f 66/12/79 65/12/74 60/14/81
f 63/14/87 68/12/84 62/14/83
f 68/12/84 63/14/87 55/12/93
f 55/12/93 63/14/87 57/13/88
f 62/14/86 68/12/85 63/14/90
f 55/12/94 63/14/90 68/12/85
f 57/13/91 63/14/90 55/12/94

