# Created by Kenney (www.kenney.nl)

mtllib enemy-ufo-beam.mtl

g enemy-ufo-beam

v 0.4 0 0 1 1 1
v 0.2828427 0 -0.2828427 1 1 1
v 0.2828427 0 0.2828427 1 1 1
v 0 0 0.4 1 1 1
v 0 0 -0.4 1 1 1
v -0.2828427 0 0.2828427 1 1 1
v -0.2828427 0 -0.2828427 1 1 1
v -0.4 0 0 1 1 1
v 0.2 1 -2.165734E-15 1 1 1
v 0.1414214 1 0.1414214 1 1 1
v 0.1414214 1 -0.1414214 1 1 1
v 1.443823E-15 1 -0.2 1 1 1
v 1.443823E-15 1 0.2 1 1 1
v -0.1414214 1 -0.1414214 1 1 1
v -0.1414214 1 0.1414214 1 1 1
v -0.2 1 -2.165734E-15 1 1 1

vn 0 -1 0
vn 0 1 0
vn 0.6933753 0.1961161 -0.6933753
vn 0.9805807 0.1961161 0
vn -0.6933753 -0.1961161 0.6933753
vn -0.9805807 -0.1961161 0
vn -0.9805807 0.1961161 0
vn -0.6933753 0.1961161 0.6933753
vn 0.9805807 -0.1961161 0
vn 0.6933753 -0.1961161 -0.6933753
vn 0.6933753 0.1961161 0.6933753
vn 0 0.1961161 0.9805807
vn -0.6933753 -0.1961161 -0.6933753
vn 0 -0.1961161 -0.9805807
vn 0 0.1961161 -0.9805807
vn 0 -0.1961161 0.9805807
vn -0.6933753 0.1961161 -0.6933753
vn 0.6933753 -0.1961161 0.6933753

vt 0.21875 0.025
vt 0.21875 0.225

usemtl colormap

f 3/1/1 2/1/1 1/1/1
f 2/1/1 3/1/1 4/1/1
f 2/1/1 4/1/1 5/1/1
f 5/1/1 4/1/1 6/1/1
f 5/1/1 6/1/1 7/1/1
f 7/1/1 6/1/1 8/1/1
f 1/1/2 2/1/2 3/1/2
f 4/1/2 3/1/2 2/1/2
f 5/1/2 4/1/2 2/1/2
f 6/1/2 4/1/2 5/1/2
f 7/1/2 6/1/2 5/1/2
f 8/1/2 6/1/2 7/1/2
f 11/2/2 10/2/2 9/2/2
f 10/2/2 11/2/2 12/2/2
f 10/2/2 12/2/2 13/2/2
f 13/2/2 12/2/2 14/2/2
f 13/2/2 14/2/2 15/2/2
f 15/2/2 14/2/2 16/2/2
f 9/2/1 10/2/1 11/2/1
f 12/2/1 11/2/1 10/2/1
f 13/2/1 12/2/1 10/2/1
f 14/2/1 12/2/1 13/2/1
f 15/2/1 14/2/1 13/2/1
f 16/2/1 14/2/1 15/2/1
f 11/2/3 1/1/4 2/1/3
f 1/1/4 11/2/3 9/2/4
f 2/1/5 1/1/6 11/2/5
f 9/2/6 11/2/5 1/1/6
f 8/1/7 15/2/8 16/2/7
f 15/2/8 8/1/7 6/1/8
f 16/2/9 15/2/10 8/1/9
f 6/1/10 8/1/9 15/2/10
f 10/2/11 4/1/12 3/1/11
f 4/1/12 10/2/11 13/2/12
f 3/1/13 4/1/14 10/2/13
f 13/2/14 10/2/13 4/1/14
f 12/2/15 2/1/3 5/1/15
f 2/1/3 12/2/15 11/2/3
f 5/1/16 2/1/5 12/2/16
f 11/2/5 12/2/16 2/1/5
f 14/2/17 5/1/15 7/1/17
f 5/1/15 14/2/17 12/2/15
f 7/1/18 5/1/16 14/2/18
f 12/2/16 14/2/18 5/1/16
f 8/1/7 14/2/17 7/1/17
f 14/2/17 8/1/7 16/2/7
f 7/1/18 14/2/18 8/1/9
f 16/2/9 8/1/9 14/2/18
f 13/2/12 6/1/8 4/1/12
f 6/1/8 13/2/12 15/2/8
f 4/1/14 6/1/10 13/2/14
f 15/2/10 13/2/14 6/1/10
f 10/2/11 1/1/4 9/2/4
f 1/1/4 10/2/11 3/1/11
f 9/2/6 1/1/6 10/2/13
f 3/1/13 10/2/13 1/1/6

g enemy-ufo-beam




usemtl colormap

f 3/1/1 2/1/1 1/1/1
f 2/1/1 3/1/1 4/1/1
f 2/1/1 4/1/1 5/1/1
f 5/1/1 4/1/1 6/1/1
f 5/1/1 6/1/1 7/1/1
f 7/1/1 6/1/1 8/1/1
f 1/1/2 2/1/2 3/1/2
f 4/1/2 3/1/2 2/1/2
f 5/1/2 4/1/2 2/1/2
f 6/1/2 4/1/2 5/1/2
f 7/1/2 6/1/2 5/1/2
f 8/1/2 6/1/2 7/1/2
f 11/2/2 10/2/2 9/2/2
f 10/2/2 11/2/2 12/2/2
f 10/2/2 12/2/2 13/2/2
f 13/2/2 12/2/2 14/2/2
f 13/2/2 14/2/2 15/2/2
f 15/2/2 14/2/2 16/2/2
f 9/2/1 10/2/1 11/2/1
f 12/2/1 11/2/1 10/2/1
f 13/2/1 12/2/1 10/2/1
f 14/2/1 12/2/1 13/2/1
f 15/2/1 14/2/1 13/2/1
f 16/2/1 14/2/1 15/2/1
f 11/2/3 1/1/4 2/1/3
f 1/1/4 11/2/3 9/2/4
f 2/1/5 1/1/6 11/2/5
f 9/2/6 11/2/5 1/1/6
f 8/1/7 15/2/8 16/2/7
f 15/2/8 8/1/7 6/1/8
f 16/2/9 15/2/10 8/1/9
f 6/1/10 8/1/9 15/2/10
f 10/2/11 4/1/12 3/1/11
f 4/1/12 10/2/11 13/2/12
f 3/1/13 4/1/14 10/2/13
f 13/2/14 10/2/13 4/1/14
f 12/2/15 2/1/3 5/1/15
f 2/1/3 12/2/15 11/2/3
f 5/1/16 2/1/5 12/2/16
f 11/2/5 12/2/16 2/1/5
f 14/2/17 5/1/15 7/1/17
f 5/1/15 14/2/17 12/2/15
f 7/1/18 5/1/16 14/2/18
f 12/2/16 14/2/18 5/1/16
f 8/1/7 14/2/17 7/1/17
f 14/2/17 8/1/7 16/2/7
f 7/1/18 14/2/18 8/1/9
f 16/2/9 8/1/9 14/2/18
f 13/2/12 6/1/8 4/1/12
f 6/1/8 13/2/12 15/2/8
f 4/1/14 6/1/10 13/2/14
f 15/2/10 13/2/14 6/1/10
f 10/2/11 1/1/4 9/2/4
f 1/1/4 10/2/11 3/1/11
f 9/2/6 1/1/6 10/2/13
f 3/1/13 10/2/13 1/1/6

