# Created by Kenney (www.kenney.nl)

mtllib selection-a.mtl

g selection-a

v -0.5 0 0.1875 1 1 1
v -0.5 0.05 0.1875 1 1 1
v -0.5 0 0.4 1 1 1
v -0.5 0.05 0.4 1 1 1
v -0.375 0.05 0.1875 1 1 1
v -0.375 0 0.1875 1 1 1
v -0.375 0.05 0.375 1 1 1
v -0.375 0 0.375 1 1 1
v -0.1875 0 0.375 1 1 1
v -0.1875 0.05 0.375 1 1 1
v -0.375 0.05 -0.375 1 1 1
v -0.375 0 -0.375 1 1 1
v -0.375 0.05 -0.1875 1 1 1
v -0.375 0 -0.1875 1 1 1
v -0.5 0 -0.1875 1 1 1
v -0.5 0.05 -0.1875 1 1 1
v -0.1875 0 -0.375 1 1 1
v -0.1875 0.05 -0.375 1 1 1
v -0.1875 0.05 -0.5 1 1 1
v -0.1875 0 -0.5 1 1 1
v -0.4 0 -0.5 1 1 1
v -0.4 0.05 -0.5 1 1 1
v 0.375 0 -0.375 1 1 1
v 0.375 0.05 -0.375 1 1 1
v 0.375 0 -0.1875 1 1 1
v 0.375 0.05 -0.1875 1 1 1
v 0.5 0 -0.1875 1 1 1
v 0.5 0.05 -0.1875 1 1 1
v 0.5 0.05 -0.4 1 1 1
v 0.5 0 -0.4 1 1 1
v 0.1875 0 -0.5 1 1 1
v 0.1875 0.05 -0.5 1 1 1
v 0.1875 0 -0.375 1 1 1
v 0.1875 0.05 -0.375 1 1 1
v -0.1875 0 0.5 1 1 1
v -0.4 0 0.5 1 1 1
v -0.1875 0.05 0.5 1 1 1
v -0.4 0.05 0.5 1 1 1
v 0.4 0 -0.5 1 1 1
v 0.4 0.05 -0.5 1 1 1
v 0.5 0.05 0.1875 1 1 1
v 0.5 0 0.1875 1 1 1
v 0.5 0.05 0.4 1 1 1
v 0.5 0 0.4 1 1 1
v 0.375 0 0.1875 1 1 1
v 0.4 0 0.5 1 1 1
v 0.375 0 0.375 1 1 1
v 0.1875 0 0.5 1 1 1
v 0.1875 0 0.375 1 1 1
v -0.5 0 -0.4 1 1 1
v 0.4 0.05 0.5 1 1 1
v -0.5 0.05 -0.4 1 1 1
v 0.375 0.05 0.1875 1 1 1
v 0.375 0.05 0.375 1 1 1
v 0.1875 0.05 0.5 1 1 1
v 0.1875 0.05 0.375 1 1 1

vn -0.7071068 0 -0.7071068
vn -0.9238795 0 0.3826834
vn 0.9238795 0 -0.3826834
vn 0.7071068 0 0.7071068
vn 0.7071068 0 -0.7071068
vn -0.7071068 0 0.7071068
vn -0.3826834 0 -0.9238795
vn 0.3826834 0 0.9238795
vn 0.9238795 0 -0.3826834
vn -0.9238795 0 0.3826834
vn -0.3826834 0 0.9238795
vn 0.3826834 0 -0.9238795
vn 0 1 0
vn 0 -1 0
vn 0.9238795 0 0.3826834
vn -0.9238795 0 -0.3826834
vn 0.3826834 0 0.9238795
vn -0.3826834 0 -0.9238795

vt 0.71875 0.325
vt 0.71875 0.425

usemtl colormap

f 3/1/2 2/2/1 1/1/1
f 2/2/1 3/1/2 4/2/2
f 1/1/4 2/2/4 3/1/3
f 4/2/3 3/1/3 2/2/4
f 7/2/5 6/1/5 5/2/5
f 6/1/5 7/2/5 8/1/5
f 5/2/6 6/1/6 7/2/6
f 8/1/6 7/2/6 6/1/6
f 2/2/1 6/1/5 1/1/1
f 6/1/5 2/2/1 5/2/5
f 1/1/4 6/1/6 2/2/4
f 5/2/6 2/2/4 6/1/6
f 7/2/5 9/1/5 8/1/5
f 9/1/5 7/2/5 10/2/5
f 8/1/6 9/1/6 7/2/6
f 10/2/6 7/2/6 9/1/6
f 13/2/4 12/1/4 11/2/4
f 12/1/4 13/2/4 14/1/4
f 11/2/1 12/1/1 13/2/1
f 14/1/1 13/2/1 12/1/1
f 13/2/4 15/1/6 14/1/4
f 15/1/6 13/2/4 16/2/6
f 14/1/1 15/1/5 13/2/1
f 16/2/5 13/2/1 15/1/5
f 18/2/4 12/1/4 17/1/4
f 12/1/4 18/2/4 11/2/4
f 17/1/1 12/1/1 18/2/1
f 11/2/1 18/2/1 12/1/1
f 18/2/4 20/1/5 19/2/5
f 20/1/5 18/2/4 17/1/4
f 19/2/6 20/1/6 18/2/1
f 17/1/1 18/2/1 20/1/6
f 22/2/7 20/1/5 21/1/7
f 20/1/5 22/2/7 19/2/5
f 21/1/8 20/1/6 22/2/8
f 19/2/6 22/2/8 20/1/6
f 25/1/6 24/2/6 23/1/6
f 24/2/6 25/1/6 26/2/6
f 23/1/5 24/2/5 25/1/5
f 26/2/5 25/1/5 24/2/5
f 28/2/4 25/1/6 27/1/4
f 25/1/6 28/2/4 26/2/6
f 27/1/1 25/1/5 28/2/1
f 26/2/5 28/2/1 25/1/5
f 28/2/4 30/1/9 29/2/9
f 30/1/9 28/2/4 27/1/4
f 29/2/10 30/1/10 28/2/1
f 27/1/1 28/2/1 30/1/10
f 33/1/6 32/2/1 31/1/1
f 32/2/1 33/1/6 34/2/6
f 31/1/4 32/2/4 33/1/5
f 34/2/5 33/1/5 32/2/4
f 24/2/6 33/1/6 23/1/6
f 33/1/6 24/2/6 34/2/6
f 23/1/5 33/1/5 24/2/5
f 34/2/5 24/2/5 33/1/5
f 37/2/4 36/1/11 35/1/4
f 36/1/11 37/2/4 38/2/11
f 35/1/1 36/1/12 37/2/1
f 38/2/12 37/2/1 36/1/12
f 32/2/1 39/1/12 31/1/1
f 39/1/12 32/2/1 40/2/12
f 31/1/4 39/1/11 32/2/4
f 40/2/11 32/2/4 39/1/11
f 2/2/13 7/2/13 5/2/13
f 7/2/13 2/2/13 38/2/13
f 38/2/13 2/2/13 4/2/13
f 37/2/13 7/2/13 38/2/13
f 7/2/13 37/2/13 10/2/13
f 5/2/14 7/2/14 2/2/14
f 38/2/14 2/2/14 7/2/14
f 4/2/14 2/2/14 38/2/14
f 38/2/14 7/2/14 37/2/14
f 10/2/14 37/2/14 7/2/14
f 27/1/14 39/1/14 30/1/14
f 39/1/14 27/1/14 25/1/14
f 39/1/14 25/1/14 23/1/14
f 23/1/14 31/1/14 39/1/14
f 31/1/14 23/1/14 33/1/14
f 30/1/13 39/1/13 27/1/13
f 25/1/13 27/1/13 39/1/13
f 23/1/13 25/1/13 39/1/13
f 39/1/13 31/1/13 23/1/13
f 33/1/13 23/1/13 31/1/13
f 43/2/15 42/1/5 41/2/5
f 42/1/5 43/2/15 44/1/15
f 41/2/6 42/1/6 43/2/16
f 44/1/16 43/2/16 42/1/6
f 44/1/14 45/1/14 42/1/14
f 45/1/14 44/1/14 46/1/14
f 45/1/14 46/1/14 47/1/14
f 47/1/14 46/1/14 48/1/14
f 47/1/14 48/1/14 49/1/14
f 42/1/13 45/1/13 44/1/13
f 46/1/13 44/1/13 45/1/13
f 47/1/13 46/1/13 45/1/13
f 48/1/13 46/1/13 47/1/13
f 49/1/13 48/1/13 47/1/13
f 36/1/11 4/2/2 3/1/2
f 4/2/2 36/1/11 38/2/11
f 3/1/3 4/2/3 36/1/12
f 38/2/12 36/1/12 4/2/3
f 15/1/14 12/1/14 14/1/14
f 12/1/14 15/1/14 21/1/14
f 21/1/14 15/1/14 50/1/14
f 20/1/14 12/1/14 21/1/14
f 12/1/14 20/1/14 17/1/14
f 14/1/13 12/1/13 15/1/13
f 21/1/13 15/1/13 12/1/13
f 50/1/13 15/1/13 21/1/13
f 21/1/13 12/1/13 20/1/13
f 17/1/13 20/1/13 12/1/13
f 35/1/14 8/1/14 9/1/14
f 8/1/14 35/1/14 36/1/14
f 1/1/14 8/1/14 36/1/14
f 1/1/14 36/1/14 3/1/14
f 8/1/14 1/1/14 6/1/14
f 9/1/13 8/1/13 35/1/13
f 36/1/13 35/1/13 8/1/13
f 36/1/13 8/1/13 1/1/13
f 6/1/13 1/1/13 8/1/13
f 3/1/13 36/1/13 1/1/13
f 24/2/13 32/2/13 34/2/13
f 32/2/13 24/2/13 40/2/13
f 26/2/13 40/2/13 24/2/13
f 28/2/13 40/2/13 26/2/13
f 40/2/13 28/2/13 29/2/13
f 34/2/14 32/2/14 24/2/14
f 40/2/14 24/2/14 32/2/14
f 24/2/14 40/2/14 26/2/14
f 26/2/14 40/2/14 28/2/14
f 29/2/14 28/2/14 40/2/14
f 43/2/15 46/1/17 44/1/15
f 46/1/17 43/2/15 51/2/17
f 44/1/16 46/1/18 43/2/16
f 51/2/18 43/2/16 46/1/18
f 29/2/9 39/1/12 40/2/12
f 39/1/12 29/2/9 30/1/9
f 40/2/11 39/1/11 29/2/10
f 30/1/10 29/2/10 39/1/11
f 50/1/16 22/2/7 21/1/7
f 22/2/7 50/1/16 52/2/16
f 21/1/8 22/2/8 50/1/15
f 52/2/15 50/1/15 22/2/8
f 53/2/13 43/2/13 41/2/13
f 43/2/13 53/2/13 51/2/13
f 51/2/13 53/2/13 54/2/13
f 51/2/13 54/2/13 55/2/13
f 55/2/13 54/2/13 56/2/13
f 41/2/14 43/2/14 53/2/14
f 51/2/14 53/2/14 43/2/14
f 54/2/14 53/2/14 51/2/14
f 55/2/14 54/2/14 51/2/14
f 56/2/14 54/2/14 55/2/14
f 22/2/13 18/2/13 19/2/13
f 18/2/13 22/2/13 11/2/13
f 11/2/13 22/2/13 13/2/13
f 13/2/13 22/2/13 16/2/13
f 16/2/13 22/2/13 52/2/13
f 19/2/14 18/2/14 22/2/14
f 11/2/14 22/2/14 18/2/14
f 13/2/14 22/2/14 11/2/14
f 16/2/14 22/2/14 13/2/14
f 52/2/14 22/2/14 16/2/14
f 15/1/6 52/2/16 50/1/16
f 52/2/16 15/1/6 16/2/6
f 50/1/15 52/2/15 15/1/5
f 16/2/5 15/1/5 52/2/15
f 48/1/6 56/2/1 49/1/1
f 56/2/1 48/1/6 55/2/6
f 49/1/4 56/2/4 48/1/5
f 55/2/5 48/1/5 56/2/4
f 56/2/1 47/1/1 49/1/1
f 47/1/1 56/2/1 54/2/1
f 49/1/4 47/1/4 56/2/4
f 54/2/4 56/2/4 47/1/4
f 53/2/1 42/1/5 45/1/1
f 42/1/5 53/2/1 41/2/5
f 45/1/4 42/1/6 53/2/4
f 41/2/6 53/2/4 42/1/6
f 47/1/1 53/2/1 45/1/1
f 53/2/1 47/1/1 54/2/1
f 45/1/4 53/2/4 47/1/4
f 54/2/4 47/1/4 53/2/4
f 51/2/17 48/1/6 46/1/17
f 48/1/6 51/2/17 55/2/6
f 46/1/18 48/1/5 51/2/18
f 55/2/5 51/2/18 48/1/5
f 37/2/4 9/1/5 10/2/5
f 9/1/5 37/2/4 35/1/4
f 10/2/6 9/1/6 37/2/1
f 35/1/1 37/2/1 9/1/6

g selection-a




usemtl colormap

f 3/1/2 2/2/1 1/1/1
f 2/2/1 3/1/2 4/2/2
f 1/1/4 2/2/4 3/1/3
f 4/2/3 3/1/3 2/2/4
f 7/2/5 6/1/5 5/2/5
f 6/1/5 7/2/5 8/1/5
f 5/2/6 6/1/6 7/2/6
f 8/1/6 7/2/6 6/1/6
f 2/2/1 6/1/5 1/1/1
f 6/1/5 2/2/1 5/2/5
f 1/1/4 6/1/6 2/2/4
f 5/2/6 2/2/4 6/1/6
f 7/2/5 9/1/5 8/1/5
f 9/1/5 7/2/5 10/2/5
f 8/1/6 9/1/6 7/2/6
f 10/2/6 7/2/6 9/1/6
f 13/2/4 12/1/4 11/2/4
f 12/1/4 13/2/4 14/1/4
f 11/2/1 12/1/1 13/2/1
f 14/1/1 13/2/1 12/1/1
f 13/2/4 15/1/6 14/1/4
f 15/1/6 13/2/4 16/2/6
f 14/1/1 15/1/5 13/2/1
f 16/2/5 13/2/1 15/1/5
f 18/2/4 12/1/4 17/1/4
f 12/1/4 18/2/4 11/2/4
f 17/1/1 12/1/1 18/2/1
f 11/2/1 18/2/1 12/1/1
f 18/2/4 20/1/5 19/2/5
f 20/1/5 18/2/4 17/1/4
f 19/2/6 20/1/6 18/2/1
f 17/1/1 18/2/1 20/1/6
f 22/2/7 20/1/5 21/1/7
f 20/1/5 22/2/7 19/2/5
f 21/1/8 20/1/6 22/2/8
f 19/2/6 22/2/8 20/1/6
f 25/1/6 24/2/6 23/1/6
f 24/2/6 25/1/6 26/2/6
f 23/1/5 24/2/5 25/1/5
f 26/2/5 25/1/5 24/2/5
f 28/2/4 25/1/6 27/1/4
f 25/1/6 28/2/4 26/2/6
f 27/1/1 25/1/5 28/2/1
f 26/2/5 28/2/1 25/1/5
f 28/2/4 30/1/9 29/2/9
f 30/1/9 28/2/4 27/1/4
f 29/2/10 30/1/10 28/2/1
f 27/1/1 28/2/1 30/1/10
f 33/1/6 32/2/1 31/1/1
f 32/2/1 33/1/6 34/2/6
f 31/1/4 32/2/4 33/1/5
f 34/2/5 33/1/5 32/2/4
f 24/2/6 33/1/6 23/1/6
f 33/1/6 24/2/6 34/2/6
f 23/1/5 33/1/5 24/2/5
f 34/2/5 24/2/5 33/1/5
f 37/2/4 36/1/11 35/1/4
f 36/1/11 37/2/4 38/2/11
f 35/1/1 36/1/12 37/2/1
f 38/2/12 37/2/1 36/1/12
f 32/2/1 39/1/12 31/1/1
f 39/1/12 32/2/1 40/2/12
f 31/1/4 39/1/11 32/2/4
f 40/2/11 32/2/4 39/1/11
f 2/2/13 7/2/13 5/2/13
f 7/2/13 2/2/13 38/2/13
f 38/2/13 2/2/13 4/2/13
f 37/2/13 7/2/13 38/2/13
f 7/2/13 37/2/13 10/2/13
f 5/2/14 7/2/14 2/2/14
f 38/2/14 2/2/14 7/2/14
f 4/2/14 2/2/14 38/2/14
f 38/2/14 7/2/14 37/2/14
f 10/2/14 37/2/14 7/2/14
f 27/1/14 39/1/14 30/1/14
f 39/1/14 27/1/14 25/1/14
f 39/1/14 25/1/14 23/1/14
f 23/1/14 31/1/14 39/1/14
f 31/1/14 23/1/14 33/1/14
f 30/1/13 39/1/13 27/1/13
f 25/1/13 27/1/13 39/1/13
f 23/1/13 25/1/13 39/1/13
f 39/1/13 31/1/13 23/1/13
f 33/1/13 23/1/13 31/1/13
f 43/2/15 42/1/5 41/2/5
f 42/1/5 43/2/15 44/1/15
f 41/2/6 42/1/6 43/2/16
f 44/1/16 43/2/16 42/1/6
f 44/1/14 45/1/14 42/1/14
f 45/1/14 44/1/14 46/1/14
f 45/1/14 46/1/14 47/1/14
f 47/1/14 46/1/14 48/1/14
f 47/1/14 48/1/14 49/1/14
f 42/1/13 45/1/13 44/1/13
f 46/1/13 44/1/13 45/1/13
f 47/1/13 46/1/13 45/1/13
f 48/1/13 46/1/13 47/1/13
f 49/1/13 48/1/13 47/1/13
f 36/1/11 4/2/2 3/1/2
f 4/2/2 36/1/11 38/2/11
f 3/1/3 4/2/3 36/1/12
f 38/2/12 36/1/12 4/2/3
f 15/1/14 12/1/14 14/1/14
f 12/1/14 15/1/14 21/1/14
f 21/1/14 15/1/14 50/1/14
f 20/1/14 12/1/14 21/1/14
f 12/1/14 20/1/14 17/1/14
f 14/1/13 12/1/13 15/1/13
f 21/1/13 15/1/13 12/1/13
f 50/1/13 15/1/13 21/1/13
f 21/1/13 12/1/13 20/1/13
f 17/1/13 20/1/13 12/1/13
f 35/1/14 8/1/14 9/1/14
f 8/1/14 35/1/14 36/1/14
f 1/1/14 8/1/14 36/1/14
f 1/1/14 36/1/14 3/1/14
f 8/1/14 1/1/14 6/1/14
f 9/1/13 8/1/13 35/1/13
f 36/1/13 35/1/13 8/1/13
f 36/1/13 8/1/13 1/1/13
f 6/1/13 1/1/13 8/1/13
f 3/1/13 36/1/13 1/1/13
f 24/2/13 32/2/13 34/2/13
f 32/2/13 24/2/13 40/2/13
f 26/2/13 40/2/13 24/2/13
f 28/2/13 40/2/13 26/2/13
f 40/2/13 28/2/13 29/2/13
f 34/2/14 32/2/14 24/2/14
f 40/2/14 24/2/14 32/2/14
f 24/2/14 40/2/14 26/2/14
f 26/2/14 40/2/14 28/2/14
f 29/2/14 28/2/14 40/2/14
f 43/2/15 46/1/17 44/1/15
f 46/1/17 43/2/15 51/2/17
f 44/1/16 46/1/18 43/2/16
f 51/2/18 43/2/16 46/1/18
f 29/2/9 39/1/12 40/2/12
f 39/1/12 29/2/9 30/1/9
f 40/2/11 39/1/11 29/2/10
f 30/1/10 29/2/10 39/1/11
f 50/1/16 22/2/7 21/1/7
f 22/2/7 50/1/16 52/2/16
f 21/1/8 22/2/8 50/1/15
f 52/2/15 50/1/15 22/2/8
f 53/2/13 43/2/13 41/2/13
f 43/2/13 53/2/13 51/2/13
f 51/2/13 53/2/13 54/2/13
f 51/2/13 54/2/13 55/2/13
f 55/2/13 54/2/13 56/2/13
f 41/2/14 43/2/14 53/2/14
f 51/2/14 53/2/14 43/2/14
f 54/2/14 53/2/14 51/2/14
f 55/2/14 54/2/14 51/2/14
f 56/2/14 54/2/14 55/2/14
f 22/2/13 18/2/13 19/2/13
f 18/2/13 22/2/13 11/2/13
f 11/2/13 22/2/13 13/2/13
f 13/2/13 22/2/13 16/2/13
f 16/2/13 22/2/13 52/2/13
f 19/2/14 18/2/14 22/2/14
f 11/2/14 22/2/14 18/2/14
f 13/2/14 22/2/14 11/2/14
f 16/2/14 22/2/14 13/2/14
f 52/2/14 22/2/14 16/2/14
f 15/1/6 52/2/16 50/1/16
f 52/2/16 15/1/6 16/2/6
f 50/1/15 52/2/15 15/1/5
f 16/2/5 15/1/5 52/2/15
f 48/1/6 56/2/1 49/1/1
f 56/2/1 48/1/6 55/2/6
f 49/1/4 56/2/4 48/1/5
f 55/2/5 48/1/5 56/2/4
f 56/2/1 47/1/1 49/1/1
f 47/1/1 56/2/1 54/2/1
f 49/1/4 47/1/4 56/2/4
f 54/2/4 56/2/4 47/1/4
f 53/2/1 42/1/5 45/1/1
f 42/1/5 53/2/1 41/2/5
f 45/1/4 42/1/6 53/2/4
f 41/2/6 53/2/4 42/1/6
f 47/1/1 53/2/1 45/1/1
f 53/2/1 47/1/1 54/2/1
f 45/1/4 53/2/4 47/1/4
f 54/2/4 47/1/4 53/2/4
f 51/2/17 48/1/6 46/1/17
f 48/1/6 51/2/17 55/2/6
f 46/1/18 48/1/5 51/2/18
f 55/2/5 51/2/18 48/1/5
f 37/2/4 9/1/5 10/2/5
f 9/1/5 37/2/4 35/1/4
f 10/2/6 9/1/6 37/2/1
f 35/1/1 37/2/1 9/1/6

