# Created by Kenney (www.kenney.nl)

mtllib snow-detail-dirt-large.mtl

g snow-detail-dirt-large

v 0.4444546 -5.009267E-33 -0.1913244 1 1 1
v 0.2619016 -5.009267E-33 -0.3823069 1 1 1
v 0.3820565 -5.009267E-33 0.06539793 1 1 1
v 0.1371054 -5.009267E-33 0.1311378 1 1 1
v 0.01695049 -5.009267E-33 -0.316567 1 1 1
v -0.04544765 -5.009267E-33 -0.05984462 1 1 1
v 0.01334065 0.1321153 -0.0756222 1 1 1
v 0.1520809 0.1321153 0.06952445 1 1 1
v 0.06076322 0.1321153 -0.2707312 1 1 1
v 0.3856663 0.1321153 -0.1755469 1 1 1
v 0.3382438 0.1321153 0.01956214 1 1 1
v 0.2469261 0.1321153 -0.3206935 1 1 1
v 0.2318086 0.2072731 -0.08669502 1 1 1
v 0.2024383 0.4145461 0.01356061 1 1 1
v 0.1396446 0.4145461 -0.1230258 1 1 1
v 0.04392006 5.009267E-33 0.2353083 1 1 1
v 0.2399431 5.009267E-33 0.1322037 1 1 1
v -0.1367147 5.009267E-33 0.1071417 1 1 1
v -0.1213264 5.009267E-33 -0.1241296 1 1 1
v 0.2553314 5.009267E-33 -0.09906758 1 1 1
v 0.07469662 5.009267E-33 -0.2272342 1 1 1
v 0.07100342 0.4145461 -0.1717291 1 1 1
v -0.07797407 0.4145461 -0.09336956 1 1 1
v 0.04761324 0.4145461 0.1798032 1 1 1
v -0.08966915 0.4145461 0.0823966 1 1 1
v 0.1965907 0.4145461 0.1014437 1 1 1
v 0.1142262 0.2563797 0.3474213 1 1 1
v 0.2409129 0.2563797 0.274173 1 1 1
v 0.2131563 0.1281898 0.3723463 1 1 1
v -0.002660386 0 -0.0009195358 1 1 1
v -0.1119554 0 0.1947328 1 1 1
v 0.2214308 0 0.001973853 1 1 1
v 0.3362269 0 0.2005195 1 1 1
v 0.002840742 0 0.3932784 1 1 1
v 0.2269319 0 0.3961718 1 1 1
v 0.0248907 0.2563797 0.04673144 1 1 1
v 0.1952 0.2563797 0.04893041 1 1 1
v 0.02907154 0.2563797 0.3463219 1 1 1
v -0.05817351 0.2563797 0.1954272 1 1 1
v 0.282445 0.2563797 0.1998251 1 1 1
v -0.2247398 0.08284169 0.2776811 1 1 1
v -0.3506879 0.04142085 0.2575747 1 1 1
v -0.3348166 0.08284169 0.1261195 1 1 1
v 0.1098126 0 0.209157 1 1 1
v 0.0793453 0 -0.08006357 1 1 1
v -0.1189284 0 0.3887518 1 1 1
v -0.3781369 0 0.2791261 1 1 1
v -0.1798631 0 -0.1896893 1 1 1
v -0.4086042 0 -0.01009446 1 1 1
v -0.3463942 0.08284169 0.01621572 1 1 1
v -0.1725509 0.08284169 -0.1202763 1 1 1
v 0.04760259 0.08284169 0.1828468 1 1 1
v -0.1262406 0.08284169 0.3193389 1 1 1
v 0.02444743 0.08284169 -0.0369608 1 1 1
v -0.2856039 0.2313242 -0.2481084 1 1 1
v -0.2608414 0.1156621 -0.3356922 1 1 1
v -0.1725824 0.2313242 -0.3134558 1 1 1
v -0.273131 -4.511946E-17 -0.3569477 1 1 1
v -0.3706368 -4.511946E-17 -0.1823996 1 1 1
v -0.07321166 -4.511946E-17 -0.3543664 1 1 1
v 0.02920188 -4.511946E-17 -0.1772371 1 1 1
v -0.2682232 -4.511946E-17 -0.005270317 1 1 1
v -0.06830391 -4.511946E-17 -0.002689034 1 1 1
v -0.09288317 0.2313242 -0.04520008 1 1 1
v -0.01877877 0.2313242 -0.1778566 1 1 1
v -0.2448218 0.2313242 -0.04716185 1 1 1
v -0.09661305 0.2313242 -0.3124749 1 1 1
v -0.3226561 0.2313242 -0.1817801 1 1 1

vn 0 -1 0
vn 0 1 0
vn -0.8771987 0.418448 0.2354223
vn -0.2535168 0.4323048 0.8653565
vn 0.2535168 -0.4323048 -0.8653565
vn 0.8771987 -0.418448 -0.2354223
vn -0.6527301 0.4323048 -0.6221382
vn 0.6527301 -0.4323048 0.6221382
vn 0.8771987 0.418448 -0.2354223
vn 0.6527301 0.4323048 0.6221382
vn -0.8771987 -0.418448 0.2354223
vn -0.6527301 -0.4323048 -0.6221382
vn 0.2535168 0.4323048 -0.8653565
vn -0.2535168 -0.4323048 0.8653565
vn 0.8626133 0.3140496 -0.3965743
vn -0.8626133 -0.3140496 0.3965743
vn 0.06580119 0.1329977 -0.9889296
vn -0.8383852 0.1270089 -0.5300745
vn -0.06580119 -0.1329977 0.9889296
vn 0.8383852 -0.1270089 0.5300745
vn 0.5749227 0.1136135 -0.8102813
vn -0.5749227 -0.1136135 0.8102813
vn -0.06580119 0.1329977 0.9889296
vn -0.9012235 0.1270089 0.4143248
vn 0.9012235 -0.1270089 -0.4143248
vn 0.06580119 -0.1329977 -0.9889296
vn 0.9918893 0.1086268 0.06599811
vn 0.8383852 0.1270089 0.5300745
vn -0.9918893 -0.1086268 -0.06599811
vn -0.8383852 -0.1270089 -0.5300745
vn 0.4377262 0.485017 0.7570695
vn -0.4377262 -0.485017 -0.7570695
vn -0.4893903 0.2099082 -0.8464252
vn 0.5000814 0.2052511 -0.8413029
vn -0.5000814 -0.2052511 0.8413029
vn 0.4893903 -0.2099082 0.8464252
vn -0.5000814 0.2052511 0.8413029
vn -0.9786141 0.2052512 0.01365664
vn 0.5000814 -0.2052511 -0.8413029
vn 0.9786141 -0.2052512 -0.01365664
vn 0.9786141 0.2052512 -0.01365664
vn -0.9786141 -0.2052512 0.01365664
vn -0.01269635 0.1813978 0.9833279
vn 0.01269635 -0.1813978 -0.9833279
vn 0.858536 0.1813978 0.4795943
vn -0.858536 -0.1813978 -0.4795943
vn -0.3379921 0.9085712 0.2454783
vn 0.3379921 -0.9085712 -0.2454783
vn -0.7138182 0.6319216 -0.3018915
vn -0.8095388 0.5808393 0.08527916
vn -0.6189515 0.6440634 0.4495347
vn 0.7138182 -0.6319216 0.3018915
vn 0.8095388 -0.5808393 -0.08527916
vn 0.6189515 -0.6440634 -0.4495347
vn -0.108582 0.6440634 -0.7572268
vn 0.108582 -0.6440634 0.7572268
vn 0.7138182 0.6319216 0.3018915
vn 0.108582 0.6440634 0.7572268
vn -0.7138182 -0.6319216 -0.3018915
vn -0.108582 -0.6440634 -0.7572268
vn 0.6189515 0.6440634 -0.4495347
vn -0.6189515 -0.6440634 0.4495347
vn -0.3135122 0.5934573 0.7412951
vn 0.3135122 -0.5934573 -0.7412951
vn -0.4388813 0.4808328 -0.7590672
vn 0.4388813 -0.4808328 0.7590672
vn 0.4896315 0.2076519 0.8468422
vn 0.979075 0.2030405 -0.01366317
vn -0.4896315 -0.2076519 -0.8468422
vn -0.979075 -0.2030405 0.01366317
vn -0.5003169 0.2030405 0.8416992
vn 0.5003169 -0.2030405 -0.8416992
vn -0.4896315 0.2076519 -0.8468422
vn 0.5003169 0.2030405 -0.8416992
vn 0.01270096 0.1794256 -0.9836896
vn 0.4896315 -0.2076519 0.8468422
vn -0.5003169 -0.2030405 0.8416992
vn -0.01270096 -0.1794256 0.9836896
vn -0.979075 0.2030405 0.01366317
vn 0.979075 -0.2030405 -0.01366317
vn -0.8588519 0.1794256 -0.4797707
vn 0.8588519 -0.1794256 0.4797707

vt 0.09375 0.2800591
vt 0.09375 0.385987
vt 0.09375 0.3849213
vt 0.09375 0.3543929
vt 0.09375 0.4154496
vt 0.09375 0.4529966
vt 0.09375 0.3808048
vt 0.09375 0.308613
vt 0.09375 0.4097565
vt 0.09375 0.388464
vt 0.09375 0.3671716
vt 0.09375 0.3569502
vt 0.09375 0.3523198
vt 0.09375 0.3476896
vt 0.96875 0.135987
vt 0.96875 0.1043929
vt 0.96875 0.2029966
vt 0.96875 0.1597565
vt 0.96875 0.1069501

usemtl colormap

f 3/1/1 2/1/1 1/1/1
f 2/1/1 3/1/1 4/1/1
f 2/1/1 4/1/1 5/1/1
f 5/1/1 4/1/1 6/1/1
f 1/1/2 2/1/2 3/1/2
f 4/1/2 3/1/2 2/1/2
f 5/1/2 4/1/2 2/1/2
f 6/1/2 4/1/2 5/1/2
f 4/1/4 7/2/3 6/1/3
f 7/2/3 4/1/4 8/2/4
f 6/1/6 7/2/6 4/1/5
f 8/2/5 4/1/5 7/2/6
f 6/1/3 9/2/7 5/1/7
f 9/2/7 6/1/3 7/2/3
f 5/1/8 9/2/8 6/1/6
f 7/2/6 6/1/6 9/2/8
f 10/2/9 3/1/10 1/1/9
f 3/1/10 10/2/9 11/2/10
f 1/1/11 3/1/12 10/2/11
f 11/2/12 10/2/11 3/1/12
f 9/2/7 2/1/13 5/1/7
f 2/1/13 9/2/7 12/2/13
f 5/1/8 2/1/14 9/2/8
f 12/2/14 9/2/8 2/1/14
f 11/2/10 4/1/4 3/1/10
f 4/1/4 11/2/10 8/2/4
f 3/1/12 4/1/5 11/2/12
f 8/2/5 11/2/12 4/1/5
f 12/2/13 1/1/9 2/1/13
f 1/1/9 12/2/13 10/2/9
f 2/1/14 1/1/11 12/2/14
f 10/2/11 12/2/14 1/1/11
f 15/4/15 14/4/15 13/3/15
f 13/3/16 14/4/16 15/4/16
f 18/5/1 17/5/1 16/5/1
f 17/5/1 18/5/1 19/5/1
f 17/5/1 19/5/1 20/5/1
f 20/5/1 19/5/1 21/5/1
f 16/5/2 17/5/2 18/5/2
f 19/5/2 18/5/2 17/5/2
f 20/5/2 19/5/2 17/5/2
f 21/5/2 19/5/2 20/5/2
f 21/5/17 23/4/18 22/4/17
f 23/4/18 21/5/17 19/5/18
f 22/4/19 23/4/20 21/5/19
f 19/5/20 21/5/19 23/4/20
f 21/5/17 13/3/21 20/5/21
f 13/3/21 21/5/17 15/4/21
f 15/4/21 21/5/17 22/4/17
f 20/5/22 13/3/22 21/5/19
f 15/4/22 21/5/19 13/3/22
f 22/4/19 21/5/19 15/4/22
f 25/4/24 16/5/23 24/4/23
f 16/5/23 25/4/24 18/5/24
f 24/4/26 16/5/26 25/4/25
f 18/5/25 25/4/25 16/5/26
f 13/3/27 17/5/28 20/5/27
f 17/5/28 13/3/27 26/4/28
f 26/4/28 13/3/27 14/4/27
f 20/5/29 17/5/30 13/3/29
f 26/4/30 13/3/29 17/5/30
f 14/4/29 13/3/29 26/4/30
f 25/4/24 19/5/18 18/5/24
f 19/5/18 25/4/24 23/4/18
f 18/5/25 19/5/20 25/4/25
f 23/4/20 25/4/25 19/5/20
f 26/4/28 16/5/23 17/5/28
f 16/5/23 26/4/28 24/4/23
f 17/5/30 16/5/26 26/4/30
f 24/4/26 26/4/30 16/5/26
f 29/7/31 28/6/31 27/6/31
f 27/6/32 28/6/32 29/7/32
f 32/8/1 31/8/1 30/8/1
f 31/8/1 32/8/1 33/8/1
f 31/8/1 33/8/1 34/8/1
f 34/8/1 33/8/1 35/8/1
f 30/8/2 31/8/2 32/8/2
f 33/8/2 32/8/2 31/8/2
f 34/8/2 33/8/2 31/8/2
f 35/8/2 33/8/2 34/8/2
f 37/6/34 30/8/33 36/6/33
f 30/8/33 37/6/34 32/8/34
f 36/6/36 30/8/36 37/6/35
f 32/8/35 37/6/35 30/8/36
f 38/6/37 31/8/38 34/8/37
f 31/8/38 38/6/37 39/6/38
f 34/8/39 31/8/40 38/6/39
f 39/6/40 38/6/39 31/8/40
f 37/6/34 33/8/41 32/8/34
f 33/8/41 37/6/34 40/6/41
f 32/8/35 33/8/42 37/6/35
f 40/6/42 37/6/35 33/8/42
f 39/6/38 30/8/33 31/8/38
f 30/8/33 39/6/38 36/6/33
f 31/8/40 30/8/36 39/6/40
f 36/6/36 39/6/40 30/8/36
f 35/8/43 38/6/37 34/8/37
f 38/6/37 35/8/43 27/6/43
f 27/6/43 35/8/43 29/7/43
f 34/8/39 38/6/39 35/8/44
f 27/6/44 35/8/44 38/6/39
f 29/7/44 35/8/44 27/6/44
f 35/8/45 28/6/45 29/7/45
f 28/6/45 35/8/45 33/8/41
f 28/6/45 33/8/41 40/6/41
f 29/7/46 28/6/46 35/8/46
f 33/8/42 35/8/46 28/6/46
f 40/6/42 33/8/42 28/6/46
f 43/9/47 42/10/47 41/9/47
f 41/9/48 42/10/48 43/9/48
f 46/11/1 45/11/1 44/11/1
f 45/11/1 46/11/1 47/11/1
f 45/11/1 47/11/1 48/11/1
f 48/11/1 47/11/1 49/11/1
f 44/11/2 45/11/2 46/11/2
f 47/11/2 46/11/2 45/11/2
f 48/11/2 47/11/2 45/11/2
f 49/11/2 47/11/2 48/11/2
f 49/11/49 43/9/50 50/9/49
f 43/9/50 49/11/49 47/11/51
f 43/9/50 47/11/51 42/10/51
f 50/9/52 43/9/53 49/11/52
f 47/11/54 49/11/52 43/9/53
f 42/10/54 47/11/54 43/9/53
f 49/11/49 51/9/55 48/11/55
f 51/9/55 49/11/49 50/9/49
f 48/11/56 51/9/56 49/11/52
f 50/9/52 49/11/52 51/9/56
f 52/9/57 46/11/58 44/11/57
f 46/11/58 52/9/57 53/9/58
f 44/11/59 46/11/60 52/9/59
f 53/9/60 52/9/59 46/11/60
f 51/9/55 45/11/61 48/11/55
f 45/11/61 51/9/55 54/9/61
f 48/11/56 45/11/62 51/9/56
f 54/9/62 51/9/56 45/11/62
f 53/9/58 47/11/51 46/11/58
f 47/11/51 53/9/58 42/10/51
f 42/10/51 53/9/58 41/9/63
f 46/11/60 47/11/54 53/9/60
f 42/10/54 53/9/60 47/11/54
f 41/9/64 53/9/60 42/10/54
f 54/9/61 44/11/57 45/11/61
f 44/11/57 54/9/61 52/9/57
f 45/11/62 44/11/59 54/9/62
f 52/9/59 54/9/62 44/11/59
f 57/12/65 56/13/65 55/12/65
f 55/12/66 56/13/66 57/12/66
f 60/14/1 59/14/1 58/14/1
f 59/14/1 60/14/1 61/14/1
f 59/14/1 61/14/1 62/14/1
f 62/14/1 61/14/1 63/14/1
f 58/14/2 59/14/2 60/14/2
f 61/14/2 60/14/2 59/14/2
f 62/14/2 61/14/2 59/14/2
f 63/14/2 61/14/2 62/14/2
f 63/14/67 65/12/68 64/12/67
f 65/12/68 63/14/67 61/14/68
f 64/12/69 65/12/70 63/14/69
f 61/14/70 63/14/69 65/12/70
f 63/14/67 66/12/71 62/14/71
f 66/12/71 63/14/67 64/12/67
f 62/14/72 66/12/72 63/14/69
f 64/12/69 63/14/69 66/12/72
f 56/13/73 60/14/74 58/14/73
f 60/14/74 56/13/73 57/12/75
f 60/14/74 57/12/75 67/12/74
f 58/14/76 60/14/77 56/13/76
f 57/12/78 56/13/76 60/14/77
f 67/12/77 57/12/78 60/14/77
f 66/12/71 59/14/79 62/14/71
f 59/14/79 66/12/71 68/12/79
f 62/14/72 59/14/80 66/12/72
f 68/12/80 66/12/72 59/14/80
f 67/12/74 61/14/68 60/14/74
f 61/14/68 67/12/74 65/12/68
f 60/14/77 61/14/70 67/12/77
f 65/12/70 67/12/77 61/14/70
f 68/12/79 58/14/73 59/14/79
f 58/14/73 68/12/79 55/12/81
f 58/14/73 55/12/81 56/13/73
f 59/14/80 58/14/76 68/12/80
f 55/12/82 68/12/80 58/14/76
f 56/13/76 55/12/82 58/14/76
f 12/15/2 11/15/2 10/15/2
f 11/15/2 12/15/2 9/15/2
f 11/15/2 9/15/2 8/15/2
f 8/15/2 9/15/2 7/15/2
f 10/15/1 11/15/1 12/15/1
f 9/15/1 12/15/1 11/15/1
f 8/15/1 9/15/1 11/15/1
f 7/15/1 9/15/1 8/15/1
f 26/16/2 25/16/2 24/16/2
f 25/16/2 26/16/2 14/16/2
f 25/16/2 14/16/2 23/16/2
f 23/16/2 14/16/2 15/16/2
f 23/16/2 15/16/2 22/16/2
f 24/16/1 25/16/1 26/16/1
f 14/16/1 26/16/1 25/16/1
f 23/16/1 14/16/1 25/16/1
f 15/16/1 14/16/1 23/16/1
f 22/16/1 15/16/1 23/16/1
f 39/17/2 37/17/2 36/17/2
f 37/17/2 39/17/2 38/17/2
f 37/17/2 38/17/2 40/17/2
f 40/17/2 38/17/2 27/17/2
f 40/17/2 27/17/2 28/17/2
f 36/17/1 37/17/1 39/17/1
f 38/17/1 39/17/1 37/17/1
f 40/17/1 38/17/1 37/17/1
f 27/17/1 38/17/1 40/17/1
f 28/17/1 27/17/1 40/17/1
f 54/18/2 53/18/2 52/18/2
f 53/18/2 54/18/2 51/18/2
f 53/18/2 51/18/2 41/18/2
f 41/18/2 51/18/2 43/18/2
f 43/18/2 51/18/2 50/18/2
f 52/18/1 53/18/1 54/18/1
f 51/18/1 54/18/1 53/18/1
f 41/18/1 51/18/1 53/18/1
f 43/18/1 51/18/1 41/18/1
f 50/18/1 51/18/1 43/18/1
f 68/19/2 57/19/2 55/19/2
f 57/19/2 68/19/2 67/19/2
f 67/19/2 68/19/2 66/19/2
f 67/19/2 66/19/2 65/19/2
f 65/19/2 66/19/2 64/19/2
f 55/19/1 57/19/1 68/19/1
f 67/19/1 68/19/1 57/19/1
f 66/19/1 68/19/1 67/19/1
f 65/19/1 66/19/1 67/19/1
f 64/19/1 66/19/1 65/19/1

g snow-detail-dirt-large




usemtl colormap

f 3/1/1 2/1/1 1/1/1
f 2/1/1 3/1/1 4/1/1
f 2/1/1 4/1/1 5/1/1
f 5/1/1 4/1/1 6/1/1
f 1/1/2 2/1/2 3/1/2
f 4/1/2 3/1/2 2/1/2
f 5/1/2 4/1/2 2/1/2
f 6/1/2 4/1/2 5/1/2
f 4/1/4 7/2/3 6/1/3
f 7/2/3 4/1/4 8/2/4
f 6/1/6 7/2/6 4/1/5
f 8/2/5 4/1/5 7/2/6
f 6/1/3 9/2/7 5/1/7
f 9/2/7 6/1/3 7/2/3
f 5/1/8 9/2/8 6/1/6
f 7/2/6 6/1/6 9/2/8
f 10/2/9 3/1/10 1/1/9
f 3/1/10 10/2/9 11/2/10
f 1/1/11 3/1/12 10/2/11
f 11/2/12 10/2/11 3/1/12
f 9/2/7 2/1/13 5/1/7
f 2/1/13 9/2/7 12/2/13
f 5/1/8 2/1/14 9/2/8
f 12/2/14 9/2/8 2/1/14
f 11/2/10 4/1/4 3/1/10
f 4/1/4 11/2/10 8/2/4
f 3/1/12 4/1/5 11/2/12
f 8/2/5 11/2/12 4/1/5
f 12/2/13 1/1/9 2/1/13
f 1/1/9 12/2/13 10/2/9
f 2/1/14 1/1/11 12/2/14
f 10/2/11 12/2/14 1/1/11
f 15/4/15 14/4/15 13/3/15
f 13/3/16 14/4/16 15/4/16
f 18/5/1 17/5/1 16/5/1
f 17/5/1 18/5/1 19/5/1
f 17/5/1 19/5/1 20/5/1
f 20/5/1 19/5/1 21/5/1
f 16/5/2 17/5/2 18/5/2
f 19/5/2 18/5/2 17/5/2
f 20/5/2 19/5/2 17/5/2
f 21/5/2 19/5/2 20/5/2
f 21/5/17 23/4/18 22/4/17
f 23/4/18 21/5/17 19/5/18
f 22/4/19 23/4/20 21/5/19
f 19/5/20 21/5/19 23/4/20
f 21/5/17 13/3/21 20/5/21
f 13/3/21 21/5/17 15/4/21
f 15/4/21 21/5/17 22/4/17
f 20/5/22 13/3/22 21/5/19
f 15/4/22 21/5/19 13/3/22
f 22/4/19 21/5/19 15/4/22
f 25/4/24 16/5/23 24/4/23
f 16/5/23 25/4/24 18/5/24
f 24/4/26 16/5/26 25/4/25
f 18/5/25 25/4/25 16/5/26
f 13/3/27 17/5/28 20/5/27
f 17/5/28 13/3/27 26/4/28
f 26/4/28 13/3/27 14/4/27
f 20/5/29 17/5/30 13/3/29
f 26/4/30 13/3/29 17/5/30
f 14/4/29 13/3/29 26/4/30
f 25/4/24 19/5/18 18/5/24
f 19/5/18 25/4/24 23/4/18
f 18/5/25 19/5/20 25/4/25
f 23/4/20 25/4/25 19/5/20
f 26/4/28 16/5/23 17/5/28
f 16/5/23 26/4/28 24/4/23
f 17/5/30 16/5/26 26/4/30
f 24/4/26 26/4/30 16/5/26
f 29/7/31 28/6/31 27/6/31
f 27/6/32 28/6/32 29/7/32
f 32/8/1 31/8/1 30/8/1
f 31/8/1 32/8/1 33/8/1
f 31/8/1 33/8/1 34/8/1
f 34/8/1 33/8/1 35/8/1
f 30/8/2 31/8/2 32/8/2
f 33/8/2 32/8/2 31/8/2
f 34/8/2 33/8/2 31/8/2
f 35/8/2 33/8/2 34/8/2
f 37/6/34 30/8/33 36/6/33
f 30/8/33 37/6/34 32/8/34
f 36/6/36 30/8/36 37/6/35
f 32/8/35 37/6/35 30/8/36
f 38/6/37 31/8/38 34/8/37
f 31/8/38 38/6/37 39/6/38
f 34/8/39 31/8/40 38/6/39
f 39/6/40 38/6/39 31/8/40
f 37/6/34 33/8/41 32/8/34
f 33/8/41 37/6/34 40/6/41
f 32/8/35 33/8/42 37/6/35
f 40/6/42 37/6/35 33/8/42
f 39/6/38 30/8/33 31/8/38
f 30/8/33 39/6/38 36/6/33
f 31/8/40 30/8/36 39/6/40
f 36/6/36 39/6/40 30/8/36
f 35/8/43 38/6/37 34/8/37
f 38/6/37 35/8/43 27/6/43
f 27/6/43 35/8/43 29/7/43
f 34/8/39 38/6/39 35/8/44
f 27/6/44 35/8/44 38/6/39
f 29/7/44 35/8/44 27/6/44
f 35/8/45 28/6/45 29/7/45
f 28/6/45 35/8/45 33/8/41
f 28/6/45 33/8/41 40/6/41
f 29/7/46 28/6/46 35/8/46
f 33/8/42 35/8/46 28/6/46
f 40/6/42 33/8/42 28/6/46
f 43/9/47 42/10/47 41/9/47
f 41/9/48 42/10/48 43/9/48
f 46/11/1 45/11/1 44/11/1
f 45/11/1 46/11/1 47/11/1
f 45/11/1 47/11/1 48/11/1
f 48/11/1 47/11/1 49/11/1
f 44/11/2 45/11/2 46/11/2
f 47/11/2 46/11/2 45/11/2
f 48/11/2 47/11/2 45/11/2
f 49/11/2 47/11/2 48/11/2
f 49/11/49 43/9/50 50/9/49
f 43/9/50 49/11/49 47/11/51
f 43/9/50 47/11/51 42/10/51
f 50/9/52 43/9/53 49/11/52
f 47/11/54 49/11/52 43/9/53
f 42/10/54 47/11/54 43/9/53
f 49/11/49 51/9/55 48/11/55
f 51/9/55 49/11/49 50/9/49
f 48/11/56 51/9/56 49/11/52
f 50/9/52 49/11/52 51/9/56
f 52/9/57 46/11/58 44/11/57
f 46/11/58 52/9/57 53/9/58
f 44/11/59 46/11/60 52/9/59
f 53/9/60 52/9/59 46/11/60
f 51/9/55 45/11/61 48/11/55
f 45/11/61 51/9/55 54/9/61
f 48/11/56 45/11/62 51/9/56
f 54/9/62 51/9/56 45/11/62
f 53/9/58 47/11/51 46/11/58
f 47/11/51 53/9/58 42/10/51
f 42/10/51 53/9/58 41/9/63
f 46/11/60 47/11/54 53/9/60
f 42/10/54 53/9/60 47/11/54
f 41/9/64 53/9/60 42/10/54
f 54/9/61 44/11/57 45/11/61
f 44/11/57 54/9/61 52/9/57
f 45/11/62 44/11/59 54/9/62
f 52/9/59 54/9/62 44/11/59
f 57/12/65 56/13/65 55/12/65
f 55/12/66 56/13/66 57/12/66
f 60/14/1 59/14/1 58/14/1
f 59/14/1 60/14/1 61/14/1
f 59/14/1 61/14/1 62/14/1
f 62/14/1 61/14/1 63/14/1
f 58/14/2 59/14/2 60/14/2
f 61/14/2 60/14/2 59/14/2
f 62/14/2 61/14/2 59/14/2
f 63/14/2 61/14/2 62/14/2
f 63/14/67 65/12/68 64/12/67
f 65/12/68 63/14/67 61/14/68
f 64/12/69 65/12/70 63/14/69
f 61/14/70 63/14/69 65/12/70
f 63/14/67 66/12/71 62/14/71
f 66/12/71 63/14/67 64/12/67
f 62/14/72 66/12/72 63/14/69
f 64/12/69 63/14/69 66/12/72
f 56/13/73 60/14/74 58/14/73
f 60/14/74 56/13/73 57/12/75
f 60/14/74 57/12/75 67/12/74
f 58/14/76 60/14/77 56/13/76
f 57/12/78 56/13/76 60/14/77
f 67/12/77 57/12/78 60/14/77
f 66/12/71 59/14/79 62/14/71
f 59/14/79 66/12/71 68/12/79
f 62/14/72 59/14/80 66/12/72
f 68/12/80 66/12/72 59/14/80
f 67/12/74 61/14/68 60/14/74
f 61/14/68 67/12/74 65/12/68
f 60/14/77 61/14/70 67/12/77
f 65/12/70 67/12/77 61/14/70
f 68/12/79 58/14/73 59/14/79
f 58/14/73 68/12/79 55/12/81
f 58/14/73 55/12/81 56/13/73
f 59/14/80 58/14/76 68/12/80
f 55/12/82 68/12/80 58/14/76
f 56/13/76 55/12/82 58/14/76
f 12/15/2 11/15/2 10/15/2
f 11/15/2 12/15/2 9/15/2
f 11/15/2 9/15/2 8/15/2
f 8/15/2 9/15/2 7/15/2
f 10/15/1 11/15/1 12/15/1
f 9/15/1 12/15/1 11/15/1
f 8/15/1 9/15/1 11/15/1
f 7/15/1 9/15/1 8/15/1
f 26/16/2 25/16/2 24/16/2
f 25/16/2 26/16/2 14/16/2
f 25/16/2 14/16/2 23/16/2
f 23/16/2 14/16/2 15/16/2
f 23/16/2 15/16/2 22/16/2
f 24/16/1 25/16/1 26/16/1
f 14/16/1 26/16/1 25/16/1
f 23/16/1 14/16/1 25/16/1
f 15/16/1 14/16/1 23/16/1
f 22/16/1 15/16/1 23/16/1
f 39/17/2 37/17/2 36/17/2
f 37/17/2 39/17/2 38/17/2
f 37/17/2 38/17/2 40/17/2
f 40/17/2 38/17/2 27/17/2
f 40/17/2 27/17/2 28/17/2
f 36/17/1 37/17/1 39/17/1
f 38/17/1 39/17/1 37/17/1
f 40/17/1 38/17/1 37/17/1
f 27/17/1 38/17/1 40/17/1
f 28/17/1 27/17/1 40/17/1
f 54/18/2 53/18/2 52/18/2
f 53/18/2 54/18/2 51/18/2
f 53/18/2 51/18/2 41/18/2
f 41/18/2 51/18/2 43/18/2
f 43/18/2 51/18/2 50/18/2
f 52/18/1 53/18/1 54/18/1
f 51/18/1 54/18/1 53/18/1
f 41/18/1 51/18/1 53/18/1
f 43/18/1 51/18/1 41/18/1
f 50/18/1 51/18/1 43/18/1
f 68/19/2 57/19/2 55/19/2
f 57/19/2 68/19/2 67/19/2
f 67/19/2 68/19/2 66/19/2
f 67/19/2 66/19/2 65/19/2
f 65/19/2 66/19/2 64/19/2
f 55/19/1 57/19/1 68/19/1
f 67/19/1 68/19/1 57/19/1
f 66/19/1 68/19/1 67/19/1
f 65/19/1 66/19/1 67/19/1
f 64/19/1 66/19/1 65/19/1

