# Created by Kenney (www.kenney.nl)

mtllib snow-detail-tree.mtl

g snow-detail-tree

v 0.09899495 0.3052 0.09899495 1 1 1
v -1.443823E-15 0.3052 0.14 1 1 1
v 0.01583919 0.532 0.01583919 1 1 1
v -0.09899495 0.3052 0.09899495 1 1 1
v -0.01583919 0.532 0.01583919 1 1 1
v -1.443823E-15 0.3052 -0.14 1 1 1
v 0.09899495 0.3052 -0.09899495 1 1 1
v 0.01583919 0.532 -0.01583919 1 1 1
v -0.01583919 0.532 -0.01583919 1 1 1
v -0.09899495 0.3052 -0.09899495 1 1 1
v -0.14 0.3052 0 1 1 1
v 0.14 0.3052 0 1 1 1
v -1.443823E-15 0.161 -0.175 1 1 1
v 0.1237437 0.161 -0.1237437 1 1 1
v -1.443823E-15 0.245 -0.1179962 1 1 1
v 0.08343592 0.245 -0.08343592 1 1 1
v -0.1237437 0.161 -0.1237437 1 1 1
v -0.08343592 0.245 -0.08343592 1 1 1
v -1.443823E-15 0.161 0.175 1 1 1
v -0.1237437 0.161 0.1237437 1 1 1
v -1.443823E-15 0.245 0.1179962 1 1 1
v -0.08343592 0.245 0.08343592 1 1 1
v 0.1237437 0.161 0.1237437 1 1 1
v 0.08343592 0.245 0.08343592 1 1 1
v -0.1179962 0.245 -1.443823E-15 1 1 1
v -0.175 0.161 0 1 1 1
v 0.1179962 0.245 -1.443823E-15 1 1 1
v 0.175 0.161 0 1 1 1
v 0.048125 0 -0.048125 1 1 1
v -0.048125 0 -0.048125 1 1 1
v 0.048125 0 0.048125 1 1 1
v -0.048125 0 0.048125 1 1 1
v -0.0371875 0.105 -0.0371875 1 1 1
v 0.0371875 0.105 -0.0371875 1 1 1
v -0.0371875 0.105 0.0371875 1 1 1
v 0.0371875 0.105 0.0371875 1 1 1
v 0.1575 0.105 0 1 1 1
v 0.1113693 0.105 -0.1113693 1 1 1
v 0.1113693 0.105 0.1113693 1 1 1
v -1.443823E-15 0.105 0.1575 1 1 1
v -1.443823E-15 0.105 -0.1575 1 1 1
v -0.1113693 0.105 0.1113693 1 1 1
v -0.1113693 0.105 -0.1113693 1 1 1
v -0.1575 0.105 0 1 1 1

vn 0.6277373 0.4603172 0.6277373
vn 0 0.4612523 0.887269
vn 0.5779995 0.5760496 0.5779995
vn -0.5779995 -0.5760496 -0.5779995
vn 0 -0.4612523 -0.887269
vn -0.6277373 -0.4603172 -0.6277373
vn -0.6277373 0.4603172 0.6277373
vn -0.5779995 0.5760496 0.5779995
vn 0.5779995 -0.5760496 -0.5779995
vn 0.6277373 -0.4603172 -0.6277373
vn 0 0.4612523 -0.887269
vn 0.6277373 0.4603172 -0.6277373
vn 0.5779995 0.5760496 -0.5779995
vn -0.5779995 -0.5760496 0.5779995
vn -0.6277373 -0.4603172 0.6277373
vn 0 -0.4612523 0.887269
vn -0.5779995 0.5760496 -0.5779995
vn 0.5779995 -0.5760496 0.5779995
vn -0.6277373 0.4603172 -0.6277373
vn 0.6277373 -0.4603172 0.6277373
vn -0.887269 0.4612523 0
vn 0.887269 -0.4612523 0
vn 0.887269 0.4612523 0
vn -0.887269 -0.4612523 0
vn 0 0.561527 -0.8274584
vn 0.5851015 0.561527 -0.5851015
vn 0 -0.561527 0.8274584
vn -0.5851015 -0.561527 0.5851015
vn -0.5851015 0.561527 -0.5851015
vn 0.5851015 -0.561527 0.5851015
vn 0 0.561527 0.8274584
vn -0.5851015 0.561527 0.5851015
vn 0 -0.561527 -0.8274584
vn 0.5851015 -0.561527 -0.5851015
vn 0.5851015 0.561527 0.5851015
vn -0.5851015 -0.561527 -0.5851015
vn 0 1 0
vn 0 -1 0
vn -0.8274584 0.561527 0
vn 0.8274584 -0.561527 0
vn 0.8274584 0.561527 0
vn -0.8274584 -0.561527 0
vn 0 0.1036061 -0.9946185
vn 0 -0.1036061 0.9946185
vn -0.9946185 0.1036061 0
vn 0.9946185 -0.1036061 0
vn 0.9946185 0.1036061 0
vn -0.9946185 -0.1036061 0
vn 0 0.1036061 0.9946185
vn 0 -0.1036061 -0.9946185
vn -0.6749192 -0.298275 -0.6749192
vn 0 -0.298275 -0.95448
vn 0.6749192 0.298275 0.6749192
vn 0 0.298275 0.95448
vn 0.6749192 -0.298275 -0.6749192
vn -0.6749192 0.298275 0.6749192
vn 0.95448 -0.298275 0
vn -0.95448 0.298275 0
vn -0.95448 -0.298275 0
vn 0.95448 0.298275 0
vn -0.6749192 -0.298275 0.6749192
vn 0.6749192 0.298275 -0.6749192
vn 0.6749192 -0.298275 0.6749192
vn -0.6749192 0.298275 -0.6749192
vn 0 -0.298275 0.95448
vn 0 0.298275 -0.95448
vn 0 -0.343298 0.9392266
vn -0.6641335 -0.343298 0.6641335
vn 0 0.343298 -0.9392266
vn 0.6641335 0.343298 -0.6641335
vn 0 -0.343298 -0.9392266
vn 0.6641335 -0.343298 -0.6641335
vn 0 0.343298 0.9392266
vn -0.6641335 0.343298 0.6641335
vn -0.6641335 -0.343298 -0.6641335
vn 0.6641335 0.343298 0.6641335
vn -0.9392266 -0.343298 0
vn 0.9392266 0.343298 0
vn 0.9392266 -0.343298 0
vn 0.6641335 -0.343298 0.6641335
vn -0.6641335 0.343298 -0.6641335
vn -0.9392266 0.343298 0

vt 0.96875 0.1397368
vt 0.96875 0.225
vt 0.96875 0.08552631
vt 0.96875 0.1171053
vt 0.09375 0.275
vt 0.09375 0.3144737
vt 0.59375 0.3144737
vt 0.59375 0.3355263
vt 0.59375 0.3671052
vt 0.59375 0.3897368

usemtl colormap

f 3/2/3 2/1/2 1/1/1
f 1/1/6 2/1/5 3/2/4
f 5/2/8 4/1/7 2/1/2
f 2/1/5 4/1/10 5/2/9
f 5/2/8 2/1/2 3/2/3
f 3/2/4 2/1/5 5/2/9
f 8/2/13 7/1/12 6/1/11
f 6/1/16 7/1/15 8/2/14
f 8/2/13 6/1/11 9/2/17
f 9/2/18 6/1/16 8/2/14
f 9/2/17 6/1/11 10/1/19
f 10/1/20 6/1/16 9/2/18
f 11/1/21 9/2/17 10/1/19
f 10/1/20 9/2/18 11/1/22
f 4/1/7 5/2/8 11/1/21
f 11/1/22 5/2/9 4/1/10
f 5/2/8 9/2/17 11/1/21
f 11/1/22 9/2/18 5/2/9
f 1/1/1 12/1/23 3/2/3
f 3/2/4 12/1/24 1/1/6
f 3/2/3 12/1/23 8/2/13
f 8/2/14 12/1/24 3/2/4
f 12/1/23 7/1/12 8/2/13
f 8/2/14 7/1/15 12/1/24
f 15/4/25 14/3/26 13/3/25
f 14/3/26 15/4/25 16/4/26
f 13/3/27 14/3/28 15/4/27
f 16/4/28 15/4/27 14/3/28
f 18/4/29 13/3/25 17/3/29
f 13/3/25 18/4/29 15/4/25
f 17/3/30 13/3/27 18/4/30
f 15/4/27 18/4/30 13/3/27
f 21/4/31 20/3/32 19/3/31
f 20/3/32 21/4/31 22/4/32
f 19/3/33 20/3/34 21/4/33
f 22/4/34 21/4/33 20/3/34
f 24/4/35 19/3/31 23/3/35
f 19/3/31 24/4/35 21/4/31
f 23/3/36 19/3/33 24/4/36
f 21/4/33 24/4/36 19/3/33
f 9/2/37 3/2/37 8/2/37
f 3/2/37 9/2/37 5/2/37
f 8/2/38 3/2/38 9/2/38
f 5/2/38 9/2/38 3/2/38
f 26/3/39 22/4/32 25/4/39
f 22/4/32 26/3/39 20/3/32
f 25/4/40 22/4/34 26/3/40
f 20/3/34 26/3/40 22/4/34
f 24/4/35 28/3/41 27/4/41
f 28/3/41 24/4/35 23/3/35
f 27/4/42 28/3/42 24/4/36
f 23/3/36 24/4/36 28/3/42
f 26/3/39 18/4/29 17/3/29
f 18/4/29 26/3/39 25/4/39
f 17/3/30 18/4/30 26/3/40
f 25/4/40 26/3/40 18/4/30
f 16/4/26 28/3/41 14/3/26
f 28/3/41 16/4/26 27/4/41
f 14/3/28 28/3/42 16/4/28
f 27/4/42 16/4/28 28/3/42
f 31/5/38 30/5/38 29/5/38
f 30/5/38 31/5/38 32/5/38
f 29/5/37 30/5/37 31/5/37
f 32/5/37 31/5/37 30/5/37
f 33/6/43 29/5/43 30/5/43
f 29/5/43 33/6/43 34/6/43
f 30/5/44 29/5/44 33/6/44
f 34/6/44 33/6/44 29/5/44
f 32/5/45 33/6/45 30/5/45
f 33/6/45 32/5/45 35/6/45
f 30/5/46 33/6/46 32/5/46
f 35/6/46 32/5/46 33/6/46
f 34/6/47 31/5/47 29/5/47
f 31/5/47 34/6/47 36/6/47
f 29/5/48 31/5/48 34/6/48
f 36/6/48 34/6/48 31/5/48
f 36/6/49 32/5/49 31/5/49
f 32/5/49 36/6/49 35/6/49
f 31/5/50 32/5/50 36/6/50
f 35/6/50 36/6/50 32/5/50
f 39/7/38 38/7/38 37/7/38
f 38/7/38 39/7/38 40/7/38
f 38/7/38 40/7/38 36/7/38
f 38/7/38 36/7/38 34/7/38
f 36/7/38 40/7/38 35/7/38
f 34/7/38 41/7/38 38/7/38
f 35/7/38 40/7/38 42/7/38
f 41/7/38 34/7/38 33/7/38
f 35/7/38 42/7/38 33/7/38
f 41/7/38 33/7/38 43/7/38
f 43/7/38 33/7/38 42/7/38
f 43/7/38 42/7/38 44/7/38
f 37/7/37 38/7/37 39/7/37
f 40/7/37 39/7/37 38/7/37
f 36/7/37 40/7/37 38/7/37
f 34/7/37 36/7/37 38/7/37
f 35/7/37 40/7/37 36/7/37
f 38/7/37 41/7/37 34/7/37
f 42/7/37 40/7/37 35/7/37
f 33/7/37 34/7/37 41/7/37
f 33/7/37 42/7/37 35/7/37
f 43/7/37 33/7/37 41/7/37
f 42/7/37 33/7/37 43/7/37
f 44/7/37 42/7/37 43/7/37
f 17/8/51 41/7/52 43/7/51
f 41/7/52 17/8/51 13/8/52
f 43/7/53 41/7/54 17/8/53
f 13/8/54 17/8/53 41/7/54
f 13/8/52 38/7/55 41/7/52
f 38/7/55 13/8/52 14/8/55
f 41/7/54 38/7/56 13/8/54
f 14/8/56 13/8/54 38/7/56
f 28/8/57 38/7/55 14/8/55
f 38/7/55 28/8/57 37/7/57
f 14/8/56 38/7/56 28/8/58
f 37/7/58 28/8/58 38/7/56
f 43/7/51 26/8/59 17/8/51
f 26/8/59 43/7/51 44/7/59
f 17/8/53 26/8/60 43/7/53
f 44/7/60 43/7/53 26/8/60
f 42/7/61 26/8/59 44/7/59
f 26/8/59 42/7/61 20/8/61
f 44/7/60 26/8/60 42/7/62
f 20/8/62 42/7/62 26/8/60
f 23/8/63 37/7/57 28/8/57
f 37/7/57 23/8/63 39/7/63
f 28/8/58 37/7/58 23/8/64
f 39/7/64 23/8/64 37/7/58
f 23/8/63 40/7/65 39/7/63
f 40/7/65 23/8/63 19/8/65
f 39/7/64 40/7/66 23/8/64
f 19/8/66 23/8/64 40/7/66
f 19/8/65 42/7/61 40/7/65
f 42/7/61 19/8/65 20/8/61
f 40/7/66 42/7/62 19/8/66
f 20/8/62 19/8/66 42/7/62
f 2/10/67 22/9/68 21/9/67
f 4/10/68 22/9/68 2/10/67
f 21/9/69 22/9/70 2/10/69
f 2/10/69 22/9/70 4/10/70
f 6/10/71 16/9/72 15/9/71
f 7/10/72 16/9/72 6/10/71
f 15/9/73 16/9/74 6/10/73
f 6/10/73 16/9/74 7/10/74
f 10/10/75 15/9/71 18/9/75
f 6/10/71 15/9/71 10/10/75
f 18/9/76 15/9/73 10/10/76
f 10/10/76 15/9/73 6/10/73
f 25/9/77 10/10/75 18/9/75
f 11/10/77 10/10/75 25/9/77
f 18/9/76 10/10/76 25/9/78
f 25/9/78 10/10/76 11/10/78
f 22/9/68 11/10/77 25/9/77
f 4/10/68 11/10/77 22/9/68
f 25/9/78 11/10/78 22/9/70
f 22/9/70 11/10/78 4/10/70
f 1/10/80 27/9/79 12/10/79
f 1/10/80 24/9/80 27/9/79
f 12/10/82 27/9/82 1/10/81
f 27/9/82 24/9/81 1/10/81
f 1/10/80 21/9/67 24/9/80
f 2/10/67 21/9/67 1/10/80
f 24/9/81 21/9/69 1/10/81
f 1/10/81 21/9/69 2/10/69
f 12/10/79 16/9/72 7/10/72
f 12/10/79 27/9/79 16/9/72
f 7/10/74 16/9/74 12/10/82
f 16/9/74 27/9/82 12/10/82

g snow-detail-tree




usemtl colormap

f 3/2/3 2/1/2 1/1/1
f 1/1/6 2/1/5 3/2/4
f 5/2/8 4/1/7 2/1/2
f 2/1/5 4/1/10 5/2/9
f 5/2/8 2/1/2 3/2/3
f 3/2/4 2/1/5 5/2/9
f 8/2/13 7/1/12 6/1/11
f 6/1/16 7/1/15 8/2/14
f 8/2/13 6/1/11 9/2/17
f 9/2/18 6/1/16 8/2/14
f 9/2/17 6/1/11 10/1/19
f 10/1/20 6/1/16 9/2/18
f 11/1/21 9/2/17 10/1/19
f 10/1/20 9/2/18 11/1/22
f 4/1/7 5/2/8 11/1/21
f 11/1/22 5/2/9 4/1/10
f 5/2/8 9/2/17 11/1/21
f 11/1/22 9/2/18 5/2/9
f 1/1/1 12/1/23 3/2/3
f 3/2/4 12/1/24 1/1/6
f 3/2/3 12/1/23 8/2/13
f 8/2/14 12/1/24 3/2/4
f 12/1/23 7/1/12 8/2/13
f 8/2/14 7/1/15 12/1/24
f 15/4/25 14/3/26 13/3/25
f 14/3/26 15/4/25 16/4/26
f 13/3/27 14/3/28 15/4/27
f 16/4/28 15/4/27 14/3/28
f 18/4/29 13/3/25 17/3/29
f 13/3/25 18/4/29 15/4/25
f 17/3/30 13/3/27 18/4/30
f 15/4/27 18/4/30 13/3/27
f 21/4/31 20/3/32 19/3/31
f 20/3/32 21/4/31 22/4/32
f 19/3/33 20/3/34 21/4/33
f 22/4/34 21/4/33 20/3/34
f 24/4/35 19/3/31 23/3/35
f 19/3/31 24/4/35 21/4/31
f 23/3/36 19/3/33 24/4/36
f 21/4/33 24/4/36 19/3/33
f 9/2/37 3/2/37 8/2/37
f 3/2/37 9/2/37 5/2/37
f 8/2/38 3/2/38 9/2/38
f 5/2/38 9/2/38 3/2/38
f 26/3/39 22/4/32 25/4/39
f 22/4/32 26/3/39 20/3/32
f 25/4/40 22/4/34 26/3/40
f 20/3/34 26/3/40 22/4/34
f 24/4/35 28/3/41 27/4/41
f 28/3/41 24/4/35 23/3/35
f 27/4/42 28/3/42 24/4/36
f 23/3/36 24/4/36 28/3/42
f 26/3/39 18/4/29 17/3/29
f 18/4/29 26/3/39 25/4/39
f 17/3/30 18/4/30 26/3/40
f 25/4/40 26/3/40 18/4/30
f 16/4/26 28/3/41 14/3/26
f 28/3/41 16/4/26 27/4/41
f 14/3/28 28/3/42 16/4/28
f 27/4/42 16/4/28 28/3/42
f 31/5/38 30/5/38 29/5/38
f 30/5/38 31/5/38 32/5/38
f 29/5/37 30/5/37 31/5/37
f 32/5/37 31/5/37 30/5/37
f 33/6/43 29/5/43 30/5/43
f 29/5/43 33/6/43 34/6/43
f 30/5/44 29/5/44 33/6/44
f 34/6/44 33/6/44 29/5/44
f 32/5/45 33/6/45 30/5/45
f 33/6/45 32/5/45 35/6/45
f 30/5/46 33/6/46 32/5/46
f 35/6/46 32/5/46 33/6/46
f 34/6/47 31/5/47 29/5/47
f 31/5/47 34/6/47 36/6/47
f 29/5/48 31/5/48 34/6/48
f 36/6/48 34/6/48 31/5/48
f 36/6/49 32/5/49 31/5/49
f 32/5/49 36/6/49 35/6/49
f 31/5/50 32/5/50 36/6/50
f 35/6/50 36/6/50 32/5/50
f 39/7/38 38/7/38 37/7/38
f 38/7/38 39/7/38 40/7/38
f 38/7/38 40/7/38 36/7/38
f 38/7/38 36/7/38 34/7/38
f 36/7/38 40/7/38 35/7/38
f 34/7/38 41/7/38 38/7/38
f 35/7/38 40/7/38 42/7/38
f 41/7/38 34/7/38 33/7/38
f 35/7/38 42/7/38 33/7/38
f 41/7/38 33/7/38 43/7/38
f 43/7/38 33/7/38 42/7/38
f 43/7/38 42/7/38 44/7/38
f 37/7/37 38/7/37 39/7/37
f 40/7/37 39/7/37 38/7/37
f 36/7/37 40/7/37 38/7/37
f 34/7/37 36/7/37 38/7/37
f 35/7/37 40/7/37 36/7/37
f 38/7/37 41/7/37 34/7/37
f 42/7/37 40/7/37 35/7/37
f 33/7/37 34/7/37 41/7/37
f 33/7/37 42/7/37 35/7/37
f 43/7/37 33/7/37 41/7/37
f 42/7/37 33/7/37 43/7/37
f 44/7/37 42/7/37 43/7/37
f 17/8/51 41/7/52 43/7/51
f 41/7/52 17/8/51 13/8/52
f 43/7/53 41/7/54 17/8/53
f 13/8/54 17/8/53 41/7/54
f 13/8/52 38/7/55 41/7/52
f 38/7/55 13/8/52 14/8/55
f 41/7/54 38/7/56 13/8/54
f 14/8/56 13/8/54 38/7/56
f 28/8/57 38/7/55 14/8/55
f 38/7/55 28/8/57 37/7/57
f 14/8/56 38/7/56 28/8/58
f 37/7/58 28/8/58 38/7/56
f 43/7/51 26/8/59 17/8/51
f 26/8/59 43/7/51 44/7/59
f 17/8/53 26/8/60 43/7/53
f 44/7/60 43/7/53 26/8/60
f 42/7/61 26/8/59 44/7/59
f 26/8/59 42/7/61 20/8/61
f 44/7/60 26/8/60 42/7/62
f 20/8/62 42/7/62 26/8/60
f 23/8/63 37/7/57 28/8/57
f 37/7/57 23/8/63 39/7/63
f 28/8/58 37/7/58 23/8/64
f 39/7/64 23/8/64 37/7/58
f 23/8/63 40/7/65 39/7/63
f 40/7/65 23/8/63 19/8/65
f 39/7/64 40/7/66 23/8/64
f 19/8/66 23/8/64 40/7/66
f 19/8/65 42/7/61 40/7/65
f 42/7/61 19/8/65 20/8/61
f 40/7/66 42/7/62 19/8/66
f 20/8/62 19/8/66 42/7/62
f 2/10/67 22/9/68 21/9/67
f 4/10/68 22/9/68 2/10/67
f 21/9/69 22/9/70 2/10/69
f 2/10/69 22/9/70 4/10/70
f 6/10/71 16/9/72 15/9/71
f 7/10/72 16/9/72 6/10/71
f 15/9/73 16/9/74 6/10/73
f 6/10/73 16/9/74 7/10/74
f 10/10/75 15/9/71 18/9/75
f 6/10/71 15/9/71 10/10/75
f 18/9/76 15/9/73 10/10/76
f 10/10/76 15/9/73 6/10/73
f 25/9/77 10/10/75 18/9/75
f 11/10/77 10/10/75 25/9/77
f 18/9/76 10/10/76 25/9/78
f 25/9/78 10/10/76 11/10/78
f 22/9/68 11/10/77 25/9/77
f 4/10/68 11/10/77 22/9/68
f 25/9/78 11/10/78 22/9/70
f 22/9/70 11/10/78 4/10/70
f 1/10/80 27/9/79 12/10/79
f 1/10/80 24/9/80 27/9/79
f 12/10/82 27/9/82 1/10/81
f 27/9/82 24/9/81 1/10/81
f 1/10/80 21/9/67 24/9/80
f 2/10/67 21/9/67 1/10/80
f 24/9/81 21/9/69 1/10/81
f 1/10/81 21/9/69 2/10/69
f 12/10/79 16/9/72 7/10/72
f 12/10/79 27/9/79 16/9/72
f 7/10/74 16/9/74 12/10/82
f 16/9/74 27/9/82 12/10/82

