# Created by Kenney (www.kenney.nl)

mtllib snow-tile-split.mtl

g snow-tile-split

v 0.375 0.2 0.5 1 1 1
v 0.5 0.2 0.5 1 1 1
v 0.375 0.1 0.5 1 1 1
v 0.5 0 0.5 1 1 1
v -0.5 0 0.5 1 1 1
v -0.375 0.1 0.5 1 1 1
v -0.5 0.2 0.5 1 1 1
v -0.375 0.2 0.5 1 1 1
v 0.5 6.01112E-32 -0.375 1 1 1
v 0.5 0 -0.5 1 1 1
v -0.5 0 -0.375 1 1 1
v -0.5 0 -0.5 1 1 1
v -0.384515 0.2 0.4521646 1 1 1
v -0.4116116 0.2 0.4116116 1 1 1
v -0.4521646 0.2 0.384515 1 1 1
v -0.5 0.2 0.375 1 1 1
v 0.5 0.2 0.375 1 1 1
v 0.4521646 0.2 0.384515 1 1 1
v 0.4116116 0.2 0.4116116 1 1 1
v 0.384515 0.2 0.4521646 1 1 1
v 0.5 0.1 0.375 1 1 1
v 0.5 0.1 -0.375 1 1 1
v 0.5 0.2 -0.375 1 1 1
v 0.5 0.2 -0.5 1 1 1
v -0.5 0.1 0.375 1 1 1
v -0.5 0.1 -0.375 1 1 1
v -0.5 0.2 -0.375 1 1 1
v -0.5 0.2 -0.5 1 1 1
v 0.4521646 0.1 0.384515 1 1 1
v 0.4116116 0.1 0.4116116 1 1 1
v 0.384515 0.1 0.4521646 1 1 1
v -0.384515 0.1 0.4521646 1 1 1
v -0.4116116 0.1 0.4116116 1 1 1
v -0.4521646 0.1 0.384515 1 1 1
v 0.3389874 0.115975 -0.2037107 1 1 1
v 0.2915826 0.115975 -0.2107528 1 1 1
v 0.3687885 0.115975 -0.2412434 1 1 1
v 0.3511847 0.115975 -0.2858182 1 1 1
v 0.2739789 0.115975 -0.2553276 1 1 1
v 0.3037799 0.115975 -0.2928603 1 1 1
v 0.3448553 0.1 -0.1888524 1 1 1
v 0.281649 0.1 -0.1982419 1 1 1
v 0.3611183 0.1 -0.2983291 1 1 1
v 0.297912 0.1 -0.3077186 1 1 1
v 0.3845901 0.1 -0.238896 1 1 1
v 0.2581773 0.1 -0.257675 1 1 1
v 0.1861525 0.13195 -0.1116719 1 1 1
v 0.2000171 0.13195 -0.1575476 1 1 1
v 0.2189498 0.13195 -0.07672697 1 1 1
v 0.2656116 0.13195 -0.08765779 1 1 1
v 0.2466789 0.13195 -0.1684784 1 1 1
v 0.2794761 0.13195 -0.1335335 1 1 1
v 0.1705986 0.1 -0.1080283 1 1 1
v 0.1890847 0.1 -0.1691959 1 1 1
v 0.276544 0.1 -0.07600948 1 1 1
v 0.2950301 0.1 -0.1371771 1 1 1
v 0.2143283 0.1 -0.06143507 1 1 1
v 0.2513004 0.1 -0.1837703 1 1 1
v -0.231758 0.115975 0.3405767 1 1 1
v -0.2791628 0.115975 0.3335346 1 1 1
v -0.2019569 0.115975 0.303044 1 1 1
v -0.2195607 0.115975 0.2584692 1 1 1
v -0.2967665 0.115975 0.2889598 1 1 1
v -0.2669655 0.115975 0.2514271 1 1 1
v -0.22589 0.1 0.355435 1 1 1
v -0.2890964 0.1 0.3460455 1 1 1
v -0.209627 0.1 0.2459583 1 1 1
v -0.2728334 0.1 0.2365688 1 1 1
v -0.1861553 0.1 0.3053914 1 1 1
v -0.3125681 0.1 0.2866125 1 1 1

vn 0 0 1
vn 0 0 -1
vn 0 -1 0
vn 0 1 0
vn 1 0 0
vn -1 0 0
vn 0 0.7071068 0.7071068
vn -0.129611 0.7474093 -0.6515982
vn -0.2514771 0.7537675 -0.6071194
vn -0.4646691 0.7537675 -0.4646691
vn -0.6071194 0.7537675 -0.2514771
vn -0.6515982 0.7474093 -0.129611
vn 0.6515982 0.7474093 -0.129611
vn 0.6071194 0.7537675 -0.2514771
vn 0.4646691 0.7537675 -0.4646691
vn 0.2514771 0.7537675 -0.6071194
vn 0.129611 0.7474093 -0.6515982
vn 0 -0.7071068 -0.7071068
vn 0.129611 -0.7474093 0.6515982
vn 0.2514771 -0.7537675 0.6071194
vn 0.4646691 -0.7537675 0.4646691
vn 0.6071194 -0.7537675 0.2514771
vn 0.6515982 -0.7474093 0.129611
vn -0.6515982 -0.7474093 0.129611
vn -0.6071194 -0.7537675 0.2514771
vn -0.4646691 -0.7537675 0.4646691
vn -0.2514771 -0.7537675 0.6071194
vn -0.129611 -0.7474093 0.6515982
vn -0.1950903 0 -0.9807853
vn -0.3826834 0 -0.9238795
vn 0.1950903 0 0.9807853
vn 0.3826834 0 0.9238795
vn -0.7071068 0 -0.7071068
vn -0.9238795 0 -0.3826834
vn 0.7071068 0 0.7071068
vn 0.9238795 0 0.3826834
vn 0.7071068 0 -0.7071068
vn 0.9238795 0 -0.3826834
vn -0.9238795 0 0.3826834
vn -0.7071068 0 0.7071068
vn 0.9807853 0 -0.1950903
vn -0.9807853 0 0.1950903
vn 0.1950903 0 -0.9807853
vn 0.3826834 0 -0.9238795
vn -0.1950903 0 0.9807853
vn -0.3826834 0 0.9238795
vn -0.9807853 0 -0.1950903
vn 0.9807853 0 0.1950903
vn 0.2597339 0.7071068 0.6576765
vn -0.4396976 0.7071068 0.5537744
vn 0.4396976 -0.7071068 -0.5537744
vn -0.2597339 -0.7071068 -0.6576765
vn 0.4396976 0.7071068 -0.5537744
vn -0.2597339 0.7071068 -0.6576765
vn 0.2597339 -0.7071068 0.6576765
vn -0.4396976 -0.7071068 0.5537744
vn 0.6994314 0.7071068 0.1039021
vn -0.6994314 -0.7071068 -0.1039021
vn -0.6994314 0.7071068 -0.1039021
vn 0.6994314 -0.7071068 0.1039021
vn -0.8708519 0.4472136 0.2040024
vn -0.6120972 0.4472136 -0.6521786
vn 0.6120972 -0.4472136 0.6521786
vn 0.8708519 -0.4472136 -0.2040024
vn 0.6120972 0.4472136 0.6521786
vn 0.8708519 0.4472136 -0.2040024
vn -0.8708519 -0.4472136 0.2040024
vn -0.6120972 -0.4472136 -0.6521786
vn -0.2587547 0.4472136 0.856181
vn 0.2587547 -0.4472136 -0.856181
vn 0.2587547 0.4472136 -0.856181
vn -0.2587547 -0.4472136 0.856181

vt 0.96875 0.225
vt 0.96875 0.125
vt 0.96875 0.025
vt 0.09375 0.175
vt 0.09375 0.075

usemtl colormap

f 3/2/1 2/1/1 1/1/1
f 3/2/1 4/3/1 2/1/1
f 4/3/1 3/2/1 5/3/1
f 6/2/1 5/3/1 3/2/1
f 5/3/1 6/2/1 7/1/1
f 7/1/1 6/2/1 8/1/1
f 1/1/2 2/1/2 3/2/2
f 2/1/2 4/3/2 3/2/2
f 5/3/2 3/2/2 4/3/2
f 3/2/2 5/3/2 6/2/2
f 7/1/2 6/2/2 5/3/2
f 8/1/2 6/2/2 7/1/2
f 11/3/3 10/3/3 9/3/3
f 10/3/3 11/3/3 12/3/3
f 9/3/4 10/3/4 11/3/4
f 12/3/4 11/3/4 10/3/4
f 13/1/4 7/1/4 8/1/4
f 7/1/4 13/1/4 14/1/4
f 7/1/4 14/1/4 15/1/4
f 7/1/4 15/1/4 16/1/4
f 8/1/3 7/1/3 13/1/3
f 14/1/3 13/1/3 7/1/3
f 15/1/3 14/1/3 7/1/3
f 16/1/3 15/1/3 7/1/3
f 17/1/4 1/1/4 2/1/4
f 1/1/4 17/1/4 18/1/4
f 1/1/4 18/1/4 19/1/4
f 1/1/4 19/1/4 20/1/4
f 2/1/3 1/1/3 17/1/3
f 18/1/3 17/1/3 1/1/3
f 19/1/3 18/1/3 1/1/3
f 20/1/3 19/1/3 1/1/3
f 2/1/5 21/2/5 17/1/5
f 4/3/5 21/2/5 2/1/5
f 9/3/5 21/2/5 4/3/5
f 9/3/5 22/2/5 21/2/5
f 9/3/5 23/1/5 22/2/5
f 10/3/5 23/1/5 9/3/5
f 23/1/5 10/3/5 24/1/5
f 17/1/6 21/2/6 2/1/6
f 2/1/6 21/2/6 4/3/6
f 4/3/6 21/2/6 9/3/6
f 21/2/6 22/2/6 9/3/6
f 22/2/6 23/1/6 9/3/6
f 9/3/6 23/1/6 10/3/6
f 24/1/6 10/3/6 23/1/6
f 16/1/6 5/3/6 7/1/6
f 25/2/6 5/3/6 16/1/6
f 26/2/6 5/3/6 25/2/6
f 5/3/6 26/2/6 11/3/6
f 27/1/6 11/3/6 26/2/6
f 28/1/6 11/3/6 27/1/6
f 11/3/6 28/1/6 12/3/6
f 7/1/5 5/3/5 16/1/5
f 16/1/5 5/3/5 25/2/5
f 25/2/5 5/3/5 26/2/5
f 11/3/5 26/2/5 5/3/5
f 26/2/5 11/3/5 27/1/5
f 27/1/5 11/3/5 28/1/5
f 12/3/5 28/1/5 11/3/5
f 28/1/4 23/1/4 24/1/4
f 23/1/4 28/1/4 27/1/4
f 24/1/3 23/1/3 28/1/3
f 27/1/3 28/1/3 23/1/3
f 28/1/2 10/3/2 12/3/2
f 10/3/2 28/1/2 24/1/2
f 12/3/1 10/3/1 28/1/1
f 24/1/1 28/1/1 10/3/1
f 26/4/7 21/4/8 22/4/7
f 21/4/8 26/4/7 29/4/9
f 29/4/9 26/4/7 30/4/10
f 30/4/10 26/4/7 31/4/11
f 31/4/11 26/4/7 3/4/12
f 3/4/12 26/4/7 6/4/13
f 6/4/13 26/4/7 32/4/14
f 32/4/14 26/4/7 33/4/15
f 33/4/15 26/4/7 34/4/16
f 34/4/16 26/4/7 25/4/17
f 22/4/18 21/4/19 26/4/18
f 29/4/20 26/4/18 21/4/19
f 30/4/21 26/4/18 29/4/20
f 31/4/22 26/4/18 30/4/21
f 3/4/23 26/4/18 31/4/22
f 6/4/24 26/4/18 3/4/23
f 32/4/25 26/4/18 6/4/24
f 33/4/26 26/4/18 32/4/25
f 34/4/27 26/4/18 33/4/26
f 25/4/28 26/4/18 34/4/27
f 29/4/9 17/5/29 21/4/8
f 17/5/29 29/4/9 18/5/30
f 21/4/19 17/5/31 29/4/20
f 18/5/32 29/4/20 17/5/31
f 31/4/11 19/5/33 30/4/10
f 19/5/33 31/4/11 20/5/34
f 30/4/21 19/5/35 31/4/22
f 20/5/36 31/4/22 19/5/35
f 13/5/38 33/4/15 14/5/37
f 33/4/15 13/5/38 32/4/14
f 14/5/40 33/4/26 13/5/39
f 32/4/25 13/5/39 33/4/26
f 8/5/41 32/4/14 13/5/38
f 32/4/14 8/5/41 6/4/13
f 13/5/39 32/4/25 8/5/42
f 6/4/24 8/5/42 32/4/25
f 16/5/43 34/4/16 25/4/17
f 34/4/16 16/5/43 15/5/44
f 25/4/28 34/4/27 16/5/45
f 15/5/46 16/5/45 34/4/27
f 19/5/33 29/4/9 30/4/10
f 29/4/9 19/5/33 18/5/30
f 30/4/21 29/4/20 19/5/35
f 18/5/32 19/5/35 29/4/20
f 23/5/1 26/4/7 22/4/7
f 26/4/7 23/5/1 27/5/1
f 22/4/18 26/4/18 23/5/2
f 27/5/2 23/5/2 26/4/18
f 3/4/12 20/5/34 31/4/11
f 20/5/34 3/4/12 1/5/47
f 31/4/22 20/5/36 3/4/23
f 1/5/48 3/4/23 20/5/36
f 15/5/44 33/4/15 34/4/16
f 33/4/15 15/5/44 14/5/37
f 34/4/27 33/4/26 15/5/46
f 14/5/40 15/5/46 33/4/26
f 37/4/4 36/4/4 35/4/4
f 36/4/4 37/4/4 38/4/4
f 36/4/4 38/4/4 39/4/4
f 39/4/4 38/4/4 40/4/4
f 35/4/3 36/4/3 37/4/3
f 38/4/3 37/4/3 36/4/3
f 39/4/3 38/4/3 36/4/3
f 40/4/3 38/4/3 39/4/3
f 36/4/50 41/5/49 35/4/49
f 41/5/49 36/4/50 42/5/50
f 35/4/52 41/5/52 36/4/51
f 42/5/51 36/4/51 41/5/52
f 44/5/54 38/4/53 43/5/53
f 38/4/53 44/5/54 40/4/54
f 43/5/56 38/4/56 44/5/55
f 40/4/55 44/5/55 38/4/56
f 37/4/57 41/5/49 45/5/57
f 41/5/49 37/4/57 35/4/49
f 45/5/58 41/5/52 37/4/58
f 35/4/52 37/4/58 41/5/52
f 46/5/59 40/4/54 44/5/54
f 40/4/54 46/5/59 39/4/59
f 44/5/55 40/4/55 46/5/60
f 39/4/60 46/5/60 40/4/55
f 36/4/50 46/5/59 42/5/50
f 46/5/59 36/4/50 39/4/59
f 42/5/51 46/5/60 36/4/51
f 39/4/60 36/4/51 46/5/60
f 38/4/53 45/5/57 43/5/53
f 45/5/57 38/4/53 37/4/57
f 43/5/56 45/5/58 38/4/56
f 37/4/58 38/4/56 45/5/58
f 49/4/4 48/4/4 47/4/4
f 48/4/4 49/4/4 50/4/4
f 48/4/4 50/4/4 51/4/4
f 51/4/4 50/4/4 52/4/4
f 47/4/3 48/4/3 49/4/3
f 50/4/3 49/4/3 48/4/3
f 51/4/3 50/4/3 48/4/3
f 52/4/3 50/4/3 51/4/3
f 48/4/62 53/5/61 47/4/61
f 53/5/61 48/4/62 54/5/62
f 47/4/64 53/5/64 48/4/63
f 54/5/63 48/4/63 53/5/64
f 56/5/66 50/4/65 55/5/65
f 50/4/65 56/5/66 52/4/66
f 55/5/68 50/4/68 56/5/67
f 52/4/67 56/5/67 50/4/68
f 49/4/69 53/5/61 57/5/69
f 53/5/61 49/4/69 47/4/61
f 57/5/70 53/5/64 49/4/70
f 47/4/64 49/4/70 53/5/64
f 58/5/71 52/4/66 56/5/66
f 52/4/66 58/5/71 51/4/71
f 56/5/67 52/4/67 58/5/72
f 51/4/72 58/5/72 52/4/67
f 48/4/62 58/5/71 54/5/62
f 58/5/71 48/4/62 51/4/71
f 54/5/63 58/5/72 48/4/63
f 51/4/72 48/4/63 58/5/72
f 50/4/65 57/5/69 55/5/65
f 57/5/69 50/4/65 49/4/69
f 55/5/68 57/5/70 50/4/68
f 49/4/70 50/4/68 57/5/70
f 61/4/4 60/4/4 59/4/4
f 60/4/4 61/4/4 62/4/4
f 60/4/4 62/4/4 63/4/4
f 63/4/4 62/4/4 64/4/4
f 59/4/3 60/4/3 61/4/3
f 62/4/3 61/4/3 60/4/3
f 63/4/3 62/4/3 60/4/3
f 64/4/3 62/4/3 63/4/3
f 60/4/50 65/5/49 59/4/49
f 65/5/49 60/4/50 66/5/50
f 59/4/52 65/5/52 60/4/51
f 66/5/51 60/4/51 65/5/52
f 68/5/54 62/4/53 67/5/53
f 62/4/53 68/5/54 64/4/54
f 67/5/56 62/4/56 68/5/55
f 64/4/55 68/5/55 62/4/56
f 61/4/57 65/5/49 69/5/57
f 65/5/49 61/4/57 59/4/49
f 69/5/58 65/5/52 61/4/58
f 59/4/52 61/4/58 65/5/52
f 70/5/59 64/4/54 68/5/54
f 64/4/54 70/5/59 63/4/59
f 68/5/55 64/4/55 70/5/60
f 63/4/60 70/5/60 64/4/55
f 60/4/50 70/5/59 66/5/50
f 70/5/59 60/4/50 63/4/59
f 66/5/51 70/5/60 60/4/51
f 63/4/60 60/4/51 70/5/60
f 62/4/53 69/5/57 67/5/53
f 69/5/57 62/4/53 61/4/57
f 67/5/56 69/5/58 62/4/56
f 61/4/58 62/4/56 69/5/58

g snow-tile-split




usemtl colormap

f 3/2/1 2/1/1 1/1/1
f 3/2/1 4/3/1 2/1/1
f 4/3/1 3/2/1 5/3/1
f 6/2/1 5/3/1 3/2/1
f 5/3/1 6/2/1 7/1/1
f 7/1/1 6/2/1 8/1/1
f 1/1/2 2/1/2 3/2/2
f 2/1/2 4/3/2 3/2/2
f 5/3/2 3/2/2 4/3/2
f 3/2/2 5/3/2 6/2/2
f 7/1/2 6/2/2 5/3/2
f 8/1/2 6/2/2 7/1/2
f 11/3/3 10/3/3 9/3/3
f 10/3/3 11/3/3 12/3/3
f 9/3/4 10/3/4 11/3/4
f 12/3/4 11/3/4 10/3/4
f 13/1/4 7/1/4 8/1/4
f 7/1/4 13/1/4 14/1/4
f 7/1/4 14/1/4 15/1/4
f 7/1/4 15/1/4 16/1/4
f 8/1/3 7/1/3 13/1/3
f 14/1/3 13/1/3 7/1/3
f 15/1/3 14/1/3 7/1/3
f 16/1/3 15/1/3 7/1/3
f 17/1/4 1/1/4 2/1/4
f 1/1/4 17/1/4 18/1/4
f 1/1/4 18/1/4 19/1/4
f 1/1/4 19/1/4 20/1/4
f 2/1/3 1/1/3 17/1/3
f 18/1/3 17/1/3 1/1/3
f 19/1/3 18/1/3 1/1/3
f 20/1/3 19/1/3 1/1/3
f 2/1/5 21/2/5 17/1/5
f 4/3/5 21/2/5 2/1/5
f 9/3/5 21/2/5 4/3/5
f 9/3/5 22/2/5 21/2/5
f 9/3/5 23/1/5 22/2/5
f 10/3/5 23/1/5 9/3/5
f 23/1/5 10/3/5 24/1/5
f 17/1/6 21/2/6 2/1/6
f 2/1/6 21/2/6 4/3/6
f 4/3/6 21/2/6 9/3/6
f 21/2/6 22/2/6 9/3/6
f 22/2/6 23/1/6 9/3/6
f 9/3/6 23/1/6 10/3/6
f 24/1/6 10/3/6 23/1/6
f 16/1/6 5/3/6 7/1/6
f 25/2/6 5/3/6 16/1/6
f 26/2/6 5/3/6 25/2/6
f 5/3/6 26/2/6 11/3/6
f 27/1/6 11/3/6 26/2/6
f 28/1/6 11/3/6 27/1/6
f 11/3/6 28/1/6 12/3/6
f 7/1/5 5/3/5 16/1/5
f 16/1/5 5/3/5 25/2/5
f 25/2/5 5/3/5 26/2/5
f 11/3/5 26/2/5 5/3/5
f 26/2/5 11/3/5 27/1/5
f 27/1/5 11/3/5 28/1/5
f 12/3/5 28/1/5 11/3/5
f 28/1/4 23/1/4 24/1/4
f 23/1/4 28/1/4 27/1/4
f 24/1/3 23/1/3 28/1/3
f 27/1/3 28/1/3 23/1/3
f 28/1/2 10/3/2 12/3/2
f 10/3/2 28/1/2 24/1/2
f 12/3/1 10/3/1 28/1/1
f 24/1/1 28/1/1 10/3/1
f 26/4/7 21/4/8 22/4/7
f 21/4/8 26/4/7 29/4/9
f 29/4/9 26/4/7 30/4/10
f 30/4/10 26/4/7 31/4/11
f 31/4/11 26/4/7 3/4/12
f 3/4/12 26/4/7 6/4/13
f 6/4/13 26/4/7 32/4/14
f 32/4/14 26/4/7 33/4/15
f 33/4/15 26/4/7 34/4/16
f 34/4/16 26/4/7 25/4/17
f 22/4/18 21/4/19 26/4/18
f 29/4/20 26/4/18 21/4/19
f 30/4/21 26/4/18 29/4/20
f 31/4/22 26/4/18 30/4/21
f 3/4/23 26/4/18 31/4/22
f 6/4/24 26/4/18 3/4/23
f 32/4/25 26/4/18 6/4/24
f 33/4/26 26/4/18 32/4/25
f 34/4/27 26/4/18 33/4/26
f 25/4/28 26/4/18 34/4/27
f 29/4/9 17/5/29 21/4/8
f 17/5/29 29/4/9 18/5/30
f 21/4/19 17/5/31 29/4/20
f 18/5/32 29/4/20 17/5/31
f 31/4/11 19/5/33 30/4/10
f 19/5/33 31/4/11 20/5/34
f 30/4/21 19/5/35 31/4/22
f 20/5/36 31/4/22 19/5/35
f 13/5/38 33/4/15 14/5/37
f 33/4/15 13/5/38 32/4/14
f 14/5/40 33/4/26 13/5/39
f 32/4/25 13/5/39 33/4/26
f 8/5/41 32/4/14 13/5/38
f 32/4/14 8/5/41 6/4/13
f 13/5/39 32/4/25 8/5/42
f 6/4/24 8/5/42 32/4/25
f 16/5/43 34/4/16 25/4/17
f 34/4/16 16/5/43 15/5/44
f 25/4/28 34/4/27 16/5/45
f 15/5/46 16/5/45 34/4/27
f 19/5/33 29/4/9 30/4/10
f 29/4/9 19/5/33 18/5/30
f 30/4/21 29/4/20 19/5/35
f 18/5/32 19/5/35 29/4/20
f 23/5/1 26/4/7 22/4/7
f 26/4/7 23/5/1 27/5/1
f 22/4/18 26/4/18 23/5/2
f 27/5/2 23/5/2 26/4/18
f 3/4/12 20/5/34 31/4/11
f 20/5/34 3/4/12 1/5/47
f 31/4/22 20/5/36 3/4/23
f 1/5/48 3/4/23 20/5/36
f 15/5/44 33/4/15 34/4/16
f 33/4/15 15/5/44 14/5/37
f 34/4/27 33/4/26 15/5/46
f 14/5/40 15/5/46 33/4/26
f 37/4/4 36/4/4 35/4/4
f 36/4/4 37/4/4 38/4/4
f 36/4/4 38/4/4 39/4/4
f 39/4/4 38/4/4 40/4/4
f 35/4/3 36/4/3 37/4/3
f 38/4/3 37/4/3 36/4/3
f 39/4/3 38/4/3 36/4/3
f 40/4/3 38/4/3 39/4/3
f 36/4/50 41/5/49 35/4/49
f 41/5/49 36/4/50 42/5/50
f 35/4/52 41/5/52 36/4/51
f 42/5/51 36/4/51 41/5/52
f 44/5/54 38/4/53 43/5/53
f 38/4/53 44/5/54 40/4/54
f 43/5/56 38/4/56 44/5/55
f 40/4/55 44/5/55 38/4/56
f 37/4/57 41/5/49 45/5/57
f 41/5/49 37/4/57 35/4/49
f 45/5/58 41/5/52 37/4/58
f 35/4/52 37/4/58 41/5/52
f 46/5/59 40/4/54 44/5/54
f 40/4/54 46/5/59 39/4/59
f 44/5/55 40/4/55 46/5/60
f 39/4/60 46/5/60 40/4/55
f 36/4/50 46/5/59 42/5/50
f 46/5/59 36/4/50 39/4/59
f 42/5/51 46/5/60 36/4/51
f 39/4/60 36/4/51 46/5/60
f 38/4/53 45/5/57 43/5/53
f 45/5/57 38/4/53 37/4/57
f 43/5/56 45/5/58 38/4/56
f 37/4/58 38/4/56 45/5/58
f 49/4/4 48/4/4 47/4/4
f 48/4/4 49/4/4 50/4/4
f 48/4/4 50/4/4 51/4/4
f 51/4/4 50/4/4 52/4/4
f 47/4/3 48/4/3 49/4/3
f 50/4/3 49/4/3 48/4/3
f 51/4/3 50/4/3 48/4/3
f 52/4/3 50/4/3 51/4/3
f 48/4/62 53/5/61 47/4/61
f 53/5/61 48/4/62 54/5/62
f 47/4/64 53/5/64 48/4/63
f 54/5/63 48/4/63 53/5/64
f 56/5/66 50/4/65 55/5/65
f 50/4/65 56/5/66 52/4/66
f 55/5/68 50/4/68 56/5/67
f 52/4/67 56/5/67 50/4/68
f 49/4/69 53/5/61 57/5/69
f 53/5/61 49/4/69 47/4/61
f 57/5/70 53/5/64 49/4/70
f 47/4/64 49/4/70 53/5/64
f 58/5/71 52/4/66 56/5/66
f 52/4/66 58/5/71 51/4/71
f 56/5/67 52/4/67 58/5/72
f 51/4/72 58/5/72 52/4/67
f 48/4/62 58/5/71 54/5/62
f 58/5/71 48/4/62 51/4/71
f 54/5/63 58/5/72 48/4/63
f 51/4/72 48/4/63 58/5/72
f 50/4/65 57/5/69 55/5/65
f 57/5/69 50/4/65 49/4/69
f 55/5/68 57/5/70 50/4/68
f 49/4/70 50/4/68 57/5/70
f 61/4/4 60/4/4 59/4/4
f 60/4/4 61/4/4 62/4/4
f 60/4/4 62/4/4 63/4/4
f 63/4/4 62/4/4 64/4/4
f 59/4/3 60/4/3 61/4/3
f 62/4/3 61/4/3 60/4/3
f 63/4/3 62/4/3 60/4/3
f 64/4/3 62/4/3 63/4/3
f 60/4/50 65/5/49 59/4/49
f 65/5/49 60/4/50 66/5/50
f 59/4/52 65/5/52 60/4/51
f 66/5/51 60/4/51 65/5/52
f 68/5/54 62/4/53 67/5/53
f 62/4/53 68/5/54 64/4/54
f 67/5/56 62/4/56 68/5/55
f 64/4/55 68/5/55 62/4/56
f 61/4/57 65/5/49 69/5/57
f 65/5/49 61/4/57 59/4/49
f 69/5/58 65/5/52 61/4/58
f 59/4/52 61/4/58 65/5/52
f 70/5/59 64/4/54 68/5/54
f 64/4/54 70/5/59 63/4/59
f 68/5/55 64/4/55 70/5/60
f 63/4/60 70/5/60 64/4/55
f 60/4/50 70/5/59 66/5/50
f 70/5/59 60/4/50 63/4/59
f 66/5/51 70/5/60 60/4/51
f 63/4/60 60/4/51 70/5/60
f 62/4/53 69/5/57 67/5/53
f 69/5/57 62/4/53 61/4/57
f 67/5/56 69/5/58 62/4/56
f 61/4/58 62/4/56 69/5/58

