# Created by Kenney (www.kenney.nl)

mtllib snow-tile-bump.mtl

g snow-tile-bump

v 0.5 0 0.5 1 1 1
v 0.5 0 -0.5 1 1 1
v -0.5 0 0.5 1 1 1
v -0.5 0 -0.5 1 1 1
v 0.375 0.2 0.5 1 1 1
v 0.5 0.2 0.5 1 1 1
v 0.375 0.1 0.5 1 1 1
v -0.375 0.1 0.5 1 1 1
v -0.5 0.2 0.5 1 1 1
v -0.375 0.2 0.5 1 1 1
v -0.375 0.2 -0.5 1 1 1
v -0.5 0.2 -0.5 1 1 1
v -0.375 0.1 -0.5 1 1 1
v 0.375 0.1 -0.5 1 1 1
v 0.5 0.2 -0.5 1 1 1
v 0.375 0.2 -0.5 1 1 1
v -0.5 0.2425404 -0.3916968 1 1 1
v -0.5 0.2740728 -0.2692583 1 1 1
v -0.5 0.2934592 -0.137103 1 1 1
v -0.5 0.3 2.093543E-14 1 1 1
v -0.5 0.2934592 0.137103 1 1 1
v -0.5 0.2740728 0.2692583 1 1 1
v -0.5 0.2425404 0.3916968 1 1 1
v 0.5 0.2425404 -0.3916968 1 1 1
v 0.375 0.2425404 -0.3916968 1 1 1
v 0.5 0.2740728 -0.2692583 1 1 1
v 0.375 0.2740728 -0.2692583 1 1 1
v 0.5 0.2934592 -0.137103 1 1 1
v 0.375 0.2934592 -0.137103 1 1 1
v 0.5 0.3 -2.165734E-14 1 1 1
v 0.5 0.2934592 0.137103 1 1 1
v 0.5 0.2740728 0.2692583 1 1 1
v 0.5 0.2425404 0.3916968 1 1 1
v 0.375 0.3 -2.165734E-14 1 1 1
v 0.375 0.2934592 0.137103 1 1 1
v 0.375 0.2740728 0.2692583 1 1 1
v 0.375 0.2425404 0.3916968 1 1 1
v -0.375 0.2425404 -0.3916968 1 1 1
v -0.375 0.2740728 -0.2692583 1 1 1
v -0.375 0.3 2.093543E-14 1 1 1
v -0.375 0.2934592 0.137103 1 1 1
v -0.375 0.2740728 0.2692583 1 1 1
v -0.375 0.2425404 0.3916968 1 1 1
v -0.375 0.2934592 -0.137103 1 1 1
v -0.375 0.1425404 -0.3916968 1 1 1
v -0.375 0.1740728 -0.2692583 1 1 1
v -0.375 0.1934592 -0.137103 1 1 1
v -0.375 0.2934592 -0.137103 1 1 1
v -0.375 0.2 2.0394E-14 1 1 1
v -0.375 0.3 2.111591E-14 1 1 1
v -0.375 0.1934592 0.137103 1 1 1
v -0.375 0.2934592 0.137103 1 1 1
v -0.375 0.1740728 0.2692583 1 1 1
v -0.375 0.1425404 0.3916968 1 1 1
v 0.375 0.1425404 -0.3916968 1 1 1
v 0.375 0.1740728 -0.2692583 1 1 1
v 0.375 0.2934592 -0.137103 1 1 1
v 0.375 0.1934592 -0.137103 1 1 1
v 0.375 0.3 -2.147686E-14 1 1 1
v 0.375 0.2 2.0394E-14 1 1 1
v 0.375 0.2934592 0.137103 1 1 1
v 0.375 0.1934592 0.137103 1 1 1
v 0.375 0.1740728 0.2692583 1 1 1
v 0.375 0.1425404 0.3916968 1 1 1
v 0.2285118 0.1550966 0.3884811 1 1 1
v 0.2524742 0.1658387 0.3483911 1 1 1
v 0.2524742 0.1443545 0.4285711 1 1 1
v 0.3003992 0.1443545 0.4285711 1 1 1
v 0.3003992 0.1658387 0.3483911 1 1 1
v 0.3243617 0.1550966 0.3884811 1 1 1
v 0.2125368 0.1242353 0.3802118 1 1 1
v 0.2444867 0.1385581 0.3267584 1 1 1
v 0.3083867 0.1099125 0.4336652 1 1 1
v 0.3403367 0.1242353 0.3802118 1 1 1
v 0.2444867 0.1099125 0.4336652 1 1 1
v 0.3083867 0.1385581 0.3267584 1 1 1
v 0.09235752 0.1863979 0.2921427 1 1 1
v 0.11632 0.19714 0.2520526 1 1 1
v 0.11632 0.1756558 0.3322327 1 1 1
v 0.164245 0.1756558 0.3322327 1 1 1
v 0.164245 0.19714 0.2520526 1 1 1
v 0.1882075 0.1863979 0.2921427 1 1 1
v 0.07638253 0.1555366 0.2838734 1 1 1
v 0.1083325 0.1698594 0.23042 1 1 1
v 0.1722325 0.1412138 0.3373268 1 1 1
v 0.2041825 0.1555366 0.2838734 1 1 1
v 0.1083325 0.1412138 0.3373268 1 1 1
v 0.1722325 0.1698594 0.23042 1 1 1
v -0.2229384 0.1739461 -0.3404924 1 1 1
v -0.1989758 0.163204 -0.3805824 1 1 1
v -0.1989758 0.1846882 -0.3004023 1 1 1
v -0.1510509 0.1846882 -0.3004023 1 1 1
v -0.1510509 0.163204 -0.3805824 1 1 1
v -0.1270883 0.1739461 -0.3404924 1 1 1
v -0.2389134 0.1430848 -0.3322231 1 1 1
v -0.2069633 0.128762 -0.3856765 1 1 1
v -0.1430634 0.1574076 -0.2787697 1 1 1
v -0.1111133 0.1430848 -0.3322231 1 1 1
v -0.2069633 0.1574076 -0.2787697 1 1 1
v -0.1430634 0.128762 -0.3856765 1 1 1

vn 0 -1 0
vn 0 1 0
vn 0 0 1
vn 0 0 -1
vn -1 0 0
vn 1 0 0
vn 0 0.9307727 -0.3655982
vn 0 0.9513626 -0.3080734
vn 0 -0.9307727 0.3655982
vn 0 -0.9513626 0.3080734
vn 0 0.980293 -0.1975491
vn 0 -0.980293 0.1975491
vn 0 0.9953317 -0.09651268
vn 0 -0.9953317 0.09651268
vn 0 0.9953317 0.09651268
vn 0 -0.9953317 -0.09651268
vn 0 0.980293 0.1975491
vn 0 -0.980293 -0.1975491
vn 0 0.9513626 0.3080734
vn 0 -0.9513626 -0.3080734
vn 0 0.9307727 0.3655982
vn 0 -0.9307727 -0.3655982
vn 0.6059548 0.740429 -0.2908331
vn 0.7211144 0.6591192 -0.2134382
vn 0.7192741 0.6810355 -0.1372426
vn 0.7182974 0.6924882 -0.06714736
vn 0.7179915 0.6960518 0
vn 0.7182974 0.6924882 0.06714736
vn 0.7192741 0.6810355 0.1372426
vn 0.7211144 0.6591192 0.2134382
vn 0.6059548 0.740429 0.2908331
vn -0.7211144 -0.6591192 0.2134382
vn -0.6059548 -0.740429 0.2908331
vn -0.7192741 -0.6810355 0.1372426
vn -0.7182974 -0.6924882 0.06714736
vn -0.7179915 -0.6960518 0
vn -0.7182974 -0.6924882 -0.06714736
vn -0.7192741 -0.6810355 -0.1372426
vn -0.7211144 -0.6591192 -0.2134382
vn -0.6059548 -0.740429 -0.2908331
vn -0.6059548 0.740429 -0.2908331
vn -0.7211144 0.6591192 -0.2134382
vn -0.7192741 0.6810355 -0.1372426
vn -0.7182974 0.6924882 -0.06714736
vn -0.7179915 0.6960518 0
vn -0.7182974 0.6924882 0.06714736
vn -0.7192741 0.6810355 0.1372426
vn -0.7211144 0.6591192 0.2134382
vn -0.6059548 0.740429 0.2908331
vn 0.6059548 -0.740429 0.2908331
vn 0.7211144 -0.6591192 0.2134382
vn 0.7192741 -0.6810355 0.1372426
vn 0.7182974 -0.6924882 0.06714736
vn 0.7179915 -0.6960518 0
vn 0.7182974 -0.6924882 -0.06714736
vn 0.7192741 -0.6810355 -0.1372426
vn 0.7211144 -0.6591192 -0.2134382
vn 0.6059548 -0.740429 -0.2908331
vn -1.506435E-15 0.9659258 0.258819
vn 1.506435E-15 -0.9659258 -0.258819
vn -0.8944272 0.4319752 0.1157474
vn -0.4472136 0.6324555 -0.6324555
vn 0.4472136 -0.6324555 0.6324555
vn 0.8944272 -0.4319752 -0.1157474
vn 0.4472136 0.2314949 0.8639503
vn 0.8944272 0.4319752 0.1157474
vn -0.8944272 -0.4319752 -0.1157474
vn -0.4472136 -0.2314949 -0.8639503
vn -0.4472136 0.2314949 0.8639503
vn 0.4472136 -0.2314949 -0.8639503
vn 0.4472136 0.6324555 -0.6324555
vn -0.4472136 -0.6324555 0.6324555
vn 1.506435E-15 0.9659258 -0.258819
vn -1.506435E-15 -0.9659258 0.258819
vn -0.8944272 0.4319752 -0.1157474
vn -0.4472136 0.2314949 -0.8639503
vn 0.4472136 -0.2314949 0.8639503
vn 0.8944272 -0.4319752 0.1157474
vn 0.4472136 0.6324555 0.6324555
vn 0.8944272 0.4319752 -0.1157474
vn -0.8944272 -0.4319752 0.1157474
vn -0.4472136 -0.6324555 -0.6324555
vn -0.4472136 0.6324555 0.6324555
vn 0.4472136 -0.6324555 -0.6324555
vn 0.4472136 0.2314949 -0.8639503
vn -0.4472136 -0.2314949 0.8639503

vt 0.96875 0.025
vt 0.96875 0.1583333
vt 0.96875 0.09166666
vt 0.96875 0.1866936
vt 0.96875 0.2077152
vt 0.96875 0.2206395
vt 0.96875 0.225
vt 0.09375 0.175
vt 0.09375 0.1537298
vt 0.09375 0.125
vt 0.09375 0.1037298
vt 0.09375 0.1379636
vt 0.09375 0.0879636
vt 0.09375 0.1282704
vt 0.09375 0.0782704
vt 0.09375 0.075

usemtl colormap

f 3/1/1 2/1/1 1/1/1
f 2/1/1 3/1/1 4/1/1
f 1/1/2 2/1/2 3/1/2
f 4/1/2 3/1/2 2/1/2
f 7/3/3 6/2/3 5/2/3
f 7/3/3 1/1/3 6/2/3
f 1/1/3 7/3/3 3/1/3
f 8/3/3 3/1/3 7/3/3
f 3/1/3 8/3/3 9/2/3
f 9/2/3 8/3/3 10/2/3
f 5/2/4 6/2/4 7/3/4
f 6/2/4 1/1/4 7/3/4
f 3/1/4 7/3/4 1/1/4
f 7/3/4 3/1/4 8/3/4
f 9/2/4 8/3/4 3/1/4
f 10/2/4 8/3/4 9/2/4
f 13/3/4 12/2/4 11/2/4
f 13/3/4 4/1/4 12/2/4
f 4/1/4 13/3/4 2/1/4
f 14/3/4 2/1/4 13/3/4
f 2/1/4 14/3/4 15/2/4
f 15/2/4 14/3/4 16/2/4
f 11/2/3 12/2/3 13/3/3
f 12/2/3 4/1/3 13/3/3
f 2/1/3 13/3/3 4/1/3
f 13/3/3 2/1/3 14/3/3
f 15/2/3 14/3/3 2/1/3
f 16/2/3 14/3/3 15/2/3
f 3/1/5 12/2/5 4/1/5
f 12/2/5 3/1/5 17/4/5
f 17/4/5 3/1/5 18/5/5
f 18/5/5 3/1/5 19/6/5
f 19/6/5 3/1/5 20/7/5
f 20/7/5 3/1/5 21/6/5
f 21/6/5 3/1/5 22/5/5
f 22/5/5 3/1/5 23/4/5
f 23/4/5 3/1/5 9/2/5
f 4/1/6 12/2/6 3/1/6
f 17/4/6 3/1/6 12/2/6
f 18/5/6 3/1/6 17/4/6
f 19/6/6 3/1/6 18/5/6
f 20/7/6 3/1/6 19/6/6
f 21/6/6 3/1/6 20/7/6
f 22/5/6 3/1/6 21/6/6
f 23/4/6 3/1/6 22/5/6
f 9/2/6 3/1/6 23/4/6
f 16/2/7 24/4/8 15/2/7
f 24/4/8 16/2/7 25/4/8
f 15/2/9 24/4/10 16/2/9
f 25/4/10 16/2/9 24/4/10
f 25/4/8 26/5/11 24/4/8
f 26/5/11 25/4/8 27/5/11
f 24/4/10 26/5/12 25/4/10
f 27/5/12 25/4/10 26/5/12
f 27/5/11 28/6/13 26/5/11
f 28/6/13 27/5/11 29/6/13
f 26/5/12 28/6/14 27/5/12
f 29/6/14 27/5/12 28/6/14
f 24/4/6 2/1/6 15/2/6
f 2/1/6 24/4/6 1/1/6
f 1/1/6 24/4/6 26/5/6
f 1/1/6 26/5/6 28/6/6
f 1/1/6 28/6/6 30/7/6
f 1/1/6 30/7/6 31/6/6
f 1/1/6 31/6/6 32/5/6
f 1/1/6 32/5/6 33/4/6
f 1/1/6 33/4/6 6/2/6
f 15/2/5 2/1/5 24/4/5
f 1/1/5 24/4/5 2/1/5
f 26/5/5 24/4/5 1/1/5
f 28/6/5 26/5/5 1/1/5
f 30/7/5 28/6/5 1/1/5
f 31/6/5 30/7/5 1/1/5
f 32/5/5 31/6/5 1/1/5
f 33/4/5 32/5/5 1/1/5
f 6/2/5 33/4/5 1/1/5
f 29/6/13 30/7/2 28/6/13
f 30/7/2 29/6/13 34/7/2
f 28/6/14 30/7/1 29/6/14
f 34/7/1 29/6/14 30/7/1
f 34/7/2 31/6/15 30/7/2
f 31/6/15 34/7/2 35/6/15
f 30/7/1 31/6/16 34/7/1
f 35/6/16 34/7/1 31/6/16
f 35/6/15 32/5/17 31/6/15
f 32/5/17 35/6/15 36/5/17
f 31/6/16 32/5/18 35/6/16
f 36/5/18 35/6/16 32/5/18
f 36/5/17 33/4/19 32/5/17
f 33/4/19 36/5/17 37/4/19
f 32/5/18 33/4/20 36/5/18
f 37/4/20 36/5/18 33/4/20
f 37/4/19 6/2/21 33/4/19
f 6/2/21 37/4/19 5/2/21
f 33/4/20 6/2/22 37/4/20
f 5/2/22 37/4/20 6/2/22
f 17/4/8 39/5/11 38/4/8
f 39/5/11 17/4/8 18/5/11
f 38/4/10 39/5/12 17/4/10
f 18/5/12 17/4/10 39/5/12
f 20/7/2 41/6/15 40/7/2
f 41/6/15 20/7/2 21/6/15
f 40/7/1 41/6/16 20/7/1
f 21/6/16 20/7/1 41/6/16
f 21/6/15 42/5/17 41/6/15
f 42/5/17 21/6/15 22/5/17
f 41/6/16 42/5/18 21/6/16
f 22/5/18 21/6/16 42/5/18
f 12/2/7 38/4/8 11/2/7
f 38/4/8 12/2/7 17/4/8
f 11/2/9 38/4/10 12/2/9
f 17/4/10 12/2/9 38/4/10
f 23/4/19 10/2/21 43/4/19
f 10/2/21 23/4/19 9/2/21
f 43/4/20 10/2/22 23/4/20
f 9/2/22 23/4/20 10/2/22
f 22/5/17 43/4/19 42/5/17
f 43/4/19 22/5/17 23/4/19
f 42/5/18 43/4/20 22/5/18
f 23/4/20 22/5/18 43/4/20
f 19/6/13 40/7/2 44/6/13
f 40/7/2 19/6/13 20/7/2
f 44/6/14 40/7/1 19/6/14
f 20/7/1 19/6/14 40/7/1
f 18/5/11 44/6/13 39/5/11
f 44/6/13 18/5/11 19/6/13
f 39/5/12 44/6/14 18/5/12
f 19/6/14 18/5/12 44/6/14
f 11/10/6 45/9/24 13/8/23
f 45/9/24 11/10/6 38/11/6
f 45/9/24 38/11/6 46/12/25
f 46/12/25 38/11/6 39/13/6
f 46/12/25 39/13/6 47/14/26
f 47/14/26 39/13/6 48/15/6
f 47/14/26 48/15/6 49/10/27
f 49/10/27 48/15/6 50/16/6
f 49/10/27 50/16/6 51/14/28
f 51/14/28 50/16/6 52/15/6
f 51/14/28 52/15/6 53/12/29
f 53/12/29 52/15/6 42/13/6
f 53/12/29 42/13/6 54/9/30
f 54/9/30 42/13/6 43/11/6
f 54/9/30 43/11/6 8/8/31
f 8/8/31 43/11/6 10/10/6
f 13/8/33 45/9/32 11/10/5
f 38/11/5 11/10/5 45/9/32
f 46/12/34 38/11/5 45/9/32
f 39/13/5 38/11/5 46/12/34
f 47/14/35 39/13/5 46/12/34
f 48/15/5 39/13/5 47/14/35
f 49/10/36 48/15/5 47/14/35
f 50/16/5 48/15/5 49/10/36
f 51/14/37 50/16/5 49/10/36
f 52/15/5 50/16/5 51/14/37
f 53/12/38 52/15/5 51/14/37
f 42/13/5 52/15/5 53/12/38
f 54/9/39 42/13/5 53/12/38
f 43/11/5 42/13/5 54/9/39
f 8/8/40 43/11/5 54/9/39
f 10/10/5 43/11/5 8/8/40
f 14/8/41 25/11/5 16/10/5
f 25/11/5 14/8/41 55/9/42
f 25/11/5 55/9/42 27/13/5
f 27/13/5 55/9/42 56/12/43
f 27/13/5 56/12/43 57/15/5
f 57/15/5 56/12/43 58/14/44
f 57/15/5 58/14/44 59/16/5
f 59/16/5 58/14/44 60/10/45
f 59/16/5 60/10/45 61/15/5
f 61/15/5 60/10/45 62/14/46
f 61/15/5 62/14/46 36/13/5
f 36/13/5 62/14/46 63/12/47
f 36/13/5 63/12/47 37/11/5
f 37/11/5 63/12/47 64/9/48
f 37/11/5 64/9/48 5/10/5
f 5/10/5 64/9/48 7/8/49
f 16/10/6 25/11/6 14/8/50
f 55/9/51 14/8/50 25/11/6
f 27/13/6 55/9/51 25/11/6
f 56/12/52 55/9/51 27/13/6
f 57/15/6 56/12/52 27/13/6
f 58/14/53 56/12/52 57/15/6
f 59/16/6 58/14/53 57/15/6
f 60/10/54 58/14/53 59/16/6
f 61/15/6 60/10/54 59/16/6
f 62/14/55 60/10/54 61/15/6
f 36/13/6 62/14/55 61/15/6
f 63/12/56 62/14/55 36/13/6
f 37/11/6 63/12/56 36/13/6
f 64/9/57 63/12/56 37/11/6
f 5/10/6 64/9/57 37/11/6
f 7/8/58 64/9/57 5/10/6
f 49/10/27 62/14/46 60/10/45
f 62/14/46 49/10/27 51/14/28
f 60/10/54 62/14/55 49/10/36
f 51/14/37 49/10/36 62/14/55
f 53/12/29 64/9/48 63/12/47
f 64/9/48 53/12/29 54/9/30
f 63/12/56 64/9/57 53/12/38
f 54/9/39 53/12/38 64/9/57
f 46/12/25 58/14/44 56/12/43
f 58/14/44 46/12/25 47/14/26
f 56/12/52 58/14/53 46/12/34
f 47/14/35 46/12/34 58/14/53
f 13/8/23 55/9/42 14/8/41
f 55/9/42 13/8/23 45/9/24
f 14/8/50 55/9/51 13/8/33
f 45/9/32 13/8/33 55/9/51
f 47/14/26 60/10/45 58/14/44
f 60/10/45 47/14/26 49/10/27
f 58/14/53 60/10/54 47/14/35
f 49/10/36 47/14/35 60/10/54
f 45/9/24 56/12/43 55/9/42
f 56/12/43 45/9/24 46/12/25
f 55/9/51 56/12/52 45/9/32
f 46/12/34 45/9/32 56/12/52
f 54/9/30 7/8/49 64/9/48
f 7/8/49 54/9/30 8/8/31
f 64/9/57 7/8/58 54/9/39
f 8/8/40 54/9/39 7/8/58
f 51/14/28 63/12/47 62/14/46
f 63/12/47 51/14/28 53/12/29
f 62/14/55 63/12/56 51/14/37
f 53/12/38 51/14/37 63/12/56
f 67/8/59 66/8/59 65/8/59
f 66/8/59 67/8/59 68/8/59
f 66/8/59 68/8/59 69/8/59
f 69/8/59 68/8/59 70/8/59
f 65/8/60 66/8/60 67/8/60
f 68/8/60 67/8/60 66/8/60
f 69/8/60 68/8/60 66/8/60
f 70/8/60 68/8/60 69/8/60
f 66/8/62 71/16/61 65/8/61
f 71/16/61 66/8/62 72/16/62
f 65/8/64 71/16/64 66/8/63
f 72/16/63 66/8/63 71/16/64
f 74/16/66 68/8/65 73/16/65
f 68/8/65 74/16/66 70/8/66
f 73/16/68 68/8/68 74/16/67
f 70/8/67 74/16/67 68/8/68
f 67/8/69 71/16/61 75/16/69
f 71/16/61 67/8/69 65/8/61
f 75/16/70 71/16/64 67/8/70
f 65/8/64 67/8/70 71/16/64
f 76/16/71 70/8/66 74/16/66
f 70/8/66 76/16/71 69/8/71
f 74/16/67 70/8/67 76/16/72
f 69/8/72 76/16/72 70/8/67
f 66/8/62 76/16/71 72/16/62
f 76/16/71 66/8/62 69/8/71
f 72/16/63 76/16/72 66/8/63
f 69/8/72 66/8/63 76/16/72
f 68/8/65 75/16/69 73/16/65
f 75/16/69 68/8/65 67/8/69
f 73/16/68 75/16/70 68/8/68
f 67/8/70 68/8/68 75/16/70
f 79/8/59 78/8/59 77/8/59
f 78/8/59 79/8/59 80/8/59
f 78/8/59 80/8/59 81/8/59
f 81/8/59 80/8/59 82/8/59
f 77/8/60 78/8/60 79/8/60
f 80/8/60 79/8/60 78/8/60
f 81/8/60 80/8/60 78/8/60
f 82/8/60 80/8/60 81/8/60
f 78/8/62 83/16/61 77/8/61
f 83/16/61 78/8/62 84/16/62
f 77/8/64 83/16/64 78/8/63
f 84/16/63 78/8/63 83/16/64
f 86/16/66 80/8/65 85/16/65
f 80/8/65 86/16/66 82/8/66
f 85/16/68 80/8/68 86/16/67
f 82/8/67 86/16/67 80/8/68
f 79/8/69 83/16/61 87/16/69
f 83/16/61 79/8/69 77/8/61
f 87/16/70 83/16/64 79/8/70
f 77/8/64 79/8/70 83/16/64
f 88/16/71 82/8/66 86/16/66
f 82/8/66 88/16/71 81/8/71
f 86/16/67 82/8/67 88/16/72
f 81/8/72 88/16/72 82/8/67
f 78/8/62 88/16/71 84/16/62
f 88/16/71 78/8/62 81/8/71
f 84/16/63 88/16/72 78/8/63
f 81/8/72 78/8/63 88/16/72
f 80/8/65 87/16/69 85/16/65
f 87/16/69 80/8/65 79/8/69
f 85/16/68 87/16/70 80/8/68
f 79/8/70 80/8/68 87/16/70
f 91/8/73 90/8/73 89/8/73
f 90/8/73 91/8/73 92/8/73
f 90/8/73 92/8/73 93/8/73
f 93/8/73 92/8/73 94/8/73
f 89/8/74 90/8/74 91/8/74
f 92/8/74 91/8/74 90/8/74
f 93/8/74 92/8/74 90/8/74
f 94/8/74 92/8/74 93/8/74
f 90/8/76 95/16/75 89/8/75
f 95/16/75 90/8/76 96/16/76
f 89/8/78 95/16/78 90/8/77
f 96/16/77 90/8/77 95/16/78
f 98/16/80 92/8/79 97/16/79
f 92/8/79 98/16/80 94/8/80
f 97/16/82 92/8/82 98/16/81
f 94/8/81 98/16/81 92/8/82
f 91/8/83 95/16/75 99/16/83
f 95/16/75 91/8/83 89/8/75
f 99/16/84 95/16/78 91/8/84
f 89/8/78 91/8/84 95/16/78
f 100/16/85 94/8/80 98/16/80
f 94/8/80 100/16/85 93/8/85
f 98/16/81 94/8/81 100/16/86
f 93/8/86 100/16/86 94/8/81
f 90/8/76 100/16/85 96/16/76
f 100/16/85 90/8/76 93/8/85
f 96/16/77 100/16/86 90/8/77
f 93/8/86 90/8/77 100/16/86
f 92/8/79 99/16/83 97/16/79
f 99/16/83 92/8/79 91/8/83
f 97/16/82 99/16/84 92/8/82
f 91/8/84 92/8/82 99/16/84

g snow-tile-bump




usemtl colormap

f 3/1/1 2/1/1 1/1/1
f 2/1/1 3/1/1 4/1/1
f 1/1/2 2/1/2 3/1/2
f 4/1/2 3/1/2 2/1/2
f 7/3/3 6/2/3 5/2/3
f 7/3/3 1/1/3 6/2/3
f 1/1/3 7/3/3 3/1/3
f 8/3/3 3/1/3 7/3/3
f 3/1/3 8/3/3 9/2/3
f 9/2/3 8/3/3 10/2/3
f 5/2/4 6/2/4 7/3/4
f 6/2/4 1/1/4 7/3/4
f 3/1/4 7/3/4 1/1/4
f 7/3/4 3/1/4 8/3/4
f 9/2/4 8/3/4 3/1/4
f 10/2/4 8/3/4 9/2/4
f 13/3/4 12/2/4 11/2/4
f 13/3/4 4/1/4 12/2/4
f 4/1/4 13/3/4 2/1/4
f 14/3/4 2/1/4 13/3/4
f 2/1/4 14/3/4 15/2/4
f 15/2/4 14/3/4 16/2/4
f 11/2/3 12/2/3 13/3/3
f 12/2/3 4/1/3 13/3/3
f 2/1/3 13/3/3 4/1/3
f 13/3/3 2/1/3 14/3/3
f 15/2/3 14/3/3 2/1/3
f 16/2/3 14/3/3 15/2/3
f 3/1/5 12/2/5 4/1/5
f 12/2/5 3/1/5 17/4/5
f 17/4/5 3/1/5 18/5/5
f 18/5/5 3/1/5 19/6/5
f 19/6/5 3/1/5 20/7/5
f 20/7/5 3/1/5 21/6/5
f 21/6/5 3/1/5 22/5/5
f 22/5/5 3/1/5 23/4/5
f 23/4/5 3/1/5 9/2/5
f 4/1/6 12/2/6 3/1/6
f 17/4/6 3/1/6 12/2/6
f 18/5/6 3/1/6 17/4/6
f 19/6/6 3/1/6 18/5/6
f 20/7/6 3/1/6 19/6/6
f 21/6/6 3/1/6 20/7/6
f 22/5/6 3/1/6 21/6/6
f 23/4/6 3/1/6 22/5/6
f 9/2/6 3/1/6 23/4/6
f 16/2/7 24/4/8 15/2/7
f 24/4/8 16/2/7 25/4/8
f 15/2/9 24/4/10 16/2/9
f 25/4/10 16/2/9 24/4/10
f 25/4/8 26/5/11 24/4/8
f 26/5/11 25/4/8 27/5/11
f 24/4/10 26/5/12 25/4/10
f 27/5/12 25/4/10 26/5/12
f 27/5/11 28/6/13 26/5/11
f 28/6/13 27/5/11 29/6/13
f 26/5/12 28/6/14 27/5/12
f 29/6/14 27/5/12 28/6/14
f 24/4/6 2/1/6 15/2/6
f 2/1/6 24/4/6 1/1/6
f 1/1/6 24/4/6 26/5/6
f 1/1/6 26/5/6 28/6/6
f 1/1/6 28/6/6 30/7/6
f 1/1/6 30/7/6 31/6/6
f 1/1/6 31/6/6 32/5/6
f 1/1/6 32/5/6 33/4/6
f 1/1/6 33/4/6 6/2/6
f 15/2/5 2/1/5 24/4/5
f 1/1/5 24/4/5 2/1/5
f 26/5/5 24/4/5 1/1/5
f 28/6/5 26/5/5 1/1/5
f 30/7/5 28/6/5 1/1/5
f 31/6/5 30/7/5 1/1/5
f 32/5/5 31/6/5 1/1/5
f 33/4/5 32/5/5 1/1/5
f 6/2/5 33/4/5 1/1/5
f 29/6/13 30/7/2 28/6/13
f 30/7/2 29/6/13 34/7/2
f 28/6/14 30/7/1 29/6/14
f 34/7/1 29/6/14 30/7/1
f 34/7/2 31/6/15 30/7/2
f 31/6/15 34/7/2 35/6/15
f 30/7/1 31/6/16 34/7/1
f 35/6/16 34/7/1 31/6/16
f 35/6/15 32/5/17 31/6/15
f 32/5/17 35/6/15 36/5/17
f 31/6/16 32/5/18 35/6/16
f 36/5/18 35/6/16 32/5/18
f 36/5/17 33/4/19 32/5/17
f 33/4/19 36/5/17 37/4/19
f 32/5/18 33/4/20 36/5/18
f 37/4/20 36/5/18 33/4/20
f 37/4/19 6/2/21 33/4/19
f 6/2/21 37/4/19 5/2/21
f 33/4/20 6/2/22 37/4/20
f 5/2/22 37/4/20 6/2/22
f 17/4/8 39/5/11 38/4/8
f 39/5/11 17/4/8 18/5/11
f 38/4/10 39/5/12 17/4/10
f 18/5/12 17/4/10 39/5/12
f 20/7/2 41/6/15 40/7/2
f 41/6/15 20/7/2 21/6/15
f 40/7/1 41/6/16 20/7/1
f 21/6/16 20/7/1 41/6/16
f 21/6/15 42/5/17 41/6/15
f 42/5/17 21/6/15 22/5/17
f 41/6/16 42/5/18 21/6/16
f 22/5/18 21/6/16 42/5/18
f 12/2/7 38/4/8 11/2/7
f 38/4/8 12/2/7 17/4/8
f 11/2/9 38/4/10 12/2/9
f 17/4/10 12/2/9 38/4/10
f 23/4/19 10/2/21 43/4/19
f 10/2/21 23/4/19 9/2/21
f 43/4/20 10/2/22 23/4/20
f 9/2/22 23/4/20 10/2/22
f 22/5/17 43/4/19 42/5/17
f 43/4/19 22/5/17 23/4/19
f 42/5/18 43/4/20 22/5/18
f 23/4/20 22/5/18 43/4/20
f 19/6/13 40/7/2 44/6/13
f 40/7/2 19/6/13 20/7/2
f 44/6/14 40/7/1 19/6/14
f 20/7/1 19/6/14 40/7/1
f 18/5/11 44/6/13 39/5/11
f 44/6/13 18/5/11 19/6/13
f 39/5/12 44/6/14 18/5/12
f 19/6/14 18/5/12 44/6/14
f 11/10/6 45/9/24 13/8/23
f 45/9/24 11/10/6 38/11/6
f 45/9/24 38/11/6 46/12/25
f 46/12/25 38/11/6 39/13/6
f 46/12/25 39/13/6 47/14/26
f 47/14/26 39/13/6 48/15/6
f 47/14/26 48/15/6 49/10/27
f 49/10/27 48/15/6 50/16/6
f 49/10/27 50/16/6 51/14/28
f 51/14/28 50/16/6 52/15/6
f 51/14/28 52/15/6 53/12/29
f 53/12/29 52/15/6 42/13/6
f 53/12/29 42/13/6 54/9/30
f 54/9/30 42/13/6 43/11/6
f 54/9/30 43/11/6 8/8/31
f 8/8/31 43/11/6 10/10/6
f 13/8/33 45/9/32 11/10/5
f 38/11/5 11/10/5 45/9/32
f 46/12/34 38/11/5 45/9/32
f 39/13/5 38/11/5 46/12/34
f 47/14/35 39/13/5 46/12/34
f 48/15/5 39/13/5 47/14/35
f 49/10/36 48/15/5 47/14/35
f 50/16/5 48/15/5 49/10/36
f 51/14/37 50/16/5 49/10/36
f 52/15/5 50/16/5 51/14/37
f 53/12/38 52/15/5 51/14/37
f 42/13/5 52/15/5 53/12/38
f 54/9/39 42/13/5 53/12/38
f 43/11/5 42/13/5 54/9/39
f 8/8/40 43/11/5 54/9/39
f 10/10/5 43/11/5 8/8/40
f 14/8/41 25/11/5 16/10/5
f 25/11/5 14/8/41 55/9/42
f 25/11/5 55/9/42 27/13/5
f 27/13/5 55/9/42 56/12/43
f 27/13/5 56/12/43 57/15/5
f 57/15/5 56/12/43 58/14/44
f 57/15/5 58/14/44 59/16/5
f 59/16/5 58/14/44 60/10/45
f 59/16/5 60/10/45 61/15/5
f 61/15/5 60/10/45 62/14/46
f 61/15/5 62/14/46 36/13/5
f 36/13/5 62/14/46 63/12/47
f 36/13/5 63/12/47 37/11/5
f 37/11/5 63/12/47 64/9/48
f 37/11/5 64/9/48 5/10/5
f 5/10/5 64/9/48 7/8/49
f 16/10/6 25/11/6 14/8/50
f 55/9/51 14/8/50 25/11/6
f 27/13/6 55/9/51 25/11/6
f 56/12/52 55/9/51 27/13/6
f 57/15/6 56/12/52 27/13/6
f 58/14/53 56/12/52 57/15/6
f 59/16/6 58/14/53 57/15/6
f 60/10/54 58/14/53 59/16/6
f 61/15/6 60/10/54 59/16/6
f 62/14/55 60/10/54 61/15/6
f 36/13/6 62/14/55 61/15/6
f 63/12/56 62/14/55 36/13/6
f 37/11/6 63/12/56 36/13/6
f 64/9/57 63/12/56 37/11/6
f 5/10/6 64/9/57 37/11/6
f 7/8/58 64/9/57 5/10/6
f 49/10/27 62/14/46 60/10/45
f 62/14/46 49/10/27 51/14/28
f 60/10/54 62/14/55 49/10/36
f 51/14/37 49/10/36 62/14/55
f 53/12/29 64/9/48 63/12/47
f 64/9/48 53/12/29 54/9/30
f 63/12/56 64/9/57 53/12/38
f 54/9/39 53/12/38 64/9/57
f 46/12/25 58/14/44 56/12/43
f 58/14/44 46/12/25 47/14/26
f 56/12/52 58/14/53 46/12/34
f 47/14/35 46/12/34 58/14/53
f 13/8/23 55/9/42 14/8/41
f 55/9/42 13/8/23 45/9/24
f 14/8/50 55/9/51 13/8/33
f 45/9/32 13/8/33 55/9/51
f 47/14/26 60/10/45 58/14/44
f 60/10/45 47/14/26 49/10/27
f 58/14/53 60/10/54 47/14/35
f 49/10/36 47/14/35 60/10/54
f 45/9/24 56/12/43 55/9/42
f 56/12/43 45/9/24 46/12/25
f 55/9/51 56/12/52 45/9/32
f 46/12/34 45/9/32 56/12/52
f 54/9/30 7/8/49 64/9/48
f 7/8/49 54/9/30 8/8/31
f 64/9/57 7/8/58 54/9/39
f 8/8/40 54/9/39 7/8/58
f 51/14/28 63/12/47 62/14/46
f 63/12/47 51/14/28 53/12/29
f 62/14/55 63/12/56 51/14/37
f 53/12/38 51/14/37 63/12/56
f 67/8/59 66/8/59 65/8/59
f 66/8/59 67/8/59 68/8/59
f 66/8/59 68/8/59 69/8/59
f 69/8/59 68/8/59 70/8/59
f 65/8/60 66/8/60 67/8/60
f 68/8/60 67/8/60 66/8/60
f 69/8/60 68/8/60 66/8/60
f 70/8/60 68/8/60 69/8/60
f 66/8/62 71/16/61 65/8/61
f 71/16/61 66/8/62 72/16/62
f 65/8/64 71/16/64 66/8/63
f 72/16/63 66/8/63 71/16/64
f 74/16/66 68/8/65 73/16/65
f 68/8/65 74/16/66 70/8/66
f 73/16/68 68/8/68 74/16/67
f 70/8/67 74/16/67 68/8/68
f 67/8/69 71/16/61 75/16/69
f 71/16/61 67/8/69 65/8/61
f 75/16/70 71/16/64 67/8/70
f 65/8/64 67/8/70 71/16/64
f 76/16/71 70/8/66 74/16/66
f 70/8/66 76/16/71 69/8/71
f 74/16/67 70/8/67 76/16/72
f 69/8/72 76/16/72 70/8/67
f 66/8/62 76/16/71 72/16/62
f 76/16/71 66/8/62 69/8/71
f 72/16/63 76/16/72 66/8/63
f 69/8/72 66/8/63 76/16/72
f 68/8/65 75/16/69 73/16/65
f 75/16/69 68/8/65 67/8/69
f 73/16/68 75/16/70 68/8/68
f 67/8/70 68/8/68 75/16/70
f 79/8/59 78/8/59 77/8/59
f 78/8/59 79/8/59 80/8/59
f 78/8/59 80/8/59 81/8/59
f 81/8/59 80/8/59 82/8/59
f 77/8/60 78/8/60 79/8/60
f 80/8/60 79/8/60 78/8/60
f 81/8/60 80/8/60 78/8/60
f 82/8/60 80/8/60 81/8/60
f 78/8/62 83/16/61 77/8/61
f 83/16/61 78/8/62 84/16/62
f 77/8/64 83/16/64 78/8/63
f 84/16/63 78/8/63 83/16/64
f 86/16/66 80/8/65 85/16/65
f 80/8/65 86/16/66 82/8/66
f 85/16/68 80/8/68 86/16/67
f 82/8/67 86/16/67 80/8/68
f 79/8/69 83/16/61 87/16/69
f 83/16/61 79/8/69 77/8/61
f 87/16/70 83/16/64 79/8/70
f 77/8/64 79/8/70 83/16/64
f 88/16/71 82/8/66 86/16/66
f 82/8/66 88/16/71 81/8/71
f 86/16/67 82/8/67 88/16/72
f 81/8/72 88/16/72 82/8/67
f 78/8/62 88/16/71 84/16/62
f 88/16/71 78/8/62 81/8/71
f 84/16/63 88/16/72 78/8/63
f 81/8/72 78/8/63 88/16/72
f 80/8/65 87/16/69 85/16/65
f 87/16/69 80/8/65 79/8/69
f 85/16/68 87/16/70 80/8/68
f 79/8/70 80/8/68 87/16/70
f 91/8/73 90/8/73 89/8/73
f 90/8/73 91/8/73 92/8/73
f 90/8/73 92/8/73 93/8/73
f 93/8/73 92/8/73 94/8/73
f 89/8/74 90/8/74 91/8/74
f 92/8/74 91/8/74 90/8/74
f 93/8/74 92/8/74 90/8/74
f 94/8/74 92/8/74 93/8/74
f 90/8/76 95/16/75 89/8/75
f 95/16/75 90/8/76 96/16/76
f 89/8/78 95/16/78 90/8/77
f 96/16/77 90/8/77 95/16/78
f 98/16/80 92/8/79 97/16/79
f 92/8/79 98/16/80 94/8/80
f 97/16/82 92/8/82 98/16/81
f 94/8/81 98/16/81 92/8/82
f 91/8/83 95/16/75 99/16/83
f 95/16/75 91/8/83 89/8/75
f 99/16/84 95/16/78 91/8/84
f 89/8/78 91/8/84 95/16/78
f 100/16/85 94/8/80 98/16/80
f 94/8/80 100/16/85 93/8/85
f 98/16/81 94/8/81 100/16/86
f 93/8/86 100/16/86 94/8/81
f 90/8/76 100/16/85 96/16/76
f 100/16/85 90/8/76 93/8/85
f 96/16/77 100/16/86 90/8/77
f 93/8/86 90/8/77 100/16/86
f 92/8/79 99/16/83 97/16/79
f 99/16/83 92/8/79 91/8/83
f 97/16/82 99/16/84 92/8/82
f 91/8/84 92/8/82 99/16/84

