# Created by Kenney (www.kenney.nl)

mtllib snow-tile-river-bridge.mtl

g snow-tile-river-bridge

v 0.5 0 0.5 1 1 1
v 0.5 0 -0.5 1 1 1
v -0.5 0 0.5 1 1 1
v -0.5 0 -0.5 1 1 1
v -0.5 0.2 0.5 1 1 1
v -0.5 0.2 0.375 1 1 1
v -0.5 0.1 0.375 1 1 1
v -0.5 0.1 -0.375 1 1 1
v -0.5 0.2 -0.5 1 1 1
v -0.5 0.2 -0.375 1 1 1
v 0.375 0.25 -0.5 1 1 1
v 0.25 0.25 -0.5 1 1 1
v 0.375 0.2 -0.5 1 1 1
v 0.25 0.1 -0.5 1 1 1
v 0.5 0.2 -0.5 1 1 1
v -0.25 0.1 -0.5 1 1 1
v -0.375 0.2 -0.5 1 1 1
v -0.25 0.25 -0.5 1 1 1
v -0.375 0.25 -0.5 1 1 1
v -0.375 0.25 0.5 1 1 1
v -0.25 0.25 0.5 1 1 1
v -0.375 0.2 0.5 1 1 1
v -0.25 0.1 0.5 1 1 1
v 0.25 0.1 0.5 1 1 1
v 0.5 0.2 0.5 1 1 1
v 0.375 0.2 0.5 1 1 1
v 0.25 0.25 0.5 1 1 1
v 0.375 0.25 0.5 1 1 1
v 0.5 0.2 0.375 1 1 1
v 0.5 0.1 0.375 1 1 1
v 0.5 0.1 -0.375 1 1 1
v 0.5 0.2 -0.375 1 1 1
v -0.375 0.2 0.375 1 1 1
v -0.375 0.2 -0.375 1 1 1
v 0.375 0.2 0.375 1 1 1
v 0.375 0.2 -0.375 1 1 1
v -0.3125 0.1 0.275 1 1 1
v -0.3125 0.2118034 0.275 1 1 1
v -0.3125 0.1 0.375 1 1 1
v -0.3125 0.2118034 0.375 1 1 1
v -0.1361068 0.3 0.275 1 1 1
v -0.1361068 0.3 0.375 1 1 1
v 0.1361068 0.3 0.275 1 1 1
v 0.1361068 0.3 0.375 1 1 1
v 0.3125 0.2118034 0.275 1 1 1
v 0.3125 0.2118034 0.375 1 1 1
v 0.3125 0.1 0.275 1 1 1
v 0.3125 0.1 0.375 1 1 1
v 0.1125 0.2 -0.275 1 1 1
v 0.1125 0.2 0.275 1 1 1
v -0.1125 0.2 -0.275 1 1 1
v -0.1125 0.2 0.275 1 1 1
v 0.3125 0.1 -0.275 1 1 1
v 0.3125 0.1 0.275 1 1 1
v -0.3125 0.1 -0.275 1 1 1
v -0.3125 0.1 0.275 1 1 1
v -0.3125 0.1 -0.375 1 1 1
v -0.3125 0.2118034 -0.375 1 1 1
v -0.3125 0.1 -0.275 1 1 1
v -0.3125 0.2118034 -0.275 1 1 1
v -0.1361068 0.3 -0.375 1 1 1
v -0.1361068 0.3 -0.275 1 1 1
v 0.1361068 0.3 -0.375 1 1 1
v 0.1361068 0.3 -0.275 1 1 1
v 0.3125 0.2118034 -0.375 1 1 1
v 0.3125 0.2118034 -0.275 1 1 1
v 0.3125 0.1 -0.375 1 1 1
v 0.3125 0.1 -0.275 1 1 1
v 0.25 0.1 -0.375 1 1 1
v 0.25 0.1 0.375 1 1 1
v -0.25 0.1 -0.375 1 1 1
v -0.25 0.1 0.375 1 1 1
v -0.25 0.25 0.375 1 1 1
v 0.375 0.25 0.375 1 1 1
v 0.375 0.25 -0.375 1 1 1
v 0.25 0.25 -0.375 1 1 1
v -0.375 0.25 0.375 1 1 1
v 0.25 0.25 0.375 1 1 1
v -0.25 0.25 -0.375 1 1 1
v -0.375 0.25 -0.375 1 1 1
v -0.4487889 0.13195 -0.2518492 1 1 1
v -0.4349243 0.13195 -0.2977249 1 1 1
v -0.4159916 0.13195 -0.2169043 1 1 1
v -0.3882625 0.13195 -0.3086557 1 1 1
v -0.3693298 0.13195 -0.2278351 1 1 1
v -0.3554653 0.13195 -0.2737108 1 1 1
v -0.4643428 0.1 -0.2482056 1 1 1
v -0.4458568 0.1 -0.3093732 1 1 1
v -0.3583974 0.1 -0.2161869 1 1 1
v -0.3399114 0.1 -0.2773544 1 1 1
v -0.4206131 0.1 -0.2016124 1 1 1
v -0.383641 0.1 -0.3239476 1 1 1
v 0.4287159 0.115975 0.3131376 1 1 1
v 0.3813111 0.115975 0.3060955 1 1 1
v 0.458517 0.115975 0.2756049 1 1 1
v 0.4409132 0.115975 0.2310301 1 1 1
v 0.3637074 0.115975 0.2615207 1 1 1
v 0.3935084 0.115975 0.223988 1 1 1
v 0.4345838 0.1 0.3279959 1 1 1
v 0.3713775 0.1 0.3186064 1 1 1
v 0.4508469 0.1 0.2185192 1 1 1
v 0.3876405 0.1 0.2091297 1 1 1
v 0.4743186 0.1 0.2779523 1 1 1
v 0.3479058 0.1 0.2591733 1 1 1

vn 0 -1 0
vn 0 1 0
vn -1 0 0
vn 1 0 0
vn 0 0 -1
vn 0 0 1
vn -0.8506508 0.5257311 0
vn 0.8506508 -0.5257311 0
vn -0.2297529 0.973249 0
vn 0.2297529 -0.973249 0
vn 0.2297529 0.973249 0
vn -0.2297529 -0.973249 0
vn 0.8506508 0.5257311 0
vn -0.8506508 -0.5257311 0
vn 0.4472136 0.8944272 0
vn -0.4472136 -0.8944272 0
vn -0.4472136 0.8944272 0
vn 0.4472136 -0.8944272 0
vn 0.7071068 0.7071068 0
vn -0.7071068 -0.7071068 0
vn -0.7071068 0.7071068 0
vn 0.7071068 -0.7071068 0
vn 0 0.7071068 -0.7071068
vn 0 -0.7071068 0.7071068
vn 0 0.7071068 0.7071068
vn 0 -0.7071068 -0.7071068
vn -0.8708519 0.4472136 0.2040024
vn -0.6120972 0.4472136 -0.6521786
vn 0.6120972 -0.4472136 0.6521786
vn 0.8708519 -0.4472136 -0.2040024
vn 0.6120972 0.4472136 0.6521786
vn 0.8708519 0.4472136 -0.2040024
vn -0.8708519 -0.4472136 0.2040024
vn -0.6120972 -0.4472136 -0.6521786
vn -0.2587547 0.4472136 0.856181
vn 0.2587547 -0.4472136 -0.856181
vn 0.2587547 0.4472136 -0.856181
vn -0.2587547 -0.4472136 0.856181
vn 0.2597339 0.7071068 0.6576765
vn -0.4396976 0.7071068 0.5537744
vn 0.4396976 -0.7071068 -0.5537744
vn -0.2597339 -0.7071068 -0.6576765
vn 0.4396976 0.7071068 -0.5537744
vn -0.2597339 0.7071068 -0.6576765
vn 0.2597339 -0.7071068 0.6576765
vn -0.4396976 -0.7071068 0.5537744
vn 0.6994314 0.7071068 0.1039021
vn -0.6994314 -0.7071068 -0.1039021
vn -0.6994314 0.7071068 -0.1039021
vn 0.6994314 -0.7071068 0.1039021

vt 0.96875 0.025
vt 0.96875 0.185
vt 0.96875 0.105
vt 0.96875 0.225
vt 0.96875 0.0809017
vt 0.96875 0.125
vt 0.34375 0.105
vt 0.09375 0.475
vt 0.09375 0.355
vt 0.09375 0.435
vt 0.84375 0.025
vt 0.84375 0.0809017
vt 0.84375 0.125
vt 0.09375 0.175
vt 0.09375 0.075
vt 0.09375 0.1083333

usemtl colormap

f 3/1/1 2/1/1 1/1/1
f 2/1/1 3/1/1 4/1/1
f 1/1/2 2/1/2 3/1/2
f 4/1/2 3/1/2 2/1/2
f 6/2/3 3/1/3 5/2/3
f 7/3/3 3/1/3 6/2/3
f 8/3/3 3/1/3 7/3/3
f 8/3/3 4/1/3 3/1/3
f 4/1/3 8/3/3 9/2/3
f 10/2/3 9/2/3 8/3/3
f 5/2/4 3/1/4 6/2/4
f 6/2/4 3/1/4 7/3/4
f 7/3/4 3/1/4 8/3/4
f 3/1/4 4/1/4 8/3/4
f 9/2/4 8/3/4 4/1/4
f 8/3/4 9/2/4 10/2/4
f 13/2/5 12/4/5 11/4/5
f 12/4/5 13/2/5 14/3/5
f 15/2/5 14/3/5 13/2/5
f 2/1/5 14/3/5 15/2/5
f 14/3/5 2/1/5 16/3/5
f 4/1/5 16/3/5 2/1/5
f 16/3/5 4/1/5 9/2/5
f 16/3/5 9/2/5 17/2/5
f 16/3/5 17/2/5 18/4/5
f 18/4/5 17/2/5 19/4/5
f 11/4/6 12/4/6 13/2/6
f 14/3/6 13/2/6 12/4/6
f 13/2/6 14/3/6 15/2/6
f 15/2/6 14/3/6 2/1/6
f 16/3/6 2/1/6 14/3/6
f 2/1/6 16/3/6 4/1/6
f 9/2/6 4/1/6 16/3/6
f 17/2/6 9/2/6 16/3/6
f 18/4/6 17/2/6 16/3/6
f 19/4/6 17/2/6 18/4/6
f 22/2/6 21/4/6 20/4/6
f 21/4/6 22/2/6 23/3/6
f 5/2/6 23/3/6 22/2/6
f 3/1/6 23/3/6 5/2/6
f 23/3/6 3/1/6 24/3/6
f 1/1/6 24/3/6 3/1/6
f 24/3/6 1/1/6 25/2/6
f 24/3/6 25/2/6 26/2/6
f 24/3/6 26/2/6 27/4/6
f 27/4/6 26/2/6 28/4/6
f 20/4/5 21/4/5 22/2/5
f 23/3/5 22/2/5 21/4/5
f 22/2/5 23/3/5 5/2/5
f 5/2/5 23/3/5 3/1/5
f 24/3/5 3/1/5 23/3/5
f 3/1/5 24/3/5 1/1/5
f 25/2/5 1/1/5 24/3/5
f 26/2/5 25/2/5 24/3/5
f 27/4/5 26/2/5 24/3/5
f 28/4/5 26/2/5 27/4/5
f 25/2/4 30/3/4 29/2/4
f 1/1/4 30/3/4 25/2/4
f 1/1/4 31/3/4 30/3/4
f 2/1/4 31/3/4 1/1/4
f 2/1/4 32/2/4 31/3/4
f 32/2/4 2/1/4 15/2/4
f 29/2/3 30/3/3 25/2/3
f 25/2/3 30/3/3 1/1/3
f 30/3/3 31/3/3 1/1/3
f 1/1/3 31/3/3 2/1/3
f 31/3/3 32/2/3 2/1/3
f 15/2/3 2/1/3 32/2/3
f 6/2/2 22/2/2 33/2/2
f 22/2/2 6/2/2 5/2/2
f 33/2/1 22/2/1 6/2/1
f 5/2/1 6/2/1 22/2/1
f 9/2/2 34/2/2 17/2/2
f 34/2/2 9/2/2 10/2/2
f 17/2/1 34/2/1 9/2/1
f 10/2/1 9/2/1 34/2/1
f 35/2/2 25/2/2 29/2/2
f 25/2/2 35/2/2 26/2/2
f 29/2/1 25/2/1 35/2/1
f 26/2/1 35/2/1 25/2/1
f 15/2/2 36/2/2 32/2/2
f 36/2/2 15/2/2 13/2/2
f 32/2/1 36/2/1 15/2/1
f 13/2/1 15/2/1 36/2/1
f 39/1/3 38/5/7 37/1/3
f 38/5/7 39/1/3 40/5/7
f 37/1/4 38/5/8 39/1/4
f 40/5/8 39/1/4 38/5/8
f 38/5/7 42/6/9 41/6/9
f 42/6/9 38/5/7 40/5/7
f 41/6/10 42/6/10 38/5/8
f 40/5/8 38/5/8 42/6/10
f 41/6/9 44/6/11 43/6/11
f 44/6/11 41/6/9 42/6/9
f 43/6/12 44/6/12 41/6/10
f 42/6/10 41/6/10 44/6/12
f 43/6/11 46/5/13 45/5/13
f 46/5/13 43/6/11 44/6/11
f 45/5/14 46/5/14 43/6/12
f 44/6/12 43/6/12 46/5/14
f 46/5/13 47/1/4 45/5/13
f 47/1/4 46/5/13 48/1/4
f 45/5/14 47/1/3 46/5/14
f 48/1/3 46/5/14 47/1/3
f 51/6/9 50/6/11 49/6/11
f 50/6/11 51/6/9 52/6/9
f 49/6/12 50/6/12 51/6/10
f 52/6/10 51/6/10 50/6/12
f 49/6/11 54/1/15 53/1/15
f 54/1/15 49/6/11 50/6/11
f 53/1/16 54/1/16 49/6/12
f 50/6/12 49/6/12 54/1/16
f 55/1/17 52/6/9 51/6/9
f 52/6/9 55/1/17 56/1/17
f 51/6/10 52/6/10 55/1/18
f 56/1/18 55/1/18 52/6/10
f 59/1/3 58/5/7 57/1/3
f 58/5/7 59/1/3 60/5/7
f 57/1/4 58/5/8 59/1/4
f 60/5/8 59/1/4 58/5/8
f 58/5/7 62/6/9 61/6/9
f 62/6/9 58/5/7 60/5/7
f 61/6/10 62/6/10 58/5/8
f 60/5/8 58/5/8 62/6/10
f 61/6/9 64/6/11 63/6/11
f 64/6/11 61/6/9 62/6/9
f 63/6/12 64/6/12 61/6/10
f 62/6/10 61/6/10 64/6/12
f 63/6/11 66/5/13 65/5/13
f 66/5/13 63/6/11 64/6/11
f 65/5/14 66/5/14 63/6/12
f 64/6/12 63/6/12 66/5/14
f 66/5/13 67/1/4 65/5/13
f 67/1/4 66/5/13 68/1/4
f 65/5/14 67/1/3 66/5/14
f 68/1/3 66/5/14 67/1/3
f 14/7/2 70/7/2 69/7/2
f 70/7/2 14/7/2 24/7/2
f 24/7/2 14/7/2 16/7/2
f 24/7/2 16/7/2 23/7/2
f 23/7/2 16/7/2 71/7/2
f 23/7/2 71/7/2 72/7/2
f 69/7/1 70/7/1 14/7/1
f 24/7/1 14/7/1 70/7/1
f 16/7/1 14/7/1 24/7/1
f 23/7/1 16/7/1 24/7/1
f 71/7/1 16/7/1 23/7/1
f 72/7/1 71/7/1 23/7/1
f 21/8/19 72/9/4 73/8/19
f 72/9/4 21/8/19 23/9/4
f 73/8/20 72/9/3 21/8/20
f 23/9/3 21/8/20 72/9/3
f 28/8/19 35/10/4 74/8/19
f 35/10/4 28/8/19 26/10/4
f 74/8/20 35/10/3 28/8/20
f 26/10/3 28/8/20 35/10/3
f 12/8/21 75/8/19 11/8/19
f 75/8/19 12/8/21 76/8/21
f 11/8/20 75/8/20 12/8/22
f 76/8/22 12/8/22 75/8/20
f 77/8/21 21/8/19 73/8/19
f 21/8/19 77/8/21 20/8/21
f 73/8/20 21/8/20 77/8/22
f 20/8/22 77/8/22 21/8/20
f 78/8/21 28/8/19 74/8/19
f 28/8/19 78/8/21 27/8/21
f 74/8/20 28/8/20 78/8/22
f 27/8/22 78/8/22 28/8/20
f 69/9/3 12/8/21 14/9/3
f 12/8/21 69/9/3 76/8/21
f 14/9/4 12/8/22 69/9/4
f 76/8/22 69/9/4 12/8/22
f 24/9/3 78/8/21 70/9/3
f 78/8/21 24/9/3 27/8/21
f 70/9/4 78/8/22 24/9/4
f 27/8/22 24/9/4 78/8/22
f 75/8/19 13/10/4 11/8/19
f 13/10/4 75/8/19 36/10/4
f 11/8/20 13/10/3 75/8/20
f 36/10/3 75/8/20 13/10/3
f 22/10/3 77/8/21 33/10/3
f 77/8/21 22/10/3 20/8/21
f 33/10/4 77/8/22 22/10/4
f 20/8/22 22/10/4 77/8/22
f 19/8/21 79/8/19 18/8/19
f 79/8/19 19/8/21 80/8/21
f 18/8/20 79/8/20 19/8/22
f 80/8/22 19/8/22 79/8/20
f 79/8/19 16/9/4 18/8/19
f 16/9/4 79/8/19 71/9/4
f 18/8/20 16/9/3 79/8/20
f 71/9/3 79/8/20 16/9/3
f 34/10/3 19/8/21 17/10/3
f 19/8/21 34/10/3 80/8/21
f 17/10/4 19/8/22 34/10/4
f 80/8/22 34/10/4 19/8/22
f 48/11/6 40/12/6 39/11/6
f 40/12/6 48/11/6 46/12/6
f 40/12/6 46/12/6 44/13/6
f 40/12/6 44/13/6 42/13/6
f 39/11/5 40/12/5 48/11/5
f 46/12/5 48/11/5 40/12/5
f 44/13/5 46/12/5 40/12/5
f 42/13/5 44/13/5 40/12/5
f 38/12/5 47/11/5 37/11/5
f 47/11/5 38/12/5 45/12/5
f 45/12/5 38/12/5 43/13/5
f 43/13/5 38/12/5 41/13/5
f 37/11/6 47/11/6 38/12/6
f 45/12/6 38/12/6 47/11/6
f 43/13/6 38/12/6 45/12/6
f 41/13/6 38/12/6 43/13/6
f 51/13/5 53/11/5 55/11/5
f 53/11/5 51/13/5 49/13/5
f 55/11/6 53/11/6 51/13/6
f 49/13/6 51/13/6 53/11/6
f 50/13/6 56/11/6 54/11/6
f 56/11/6 50/13/6 52/13/6
f 54/11/5 56/11/5 50/13/5
f 52/13/5 50/13/5 56/11/5
f 68/11/6 60/12/6 59/11/6
f 60/12/6 68/11/6 66/12/6
f 60/12/6 66/12/6 64/13/6
f 60/12/6 64/13/6 62/13/6
f 59/11/5 60/12/5 68/11/5
f 66/12/5 68/11/5 60/12/5
f 64/13/5 66/12/5 60/12/5
f 62/13/5 64/13/5 60/12/5
f 58/12/5 67/11/5 57/11/5
f 67/11/5 58/12/5 65/12/5
f 65/12/5 58/12/5 63/13/5
f 63/13/5 58/12/5 61/13/5
f 57/11/6 67/11/6 58/12/6
f 65/12/6 58/12/6 67/11/6
f 63/13/6 58/12/6 65/12/6
f 61/13/6 58/12/6 63/13/6
f 78/15/5 30/14/23 70/14/23
f 30/14/23 78/15/5 35/16/5
f 35/16/5 78/15/5 74/15/5
f 29/16/5 30/14/23 35/16/5
f 70/14/24 30/14/24 78/15/6
f 35/16/6 78/15/6 30/14/24
f 35/16/6 30/14/24 29/16/6
f 74/15/6 78/15/6 35/16/6
f 69/14/25 30/14/23 31/14/25
f 30/14/23 69/14/25 70/14/23
f 31/14/26 30/14/24 69/14/26
f 70/14/24 69/14/26 30/14/24
f 32/16/6 69/14/25 31/14/25
f 69/14/25 32/16/6 36/16/6
f 69/14/25 36/16/6 76/15/6
f 76/15/6 36/16/6 75/15/6
f 31/14/26 69/14/26 32/16/5
f 36/16/5 32/16/5 69/14/26
f 76/15/5 36/16/5 69/14/26
f 75/15/5 36/16/5 76/15/5
f 79/15/6 8/14/25 71/14/25
f 8/14/25 79/15/6 34/16/6
f 34/16/6 79/15/6 80/15/6
f 10/16/6 8/14/25 34/16/6
f 71/14/26 8/14/26 79/15/5
f 34/16/5 79/15/5 8/14/26
f 34/16/5 8/14/26 10/16/5
f 80/15/5 79/15/5 34/16/5
f 8/14/25 72/14/23 71/14/25
f 72/14/23 8/14/25 7/14/23
f 71/14/26 72/14/24 8/14/26
f 7/14/24 8/14/26 72/14/24
f 6/16/5 72/14/23 7/14/23
f 72/14/23 6/16/5 33/16/5
f 72/14/23 33/16/5 73/15/5
f 73/15/5 33/16/5 77/15/5
f 7/14/24 72/14/24 6/16/6
f 33/16/6 6/16/6 72/14/24
f 73/15/6 33/16/6 72/14/24
f 77/15/6 33/16/6 73/15/6
f 83/14/2 82/14/2 81/14/2
f 82/14/2 83/14/2 84/14/2
f 84/14/2 83/14/2 85/14/2
f 84/14/2 85/14/2 86/14/2
f 81/14/1 82/14/1 83/14/1
f 84/14/1 83/14/1 82/14/1
f 85/14/1 83/14/1 84/14/1
f 86/14/1 85/14/1 84/14/1
f 82/14/28 87/15/27 81/14/27
f 87/15/27 82/14/28 88/15/28
f 81/14/30 87/15/30 82/14/29
f 88/15/29 82/14/29 87/15/30
f 90/15/32 85/14/31 89/15/31
f 85/14/31 90/15/32 86/14/32
f 89/15/34 85/14/34 90/15/33
f 86/14/33 90/15/33 85/14/34
f 83/14/35 87/15/27 91/15/35
f 87/15/27 83/14/35 81/14/27
f 91/15/36 87/15/30 83/14/36
f 81/14/30 83/14/36 87/15/30
f 92/15/37 86/14/32 90/15/32
f 86/14/32 92/15/37 84/14/37
f 90/15/33 86/14/33 92/15/38
f 84/14/38 92/15/38 86/14/33
f 82/14/28 92/15/37 88/15/28
f 92/15/37 82/14/28 84/14/37
f 88/15/29 92/15/38 82/14/29
f 84/14/38 82/14/29 92/15/38
f 85/14/31 91/15/35 89/15/31
f 91/15/35 85/14/31 83/14/35
f 89/15/34 91/15/36 85/14/34
f 83/14/36 85/14/34 91/15/36
f 95/14/2 94/14/2 93/14/2
f 94/14/2 95/14/2 96/14/2
f 94/14/2 96/14/2 97/14/2
f 97/14/2 96/14/2 98/14/2
f 93/14/1 94/14/1 95/14/1
f 96/14/1 95/14/1 94/14/1
f 97/14/1 96/14/1 94/14/1
f 98/14/1 96/14/1 97/14/1
f 94/14/40 99/15/39 93/14/39
f 99/15/39 94/14/40 100/15/40
f 93/14/42 99/15/42 94/14/41
f 100/15/41 94/14/41 99/15/42
f 102/15/44 96/14/43 101/15/43
f 96/14/43 102/15/44 98/14/44
f 101/15/46 96/14/46 102/15/45
f 98/14/45 102/15/45 96/14/46
f 95/14/47 99/15/39 103/15/47
f 99/15/39 95/14/47 93/14/39
f 103/15/48 99/15/42 95/14/48
f 93/14/42 95/14/48 99/15/42
f 104/15/49 98/14/44 102/15/44
f 98/14/44 104/15/49 97/14/49
f 102/15/45 98/14/45 104/15/50
f 97/14/50 104/15/50 98/14/45
f 94/14/40 104/15/49 100/15/40
f 104/15/49 94/14/40 97/14/49
f 100/15/41 104/15/50 94/14/41
f 97/14/50 94/14/41 104/15/50
f 96/14/43 103/15/47 101/15/43
f 103/15/47 96/14/43 95/14/47
f 101/15/46 103/15/48 96/14/46
f 95/14/48 96/14/46 103/15/48

g snow-tile-river-bridge




usemtl colormap

f 3/1/1 2/1/1 1/1/1
f 2/1/1 3/1/1 4/1/1
f 1/1/2 2/1/2 3/1/2
f 4/1/2 3/1/2 2/1/2
f 6/2/3 3/1/3 5/2/3
f 7/3/3 3/1/3 6/2/3
f 8/3/3 3/1/3 7/3/3
f 8/3/3 4/1/3 3/1/3
f 4/1/3 8/3/3 9/2/3
f 10/2/3 9/2/3 8/3/3
f 5/2/4 3/1/4 6/2/4
f 6/2/4 3/1/4 7/3/4
f 7/3/4 3/1/4 8/3/4
f 3/1/4 4/1/4 8/3/4
f 9/2/4 8/3/4 4/1/4
f 8/3/4 9/2/4 10/2/4
f 13/2/5 12/4/5 11/4/5
f 12/4/5 13/2/5 14/3/5
f 15/2/5 14/3/5 13/2/5
f 2/1/5 14/3/5 15/2/5
f 14/3/5 2/1/5 16/3/5
f 4/1/5 16/3/5 2/1/5
f 16/3/5 4/1/5 9/2/5
f 16/3/5 9/2/5 17/2/5
f 16/3/5 17/2/5 18/4/5
f 18/4/5 17/2/5 19/4/5
f 11/4/6 12/4/6 13/2/6
f 14/3/6 13/2/6 12/4/6
f 13/2/6 14/3/6 15/2/6
f 15/2/6 14/3/6 2/1/6
f 16/3/6 2/1/6 14/3/6
f 2/1/6 16/3/6 4/1/6
f 9/2/6 4/1/6 16/3/6
f 17/2/6 9/2/6 16/3/6
f 18/4/6 17/2/6 16/3/6
f 19/4/6 17/2/6 18/4/6
f 22/2/6 21/4/6 20/4/6
f 21/4/6 22/2/6 23/3/6
f 5/2/6 23/3/6 22/2/6
f 3/1/6 23/3/6 5/2/6
f 23/3/6 3/1/6 24/3/6
f 1/1/6 24/3/6 3/1/6
f 24/3/6 1/1/6 25/2/6
f 24/3/6 25/2/6 26/2/6
f 24/3/6 26/2/6 27/4/6
f 27/4/6 26/2/6 28/4/6
f 20/4/5 21/4/5 22/2/5
f 23/3/5 22/2/5 21/4/5
f 22/2/5 23/3/5 5/2/5
f 5/2/5 23/3/5 3/1/5
f 24/3/5 3/1/5 23/3/5
f 3/1/5 24/3/5 1/1/5
f 25/2/5 1/1/5 24/3/5
f 26/2/5 25/2/5 24/3/5
f 27/4/5 26/2/5 24/3/5
f 28/4/5 26/2/5 27/4/5
f 25/2/4 30/3/4 29/2/4
f 1/1/4 30/3/4 25/2/4
f 1/1/4 31/3/4 30/3/4
f 2/1/4 31/3/4 1/1/4
f 2/1/4 32/2/4 31/3/4
f 32/2/4 2/1/4 15/2/4
f 29/2/3 30/3/3 25/2/3
f 25/2/3 30/3/3 1/1/3
f 30/3/3 31/3/3 1/1/3
f 1/1/3 31/3/3 2/1/3
f 31/3/3 32/2/3 2/1/3
f 15/2/3 2/1/3 32/2/3
f 6/2/2 22/2/2 33/2/2
f 22/2/2 6/2/2 5/2/2
f 33/2/1 22/2/1 6/2/1
f 5/2/1 6/2/1 22/2/1
f 9/2/2 34/2/2 17/2/2
f 34/2/2 9/2/2 10/2/2
f 17/2/1 34/2/1 9/2/1
f 10/2/1 9/2/1 34/2/1
f 35/2/2 25/2/2 29/2/2
f 25/2/2 35/2/2 26/2/2
f 29/2/1 25/2/1 35/2/1
f 26/2/1 35/2/1 25/2/1
f 15/2/2 36/2/2 32/2/2
f 36/2/2 15/2/2 13/2/2
f 32/2/1 36/2/1 15/2/1
f 13/2/1 15/2/1 36/2/1
f 39/1/3 38/5/7 37/1/3
f 38/5/7 39/1/3 40/5/7
f 37/1/4 38/5/8 39/1/4
f 40/5/8 39/1/4 38/5/8
f 38/5/7 42/6/9 41/6/9
f 42/6/9 38/5/7 40/5/7
f 41/6/10 42/6/10 38/5/8
f 40/5/8 38/5/8 42/6/10
f 41/6/9 44/6/11 43/6/11
f 44/6/11 41/6/9 42/6/9
f 43/6/12 44/6/12 41/6/10
f 42/6/10 41/6/10 44/6/12
f 43/6/11 46/5/13 45/5/13
f 46/5/13 43/6/11 44/6/11
f 45/5/14 46/5/14 43/6/12
f 44/6/12 43/6/12 46/5/14
f 46/5/13 47/1/4 45/5/13
f 47/1/4 46/5/13 48/1/4
f 45/5/14 47/1/3 46/5/14
f 48/1/3 46/5/14 47/1/3
f 51/6/9 50/6/11 49/6/11
f 50/6/11 51/6/9 52/6/9
f 49/6/12 50/6/12 51/6/10
f 52/6/10 51/6/10 50/6/12
f 49/6/11 54/1/15 53/1/15
f 54/1/15 49/6/11 50/6/11
f 53/1/16 54/1/16 49/6/12
f 50/6/12 49/6/12 54/1/16
f 55/1/17 52/6/9 51/6/9
f 52/6/9 55/1/17 56/1/17
f 51/6/10 52/6/10 55/1/18
f 56/1/18 55/1/18 52/6/10
f 59/1/3 58/5/7 57/1/3
f 58/5/7 59/1/3 60/5/7
f 57/1/4 58/5/8 59/1/4
f 60/5/8 59/1/4 58/5/8
f 58/5/7 62/6/9 61/6/9
f 62/6/9 58/5/7 60/5/7
f 61/6/10 62/6/10 58/5/8
f 60/5/8 58/5/8 62/6/10
f 61/6/9 64/6/11 63/6/11
f 64/6/11 61/6/9 62/6/9
f 63/6/12 64/6/12 61/6/10
f 62/6/10 61/6/10 64/6/12
f 63/6/11 66/5/13 65/5/13
f 66/5/13 63/6/11 64/6/11
f 65/5/14 66/5/14 63/6/12
f 64/6/12 63/6/12 66/5/14
f 66/5/13 67/1/4 65/5/13
f 67/1/4 66/5/13 68/1/4
f 65/5/14 67/1/3 66/5/14
f 68/1/3 66/5/14 67/1/3
f 14/7/2 70/7/2 69/7/2
f 70/7/2 14/7/2 24/7/2
f 24/7/2 14/7/2 16/7/2
f 24/7/2 16/7/2 23/7/2
f 23/7/2 16/7/2 71/7/2
f 23/7/2 71/7/2 72/7/2
f 69/7/1 70/7/1 14/7/1
f 24/7/1 14/7/1 70/7/1
f 16/7/1 14/7/1 24/7/1
f 23/7/1 16/7/1 24/7/1
f 71/7/1 16/7/1 23/7/1
f 72/7/1 71/7/1 23/7/1
f 21/8/19 72/9/4 73/8/19
f 72/9/4 21/8/19 23/9/4
f 73/8/20 72/9/3 21/8/20
f 23/9/3 21/8/20 72/9/3
f 28/8/19 35/10/4 74/8/19
f 35/10/4 28/8/19 26/10/4
f 74/8/20 35/10/3 28/8/20
f 26/10/3 28/8/20 35/10/3
f 12/8/21 75/8/19 11/8/19
f 75/8/19 12/8/21 76/8/21
f 11/8/20 75/8/20 12/8/22
f 76/8/22 12/8/22 75/8/20
f 77/8/21 21/8/19 73/8/19
f 21/8/19 77/8/21 20/8/21
f 73/8/20 21/8/20 77/8/22
f 20/8/22 77/8/22 21/8/20
f 78/8/21 28/8/19 74/8/19
f 28/8/19 78/8/21 27/8/21
f 74/8/20 28/8/20 78/8/22
f 27/8/22 78/8/22 28/8/20
f 69/9/3 12/8/21 14/9/3
f 12/8/21 69/9/3 76/8/21
f 14/9/4 12/8/22 69/9/4
f 76/8/22 69/9/4 12/8/22
f 24/9/3 78/8/21 70/9/3
f 78/8/21 24/9/3 27/8/21
f 70/9/4 78/8/22 24/9/4
f 27/8/22 24/9/4 78/8/22
f 75/8/19 13/10/4 11/8/19
f 13/10/4 75/8/19 36/10/4
f 11/8/20 13/10/3 75/8/20
f 36/10/3 75/8/20 13/10/3
f 22/10/3 77/8/21 33/10/3
f 77/8/21 22/10/3 20/8/21
f 33/10/4 77/8/22 22/10/4
f 20/8/22 22/10/4 77/8/22
f 19/8/21 79/8/19 18/8/19
f 79/8/19 19/8/21 80/8/21
f 18/8/20 79/8/20 19/8/22
f 80/8/22 19/8/22 79/8/20
f 79/8/19 16/9/4 18/8/19
f 16/9/4 79/8/19 71/9/4
f 18/8/20 16/9/3 79/8/20
f 71/9/3 79/8/20 16/9/3
f 34/10/3 19/8/21 17/10/3
f 19/8/21 34/10/3 80/8/21
f 17/10/4 19/8/22 34/10/4
f 80/8/22 34/10/4 19/8/22
f 48/11/6 40/12/6 39/11/6
f 40/12/6 48/11/6 46/12/6
f 40/12/6 46/12/6 44/13/6
f 40/12/6 44/13/6 42/13/6
f 39/11/5 40/12/5 48/11/5
f 46/12/5 48/11/5 40/12/5
f 44/13/5 46/12/5 40/12/5
f 42/13/5 44/13/5 40/12/5
f 38/12/5 47/11/5 37/11/5
f 47/11/5 38/12/5 45/12/5
f 45/12/5 38/12/5 43/13/5
f 43/13/5 38/12/5 41/13/5
f 37/11/6 47/11/6 38/12/6
f 45/12/6 38/12/6 47/11/6
f 43/13/6 38/12/6 45/12/6
f 41/13/6 38/12/6 43/13/6
f 51/13/5 53/11/5 55/11/5
f 53/11/5 51/13/5 49/13/5
f 55/11/6 53/11/6 51/13/6
f 49/13/6 51/13/6 53/11/6
f 50/13/6 56/11/6 54/11/6
f 56/11/6 50/13/6 52/13/6
f 54/11/5 56/11/5 50/13/5
f 52/13/5 50/13/5 56/11/5
f 68/11/6 60/12/6 59/11/6
f 60/12/6 68/11/6 66/12/6
f 60/12/6 66/12/6 64/13/6
f 60/12/6 64/13/6 62/13/6
f 59/11/5 60/12/5 68/11/5
f 66/12/5 68/11/5 60/12/5
f 64/13/5 66/12/5 60/12/5
f 62/13/5 64/13/5 60/12/5
f 58/12/5 67/11/5 57/11/5
f 67/11/5 58/12/5 65/12/5
f 65/12/5 58/12/5 63/13/5
f 63/13/5 58/12/5 61/13/5
f 57/11/6 67/11/6 58/12/6
f 65/12/6 58/12/6 67/11/6
f 63/13/6 58/12/6 65/12/6
f 61/13/6 58/12/6 63/13/6
f 78/15/5 30/14/23 70/14/23
f 30/14/23 78/15/5 35/16/5
f 35/16/5 78/15/5 74/15/5
f 29/16/5 30/14/23 35/16/5
f 70/14/24 30/14/24 78/15/6
f 35/16/6 78/15/6 30/14/24
f 35/16/6 30/14/24 29/16/6
f 74/15/6 78/15/6 35/16/6
f 69/14/25 30/14/23 31/14/25
f 30/14/23 69/14/25 70/14/23
f 31/14/26 30/14/24 69/14/26
f 70/14/24 69/14/26 30/14/24
f 32/16/6 69/14/25 31/14/25
f 69/14/25 32/16/6 36/16/6
f 69/14/25 36/16/6 76/15/6
f 76/15/6 36/16/6 75/15/6
f 31/14/26 69/14/26 32/16/5
f 36/16/5 32/16/5 69/14/26
f 76/15/5 36/16/5 69/14/26
f 75/15/5 36/16/5 76/15/5
f 79/15/6 8/14/25 71/14/25
f 8/14/25 79/15/6 34/16/6
f 34/16/6 79/15/6 80/15/6
f 10/16/6 8/14/25 34/16/6
f 71/14/26 8/14/26 79/15/5
f 34/16/5 79/15/5 8/14/26
f 34/16/5 8/14/26 10/16/5
f 80/15/5 79/15/5 34/16/5
f 8/14/25 72/14/23 71/14/25
f 72/14/23 8/14/25 7/14/23
f 71/14/26 72/14/24 8/14/26
f 7/14/24 8/14/26 72/14/24
f 6/16/5 72/14/23 7/14/23
f 72/14/23 6/16/5 33/16/5
f 72/14/23 33/16/5 73/15/5
f 73/15/5 33/16/5 77/15/5
f 7/14/24 72/14/24 6/16/6
f 33/16/6 6/16/6 72/14/24
f 73/15/6 33/16/6 72/14/24
f 77/15/6 33/16/6 73/15/6
f 83/14/2 82/14/2 81/14/2
f 82/14/2 83/14/2 84/14/2
f 84/14/2 83/14/2 85/14/2
f 84/14/2 85/14/2 86/14/2
f 81/14/1 82/14/1 83/14/1
f 84/14/1 83/14/1 82/14/1
f 85/14/1 83/14/1 84/14/1
f 86/14/1 85/14/1 84/14/1
f 82/14/28 87/15/27 81/14/27
f 87/15/27 82/14/28 88/15/28
f 81/14/30 87/15/30 82/14/29
f 88/15/29 82/14/29 87/15/30
f 90/15/32 85/14/31 89/15/31
f 85/14/31 90/15/32 86/14/32
f 89/15/34 85/14/34 90/15/33
f 86/14/33 90/15/33 85/14/34
f 83/14/35 87/15/27 91/15/35
f 87/15/27 83/14/35 81/14/27
f 91/15/36 87/15/30 83/14/36
f 81/14/30 83/14/36 87/15/30
f 92/15/37 86/14/32 90/15/32
f 86/14/32 92/15/37 84/14/37
f 90/15/33 86/14/33 92/15/38
f 84/14/38 92/15/38 86/14/33
f 82/14/28 92/15/37 88/15/28
f 92/15/37 82/14/28 84/14/37
f 88/15/29 92/15/38 82/14/29
f 84/14/38 82/14/29 92/15/38
f 85/14/31 91/15/35 89/15/31
f 91/15/35 85/14/31 83/14/35
f 89/15/34 91/15/36 85/14/34
f 83/14/36 85/14/34 91/15/36
f 95/14/2 94/14/2 93/14/2
f 94/14/2 95/14/2 96/14/2
f 94/14/2 96/14/2 97/14/2
f 97/14/2 96/14/2 98/14/2
f 93/14/1 94/14/1 95/14/1
f 96/14/1 95/14/1 94/14/1
f 97/14/1 96/14/1 94/14/1
f 98/14/1 96/14/1 97/14/1
f 94/14/40 99/15/39 93/14/39
f 99/15/39 94/14/40 100/15/40
f 93/14/42 99/15/42 94/14/41
f 100/15/41 94/14/41 99/15/42
f 102/15/44 96/14/43 101/15/43
f 96/14/43 102/15/44 98/14/44
f 101/15/46 96/14/46 102/15/45
f 98/14/45 102/15/45 96/14/46
f 95/14/47 99/15/39 103/15/47
f 99/15/39 95/14/47 93/14/39
f 103/15/48 99/15/42 95/14/48
f 93/14/42 95/14/48 99/15/42
f 104/15/49 98/14/44 102/15/44
f 98/14/44 104/15/49 97/14/49
f 102/15/45 98/14/45 104/15/50
f 97/14/50 104/15/50 98/14/45
f 94/14/40 104/15/49 100/15/40
f 104/15/49 94/14/40 97/14/49
f 100/15/41 104/15/50 94/14/41
f 97/14/50 94/14/41 104/15/50
f 96/14/43 103/15/47 101/15/43
f 103/15/47 96/14/43 95/14/47
f 101/15/46 103/15/48 96/14/46
f 95/14/48 96/14/46 103/15/48

