# Created by Kenney (www.kenney.nl)

mtllib snow-tile-wide-straight.mtl

g snow-tile-wide-straight

v 1 0.2 0.5 1 1 1
v 0.875 0.2 0.5 1 1 1
v 1 0.2 -0.5 1 1 1
v 0.875 0.2 -0.5 1 1 1
v -0.875 0.2 0.5 1 1 1
v -1 0.2 0.5 1 1 1
v -0.875 0.2 -0.5 1 1 1
v -1 0.2 -0.5 1 1 1
v -1 0 -0.5 1 1 1
v 1 0 -0.5 1 1 1
v -1 0.1 -0.5 1 1 1
v 1 0.1 -0.5 1 1 1
v -0.875 0.1 -0.5 1 1 1
v 0.875 0.1 -0.5 1 1 1
v 1 0 0.5 1 1 1
v -1 0 0.5 1 1 1
v 0.875 0.1 0.5 1 1 1
v -0.875 0.1 0.5 1 1 1
v -0.6657768 0.115975 0.3766114 1 1 1
v -0.7131816 0.115975 0.3695693 1 1 1
v -0.6359758 0.115975 0.3390787 1 1 1
v -0.6535796 0.115975 0.2945039 1 1 1
v -0.7307854 0.115975 0.3249945 1 1 1
v -0.7009844 0.115975 0.2874618 1 1 1
v -0.6599089 0.1 0.3914697 1 1 1
v -0.7231153 0.1 0.3820802 1 1 1
v -0.6436459 0.1 0.281993 1 1 1
v -0.7068523 0.1 0.2726035 1 1 1
v -0.6201742 0.1 0.341426 1 1 1
v -0.746587 0.1 0.3226471 1 1 1

vn 0 1 0
vn 0 -1 0
vn 0 0 -1
vn 0 0 1
vn -1 0 0
vn 1 0 0
vn 0.7071068 0.7071068 0
vn -0.7071068 -0.7071068 0
vn -0.7071068 0.7071068 0
vn 0.7071068 -0.7071068 0
vn 0.2597339 0.7071068 0.6576765
vn -0.4396976 0.7071068 0.5537744
vn 0.4396976 -0.7071068 -0.5537744
vn -0.2597339 -0.7071068 -0.6576765
vn 0.4396976 0.7071068 -0.5537744
vn -0.2597339 0.7071068 -0.6576765
vn 0.2597339 -0.7071068 0.6576765
vn -0.4396976 -0.7071068 0.5537744
vn 0.6994314 0.7071068 0.1039021
vn -0.6994314 -0.7071068 -0.1039021
vn -0.6994314 0.7071068 -0.1039021
vn 0.6994314 -0.7071068 0.1039021

vt 0.96875 0.225
vt 0.96875 0.025
vt 0.96875 0.125
vt 0.09375 0.075
vt 0.09375 0.175

usemtl colormap

f 3/1/1 2/1/1 1/1/1
f 2/1/1 3/1/1 4/1/1
f 1/1/2 2/1/2 3/1/2
f 4/1/2 3/1/2 2/1/2
f 7/1/1 6/1/1 5/1/1
f 6/1/1 7/1/1 8/1/1
f 5/1/2 6/1/2 7/1/2
f 8/1/2 7/1/2 6/1/2
f 11/3/3 10/2/3 9/2/3
f 10/2/3 11/3/3 12/3/3
f 12/3/3 11/3/3 13/3/3
f 8/1/3 13/3/3 11/3/3
f 13/3/3 8/1/3 7/1/3
f 12/3/3 13/3/3 14/3/3
f 14/3/3 3/1/3 12/3/3
f 3/1/3 14/3/3 4/1/3
f 9/2/4 10/2/4 11/3/4
f 12/3/4 11/3/4 10/2/4
f 13/3/4 11/3/4 12/3/4
f 14/3/4 13/3/4 12/3/4
f 11/3/4 13/3/4 8/1/4
f 7/1/4 8/1/4 13/3/4
f 12/3/4 3/1/4 14/3/4
f 4/1/4 14/3/4 3/1/4
f 16/2/2 10/2/2 15/2/2
f 10/2/2 16/2/2 9/2/2
f 15/2/1 10/2/1 16/2/1
f 9/2/1 16/2/1 10/2/1
f 17/3/4 1/1/4 2/1/4
f 17/3/4 15/2/4 1/1/4
f 15/2/4 17/3/4 16/2/4
f 18/3/4 16/2/4 17/3/4
f 16/2/4 18/3/4 6/1/4
f 6/1/4 18/3/4 5/1/4
f 2/1/3 1/1/3 17/3/3
f 1/1/3 15/2/3 17/3/3
f 16/2/3 17/3/3 15/2/3
f 17/3/3 16/2/3 18/3/3
f 6/1/3 18/3/3 16/2/3
f 5/1/3 18/3/3 6/1/3
f 16/2/5 11/3/5 9/2/5
f 11/3/5 16/2/5 8/1/5
f 8/1/5 16/2/5 6/1/5
f 9/2/6 11/3/6 16/2/6
f 8/1/6 16/2/6 11/3/6
f 6/1/6 16/2/6 8/1/6
f 1/1/6 12/3/6 3/1/6
f 12/3/6 1/1/6 10/2/6
f 10/2/6 1/1/6 15/2/6
f 3/1/5 12/3/5 1/1/5
f 10/2/5 1/1/5 12/3/5
f 15/2/5 1/1/5 10/2/5
f 5/4/6 13/5/7 7/4/6
f 13/5/7 5/4/6 18/5/7
f 7/4/5 13/5/8 5/4/5
f 18/5/8 5/4/5 13/5/8
f 17/5/9 4/4/5 14/5/9
f 4/4/5 17/5/9 2/4/5
f 14/5/10 4/4/6 17/5/10
f 2/4/6 17/5/10 4/4/6
f 14/5/9 18/5/7 17/5/9
f 18/5/7 14/5/9 13/5/7
f 17/5/10 18/5/8 14/5/10
f 13/5/8 14/5/10 18/5/8
f 21/5/1 20/5/1 19/5/1
f 20/5/1 21/5/1 22/5/1
f 20/5/1 22/5/1 23/5/1
f 23/5/1 22/5/1 24/5/1
f 19/5/2 20/5/2 21/5/2
f 22/5/2 21/5/2 20/5/2
f 23/5/2 22/5/2 20/5/2
f 24/5/2 22/5/2 23/5/2
f 20/5/12 25/4/11 19/5/11
f 25/4/11 20/5/12 26/4/12
f 19/5/14 25/4/14 20/5/13
f 26/4/13 20/5/13 25/4/14
f 28/4/16 22/5/15 27/4/15
f 22/5/15 28/4/16 24/5/16
f 27/4/18 22/5/18 28/4/17
f 24/5/17 28/4/17 22/5/18
f 21/5/19 25/4/11 29/4/19
f 25/4/11 21/5/19 19/5/11
f 29/4/20 25/4/14 21/5/20
f 19/5/14 21/5/20 25/4/14
f 30/4/21 24/5/16 28/4/16
f 24/5/16 30/4/21 23/5/21
f 28/4/17 24/5/17 30/4/22
f 23/5/22 30/4/22 24/5/17
f 20/5/12 30/4/21 26/4/12
f 30/4/21 20/5/12 23/5/21
f 26/4/13 30/4/22 20/5/13
f 23/5/22 20/5/13 30/4/22
f 22/5/15 29/4/19 27/4/15
f 29/4/19 22/5/15 21/5/19
f 27/4/18 29/4/20 22/5/18
f 21/5/20 22/5/18 29/4/20

g snow-tile-wide-straight




usemtl colormap

f 3/1/1 2/1/1 1/1/1
f 2/1/1 3/1/1 4/1/1
f 1/1/2 2/1/2 3/1/2
f 4/1/2 3/1/2 2/1/2
f 7/1/1 6/1/1 5/1/1
f 6/1/1 7/1/1 8/1/1
f 5/1/2 6/1/2 7/1/2
f 8/1/2 7/1/2 6/1/2
f 11/3/3 10/2/3 9/2/3
f 10/2/3 11/3/3 12/3/3
f 12/3/3 11/3/3 13/3/3
f 8/1/3 13/3/3 11/3/3
f 13/3/3 8/1/3 7/1/3
f 12/3/3 13/3/3 14/3/3
f 14/3/3 3/1/3 12/3/3
f 3/1/3 14/3/3 4/1/3
f 9/2/4 10/2/4 11/3/4
f 12/3/4 11/3/4 10/2/4
f 13/3/4 11/3/4 12/3/4
f 14/3/4 13/3/4 12/3/4
f 11/3/4 13/3/4 8/1/4
f 7/1/4 8/1/4 13/3/4
f 12/3/4 3/1/4 14/3/4
f 4/1/4 14/3/4 3/1/4
f 16/2/2 10/2/2 15/2/2
f 10/2/2 16/2/2 9/2/2
f 15/2/1 10/2/1 16/2/1
f 9/2/1 16/2/1 10/2/1
f 17/3/4 1/1/4 2/1/4
f 17/3/4 15/2/4 1/1/4
f 15/2/4 17/3/4 16/2/4
f 18/3/4 16/2/4 17/3/4
f 16/2/4 18/3/4 6/1/4
f 6/1/4 18/3/4 5/1/4
f 2/1/3 1/1/3 17/3/3
f 1/1/3 15/2/3 17/3/3
f 16/2/3 17/3/3 15/2/3
f 17/3/3 16/2/3 18/3/3
f 6/1/3 18/3/3 16/2/3
f 5/1/3 18/3/3 6/1/3
f 16/2/5 11/3/5 9/2/5
f 11/3/5 16/2/5 8/1/5
f 8/1/5 16/2/5 6/1/5
f 9/2/6 11/3/6 16/2/6
f 8/1/6 16/2/6 11/3/6
f 6/1/6 16/2/6 8/1/6
f 1/1/6 12/3/6 3/1/6
f 12/3/6 1/1/6 10/2/6
f 10/2/6 1/1/6 15/2/6
f 3/1/5 12/3/5 1/1/5
f 10/2/5 1/1/5 12/3/5
f 15/2/5 1/1/5 10/2/5
f 5/4/6 13/5/7 7/4/6
f 13/5/7 5/4/6 18/5/7
f 7/4/5 13/5/8 5/4/5
f 18/5/8 5/4/5 13/5/8
f 17/5/9 4/4/5 14/5/9
f 4/4/5 17/5/9 2/4/5
f 14/5/10 4/4/6 17/5/10
f 2/4/6 17/5/10 4/4/6
f 14/5/9 18/5/7 17/5/9
f 18/5/7 14/5/9 13/5/7
f 17/5/10 18/5/8 14/5/10
f 13/5/8 14/5/10 18/5/8
f 21/5/1 20/5/1 19/5/1
f 20/5/1 21/5/1 22/5/1
f 20/5/1 22/5/1 23/5/1
f 23/5/1 22/5/1 24/5/1
f 19/5/2 20/5/2 21/5/2
f 22/5/2 21/5/2 20/5/2
f 23/5/2 22/5/2 20/5/2
f 24/5/2 22/5/2 23/5/2
f 20/5/12 25/4/11 19/5/11
f 25/4/11 20/5/12 26/4/12
f 19/5/14 25/4/14 20/5/13
f 26/4/13 20/5/13 25/4/14
f 28/4/16 22/5/15 27/4/15
f 22/5/15 28/4/16 24/5/16
f 27/4/18 22/5/18 28/4/17
f 24/5/17 28/4/17 22/5/18
f 21/5/19 25/4/11 29/4/19
f 25/4/11 21/5/19 19/5/11
f 29/4/20 25/4/14 21/5/20
f 19/5/14 21/5/20 25/4/14
f 30/4/21 24/5/16 28/4/16
f 24/5/16 30/4/21 23/5/21
f 28/4/17 24/5/17 30/4/22
f 23/5/22 30/4/22 24/5/17
f 20/5/12 30/4/21 26/4/12
f 30/4/21 20/5/12 23/5/21
f 26/4/13 30/4/22 20/5/13
f 23/5/22 20/5/13 30/4/22
f 22/5/15 29/4/19 27/4/15
f 29/4/19 22/5/15 21/5/19
f 27/4/18 29/4/20 22/5/18
f 21/5/20 22/5/18 29/4/20

