# Created by Kenney (www.kenney.nl)

mtllib snow-wood-structure-part.mtl

g snow-wood-structure-part

v -0.372 0 -0.372 1 1 1
v -0.372 0 -0.5 1 1 1
v -0.5 0 -0.372 1 1 1
v -0.5 0 -0.5 1 1 1
v -0.5 0.5 -0.5 1 1 1
v -0.372 0.5 -0.5 1 1 1
v -0.372 0.5 -0.372 1 1 1
v -0.5 0.5 -0.372 1 1 1
v 0.5 0 -0.372 1 1 1
v 0.5 0 -0.5 1 1 1
v 0.372 0 -0.372 1 1 1
v 0.372 0 -0.5 1 1 1
v 0.372 0.5 -0.5 1 1 1
v 0.5 0.5 -0.5 1 1 1
v 0.5 0.5 -0.372 1 1 1
v 0.372 0.5 -0.372 1 1 1
v 0.372 0.308 -0.404 1 1 1
v -0.372 0.308 -0.404 1 1 1
v 0.372 0.436 -0.404 1 1 1
v 0.2093625 0.436 -0.404 1 1 1
v -0.2093625 0.436 -0.404 1 1 1
v -0.372 0.436 -0.404 1 1 1
v -0.372 0.308 -0.468 1 1 1
v 0.372 0.308 -0.4679999 1 1 1
v 0.372 0.436 -0.4679999 1 1 1
v 0.2093625 0.436 -0.468 1 1 1
v -0.2093625 0.436 -0.468 1 1 1
v -0.372 0.436 -0.468 1 1 1
v 0.372 0.468 -0.4139999 1 1 1
v 0.372 0.468 -0.4579999 1 1 1
v -0.372 0.468 -0.458 1 1 1
v -0.372 0.468 -0.414 1 1 1

vn 0 -1 0
vn 0 1 0
vn 0 0 -1
vn 0 0 1
vn 1 0 0
vn -1 0 0
vn -1.192093E-07 0 1
vn 1.192093E-07 0 -1
vn -0.1303448 0.8313124 0.5403055
vn -1.137829E-07 0.298275 0.9544801
vn -0.09307346 0.9937313 0.06192989
vn 0.09307346 -0.9937313 -0.06192989
vn 1.137829E-07 -0.298275 -0.9544801
vn 0.1303448 -0.8313124 -0.5403055
vn 1.137829E-07 0.298275 -0.9544801
vn -0.1303447 0.8313124 -0.5403056
vn -0.09307344 0.9937313 -0.06192991
vn 0.09307344 -0.9937313 0.06192991
vn 0.1303447 -0.8313124 0.5403056
vn -1.137829E-07 -0.298275 0.9544801
vn 0.09307346 0.9937313 -0.06192989
vn 0.1303448 0.8313124 -0.5403055
vn -0.1303448 -0.8313124 0.5403055
vn -0.09307346 -0.9937313 0.06192989
vn 0.1303447 0.8313124 0.5403056
vn 0.09307344 0.9937313 0.06192991
vn -0.09307344 -0.9937313 -0.06192991
vn -0.1303447 -0.8313124 -0.5403056

vt 0.09375 0.275
vt 0.09375 0.475
vt 0.09375 0.435
vt 0.96875 0.225
vt 0.96875 0.185

usemtl colormap

f 3/1/1 2/1/1 1/1/1
f 2/1/1 3/1/1 4/1/1
f 1/1/2 2/1/2 3/1/2
f 4/1/2 3/1/2 2/1/2
f 5/2/3 2/1/3 4/1/3
f 2/1/3 5/2/3 6/2/3
f 4/1/4 2/1/4 5/2/4
f 6/2/4 5/2/4 2/1/4
f 7/2/5 2/1/5 6/2/5
f 2/1/5 7/2/5 1/1/5
f 6/2/6 2/1/6 7/2/6
f 1/1/6 7/2/6 2/1/6
f 7/2/4 3/1/4 1/1/4
f 3/1/4 7/2/4 8/2/4
f 1/1/3 3/1/3 7/2/3
f 8/2/3 7/2/3 3/1/3
f 3/1/6 5/2/6 4/1/6
f 5/2/6 3/1/6 8/2/6
f 4/1/5 5/2/5 3/1/5
f 8/2/5 3/1/5 5/2/5
f 11/1/1 10/1/1 9/1/1
f 10/1/1 11/1/1 12/1/1
f 9/1/2 10/1/2 11/1/2
f 12/1/2 11/1/2 10/1/2
f 13/2/3 10/1/3 12/1/3
f 10/1/3 13/2/3 14/2/3
f 12/1/4 10/1/4 13/2/4
f 14/2/4 13/2/4 10/1/4
f 15/2/5 10/1/5 14/2/5
f 10/1/5 15/2/5 9/1/5
f 14/2/6 10/1/6 15/2/6
f 9/1/6 15/2/6 10/1/6
f 15/2/4 11/1/4 9/1/4
f 11/1/4 15/2/4 16/2/4
f 9/1/3 11/1/3 15/2/3
f 16/2/3 15/2/3 11/1/3
f 11/1/6 13/2/6 12/1/6
f 13/2/6 11/1/6 16/2/6
f 12/1/5 13/2/5 11/1/5
f 16/2/5 11/1/5 13/2/5
f 19/3/7 18/1/7 17/1/7
f 18/1/7 19/3/7 20/3/7
f 18/1/7 20/3/7 21/3/7
f 18/1/7 21/3/7 22/3/7
f 17/1/8 18/1/8 19/3/8
f 20/3/8 19/3/8 18/1/8
f 21/3/8 20/3/8 18/1/8
f 22/3/8 21/3/8 18/1/8
f 23/1/1 17/1/1 18/1/1
f 17/1/1 23/1/1 24/1/1
f 18/1/2 17/1/2 23/1/2
f 24/1/2 23/1/2 17/1/2
f 23/1/8 25/3/8 24/1/8
f 25/3/8 23/1/8 26/3/8
f 26/3/8 23/1/8 27/3/8
f 27/3/8 23/1/8 28/3/8
f 24/1/7 25/3/7 23/1/7
f 26/3/7 23/1/7 25/3/7
f 27/3/7 23/1/7 26/3/7
f 28/3/7 23/1/7 27/3/7
f 5/4/2 7/4/2 6/4/2
f 7/4/2 5/4/2 8/4/2
f 6/4/1 7/4/1 5/4/1
f 8/4/1 5/4/1 7/4/1
f 13/4/2 15/4/2 14/4/2
f 15/4/2 13/4/2 16/4/2
f 14/4/1 15/4/1 13/4/1
f 16/4/1 13/4/1 15/4/1
f 20/5/11 19/5/10 29/4/9
f 29/4/14 19/5/13 20/5/12
f 26/5/17 30/4/16 25/5/15
f 25/5/20 30/4/19 26/5/18
f 31/4/22 27/5/21 28/5/15
f 28/5/20 27/5/24 31/4/23
f 22/5/10 21/5/26 32/4/25
f 32/4/28 21/5/27 22/5/13
f 29/4/9 26/5/17 20/5/11
f 26/5/17 29/4/9 30/4/16
f 20/5/12 26/5/18 29/4/14
f 30/4/19 29/4/14 26/5/18
f 27/5/21 32/4/25 21/5/26
f 32/4/25 27/5/21 31/4/22
f 21/5/27 32/4/28 27/5/24
f 31/4/23 27/5/24 32/4/28
f 26/5/17 21/5/26 20/5/11
f 21/5/26 26/5/17 27/5/21
f 20/5/12 21/5/27 26/5/18
f 27/5/24 26/5/18 21/5/27

g snow-wood-structure-part




usemtl colormap

f 3/1/1 2/1/1 1/1/1
f 2/1/1 3/1/1 4/1/1
f 1/1/2 2/1/2 3/1/2
f 4/1/2 3/1/2 2/1/2
f 5/2/3 2/1/3 4/1/3
f 2/1/3 5/2/3 6/2/3
f 4/1/4 2/1/4 5/2/4
f 6/2/4 5/2/4 2/1/4
f 7/2/5 2/1/5 6/2/5
f 2/1/5 7/2/5 1/1/5
f 6/2/6 2/1/6 7/2/6
f 1/1/6 7/2/6 2/1/6
f 7/2/4 3/1/4 1/1/4
f 3/1/4 7/2/4 8/2/4
f 1/1/3 3/1/3 7/2/3
f 8/2/3 7/2/3 3/1/3
f 3/1/6 5/2/6 4/1/6
f 5/2/6 3/1/6 8/2/6
f 4/1/5 5/2/5 3/1/5
f 8/2/5 3/1/5 5/2/5
f 11/1/1 10/1/1 9/1/1
f 10/1/1 11/1/1 12/1/1
f 9/1/2 10/1/2 11/1/2
f 12/1/2 11/1/2 10/1/2
f 13/2/3 10/1/3 12/1/3
f 10/1/3 13/2/3 14/2/3
f 12/1/4 10/1/4 13/2/4
f 14/2/4 13/2/4 10/1/4
f 15/2/5 10/1/5 14/2/5
f 10/1/5 15/2/5 9/1/5
f 14/2/6 10/1/6 15/2/6
f 9/1/6 15/2/6 10/1/6
f 15/2/4 11/1/4 9/1/4
f 11/1/4 15/2/4 16/2/4
f 9/1/3 11/1/3 15/2/3
f 16/2/3 15/2/3 11/1/3
f 11/1/6 13/2/6 12/1/6
f 13/2/6 11/1/6 16/2/6
f 12/1/5 13/2/5 11/1/5
f 16/2/5 11/1/5 13/2/5
f 19/3/7 18/1/7 17/1/7
f 18/1/7 19/3/7 20/3/7
f 18/1/7 20/3/7 21/3/7
f 18/1/7 21/3/7 22/3/7
f 17/1/8 18/1/8 19/3/8
f 20/3/8 19/3/8 18/1/8
f 21/3/8 20/3/8 18/1/8
f 22/3/8 21/3/8 18/1/8
f 23/1/1 17/1/1 18/1/1
f 17/1/1 23/1/1 24/1/1
f 18/1/2 17/1/2 23/1/2
f 24/1/2 23/1/2 17/1/2
f 23/1/8 25/3/8 24/1/8
f 25/3/8 23/1/8 26/3/8
f 26/3/8 23/1/8 27/3/8
f 27/3/8 23/1/8 28/3/8
f 24/1/7 25/3/7 23/1/7
f 26/3/7 23/1/7 25/3/7
f 27/3/7 23/1/7 26/3/7
f 28/3/7 23/1/7 27/3/7
f 5/4/2 7/4/2 6/4/2
f 7/4/2 5/4/2 8/4/2
f 6/4/1 7/4/1 5/4/1
f 8/4/1 5/4/1 7/4/1
f 13/4/2 15/4/2 14/4/2
f 15/4/2 13/4/2 16/4/2
f 14/4/1 15/4/1 13/4/1
f 16/4/1 13/4/1 15/4/1
f 20/5/11 19/5/10 29/4/9
f 29/4/14 19/5/13 20/5/12
f 26/5/17 30/4/16 25/5/15
f 25/5/20 30/4/19 26/5/18
f 31/4/22 27/5/21 28/5/15
f 28/5/20 27/5/24 31/4/23
f 22/5/10 21/5/26 32/4/25
f 32/4/28 21/5/27 22/5/13
f 29/4/9 26/5/17 20/5/11
f 26/5/17 29/4/9 30/4/16
f 20/5/12 26/5/18 29/4/14
f 30/4/19 29/4/14 26/5/18
f 27/5/21 32/4/25 21/5/26
f 32/4/25 27/5/21 31/4/22
f 21/5/27 32/4/28 27/5/24
f 31/4/23 27/5/24 32/4/28
f 26/5/17 21/5/26 20/5/11
f 21/5/26 26/5/17 27/5/21
f 20/5/12 21/5/27 26/5/18
f 27/5/24 26/5/18 21/5/27

