# Created by Kenney (www.kenney.nl)

mtllib snow-detail-tree-large.mtl

g snow-detail-tree-large

v 0.06875 0 -0.06875 1 1 1
v -0.06875 0 -0.06875 1 1 1
v 0.06875 0 0.06875 1 1 1
v -0.06875 0 0.06875 1 1 1
v -0.053125 0.15 -0.053125 1 1 1
v -0.053125 0.15 0.053125 1 1 1
v 0.053125 0.15 -0.053125 1 1 1
v 0.053125 0.15 0.053125 1 1 1
v 0 0.35 -0.168566 1 1 1
v 0.1191942 0.35 -0.1191942 1 1 1
v 0 0.436 -0.2 1 1 1
v 0.1414214 0.436 -0.1414214 1 1 1
v -0.225 0.15 0 1 1 1
v -0.25 0.23 0 1 1 1
v -0.159099 0.15 0.159099 1 1 1
v -0.1767767 0.23 0.1767767 1 1 1
v 0.1191942 0.35 0.1191942 1 1 1
v 0 0.35 0.168566 1 1 1
v 0.1414214 0.436 0.1414214 1 1 1
v 0 0.436 0.2 1 1 1
v 0.225 0.15 0 1 1 1
v 0.159099 0.15 -0.159099 1 1 1
v 0.159099 0.15 0.159099 1 1 1
v 0 0.15 0.225 1 1 1
v 0 0.15 -0.225 1 1 1
v -0.159099 0.15 -0.159099 1 1 1
v 0 0.23 0.25 1 1 1
v -0.1191942 0.35 0.1191942 1 1 1
v -0.1414214 0.436 0.1414214 1 1 1
v 0.2 0.436 0 1 1 1
v 0.168566 0.35 -1.443823E-15 1 1 1
v -0.1767767 0.23 -0.1767767 1 1 1
v 0 0.23 -0.25 1 1 1
v -0.1191942 0.35 -0.1191942 1 1 1
v -0.1414214 0.436 -0.1414214 1 1 1
v -0.168566 0.35 -1.443823E-15 1 1 1
v -0.2 0.436 0 1 1 1
v 0.25 0.23 0 1 1 1
v 0.1767767 0.23 0.1767767 1 1 1
v 0.1767767 0.23 -0.1767767 1 1 1
v 0.02262742 0.76 0.02262742 1 1 1
v -0.02262742 0.76 0.02262742 1 1 1
v 0.02262742 0.76 -0.02262742 1 1 1
v -0.02262742 0.76 -0.02262742 1 1 1

vn 0 -1 0
vn 0 1 0
vn -0.9946185 0.1036061 0
vn 0.9946185 -0.1036061 0
vn 0.9946185 0.1036061 0
vn -0.9946185 -0.1036061 0
vn 0 0.1036061 -0.9946185
vn 0 -0.1036061 0.9946185
vn 0 0.1036061 0.9946185
vn 0 -0.1036061 -0.9946185
vn 0 -0.343298 -0.9392266
vn 0.6641335 -0.343298 -0.6641335
vn 0 0.343298 0.9392266
vn -0.6641335 0.343298 0.6641335
vn -0.95448 -0.298275 0
vn -0.6749192 -0.298275 0.6749192
vn 0.6749192 0.298275 -0.6749192
vn 0.95448 0.298275 0
vn 0.6641335 -0.343298 0.6641335
vn 0 -0.343298 0.9392266
vn -0.6641335 0.343298 -0.6641335
vn 0 0.343298 -0.9392266
vn 0 -0.298275 0.95448
vn 0 0.298275 -0.95448
vn -0.6641335 -0.343298 0.6641335
vn 0.6641335 0.343298 -0.6641335
vn 0.9392266 -0.343298 0
vn -0.9392266 0.343298 0
vn -0.6749192 -0.298275 -0.6749192
vn 0.6749192 0.298275 0.6749192
vn 0 -0.298275 -0.95448
vn 0 0.298275 0.95448
vn -0.6641335 -0.343298 -0.6641335
vn 0.6641335 0.343298 0.6641335
vn -0.9392266 -0.343298 0
vn 0.9392266 0.343298 0
vn 0.95448 -0.298275 0
vn 0.6749192 -0.298275 0.6749192
vn -0.6749192 0.298275 -0.6749192
vn -0.95448 0.298275 0
vn 0.6749192 -0.298275 -0.6749192
vn -0.6749192 0.298275 0.6749192
vn 0.5779995 0.5760496 0.5779995
vn 0 0.4612523 0.887269
vn -0.5779995 0.5760496 0.5779995
vn 0.5779995 -0.5760496 -0.5779995
vn 0 -0.4612523 -0.887269
vn -0.5779995 -0.5760496 -0.5779995
vn 0.5779995 0.5760496 -0.5779995
vn 0.887269 0.4612523 0
vn -0.887269 -0.4612523 0
vn -0.5779995 -0.5760496 0.5779995
vn -0.5779995 0.5760496 -0.5779995
vn 0 0.4612523 -0.887269
vn 0 -0.4612523 0.887269
vn 0.5779995 -0.5760496 0.5779995
vn 0.6277373 0.4603172 0.6277373
vn -0.6277373 -0.4603172 -0.6277373
vn 0.6277373 0.4603172 -0.6277373
vn -0.6277373 -0.4603172 0.6277373
vn -0.6277373 0.4603172 0.6277373
vn 0.6277373 -0.4603172 -0.6277373
vn -0.887269 0.4612523 0
vn 0.887269 -0.4612523 0
vn -0.6277373 0.4603172 -0.6277373
vn 0.6277373 -0.4603172 0.6277373
vn 0.8274584 0.561527 0
vn 0.5851015 0.561527 0.5851015
vn -0.5851015 -0.561527 -0.5851015
vn -0.8274584 -0.561527 0
vn -0.5851015 0.561527 -0.5851015
vn -0.8274584 0.561527 0
vn 0.8274584 -0.561527 0
vn 0.5851015 -0.561527 0.5851015
vn 0 0.561527 -0.8274584
vn 0.5851015 0.561527 -0.5851015
vn 0 -0.561527 0.8274584
vn -0.5851015 -0.561527 0.5851015
vn 0 0.561527 0.8274584
vn 0 -0.561527 -0.8274584
vn -0.5851015 0.561527 0.5851015
vn 0.5851015 -0.561527 -0.5851015

vt 0.09375 0.275
vt 0.09375 0.3144737
vt 0.59375 0.3671052
vt 0.59375 0.3897368
vt 0.59375 0.3144737
vt 0.59375 0.3355263
vt 0.96875 0.225
vt 0.96875 0.1397368
vt 0.96875 0.1171053
vt 0.96875 0.08552632

usemtl colormap

f 3/1/1 2/1/1 1/1/1
f 2/1/1 3/1/1 4/1/1
f 1/1/2 2/1/2 3/1/2
f 4/1/2 3/1/2 2/1/2
f 4/1/3 5/2/3 2/1/3
f 5/2/3 4/1/3 6/2/3
f 2/1/4 5/2/4 4/1/4
f 6/2/4 4/1/4 5/2/4
f 7/2/5 3/1/5 1/1/5
f 3/1/5 7/2/5 8/2/5
f 1/1/6 3/1/6 7/2/6
f 8/2/6 7/2/6 3/1/6
f 5/2/7 1/1/7 2/1/7
f 1/1/7 5/2/7 7/2/7
f 2/1/8 1/1/8 5/2/8
f 7/2/8 5/2/8 1/1/8
f 8/2/9 4/1/9 3/1/9
f 4/1/9 8/2/9 6/2/9
f 3/1/10 4/1/10 8/2/10
f 6/2/10 8/2/10 4/1/10
f 11/4/11 10/3/12 9/3/11
f 12/4/12 10/3/12 11/4/11
f 9/3/13 10/3/14 11/4/13
f 11/4/13 10/3/14 12/4/14
f 15/5/16 14/6/15 13/5/15
f 14/6/15 15/5/16 16/6/16
f 13/5/18 14/6/18 15/5/17
f 16/6/17 15/5/17 14/6/18
f 19/4/19 18/3/20 17/3/19
f 20/4/20 18/3/20 19/4/19
f 17/3/21 18/3/22 19/4/21
f 19/4/21 18/3/22 20/4/22
f 23/5/1 22/5/1 21/5/1
f 22/5/1 23/5/1 24/5/1
f 22/5/1 24/5/1 8/5/1
f 22/5/1 8/5/1 7/5/1
f 7/5/1 25/5/1 22/5/1
f 25/5/1 7/5/1 5/5/1
f 8/5/1 24/5/1 6/5/1
f 25/5/1 5/5/1 26/5/1
f 26/5/1 5/5/1 6/5/1
f 6/5/1 24/5/1 15/5/1
f 26/5/1 6/5/1 15/5/1
f 26/5/1 15/5/1 13/5/1
f 21/5/2 22/5/2 23/5/2
f 24/5/2 23/5/2 22/5/2
f 8/5/2 24/5/2 22/5/2
f 7/5/2 8/5/2 22/5/2
f 22/5/2 25/5/2 7/5/2
f 5/5/2 7/5/2 25/5/2
f 6/5/2 24/5/2 8/5/2
f 26/5/2 5/5/2 25/5/2
f 6/5/2 5/5/2 26/5/2
f 15/5/2 24/5/2 6/5/2
f 15/5/2 6/5/2 26/5/2
f 13/5/2 15/5/2 26/5/2
f 27/6/23 15/5/16 24/5/23
f 15/5/16 27/6/23 16/6/16
f 24/5/24 15/5/17 27/6/24
f 16/6/17 27/6/24 15/5/17
f 29/4/25 28/3/25 20/4/20
f 20/4/20 28/3/25 18/3/20
f 20/4/22 28/3/26 29/4/26
f 18/3/22 28/3/26 20/4/22
f 19/4/19 31/3/27 30/4/27
f 19/4/19 17/3/19 31/3/27
f 30/4/28 31/3/28 19/4/21
f 31/3/28 17/3/21 19/4/21
f 26/5/29 14/6/15 32/6/29
f 14/6/15 26/5/29 13/5/15
f 32/6/30 14/6/18 26/5/30
f 13/5/18 26/5/30 14/6/18
f 32/6/29 25/5/31 26/5/29
f 25/5/31 32/6/29 33/6/31
f 26/5/30 25/5/32 32/6/30
f 33/6/32 32/6/30 25/5/32
f 35/4/33 9/3/11 34/3/33
f 11/4/11 9/3/11 35/4/33
f 34/3/34 9/3/13 35/4/34
f 35/4/34 9/3/13 11/4/13
f 36/3/35 35/4/33 34/3/33
f 37/4/35 35/4/33 36/3/35
f 34/3/34 35/4/34 36/3/36
f 36/3/36 35/4/34 37/4/36
f 39/6/38 21/5/37 38/6/37
f 21/5/37 39/6/38 23/5/38
f 38/6/40 21/5/40 39/6/39
f 23/5/39 39/6/39 21/5/40
f 30/4/27 31/3/27 10/3/12
f 30/4/27 10/3/12 12/4/12
f 10/3/14 31/3/28 30/4/28
f 12/4/14 10/3/14 30/4/28
f 33/6/31 22/5/41 25/5/31
f 22/5/41 33/6/31 40/6/41
f 25/5/32 22/5/42 33/6/32
f 40/6/42 33/6/32 22/5/42
f 38/6/37 22/5/41 40/6/41
f 22/5/41 38/6/37 21/5/37
f 40/6/42 22/5/42 38/6/40
f 21/5/40 38/6/40 22/5/42
f 39/6/38 24/5/23 23/5/38
f 24/5/23 39/6/38 27/6/23
f 23/5/39 24/5/24 39/6/39
f 27/6/24 39/6/39 24/5/24
f 29/4/25 37/4/35 28/3/25
f 28/3/25 37/4/35 36/3/35
f 28/3/26 37/4/36 29/4/26
f 36/3/36 37/4/36 28/3/26
f 42/7/45 20/8/44 41/7/43
f 41/7/48 20/8/47 42/7/46
f 41/7/43 30/8/50 43/7/49
f 43/7/52 30/8/51 41/7/48
f 43/7/49 11/8/54 44/7/53
f 44/7/56 11/8/55 43/7/52
f 19/8/57 30/8/50 41/7/43
f 41/7/48 30/8/51 19/8/58
f 30/8/50 12/8/59 43/7/49
f 43/7/52 12/8/60 30/8/51
f 42/7/45 29/8/61 20/8/44
f 20/8/47 29/8/62 42/7/46
f 42/7/45 44/7/53 37/8/63
f 37/8/64 44/7/56 42/7/46
f 29/8/61 42/7/45 37/8/63
f 37/8/64 42/7/46 29/8/62
f 41/7/43 20/8/44 19/8/57
f 19/8/58 20/8/47 41/7/48
f 44/7/53 11/8/54 35/8/65
f 35/8/66 11/8/55 44/7/56
f 43/7/49 12/8/59 11/8/54
f 11/8/55 12/8/60 43/7/52
f 37/8/63 44/7/53 35/8/65
f 35/8/66 44/7/56 37/8/64
f 17/9/68 38/10/67 31/9/67
f 38/10/67 17/9/68 39/10/68
f 31/9/70 38/10/70 17/9/69
f 39/10/69 17/9/69 38/10/70
f 14/10/72 34/9/71 32/10/71
f 34/9/71 14/10/72 36/9/72
f 32/10/74 34/9/74 14/10/73
f 36/9/73 14/10/73 34/9/74
f 9/9/75 40/10/76 33/10/75
f 40/10/76 9/9/75 10/9/76
f 33/10/77 40/10/78 9/9/77
f 10/9/78 9/9/77 40/10/78
f 44/7/2 41/7/2 43/7/2
f 41/7/2 44/7/2 42/7/2
f 43/7/1 41/7/1 44/7/1
f 42/7/1 44/7/1 41/7/1
f 17/9/68 27/10/79 39/10/68
f 27/10/79 17/9/68 18/9/79
f 39/10/69 27/10/80 17/9/69
f 18/9/80 17/9/69 27/10/80
f 10/9/76 38/10/67 40/10/76
f 38/10/67 10/9/76 31/9/67
f 40/10/78 38/10/70 10/9/78
f 31/9/70 10/9/78 38/10/70
f 18/9/79 16/10/81 27/10/79
f 16/10/81 18/9/79 28/9/81
f 27/10/80 16/10/82 18/9/80
f 28/9/82 18/9/80 16/10/82
f 34/9/71 33/10/75 32/10/71
f 33/10/75 34/9/71 9/9/75
f 32/10/74 33/10/77 34/9/74
f 9/9/77 34/9/74 33/10/77
f 14/10/72 28/9/81 36/9/72
f 28/9/81 14/10/72 16/10/81
f 36/9/73 28/9/82 14/10/73
f 16/10/82 14/10/73 28/9/82

g snow-detail-tree-large




usemtl colormap

f 3/1/1 2/1/1 1/1/1
f 2/1/1 3/1/1 4/1/1
f 1/1/2 2/1/2 3/1/2
f 4/1/2 3/1/2 2/1/2
f 4/1/3 5/2/3 2/1/3
f 5/2/3 4/1/3 6/2/3
f 2/1/4 5/2/4 4/1/4
f 6/2/4 4/1/4 5/2/4
f 7/2/5 3/1/5 1/1/5
f 3/1/5 7/2/5 8/2/5
f 1/1/6 3/1/6 7/2/6
f 8/2/6 7/2/6 3/1/6
f 5/2/7 1/1/7 2/1/7
f 1/1/7 5/2/7 7/2/7
f 2/1/8 1/1/8 5/2/8
f 7/2/8 5/2/8 1/1/8
f 8/2/9 4/1/9 3/1/9
f 4/1/9 8/2/9 6/2/9
f 3/1/10 4/1/10 8/2/10
f 6/2/10 8/2/10 4/1/10
f 11/4/11 10/3/12 9/3/11
f 12/4/12 10/3/12 11/4/11
f 9/3/13 10/3/14 11/4/13
f 11/4/13 10/3/14 12/4/14
f 15/5/16 14/6/15 13/5/15
f 14/6/15 15/5/16 16/6/16
f 13/5/18 14/6/18 15/5/17
f 16/6/17 15/5/17 14/6/18
f 19/4/19 18/3/20 17/3/19
f 20/4/20 18/3/20 19/4/19
f 17/3/21 18/3/22 19/4/21
f 19/4/21 18/3/22 20/4/22
f 23/5/1 22/5/1 21/5/1
f 22/5/1 23/5/1 24/5/1
f 22/5/1 24/5/1 8/5/1
f 22/5/1 8/5/1 7/5/1
f 7/5/1 25/5/1 22/5/1
f 25/5/1 7/5/1 5/5/1
f 8/5/1 24/5/1 6/5/1
f 25/5/1 5/5/1 26/5/1
f 26/5/1 5/5/1 6/5/1
f 6/5/1 24/5/1 15/5/1
f 26/5/1 6/5/1 15/5/1
f 26/5/1 15/5/1 13/5/1
f 21/5/2 22/5/2 23/5/2
f 24/5/2 23/5/2 22/5/2
f 8/5/2 24/5/2 22/5/2
f 7/5/2 8/5/2 22/5/2
f 22/5/2 25/5/2 7/5/2
f 5/5/2 7/5/2 25/5/2
f 6/5/2 24/5/2 8/5/2
f 26/5/2 5/5/2 25/5/2
f 6/5/2 5/5/2 26/5/2
f 15/5/2 24/5/2 6/5/2
f 15/5/2 6/5/2 26/5/2
f 13/5/2 15/5/2 26/5/2
f 27/6/23 15/5/16 24/5/23
f 15/5/16 27/6/23 16/6/16
f 24/5/24 15/5/17 27/6/24
f 16/6/17 27/6/24 15/5/17
f 29/4/25 28/3/25 20/4/20
f 20/4/20 28/3/25 18/3/20
f 20/4/22 28/3/26 29/4/26
f 18/3/22 28/3/26 20/4/22
f 19/4/19 31/3/27 30/4/27
f 19/4/19 17/3/19 31/3/27
f 30/4/28 31/3/28 19/4/21
f 31/3/28 17/3/21 19/4/21
f 26/5/29 14/6/15 32/6/29
f 14/6/15 26/5/29 13/5/15
f 32/6/30 14/6/18 26/5/30
f 13/5/18 26/5/30 14/6/18
f 32/6/29 25/5/31 26/5/29
f 25/5/31 32/6/29 33/6/31
f 26/5/30 25/5/32 32/6/30
f 33/6/32 32/6/30 25/5/32
f 35/4/33 9/3/11 34/3/33
f 11/4/11 9/3/11 35/4/33
f 34/3/34 9/3/13 35/4/34
f 35/4/34 9/3/13 11/4/13
f 36/3/35 35/4/33 34/3/33
f 37/4/35 35/4/33 36/3/35
f 34/3/34 35/4/34 36/3/36
f 36/3/36 35/4/34 37/4/36
f 39/6/38 21/5/37 38/6/37
f 21/5/37 39/6/38 23/5/38
f 38/6/40 21/5/40 39/6/39
f 23/5/39 39/6/39 21/5/40
f 30/4/27 31/3/27 10/3/12
f 30/4/27 10/3/12 12/4/12
f 10/3/14 31/3/28 30/4/28
f 12/4/14 10/3/14 30/4/28
f 33/6/31 22/5/41 25/5/31
f 22/5/41 33/6/31 40/6/41
f 25/5/32 22/5/42 33/6/32
f 40/6/42 33/6/32 22/5/42
f 38/6/37 22/5/41 40/6/41
f 22/5/41 38/6/37 21/5/37
f 40/6/42 22/5/42 38/6/40
f 21/5/40 38/6/40 22/5/42
f 39/6/38 24/5/23 23/5/38
f 24/5/23 39/6/38 27/6/23
f 23/5/39 24/5/24 39/6/39
f 27/6/24 39/6/39 24/5/24
f 29/4/25 37/4/35 28/3/25
f 28/3/25 37/4/35 36/3/35
f 28/3/26 37/4/36 29/4/26
f 36/3/36 37/4/36 28/3/26
f 42/7/45 20/8/44 41/7/43
f 41/7/48 20/8/47 42/7/46
f 41/7/43 30/8/50 43/7/49
f 43/7/52 30/8/51 41/7/48
f 43/7/49 11/8/54 44/7/53
f 44/7/56 11/8/55 43/7/52
f 19/8/57 30/8/50 41/7/43
f 41/7/48 30/8/51 19/8/58
f 30/8/50 12/8/59 43/7/49
f 43/7/52 12/8/60 30/8/51
f 42/7/45 29/8/61 20/8/44
f 20/8/47 29/8/62 42/7/46
f 42/7/45 44/7/53 37/8/63
f 37/8/64 44/7/56 42/7/46
f 29/8/61 42/7/45 37/8/63
f 37/8/64 42/7/46 29/8/62
f 41/7/43 20/8/44 19/8/57
f 19/8/58 20/8/47 41/7/48
f 44/7/53 11/8/54 35/8/65
f 35/8/66 11/8/55 44/7/56
f 43/7/49 12/8/59 11/8/54
f 11/8/55 12/8/60 43/7/52
f 37/8/63 44/7/53 35/8/65
f 35/8/66 44/7/56 37/8/64
f 17/9/68 38/10/67 31/9/67
f 38/10/67 17/9/68 39/10/68
f 31/9/70 38/10/70 17/9/69
f 39/10/69 17/9/69 38/10/70
f 14/10/72 34/9/71 32/10/71
f 34/9/71 14/10/72 36/9/72
f 32/10/74 34/9/74 14/10/73
f 36/9/73 14/10/73 34/9/74
f 9/9/75 40/10/76 33/10/75
f 40/10/76 9/9/75 10/9/76
f 33/10/77 40/10/78 9/9/77
f 10/9/78 9/9/77 40/10/78
f 44/7/2 41/7/2 43/7/2
f 41/7/2 44/7/2 42/7/2
f 43/7/1 41/7/1 44/7/1
f 42/7/1 44/7/1 41/7/1
f 17/9/68 27/10/79 39/10/68
f 27/10/79 17/9/68 18/9/79
f 39/10/69 27/10/80 17/9/69
f 18/9/80 17/9/69 27/10/80
f 10/9/76 38/10/67 40/10/76
f 38/10/67 10/9/76 31/9/67
f 40/10/78 38/10/70 10/9/78
f 31/9/70 10/9/78 38/10/70
f 18/9/79 16/10/81 27/10/79
f 16/10/81 18/9/79 28/9/81
f 27/10/80 16/10/82 18/9/80
f 28/9/82 18/9/80 16/10/82
f 34/9/71 33/10/75 32/10/71
f 33/10/75 34/9/71 9/9/75
f 32/10/74 33/10/77 34/9/74
f 9/9/77 34/9/74 33/10/77
f 14/10/72 28/9/81 36/9/72
f 28/9/81 14/10/72 16/10/81
f 36/9/73 28/9/82 14/10/73
f 16/10/82 14/10/73 28/9/82

