# Created by Kenney (www.kenney.nl)

mtllib snow-wood-structure.mtl

g snow-wood-structure

v -0.372 0 -0.372 1 1 1
v -0.372 0 -0.5 1 1 1
v -0.5 0 -0.372 1 1 1
v -0.5 0 -0.5 1 1 1
v -0.5 0.5 -0.5 1 1 1
v -0.372 0.5 -0.5 1 1 1
v -0.372 0.5 -0.372 1 1 1
v -0.5 0.5 -0.372 1 1 1
v 0.5 0 -0.372 1 1 1
v 0.5 0 -0.5 1 1 1
v 0.372 0 -0.372 1 1 1
v 0.372 0 -0.5 1 1 1
v 0.372 0.5 -0.5 1 1 1
v 0.5 0.5 -0.5 1 1 1
v 0.5 0.5 -0.372 1 1 1
v 0.372 0.5 -0.372 1 1 1
v 0.5 0 0.5 1 1 1
v 0.5 0 0.372 1 1 1
v 0.372 0 0.5 1 1 1
v 0.372 0 0.372 1 1 1
v 0.372 0.5 0.372 1 1 1
v 0.5 0.5 0.372 1 1 1
v 0.5 0.5 0.5 1 1 1
v 0.372 0.5 0.5 1 1 1
v -0.372 0 0.5 1 1 1
v -0.372 0 0.372 1 1 1
v -0.5 0 0.5 1 1 1
v -0.5 0 0.372 1 1 1
v -0.5 0.5 0.372 1 1 1
v -0.372 0.5 0.372 1 1 1
v -0.372 0.5 0.5 1 1 1
v -0.5 0.5 0.5 1 1 1
v -0.404 0.308 -0.372 1 1 1
v -0.404 0.308 0.372 1 1 1
v -0.404 0.436 -0.372 1 1 1
v -0.404 0.436 -0.2093625 1 1 1
v -0.404 0.436 0.2093625 1 1 1
v -0.404 0.436 0.372 1 1 1
v -0.468 0.308 0.372 1 1 1
v -0.468 0.308 -0.372 1 1 1
v -0.468 0.436 -0.372 1 1 1
v -0.468 0.436 -0.2093625 1 1 1
v -0.468 0.436 0.2093625 1 1 1
v -0.468 0.436 0.372 1 1 1
v 0.468 0.308 -0.372 1 1 1
v 0.468 0.308 0.372 1 1 1
v 0.468 0.436 -0.372 1 1 1
v 0.468 0.436 -0.2093625 1 1 1
v 0.468 0.436 0.2093625 1 1 1
v 0.468 0.436 0.372 1 1 1
v 0.404 0.308 0.372 1 1 1
v 0.404 0.308 -0.372 1 1 1
v 0.404 0.436 -0.372 1 1 1
v 0.404 0.436 -0.2093625 1 1 1
v 0.404 0.436 0.2093625 1 1 1
v 0.404 0.436 0.372 1 1 1
v 0.372 0.308 -0.404 1 1 1
v -0.372 0.308 -0.404 1 1 1
v 0.372 0.436 -0.404 1 1 1
v 0.2093625 0.436 -0.404 1 1 1
v -0.2093625 0.436 -0.404 1 1 1
v -0.372 0.436 -0.404 1 1 1
v -0.372 0.308 -0.468 1 1 1
v 0.372 0.308 -0.4679999 1 1 1
v 0.372 0.436 -0.4679999 1 1 1
v 0.2093625 0.436 -0.468 1 1 1
v -0.2093625 0.436 -0.468 1 1 1
v -0.372 0.436 -0.468 1 1 1
v 0.372 0.308 0.468 1 1 1
v -0.372 0.308 0.4679999 1 1 1
v 0.372 0.436 0.468 1 1 1
v 0.2093625 0.436 0.468 1 1 1
v -0.2093625 0.436 0.468 1 1 1
v -0.372 0.436 0.4679999 1 1 1
v -0.372 0.308 0.404 1 1 1
v 0.372 0.308 0.404 1 1 1
v 0.372 0.436 0.404 1 1 1
v 0.2093625 0.436 0.404 1 1 1
v -0.2093625 0.436 0.404 1 1 1
v -0.372 0.436 0.404 1 1 1
v -0.414 0.468 -0.372 1 1 1
v -0.458 0.468 -0.372 1 1 1
v -0.458 0.468 0.372 1 1 1
v -0.414 0.468 0.372 1 1 1
v 0.458 0.468 -0.372 1 1 1
v 0.414 0.468 -0.372 1 1 1
v 0.414 0.468 0.372 1 1 1
v 0.458 0.468 0.372 1 1 1
v 0.372 0.468 -0.4139999 1 1 1
v 0.372 0.468 -0.4579999 1 1 1
v -0.372 0.468 -0.458 1 1 1
v -0.372 0.468 -0.414 1 1 1
v 0.372 0.468 0.458 1 1 1
v 0.372 0.468 0.414 1 1 1
v -0.372 0.468 0.4139999 1 1 1
v -0.372 0.468 0.4579999 1 1 1

vn 0 -1 0
vn 0 1 0
vn 0 0 -1
vn 0 0 1
vn 1 0 0
vn -1 0 0
vn -1.192093E-07 0 1
vn 1.192093E-07 0 -1
vn 0.5403054 0.8313124 0.1303447
vn 0.95448 0.298275 0
vn 0.06192989 0.9937313 0.09307344
vn -0.06192989 -0.9937313 -0.09307344
vn -0.95448 -0.298275 0
vn -0.5403054 -0.8313124 -0.1303447
vn -0.95448 0.298275 0
vn -0.5403055 0.8313124 0.1303447
vn -0.06192989 0.9937313 0.09307344
vn 0.06192989 -0.9937313 -0.09307344
vn 0.5403055 -0.8313124 -0.1303447
vn 0.95448 -0.298275 0
vn -0.06192989 0.9937313 -0.09307344
vn -0.5403054 0.8313124 -0.1303447
vn 0.5403054 -0.8313124 0.1303447
vn 0.06192989 -0.9937313 0.09307344
vn 0.5403055 0.8313124 -0.1303447
vn 0.06192989 0.9937313 -0.09307344
vn -0.06192989 -0.9937313 0.09307344
vn -0.5403055 -0.8313124 0.1303447
vn -0.1303448 0.8313124 0.5403055
vn -1.137829E-07 0.298275 0.9544801
vn -0.09307346 0.9937313 0.06192989
vn 0.09307346 -0.9937313 -0.06192989
vn 1.137829E-07 -0.298275 -0.9544801
vn 0.1303448 -0.8313124 -0.5403055
vn 1.137829E-07 0.298275 -0.9544801
vn -0.1303447 0.8313124 -0.5403056
vn -0.09307344 0.9937313 -0.06192991
vn 0.09307344 -0.9937313 0.06192991
vn 0.1303447 -0.8313124 0.5403056
vn -1.137829E-07 -0.298275 0.9544801
vn 0.09307346 0.9937313 -0.06192989
vn 0.1303448 0.8313124 -0.5403055
vn -0.1303448 -0.8313124 0.5403055
vn -0.09307346 -0.9937313 0.06192989
vn 0.1303447 0.8313124 0.5403056
vn 0.09307344 0.9937313 0.06192991
vn -0.09307344 -0.9937313 -0.06192991
vn -0.1303447 -0.8313124 -0.5403056

vt 0.09375 0.275
vt 0.09375 0.475
vt 0.09375 0.435
vt 0.96875 0.225
vt 0.96875 0.185

usemtl colormap

f 3/1/1 2/1/1 1/1/1
f 2/1/1 3/1/1 4/1/1
f 1/1/2 2/1/2 3/1/2
f 4/1/2 3/1/2 2/1/2
f 5/2/3 2/1/3 4/1/3
f 2/1/3 5/2/3 6/2/3
f 4/1/4 2/1/4 5/2/4
f 6/2/4 5/2/4 2/1/4
f 7/2/5 2/1/5 6/2/5
f 2/1/5 7/2/5 1/1/5
f 6/2/6 2/1/6 7/2/6
f 1/1/6 7/2/6 2/1/6
f 7/2/4 3/1/4 1/1/4
f 3/1/4 7/2/4 8/2/4
f 1/1/3 3/1/3 7/2/3
f 8/2/3 7/2/3 3/1/3
f 3/1/6 5/2/6 4/1/6
f 5/2/6 3/1/6 8/2/6
f 4/1/5 5/2/5 3/1/5
f 8/2/5 3/1/5 5/2/5
f 11/1/1 10/1/1 9/1/1
f 10/1/1 11/1/1 12/1/1
f 9/1/2 10/1/2 11/1/2
f 12/1/2 11/1/2 10/1/2
f 13/2/3 10/1/3 12/1/3
f 10/1/3 13/2/3 14/2/3
f 12/1/4 10/1/4 13/2/4
f 14/2/4 13/2/4 10/1/4
f 15/2/5 10/1/5 14/2/5
f 10/1/5 15/2/5 9/1/5
f 14/2/6 10/1/6 15/2/6
f 9/1/6 15/2/6 10/1/6
f 15/2/4 11/1/4 9/1/4
f 11/1/4 15/2/4 16/2/4
f 9/1/3 11/1/3 15/2/3
f 16/2/3 15/2/3 11/1/3
f 11/1/6 13/2/6 12/1/6
f 13/2/6 11/1/6 16/2/6
f 12/1/5 13/2/5 11/1/5
f 16/2/5 11/1/5 13/2/5
f 19/1/1 18/1/1 17/1/1
f 18/1/1 19/1/1 20/1/1
f 17/1/2 18/1/2 19/1/2
f 20/1/2 19/1/2 18/1/2
f 21/2/3 18/1/3 20/1/3
f 18/1/3 21/2/3 22/2/3
f 20/1/4 18/1/4 21/2/4
f 22/2/4 21/2/4 18/1/4
f 23/2/5 18/1/5 22/2/5
f 18/1/5 23/2/5 17/1/5
f 22/2/6 18/1/6 23/2/6
f 17/1/6 23/2/6 18/1/6
f 23/2/4 19/1/4 17/1/4
f 19/1/4 23/2/4 24/2/4
f 17/1/3 19/1/3 23/2/3
f 24/2/3 23/2/3 19/1/3
f 19/1/6 21/2/6 20/1/6
f 21/2/6 19/1/6 24/2/6
f 20/1/5 21/2/5 19/1/5
f 24/2/5 19/1/5 21/2/5
f 27/1/1 26/1/1 25/1/1
f 26/1/1 27/1/1 28/1/1
f 25/1/2 26/1/2 27/1/2
f 28/1/2 27/1/2 26/1/2
f 29/2/3 26/1/3 28/1/3
f 26/1/3 29/2/3 30/2/3
f 28/1/4 26/1/4 29/2/4
f 30/2/4 29/2/4 26/1/4
f 31/2/5 26/1/5 30/2/5
f 26/1/5 31/2/5 25/1/5
f 30/2/6 26/1/6 31/2/6
f 25/1/6 31/2/6 26/1/6
f 31/2/4 27/1/4 25/1/4
f 27/1/4 31/2/4 32/2/4
f 25/1/3 27/1/3 31/2/3
f 32/2/3 31/2/3 27/1/3
f 27/1/6 29/2/6 28/1/6
f 29/2/6 27/1/6 32/2/6
f 28/1/5 29/2/5 27/1/5
f 32/2/5 27/1/5 29/2/5
f 35/3/5 34/1/5 33/1/5
f 34/1/5 35/3/5 36/3/5
f 34/1/5 36/3/5 37/3/5
f 34/1/5 37/3/5 38/3/5
f 33/1/6 34/1/6 35/3/6
f 36/3/6 35/3/6 34/1/6
f 37/3/6 36/3/6 34/1/6
f 38/3/6 37/3/6 34/1/6
f 39/1/1 33/1/1 34/1/1
f 33/1/1 39/1/1 40/1/1
f 34/1/2 33/1/2 39/1/2
f 40/1/2 39/1/2 33/1/2
f 39/1/6 41/3/6 40/1/6
f 41/3/6 39/1/6 42/3/6
f 42/3/6 39/1/6 43/3/6
f 43/3/6 39/1/6 44/3/6
f 40/1/5 41/3/5 39/1/5
f 42/3/5 39/1/5 41/3/5
f 43/3/5 39/1/5 42/3/5
f 44/3/5 39/1/5 43/3/5
f 47/3/5 46/1/5 45/1/5
f 46/1/5 47/3/5 48/3/5
f 46/1/5 48/3/5 49/3/5
f 46/1/5 49/3/5 50/3/5
f 45/1/6 46/1/6 47/3/6
f 48/3/6 47/3/6 46/1/6
f 49/3/6 48/3/6 46/1/6
f 50/3/6 49/3/6 46/1/6
f 51/1/1 45/1/1 46/1/1
f 45/1/1 51/1/1 52/1/1
f 46/1/2 45/1/2 51/1/2
f 52/1/2 51/1/2 45/1/2
f 51/1/6 53/3/6 52/1/6
f 53/3/6 51/1/6 54/3/6
f 54/3/6 51/1/6 55/3/6
f 55/3/6 51/1/6 56/3/6
f 52/1/5 53/3/5 51/1/5
f 54/3/5 51/1/5 53/3/5
f 55/3/5 51/1/5 54/3/5
f 56/3/5 51/1/5 55/3/5
f 59/3/7 58/1/7 57/1/7
f 58/1/7 59/3/7 60/3/7
f 58/1/7 60/3/7 61/3/7
f 58/1/7 61/3/7 62/3/7
f 57/1/8 58/1/8 59/3/8
f 60/3/8 59/3/8 58/1/8
f 61/3/8 60/3/8 58/1/8
f 62/3/8 61/3/8 58/1/8
f 63/1/1 57/1/1 58/1/1
f 57/1/1 63/1/1 64/1/1
f 58/1/2 57/1/2 63/1/2
f 64/1/2 63/1/2 57/1/2
f 63/1/8 65/3/8 64/1/8
f 65/3/8 63/1/8 66/3/8
f 66/3/8 63/1/8 67/3/8
f 67/3/8 63/1/8 68/3/8
f 64/1/7 65/3/7 63/1/7
f 66/3/7 63/1/7 65/3/7
f 67/3/7 63/1/7 66/3/7
f 68/3/7 63/1/7 67/3/7
f 71/3/7 70/1/7 69/1/7
f 70/1/7 71/3/7 72/3/7
f 70/1/7 72/3/7 73/3/7
f 70/1/7 73/3/7 74/3/7
f 69/1/8 70/1/8 71/3/8
f 72/3/8 71/3/8 70/1/8
f 73/3/8 72/3/8 70/1/8
f 74/3/8 73/3/8 70/1/8
f 75/1/1 69/1/1 70/1/1
f 69/1/1 75/1/1 76/1/1
f 70/1/2 69/1/2 75/1/2
f 76/1/2 75/1/2 69/1/2
f 75/1/8 77/3/8 76/1/8
f 77/3/8 75/1/8 78/3/8
f 78/3/8 75/1/8 79/3/8
f 79/3/8 75/1/8 80/3/8
f 76/1/7 77/3/7 75/1/7
f 78/3/7 75/1/7 77/3/7
f 79/3/7 75/1/7 78/3/7
f 80/3/7 75/1/7 79/3/7
f 5/4/2 7/4/2 6/4/2
f 7/4/2 5/4/2 8/4/2
f 6/4/1 7/4/1 5/4/1
f 8/4/1 5/4/1 7/4/1
f 13/4/2 15/4/2 14/4/2
f 15/4/2 13/4/2 16/4/2
f 14/4/1 15/4/1 13/4/1
f 16/4/1 13/4/1 15/4/1
f 21/4/2 23/4/2 22/4/2
f 23/4/2 21/4/2 24/4/2
f 22/4/1 23/4/1 21/4/1
f 24/4/1 21/4/1 23/4/1
f 29/4/2 31/4/2 30/4/2
f 31/4/2 29/4/2 32/4/2
f 30/4/1 31/4/1 29/4/1
f 32/4/1 29/4/1 31/4/1
f 36/5/11 35/5/10 81/4/9
f 81/4/14 35/5/13 36/5/12
f 42/5/17 82/4/16 41/5/15
f 41/5/20 82/4/19 42/5/18
f 83/4/22 43/5/21 44/5/15
f 44/5/20 43/5/24 83/4/23
f 38/5/10 37/5/26 84/4/25
f 84/4/28 37/5/27 38/5/13
f 81/4/9 42/5/17 36/5/11
f 42/5/17 81/4/9 82/4/16
f 36/5/12 42/5/18 81/4/14
f 82/4/19 81/4/14 42/5/18
f 43/5/21 84/4/25 37/5/26
f 84/4/25 43/5/21 83/4/22
f 37/5/27 84/4/28 43/5/24
f 83/4/23 43/5/24 84/4/28
f 42/5/17 37/5/26 36/5/11
f 37/5/26 42/5/17 43/5/21
f 36/5/12 37/5/27 42/5/18
f 43/5/24 42/5/18 37/5/27
f 48/5/11 47/5/10 85/4/9
f 85/4/14 47/5/13 48/5/12
f 54/5/17 86/4/16 53/5/15
f 53/5/20 86/4/19 54/5/18
f 87/4/22 55/5/21 56/5/15
f 56/5/20 55/5/24 87/4/23
f 50/5/10 49/5/26 88/4/25
f 88/4/28 49/5/27 50/5/13
f 85/4/9 54/5/17 48/5/11
f 54/5/17 85/4/9 86/4/16
f 48/5/12 54/5/18 85/4/14
f 86/4/19 85/4/14 54/5/18
f 55/5/21 88/4/25 49/5/26
f 88/4/25 55/5/21 87/4/22
f 49/5/27 88/4/28 55/5/24
f 87/4/23 55/5/24 88/4/28
f 54/5/17 49/5/26 48/5/11
f 49/5/26 54/5/17 55/5/21
f 48/5/12 49/5/27 54/5/18
f 55/5/24 54/5/18 49/5/27
f 60/5/31 59/5/30 89/4/29
f 89/4/34 59/5/33 60/5/32
f 66/5/37 90/4/36 65/5/35
f 65/5/40 90/4/39 66/5/38
f 91/4/42 67/5/41 68/5/35
f 68/5/40 67/5/44 91/4/43
f 62/5/30 61/5/46 92/4/45
f 92/4/48 61/5/47 62/5/33
f 89/4/29 66/5/37 60/5/31
f 66/5/37 89/4/29 90/4/36
f 60/5/32 66/5/38 89/4/34
f 90/4/39 89/4/34 66/5/38
f 67/5/41 92/4/45 61/5/46
f 92/4/45 67/5/41 91/4/42
f 61/5/47 92/4/48 67/5/44
f 91/4/43 67/5/44 92/4/48
f 66/5/37 61/5/46 60/5/31
f 61/5/46 66/5/37 67/5/41
f 60/5/32 61/5/47 66/5/38
f 67/5/44 66/5/38 61/5/47
f 72/5/31 71/5/30 93/4/29
f 93/4/34 71/5/33 72/5/32
f 78/5/37 94/4/36 77/5/35
f 77/5/40 94/4/39 78/5/38
f 95/4/42 79/5/41 80/5/35
f 80/5/40 79/5/44 95/4/43
f 74/5/30 73/5/46 96/4/45
f 96/4/48 73/5/47 74/5/33
f 93/4/29 78/5/37 72/5/31
f 78/5/37 93/4/29 94/4/36
f 72/5/32 78/5/38 93/4/34
f 94/4/39 93/4/34 78/5/38
f 79/5/41 96/4/45 73/5/46
f 96/4/45 79/5/41 95/4/42
f 73/5/47 96/4/48 79/5/44
f 95/4/43 79/5/44 96/4/48
f 78/5/37 73/5/46 72/5/31
f 73/5/46 78/5/37 79/5/41
f 72/5/32 73/5/47 78/5/38
f 79/5/44 78/5/38 73/5/47

g snow-wood-structure




usemtl colormap

f 3/1/1 2/1/1 1/1/1
f 2/1/1 3/1/1 4/1/1
f 1/1/2 2/1/2 3/1/2
f 4/1/2 3/1/2 2/1/2
f 5/2/3 2/1/3 4/1/3
f 2/1/3 5/2/3 6/2/3
f 4/1/4 2/1/4 5/2/4
f 6/2/4 5/2/4 2/1/4
f 7/2/5 2/1/5 6/2/5
f 2/1/5 7/2/5 1/1/5
f 6/2/6 2/1/6 7/2/6
f 1/1/6 7/2/6 2/1/6
f 7/2/4 3/1/4 1/1/4
f 3/1/4 7/2/4 8/2/4
f 1/1/3 3/1/3 7/2/3
f 8/2/3 7/2/3 3/1/3
f 3/1/6 5/2/6 4/1/6
f 5/2/6 3/1/6 8/2/6
f 4/1/5 5/2/5 3/1/5
f 8/2/5 3/1/5 5/2/5
f 11/1/1 10/1/1 9/1/1
f 10/1/1 11/1/1 12/1/1
f 9/1/2 10/1/2 11/1/2
f 12/1/2 11/1/2 10/1/2
f 13/2/3 10/1/3 12/1/3
f 10/1/3 13/2/3 14/2/3
f 12/1/4 10/1/4 13/2/4
f 14/2/4 13/2/4 10/1/4
f 15/2/5 10/1/5 14/2/5
f 10/1/5 15/2/5 9/1/5
f 14/2/6 10/1/6 15/2/6
f 9/1/6 15/2/6 10/1/6
f 15/2/4 11/1/4 9/1/4
f 11/1/4 15/2/4 16/2/4
f 9/1/3 11/1/3 15/2/3
f 16/2/3 15/2/3 11/1/3
f 11/1/6 13/2/6 12/1/6
f 13/2/6 11/1/6 16/2/6
f 12/1/5 13/2/5 11/1/5
f 16/2/5 11/1/5 13/2/5
f 19/1/1 18/1/1 17/1/1
f 18/1/1 19/1/1 20/1/1
f 17/1/2 18/1/2 19/1/2
f 20/1/2 19/1/2 18/1/2
f 21/2/3 18/1/3 20/1/3
f 18/1/3 21/2/3 22/2/3
f 20/1/4 18/1/4 21/2/4
f 22/2/4 21/2/4 18/1/4
f 23/2/5 18/1/5 22/2/5
f 18/1/5 23/2/5 17/1/5
f 22/2/6 18/1/6 23/2/6
f 17/1/6 23/2/6 18/1/6
f 23/2/4 19/1/4 17/1/4
f 19/1/4 23/2/4 24/2/4
f 17/1/3 19/1/3 23/2/3
f 24/2/3 23/2/3 19/1/3
f 19/1/6 21/2/6 20/1/6
f 21/2/6 19/1/6 24/2/6
f 20/1/5 21/2/5 19/1/5
f 24/2/5 19/1/5 21/2/5
f 27/1/1 26/1/1 25/1/1
f 26/1/1 27/1/1 28/1/1
f 25/1/2 26/1/2 27/1/2
f 28/1/2 27/1/2 26/1/2
f 29/2/3 26/1/3 28/1/3
f 26/1/3 29/2/3 30/2/3
f 28/1/4 26/1/4 29/2/4
f 30/2/4 29/2/4 26/1/4
f 31/2/5 26/1/5 30/2/5
f 26/1/5 31/2/5 25/1/5
f 30/2/6 26/1/6 31/2/6
f 25/1/6 31/2/6 26/1/6
f 31/2/4 27/1/4 25/1/4
f 27/1/4 31/2/4 32/2/4
f 25/1/3 27/1/3 31/2/3
f 32/2/3 31/2/3 27/1/3
f 27/1/6 29/2/6 28/1/6
f 29/2/6 27/1/6 32/2/6
f 28/1/5 29/2/5 27/1/5
f 32/2/5 27/1/5 29/2/5
f 35/3/5 34/1/5 33/1/5
f 34/1/5 35/3/5 36/3/5
f 34/1/5 36/3/5 37/3/5
f 34/1/5 37/3/5 38/3/5
f 33/1/6 34/1/6 35/3/6
f 36/3/6 35/3/6 34/1/6
f 37/3/6 36/3/6 34/1/6
f 38/3/6 37/3/6 34/1/6
f 39/1/1 33/1/1 34/1/1
f 33/1/1 39/1/1 40/1/1
f 34/1/2 33/1/2 39/1/2
f 40/1/2 39/1/2 33/1/2
f 39/1/6 41/3/6 40/1/6
f 41/3/6 39/1/6 42/3/6
f 42/3/6 39/1/6 43/3/6
f 43/3/6 39/1/6 44/3/6
f 40/1/5 41/3/5 39/1/5
f 42/3/5 39/1/5 41/3/5
f 43/3/5 39/1/5 42/3/5
f 44/3/5 39/1/5 43/3/5
f 47/3/5 46/1/5 45/1/5
f 46/1/5 47/3/5 48/3/5
f 46/1/5 48/3/5 49/3/5
f 46/1/5 49/3/5 50/3/5
f 45/1/6 46/1/6 47/3/6
f 48/3/6 47/3/6 46/1/6
f 49/3/6 48/3/6 46/1/6
f 50/3/6 49/3/6 46/1/6
f 51/1/1 45/1/1 46/1/1
f 45/1/1 51/1/1 52/1/1
f 46/1/2 45/1/2 51/1/2
f 52/1/2 51/1/2 45/1/2
f 51/1/6 53/3/6 52/1/6
f 53/3/6 51/1/6 54/3/6
f 54/3/6 51/1/6 55/3/6
f 55/3/6 51/1/6 56/3/6
f 52/1/5 53/3/5 51/1/5
f 54/3/5 51/1/5 53/3/5
f 55/3/5 51/1/5 54/3/5
f 56/3/5 51/1/5 55/3/5
f 59/3/7 58/1/7 57/1/7
f 58/1/7 59/3/7 60/3/7
f 58/1/7 60/3/7 61/3/7
f 58/1/7 61/3/7 62/3/7
f 57/1/8 58/1/8 59/3/8
f 60/3/8 59/3/8 58/1/8
f 61/3/8 60/3/8 58/1/8
f 62/3/8 61/3/8 58/1/8
f 63/1/1 57/1/1 58/1/1
f 57/1/1 63/1/1 64/1/1
f 58/1/2 57/1/2 63/1/2
f 64/1/2 63/1/2 57/1/2
f 63/1/8 65/3/8 64/1/8
f 65/3/8 63/1/8 66/3/8
f 66/3/8 63/1/8 67/3/8
f 67/3/8 63/1/8 68/3/8
f 64/1/7 65/3/7 63/1/7
f 66/3/7 63/1/7 65/3/7
f 67/3/7 63/1/7 66/3/7
f 68/3/7 63/1/7 67/3/7
f 71/3/7 70/1/7 69/1/7
f 70/1/7 71/3/7 72/3/7
f 70/1/7 72/3/7 73/3/7
f 70/1/7 73/3/7 74/3/7
f 69/1/8 70/1/8 71/3/8
f 72/3/8 71/3/8 70/1/8
f 73/3/8 72/3/8 70/1/8
f 74/3/8 73/3/8 70/1/8
f 75/1/1 69/1/1 70/1/1
f 69/1/1 75/1/1 76/1/1
f 70/1/2 69/1/2 75/1/2
f 76/1/2 75/1/2 69/1/2
f 75/1/8 77/3/8 76/1/8
f 77/3/8 75/1/8 78/3/8
f 78/3/8 75/1/8 79/3/8
f 79/3/8 75/1/8 80/3/8
f 76/1/7 77/3/7 75/1/7
f 78/3/7 75/1/7 77/3/7
f 79/3/7 75/1/7 78/3/7
f 80/3/7 75/1/7 79/3/7
f 5/4/2 7/4/2 6/4/2
f 7/4/2 5/4/2 8/4/2
f 6/4/1 7/4/1 5/4/1
f 8/4/1 5/4/1 7/4/1
f 13/4/2 15/4/2 14/4/2
f 15/4/2 13/4/2 16/4/2
f 14/4/1 15/4/1 13/4/1
f 16/4/1 13/4/1 15/4/1
f 21/4/2 23/4/2 22/4/2
f 23/4/2 21/4/2 24/4/2
f 22/4/1 23/4/1 21/4/1
f 24/4/1 21/4/1 23/4/1
f 29/4/2 31/4/2 30/4/2
f 31/4/2 29/4/2 32/4/2
f 30/4/1 31/4/1 29/4/1
f 32/4/1 29/4/1 31/4/1
f 36/5/11 35/5/10 81/4/9
f 81/4/14 35/5/13 36/5/12
f 42/5/17 82/4/16 41/5/15
f 41/5/20 82/4/19 42/5/18
f 83/4/22 43/5/21 44/5/15
f 44/5/20 43/5/24 83/4/23
f 38/5/10 37/5/26 84/4/25
f 84/4/28 37/5/27 38/5/13
f 81/4/9 42/5/17 36/5/11
f 42/5/17 81/4/9 82/4/16
f 36/5/12 42/5/18 81/4/14
f 82/4/19 81/4/14 42/5/18
f 43/5/21 84/4/25 37/5/26
f 84/4/25 43/5/21 83/4/22
f 37/5/27 84/4/28 43/5/24
f 83/4/23 43/5/24 84/4/28
f 42/5/17 37/5/26 36/5/11
f 37/5/26 42/5/17 43/5/21
f 36/5/12 37/5/27 42/5/18
f 43/5/24 42/5/18 37/5/27
f 48/5/11 47/5/10 85/4/9
f 85/4/14 47/5/13 48/5/12
f 54/5/17 86/4/16 53/5/15
f 53/5/20 86/4/19 54/5/18
f 87/4/22 55/5/21 56/5/15
f 56/5/20 55/5/24 87/4/23
f 50/5/10 49/5/26 88/4/25
f 88/4/28 49/5/27 50/5/13
f 85/4/9 54/5/17 48/5/11
f 54/5/17 85/4/9 86/4/16
f 48/5/12 54/5/18 85/4/14
f 86/4/19 85/4/14 54/5/18
f 55/5/21 88/4/25 49/5/26
f 88/4/25 55/5/21 87/4/22
f 49/5/27 88/4/28 55/5/24
f 87/4/23 55/5/24 88/4/28
f 54/5/17 49/5/26 48/5/11
f 49/5/26 54/5/17 55/5/21
f 48/5/12 49/5/27 54/5/18
f 55/5/24 54/5/18 49/5/27
f 60/5/31 59/5/30 89/4/29
f 89/4/34 59/5/33 60/5/32
f 66/5/37 90/4/36 65/5/35
f 65/5/40 90/4/39 66/5/38
f 91/4/42 67/5/41 68/5/35
f 68/5/40 67/5/44 91/4/43
f 62/5/30 61/5/46 92/4/45
f 92/4/48 61/5/47 62/5/33
f 89/4/29 66/5/37 60/5/31
f 66/5/37 89/4/29 90/4/36
f 60/5/32 66/5/38 89/4/34
f 90/4/39 89/4/34 66/5/38
f 67/5/41 92/4/45 61/5/46
f 92/4/45 67/5/41 91/4/42
f 61/5/47 92/4/48 67/5/44
f 91/4/43 67/5/44 92/4/48
f 66/5/37 61/5/46 60/5/31
f 61/5/46 66/5/37 67/5/41
f 60/5/32 61/5/47 66/5/38
f 67/5/44 66/5/38 61/5/47
f 72/5/31 71/5/30 93/4/29
f 93/4/34 71/5/33 72/5/32
f 78/5/37 94/4/36 77/5/35
f 77/5/40 94/4/39 78/5/38
f 95/4/42 79/5/41 80/5/35
f 80/5/40 79/5/44 95/4/43
f 74/5/30 73/5/46 96/4/45
f 96/4/48 73/5/47 74/5/33
f 93/4/29 78/5/37 72/5/31
f 78/5/37 93/4/29 94/4/36
f 72/5/32 78/5/38 93/4/34
f 94/4/39 93/4/34 78/5/38
f 79/5/41 96/4/45 73/5/46
f 96/4/45 79/5/41 95/4/42
f 73/5/47 96/4/48 79/5/44
f 95/4/43 79/5/44 96/4/48
f 78/5/37 73/5/46 72/5/31
f 73/5/46 78/5/37 79/5/41
f 72/5/32 73/5/47 78/5/38
f 79/5/44 78/5/38 73/5/47

