# Created by Kenney (www.kenney.nl)

mtllib snow-tile-end.mtl

g snow-tile-end

v -0.5 0 -0.5 1 1 1
v 0.5 0 -0.5 1 1 1
v -0.5 0.2 -0.5 1 1 1
v 0.5 0.2 -0.5 1 1 1
v 0.5 0.2 0.5 1 1 1
v 0.5 0 0.5 1 1 1
v -0.5 0 0.5 1 1 1
v -0.5 0.2 0.5 1 1 1
v -0.375 0.2 0.5 1 1 1
v -0.375 0.2 -0.375 1 1 1
v 0.375 0.2 -0.375 1 1 1
v 0.375 0.2 0.5 1 1 1
v 0.375 0.1 0.5 1 1 1
v -0.375 0.1 0.5 1 1 1
v -0.375 0.1 -0.375 1 1 1
v 0.375 0.1 -0.375 1 1 1
v 0.267763 0.115975 0.3498646 1 1 1
v 0.2251411 0.115975 0.3279515 1 1 1
v 0.3080512 0.115975 0.3239095 1 1 1
v 0.3057175 0.115975 0.2760414 1 1 1
v 0.2228075 0.115975 0.2800834 1 1 1
v 0.2630957 0.115975 0.2541283 1 1 1
v 0.2685409 0.1 0.3658206 1 1 1
v 0.2117117 0.1 0.3366032 1 1 1
v 0.3191469 0.1 0.2673897 1 1 1
v 0.2623178 0.1 0.2381722 1 1 1
v 0.3222585 0.1 0.3312139 1 1 1
v 0.2086002 0.1 0.272779 1 1 1
v -0.1590551 0.115975 -0.2000519 1 1 1
v -0.1802767 0.115975 -0.2430223 1 1 1
v -0.1112309 0.115975 -0.1969452 1 1 1
v -0.08462826 0.115975 -0.2368088 1 1 1
v -0.1536741 0.115975 -0.2828859 1 1 1
v -0.1058499 0.115975 -0.2797791 1 1 1
v -0.1679226 0.1 -0.1867641 1 1 1
v -0.1962181 0.1 -0.2440578 1 1 1
v -0.06868686 0.1 -0.2357732 1 1 1
v -0.09698232 0.1 -0.293067 1 1 1
v -0.104157 0.1 -0.1826217 1 1 1
v -0.1607479 0.1 -0.2972093 1 1 1
v -0.2956904 0.13195 -0.0995896 1 1 1
v -0.3153777 0.13195 -0.1432842 1 1 1
v -0.2480062 0.13195 -0.09479192 1 1 1
v -0.2200091 0.13195 -0.1336889 1 1 1
v -0.2873806 0.13195 -0.1821811 1 1 1
v -0.2396964 0.13195 -0.1773835 1 1 1
v -0.3050228 0.1 -0.08662396 1 1 1
v -0.3312724 0.1 -0.1448834 1 1 1
v -0.2041144 0.1 -0.1320896 1 1 1
v -0.230364 0.1 -0.1903491 1 1 1
v -0.2414438 0.1 -0.08022705 1 1 1
v -0.293943 0.1 -0.196746 1 1 1

vn 0 0 -1
vn 0 0 1
vn 1 0 0
vn -1 0 0
vn 0 -1 0
vn 0 1 0
vn 0.5773503 0.5773503 0.5773503
vn 0.7071068 0.7071068 0
vn -0.5773503 -0.5773503 -0.5773503
vn -0.7071068 -0.7071068 0
vn -0.7071068 0.7071068 0
vn -0.5773503 0.5773503 0.5773503
vn 0.5773503 -0.5773503 -0.5773503
vn 0.7071068 -0.7071068 0
vn 0.03443166 0.7071068 0.706268
vn -0.5944302 0.7071068 0.3829527
vn 0.5944302 -0.7071068 -0.3829527
vn -0.03443166 -0.7071068 -0.706268
vn 0.5944302 0.7071068 -0.3829527
vn -0.03443166 0.7071068 -0.706268
vn 0.03443166 -0.7071068 0.706268
vn -0.5944302 -0.7071068 0.3829527
vn 0.6288619 0.7071068 0.3233153
vn -0.6288619 -0.7071068 -0.3233153
vn -0.6288619 0.7071068 -0.3233153
vn 0.6288619 -0.7071068 0.3233153
vn -0.3925067 0.7071068 0.5881655
vn -0.7056195 0.7071068 -0.04583803
vn 0.7056195 -0.7071068 0.04583803
vn 0.3925067 -0.7071068 -0.5881655
vn 0.7056195 0.7071068 0.04583803
vn 0.3925067 0.7071068 -0.5881655
vn -0.3925067 -0.7071068 0.5881655
vn -0.7056195 -0.7071068 -0.04583803
vn 0.3131129 0.7071068 0.6340035
vn -0.3131129 -0.7071068 -0.6340035
vn -0.3131129 0.7071068 -0.6340035
vn 0.3131129 -0.7071068 0.6340035
vn -0.5225104 0.4472136 0.7259358
vn -0.8899341 0.4472136 -0.08953941
vn 0.8899341 -0.4472136 0.08953941
vn 0.5225104 -0.4472136 -0.7259358
vn 0.8899341 0.4472136 0.08953941
vn 0.5225104 0.4472136 -0.7259358
vn -0.5225104 -0.4472136 0.7259358
vn -0.8899341 -0.4472136 -0.08953941
vn 0.3674236 0.4472136 0.8154752
vn -0.3674236 -0.4472136 -0.8154752
vn -0.3674236 0.4472136 -0.8154752
vn 0.3674236 -0.4472136 0.8154752

vt 0.96875 0.025
vt 0.96875 0.225
vt 0.96875 0.125
vt 0.09375 0.075
vt 0.09375 0.175

usemtl colormap

f 3/2/1 2/1/1 1/1/1
f 2/1/1 3/2/1 4/2/1
f 1/1/2 2/1/2 3/2/2
f 4/2/2 3/2/2 2/1/2
f 5/2/3 2/1/3 4/2/3
f 2/1/3 5/2/3 6/1/3
f 4/2/4 2/1/4 5/2/4
f 6/1/4 5/2/4 2/1/4
f 7/1/4 3/2/4 1/1/4
f 3/2/4 7/1/4 8/2/4
f 1/1/3 3/2/3 7/1/3
f 8/2/3 7/1/3 3/2/3
f 7/1/5 2/1/5 6/1/5
f 2/1/5 7/1/5 1/1/5
f 6/1/6 2/1/6 7/1/6
f 1/1/6 7/1/6 2/1/6
f 9/2/6 3/2/6 8/2/6
f 10/2/6 3/2/6 9/2/6
f 11/2/6 3/2/6 10/2/6
f 3/2/6 11/2/6 4/2/6
f 12/2/6 4/2/6 11/2/6
f 4/2/6 12/2/6 5/2/6
f 8/2/5 3/2/5 9/2/5
f 9/2/5 3/2/5 10/2/5
f 10/2/5 3/2/5 11/2/5
f 4/2/5 11/2/5 3/2/5
f 11/2/5 4/2/5 12/2/5
f 5/2/5 12/2/5 4/2/5
f 13/3/2 5/2/2 12/2/2
f 13/3/2 6/1/2 5/2/2
f 6/1/2 13/3/2 7/1/2
f 14/3/2 7/1/2 13/3/2
f 7/1/2 14/3/2 8/2/2
f 8/2/2 14/3/2 9/2/2
f 12/2/1 5/2/1 13/3/1
f 5/2/1 6/1/1 13/3/1
f 7/1/1 13/3/1 6/1/1
f 13/3/1 7/1/1 14/3/1
f 8/2/1 14/3/1 7/1/1
f 9/2/1 14/3/1 8/2/1
f 9/4/3 15/5/7 10/4/3
f 15/5/7 9/4/3 14/5/8
f 10/4/4 15/5/9 9/4/4
f 14/5/10 9/4/4 15/5/9
f 16/5/12 14/5/8 13/5/11
f 14/5/8 16/5/12 15/5/7
f 13/5/14 14/5/10 16/5/13
f 15/5/9 16/5/13 14/5/10
f 13/5/11 11/4/4 16/5/12
f 11/4/4 13/5/11 12/4/4
f 16/5/13 11/4/3 13/5/14
f 12/4/3 13/5/14 11/4/3
f 11/4/2 15/5/7 16/5/12
f 15/5/7 11/4/2 10/4/2
f 16/5/13 15/5/9 11/4/1
f 10/4/1 11/4/1 15/5/9
f 19/5/6 18/5/6 17/5/6
f 18/5/6 19/5/6 20/5/6
f 18/5/6 20/5/6 21/5/6
f 21/5/6 20/5/6 22/5/6
f 17/5/5 18/5/5 19/5/5
f 20/5/5 19/5/5 18/5/5
f 21/5/5 20/5/5 18/5/5
f 22/5/5 20/5/5 21/5/5
f 18/5/16 23/4/15 17/5/15
f 23/4/15 18/5/16 24/4/16
f 17/5/18 23/4/18 18/5/17
f 24/4/17 18/5/17 23/4/18
f 26/4/20 20/5/19 25/4/19
f 20/5/19 26/4/20 22/5/20
f 25/4/22 20/5/22 26/4/21
f 22/5/21 26/4/21 20/5/22
f 19/5/23 23/4/15 27/4/23
f 23/4/15 19/5/23 17/5/15
f 27/4/24 23/4/18 19/5/24
f 17/5/18 19/5/24 23/4/18
f 28/4/25 22/5/20 26/4/20
f 22/5/20 28/4/25 21/5/25
f 26/4/21 22/5/21 28/4/26
f 21/5/26 28/4/26 22/5/21
f 18/5/16 28/4/25 24/4/16
f 28/4/25 18/5/16 21/5/25
f 24/4/17 28/4/26 18/5/17
f 21/5/26 18/5/17 28/4/26
f 20/5/19 27/4/23 25/4/19
f 27/4/23 20/5/19 19/5/23
f 25/4/22 27/4/24 20/5/22
f 19/5/24 20/5/22 27/4/24
f 31/5/6 30/5/6 29/5/6
f 30/5/6 31/5/6 32/5/6
f 30/5/6 32/5/6 33/5/6
f 33/5/6 32/5/6 34/5/6
f 29/5/5 30/5/5 31/5/5
f 32/5/5 31/5/5 30/5/5
f 33/5/5 32/5/5 30/5/5
f 34/5/5 32/5/5 33/5/5
f 30/5/28 35/4/27 29/5/27
f 35/4/27 30/5/28 36/4/28
f 29/5/30 35/4/30 30/5/29
f 36/4/29 30/5/29 35/4/30
f 38/4/32 32/5/31 37/4/31
f 32/5/31 38/4/32 34/5/32
f 37/4/34 32/5/34 38/4/33
f 34/5/33 38/4/33 32/5/34
f 31/5/35 35/4/27 39/4/35
f 35/4/27 31/5/35 29/5/27
f 39/4/36 35/4/30 31/5/36
f 29/5/30 31/5/36 35/4/30
f 40/4/37 34/5/32 38/4/32
f 34/5/32 40/4/37 33/5/37
f 38/4/33 34/5/33 40/4/38
f 33/5/38 40/4/38 34/5/33
f 30/5/28 40/4/37 36/4/28
f 40/4/37 30/5/28 33/5/37
f 36/4/29 40/4/38 30/5/29
f 33/5/38 30/5/29 40/4/38
f 32/5/31 39/4/35 37/4/31
f 39/4/35 32/5/31 31/5/35
f 37/4/34 39/4/36 32/5/34
f 31/5/36 32/5/34 39/4/36
f 43/5/6 42/5/6 41/5/6
f 42/5/6 43/5/6 44/5/6
f 42/5/6 44/5/6 45/5/6
f 45/5/6 44/5/6 46/5/6
f 41/5/5 42/5/5 43/5/5
f 44/5/5 43/5/5 42/5/5
f 45/5/5 44/5/5 42/5/5
f 46/5/5 44/5/5 45/5/5
f 42/5/40 47/4/39 41/5/39
f 47/4/39 42/5/40 48/4/40
f 41/5/42 47/4/42 42/5/41
f 48/4/41 42/5/41 47/4/42
f 50/4/44 44/5/43 49/4/43
f 44/5/43 50/4/44 46/5/44
f 49/4/46 44/5/46 50/4/45
f 46/5/45 50/4/45 44/5/46
f 43/5/47 47/4/39 51/4/47
f 47/4/39 43/5/47 41/5/39
f 51/4/48 47/4/42 43/5/48
f 41/5/42 43/5/48 47/4/42
f 50/4/44 45/5/49 46/5/44
f 45/5/49 50/4/44 52/4/49
f 46/5/45 45/5/50 50/4/45
f 52/4/50 50/4/45 45/5/50
f 42/5/40 52/4/49 48/4/40
f 52/4/49 42/5/40 45/5/49
f 48/4/41 52/4/50 42/5/41
f 45/5/50 42/5/41 52/4/50
f 44/5/43 51/4/47 49/4/43
f 51/4/47 44/5/43 43/5/47
f 49/4/46 51/4/48 44/5/46
f 43/5/48 44/5/46 51/4/48

g snow-tile-end




usemtl colormap

f 3/2/1 2/1/1 1/1/1
f 2/1/1 3/2/1 4/2/1
f 1/1/2 2/1/2 3/2/2
f 4/2/2 3/2/2 2/1/2
f 5/2/3 2/1/3 4/2/3
f 2/1/3 5/2/3 6/1/3
f 4/2/4 2/1/4 5/2/4
f 6/1/4 5/2/4 2/1/4
f 7/1/4 3/2/4 1/1/4
f 3/2/4 7/1/4 8/2/4
f 1/1/3 3/2/3 7/1/3
f 8/2/3 7/1/3 3/2/3
f 7/1/5 2/1/5 6/1/5
f 2/1/5 7/1/5 1/1/5
f 6/1/6 2/1/6 7/1/6
f 1/1/6 7/1/6 2/1/6
f 9/2/6 3/2/6 8/2/6
f 10/2/6 3/2/6 9/2/6
f 11/2/6 3/2/6 10/2/6
f 3/2/6 11/2/6 4/2/6
f 12/2/6 4/2/6 11/2/6
f 4/2/6 12/2/6 5/2/6
f 8/2/5 3/2/5 9/2/5
f 9/2/5 3/2/5 10/2/5
f 10/2/5 3/2/5 11/2/5
f 4/2/5 11/2/5 3/2/5
f 11/2/5 4/2/5 12/2/5
f 5/2/5 12/2/5 4/2/5
f 13/3/2 5/2/2 12/2/2
f 13/3/2 6/1/2 5/2/2
f 6/1/2 13/3/2 7/1/2
f 14/3/2 7/1/2 13/3/2
f 7/1/2 14/3/2 8/2/2
f 8/2/2 14/3/2 9/2/2
f 12/2/1 5/2/1 13/3/1
f 5/2/1 6/1/1 13/3/1
f 7/1/1 13/3/1 6/1/1
f 13/3/1 7/1/1 14/3/1
f 8/2/1 14/3/1 7/1/1
f 9/2/1 14/3/1 8/2/1
f 9/4/3 15/5/7 10/4/3
f 15/5/7 9/4/3 14/5/8
f 10/4/4 15/5/9 9/4/4
f 14/5/10 9/4/4 15/5/9
f 16/5/12 14/5/8 13/5/11
f 14/5/8 16/5/12 15/5/7
f 13/5/14 14/5/10 16/5/13
f 15/5/9 16/5/13 14/5/10
f 13/5/11 11/4/4 16/5/12
f 11/4/4 13/5/11 12/4/4
f 16/5/13 11/4/3 13/5/14
f 12/4/3 13/5/14 11/4/3
f 11/4/2 15/5/7 16/5/12
f 15/5/7 11/4/2 10/4/2
f 16/5/13 15/5/9 11/4/1
f 10/4/1 11/4/1 15/5/9
f 19/5/6 18/5/6 17/5/6
f 18/5/6 19/5/6 20/5/6
f 18/5/6 20/5/6 21/5/6
f 21/5/6 20/5/6 22/5/6
f 17/5/5 18/5/5 19/5/5
f 20/5/5 19/5/5 18/5/5
f 21/5/5 20/5/5 18/5/5
f 22/5/5 20/5/5 21/5/5
f 18/5/16 23/4/15 17/5/15
f 23/4/15 18/5/16 24/4/16
f 17/5/18 23/4/18 18/5/17
f 24/4/17 18/5/17 23/4/18
f 26/4/20 20/5/19 25/4/19
f 20/5/19 26/4/20 22/5/20
f 25/4/22 20/5/22 26/4/21
f 22/5/21 26/4/21 20/5/22
f 19/5/23 23/4/15 27/4/23
f 23/4/15 19/5/23 17/5/15
f 27/4/24 23/4/18 19/5/24
f 17/5/18 19/5/24 23/4/18
f 28/4/25 22/5/20 26/4/20
f 22/5/20 28/4/25 21/5/25
f 26/4/21 22/5/21 28/4/26
f 21/5/26 28/4/26 22/5/21
f 18/5/16 28/4/25 24/4/16
f 28/4/25 18/5/16 21/5/25
f 24/4/17 28/4/26 18/5/17
f 21/5/26 18/5/17 28/4/26
f 20/5/19 27/4/23 25/4/19
f 27/4/23 20/5/19 19/5/23
f 25/4/22 27/4/24 20/5/22
f 19/5/24 20/5/22 27/4/24
f 31/5/6 30/5/6 29/5/6
f 30/5/6 31/5/6 32/5/6
f 30/5/6 32/5/6 33/5/6
f 33/5/6 32/5/6 34/5/6
f 29/5/5 30/5/5 31/5/5
f 32/5/5 31/5/5 30/5/5
f 33/5/5 32/5/5 30/5/5
f 34/5/5 32/5/5 33/5/5
f 30/5/28 35/4/27 29/5/27
f 35/4/27 30/5/28 36/4/28
f 29/5/30 35/4/30 30/5/29
f 36/4/29 30/5/29 35/4/30
f 38/4/32 32/5/31 37/4/31
f 32/5/31 38/4/32 34/5/32
f 37/4/34 32/5/34 38/4/33
f 34/5/33 38/4/33 32/5/34
f 31/5/35 35/4/27 39/4/35
f 35/4/27 31/5/35 29/5/27
f 39/4/36 35/4/30 31/5/36
f 29/5/30 31/5/36 35/4/30
f 40/4/37 34/5/32 38/4/32
f 34/5/32 40/4/37 33/5/37
f 38/4/33 34/5/33 40/4/38
f 33/5/38 40/4/38 34/5/33
f 30/5/28 40/4/37 36/4/28
f 40/4/37 30/5/28 33/5/37
f 36/4/29 40/4/38 30/5/29
f 33/5/38 30/5/29 40/4/38
f 32/5/31 39/4/35 37/4/31
f 39/4/35 32/5/31 31/5/35
f 37/4/34 39/4/36 32/5/34
f 31/5/36 32/5/34 39/4/36
f 43/5/6 42/5/6 41/5/6
f 42/5/6 43/5/6 44/5/6
f 42/5/6 44/5/6 45/5/6
f 45/5/6 44/5/6 46/5/6
f 41/5/5 42/5/5 43/5/5
f 44/5/5 43/5/5 42/5/5
f 45/5/5 44/5/5 42/5/5
f 46/5/5 44/5/5 45/5/5
f 42/5/40 47/4/39 41/5/39
f 47/4/39 42/5/40 48/4/40
f 41/5/42 47/4/42 42/5/41
f 48/4/41 42/5/41 47/4/42
f 50/4/44 44/5/43 49/4/43
f 44/5/43 50/4/44 46/5/44
f 49/4/46 44/5/46 50/4/45
f 46/5/45 50/4/45 44/5/46
f 43/5/47 47/4/39 51/4/47
f 47/4/39 43/5/47 41/5/39
f 51/4/48 47/4/42 43/5/48
f 41/5/42 43/5/48 47/4/42
f 50/4/44 45/5/49 46/5/44
f 45/5/49 50/4/44 52/4/49
f 46/5/45 45/5/50 50/4/45
f 52/4/50 50/4/45 45/5/50
f 42/5/40 52/4/49 48/4/40
f 52/4/49 42/5/40 45/5/49
f 48/4/41 52/4/50 42/5/41
f 45/5/50 42/5/41 52/4/50
f 44/5/43 51/4/47 49/4/43
f 51/4/47 44/5/43 43/5/47
f 49/4/46 51/4/48 44/5/46
f 43/5/48 44/5/46 51/4/48

