# Created by Kenney (www.kenney.nl)

mtllib snow-detail-rocks.mtl

g snow-detail-rocks

v 0.1253014 0.092225 -0.01871905 1 1 1
v 0.08704021 0.18445 0.03587747 1 1 1
v 0.07474322 0.18445 -0.05991509 1 1 1
v -0.05621298 -4.060752E-16 0.1371507 1 1 1
v 0.08704397 -4.060752E-16 0.115537 1 1 1
v -0.1440217 -4.060752E-16 0.0219147 1 1 1
v -0.08857347 -4.060752E-16 -0.114935 1 1 1
v 0.1424922 -4.060752E-16 -0.02131271 1 1 1
v 0.05468348 -4.060752E-16 -0.1365487 1 1 1
v 0.0413759 0.18445 -0.1037048 1 1 1
v -0.06749938 0.18445 -0.08727836 1 1 1
v -0.0429054 0.18445 0.1043068 1 1 1
v -0.10964 0.18445 0.01672741 1 1 1
v 0.06596988 0.18445 0.08788035 1 1 1
v 0.2546601 -4.060752E-16 -0.1265396 1 1 1
v 0.2019255 -4.060752E-16 -0.2885336 1 1 1
v 0.1443544 -4.060752E-16 0.003289595 1 1 1
v -0.01868591 -4.060752E-16 -0.02887513 1 1 1
v 0.03888518 -4.060752E-16 -0.3206983 1 1 1
v -0.07142054 -4.060752E-16 -0.1908691 1 1 1
v -0.03229084 0.07465565 -0.1831495 1 1 1
v 0.007787466 0.07465565 -0.06003414 1 1 1
v 0.0515415 0.07465565 -0.2818198 1 1 1
v 0.2155305 0.07465565 -0.1342592 1 1 1
v 0.1316981 0.07465565 -0.03558896 1 1 1
v 0.1754521 0.07465565 -0.2573746 1 1 1
v -0.2759905 -2.759268E-16 -0.09379772 1 1 1
v -0.2956542 -2.759268E-16 0.05160781 1 1 1
v -0.1406815 -2.759268E-16 -0.1505508 1 1 1
v -0.02503622 -2.759268E-16 -0.06189828 1 1 1
v -0.180009 -2.759268E-16 0.1402603 1 1 1
v -0.04469999 -2.759268E-16 0.08350726 1 1 1
v -0.2482356 0.1140747 -0.07252111 1 1 1
v -0.1454008 0.1140747 -0.1156534 1 1 1
v -0.1752897 0.1140747 0.105363 1 1 1
v -0.2631801 0.1140747 0.03798709 1 1 1
v -0.05751039 0.1140747 -0.04827755 1 1 1
v -0.1238723 0.1140747 0.08379682 1 1 1
v -0.05857743 0.05703736 0.07286896 1 1 1
v -0.06498262 0.1140747 0.006976557 1 1 1
v 0.3018829 -4.060752E-16 0.02057333 1 1 1
v 0.1546681 -4.060752E-16 -0.09231495 1 1 1
v 0.2811362 -4.060752E-16 0.209117 1 1 1
v 0.1131748 -4.060752E-16 0.2847723 1 1 1
v -0.0132934 -4.060752E-16 -0.01665962 1 1 1
v -0.03404003 -4.060752E-16 0.171884 1 1 1
v 0.1496889 0.03685996 -0.04706449 1 1 1
v 0.2615721 0.03685996 0.03873061 1 1 1
v 0.2458047 0.03685996 0.1820238 1 1 1
v 0.118154 0.03685996 0.2395218 1 1 1
v 0.02203816 0.03685996 0.01043356 1 1 1
v -0.01388466 0.01842998 0.1628054 1 1 1
v 0.06221233 0.03685996 0.1966243 1 1 1
v 0.01415443 0.03685996 0.08208015 1 1 1

vn 0.8917826 0.4377424 -0.1144791
vn -0.8917826 -0.4377424 0.1144791
vn 0 -1 0
vn 0 1 0
vn 0.3687781 0.1886745 -0.9101674
vn -0.6127064 0.1852043 -0.7683035
vn 0.6127064 -0.1852043 0.7683035
vn -0.3687781 -0.1886745 0.9101674
vn 0.7847488 0.1630947 -0.5979711
vn -0.7847488 -0.1630947 0.5979711
vn -0.3687781 0.1886745 0.9101674
vn -0.9747017 0.1852043 0.1251235
vn 0.9747017 -0.1852043 -0.1251235
vn 0.3687781 -0.1886745 -0.9101674
vn 0.9148572 0.1601057 0.3706783
vn 0.6127064 0.1852043 0.7683035
vn -0.9148572 -0.1601057 -0.3706783
vn -0.6127064 -0.1852043 -0.7683035
vn -0.8653428 0.4712092 -0.1707155
vn -0.5867237 0.4802001 0.6520454
vn 0.5867237 -0.4802001 -0.6520454
vn 0.8653428 -0.4712092 0.1707155
vn -0.2951303 0.4802001 -0.8260182
vn 0.2951303 -0.4802001 0.8260182
vn 0.8653428 0.4712092 0.1707155
vn 0.2951303 0.4802001 0.8260182
vn -0.2951303 -0.4802001 -0.8260182
vn -0.8653428 -0.4712092 -0.1707155
vn 0.5867237 0.4802001 -0.6520454
vn -0.5867237 -0.4802001 0.6520454
vn -0.7587795 0.2931047 -0.5816728
vn 0.1204879 0.2949577 -0.9478832
vn -0.1204879 -0.2949577 0.9478832
vn 0.7587795 -0.2931047 0.5816728
vn -0.1204879 0.2949577 0.9478832
vn -0.8840644 0.2949577 0.3625331
vn 0.1204879 -0.2949577 -0.9478832
vn 0.8840644 -0.2949577 -0.3625331
vn 0.8840644 0.2949577 -0.3625331
vn -0.8840644 -0.2949577 0.3625331
vn 0.3737802 0.2571559 0.8911561
vn -0.3737802 -0.2571559 -0.8911561
vn 0.9576527 0.2571559 0.1295072
vn -0.9576527 -0.2571559 -0.1295072
vn 0.07192137 0.7771783 -0.6251569
vn 0.5882216 0.7680307 -0.2532275
vn 0.07362557 0.777173 -0.6249651
vn 0.5904058 0.7679749 -0.248265
vn -0.07362557 -0.777173 0.6249651
vn -0.5882216 -0.7680307 0.2532275
vn -0.07192137 -0.7771783 0.6251569
vn -0.5904058 -0.7679749 0.248265
vn 0.514393 0.7702125 0.3770576
vn -0.07192137 0.7771783 0.6251569
vn 0.5186732 0.770117 0.371346
vn -0.07362557 0.777173 0.6249651
vn -0.5186732 -0.770117 -0.371346
vn 0.07192137 -0.7771783 -0.6251569
vn -0.514393 -0.7702125 -0.3770576
vn 0.07362557 -0.777173 -0.6249651
vn -0.514393 0.7702125 -0.3770576
vn -0.5186732 0.770117 -0.371346
vn 0.5186732 -0.770117 0.371346
vn 0.514393 -0.7702125 0.3770576
vn -0.5882216 0.7680307 0.2532275
vn -0.5898572 0.7679911 0.249516
vn -0.418328 0.7262213 0.5455312
vn 0.5882216 -0.7680307 -0.2532275
vn 0.5898572 -0.7679911 -0.249516
vn 0.418328 -0.7262213 -0.5455312
vn -0.6913025 0.7185501 -0.07606836
vn 0.6913025 -0.7185501 0.07606836
vn 0.6221549 0.6208491 0.4769377
vn -0.6221549 -0.6208491 -0.4769377
vn -0.2833017 0.9516365 0.1188615
vn 0.2833017 -0.9516365 -0.1188615

vt 0.84375 0.1421477
vt 0.84375 0.1327613
vt 0.84375 0.1515341
vt 0.84375 0.04665231
vt 0.84375 0.1064646
vt 0.84375 0.08397703
vt 0.84375 0.07825062
vt 0.84375 0.08111382
vt 0.84375 0.07925294
vt 0.84375 0.183603
vt 0.84375 0.131428
vt 0.96875 0.1327613
vt 0.96875 0.1064646
vt 0.96875 0.07825062
vt 0.96875 0.08111382
vt 0.96875 0.183603
vt 0.96875 0.131428

usemtl colormap

f 3/2/1 2/2/1 1/1/1
f 1/1/2 2/2/2 3/2/2
f 6/3/3 5/3/3 4/3/3
f 5/3/3 6/3/3 7/3/3
f 5/3/3 7/3/3 8/3/3
f 8/3/3 7/3/3 9/3/3
f 4/3/4 5/3/4 6/3/4
f 7/3/4 6/3/4 5/3/4
f 8/3/4 7/3/4 5/3/4
f 9/3/4 7/3/4 8/3/4
f 7/3/6 10/2/5 9/3/5
f 10/2/5 7/3/6 11/2/6
f 9/3/8 10/2/8 7/3/7
f 11/2/7 7/3/7 10/2/8
f 9/3/5 1/1/9 8/3/9
f 1/1/9 9/3/5 3/2/9
f 3/2/9 9/3/5 10/2/5
f 8/3/10 1/1/10 9/3/8
f 3/2/10 9/3/8 1/1/10
f 10/2/8 9/3/8 3/2/10
f 13/2/12 4/3/11 12/2/11
f 4/3/11 13/2/12 6/3/12
f 12/2/14 4/3/14 13/2/13
f 6/3/13 13/2/13 4/3/14
f 1/1/15 5/3/16 8/3/15
f 5/3/16 1/1/15 14/2/16
f 14/2/16 1/1/15 2/2/15
f 8/3/17 5/3/18 1/1/17
f 14/2/18 1/1/17 5/3/18
f 2/2/17 1/1/17 14/2/18
f 13/2/12 7/3/6 6/3/12
f 7/3/6 13/2/12 11/2/6
f 6/3/13 7/3/7 13/2/13
f 11/2/7 13/2/13 7/3/7
f 14/2/16 4/3/11 5/3/16
f 4/3/11 14/2/16 12/2/11
f 5/3/18 4/3/14 14/2/18
f 12/2/14 14/2/18 4/3/14
f 17/4/3 16/4/3 15/4/3
f 16/4/3 17/4/3 18/4/3
f 16/4/3 18/4/3 19/4/3
f 19/4/3 18/4/3 20/4/3
f 15/4/4 16/4/4 17/4/4
f 18/4/4 17/4/4 16/4/4
f 19/4/4 18/4/4 16/4/4
f 20/4/4 18/4/4 19/4/4
f 18/4/20 21/5/19 20/4/19
f 21/5/19 18/4/20 22/5/20
f 20/4/22 21/5/22 18/4/21
f 22/5/21 18/4/21 21/5/22
f 20/4/19 23/5/23 19/4/23
f 23/5/23 20/4/19 21/5/19
f 19/4/24 23/5/24 20/4/22
f 21/5/22 20/4/22 23/5/24
f 25/5/26 15/4/25 24/5/25
f 15/4/25 25/5/26 17/4/26
f 24/5/28 15/4/28 25/5/27
f 17/4/27 25/5/27 15/4/28
f 23/5/23 16/4/29 19/4/23
f 16/4/29 23/5/23 26/5/29
f 19/4/24 16/4/30 23/5/24
f 26/5/30 23/5/24 16/4/30
f 25/5/26 18/4/20 17/4/26
f 18/4/20 25/5/26 22/5/20
f 17/4/27 18/4/21 25/5/27
f 22/5/21 25/5/27 18/4/21
f 26/5/29 15/4/25 16/4/29
f 15/4/25 26/5/29 24/5/25
f 16/4/30 15/4/28 26/5/30
f 24/5/28 26/5/30 15/4/28
f 29/6/3 28/6/3 27/6/3
f 28/6/3 29/6/3 30/6/3
f 28/6/3 30/6/3 31/6/3
f 31/6/3 30/6/3 32/6/3
f 27/6/4 28/6/4 29/6/4
f 30/6/4 29/6/4 28/6/4
f 31/6/4 30/6/4 28/6/4
f 32/6/4 30/6/4 31/6/4
f 34/7/32 27/6/31 33/7/31
f 27/6/31 34/7/32 29/6/32
f 33/7/34 27/6/34 34/7/33
f 29/6/33 34/7/33 27/6/34
f 35/7/35 28/6/36 31/6/35
f 28/6/36 35/7/35 36/7/36
f 31/6/37 28/6/38 35/7/37
f 36/7/38 35/7/37 28/6/38
f 34/7/32 30/6/39 29/6/32
f 30/6/39 34/7/32 37/7/39
f 29/6/33 30/6/40 34/7/33
f 37/7/40 34/7/33 30/6/40
f 36/7/36 27/6/31 28/6/36
f 27/6/31 36/7/36 33/7/31
f 28/6/38 27/6/34 36/7/38
f 33/7/34 36/7/38 27/6/34
f 32/6/41 35/7/35 31/6/35
f 35/7/35 32/6/41 38/7/41
f 38/7/41 32/6/41 39/8/41
f 31/6/37 35/7/37 32/6/42
f 38/7/42 32/6/42 35/7/37
f 39/8/42 32/6/42 38/7/42
f 30/6/39 39/8/43 32/6/43
f 39/8/43 30/6/39 40/7/43
f 40/7/43 30/6/39 37/7/39
f 32/6/44 39/8/44 30/6/40
f 40/7/44 30/6/40 39/8/44
f 37/7/40 30/6/40 40/7/44
f 43/9/3 42/9/3 41/9/3
f 42/9/3 43/9/3 44/9/3
f 42/9/3 44/9/3 45/9/3
f 45/9/3 44/9/3 46/9/3
f 41/9/4 42/9/4 43/9/4
f 44/9/4 43/9/4 42/9/4
f 45/9/4 44/9/4 42/9/4
f 46/9/4 44/9/4 45/9/4
f 47/10/47 41/9/46 42/9/45
f 41/9/46 47/10/47 48/10/48
f 42/9/51 41/9/50 47/10/49
f 48/10/52 47/10/49 41/9/50
f 49/10/55 44/9/54 43/9/53
f 44/9/54 49/10/55 50/10/56
f 43/9/59 44/9/58 49/10/57
f 50/10/60 49/10/57 44/9/58
f 51/10/62 42/9/45 45/9/61
f 42/9/45 51/10/62 47/10/47
f 45/9/64 42/9/51 51/10/63
f 47/10/49 51/10/63 42/9/51
f 50/10/56 46/9/65 44/9/54
f 46/9/65 50/10/56 52/11/66
f 52/11/66 50/10/56 53/10/67
f 44/9/58 46/9/68 50/10/60
f 52/11/69 50/10/60 46/9/68
f 53/10/70 50/10/60 52/11/69
f 48/10/48 43/9/53 41/9/46
f 43/9/53 48/10/48 49/10/55
f 41/9/50 43/9/59 48/10/52
f 49/10/57 48/10/52 43/9/59
f 46/9/65 51/10/62 45/9/61
f 51/10/62 46/9/65 54/10/71
f 54/10/71 46/9/65 52/11/66
f 45/9/64 51/10/63 46/9/68
f 54/10/72 46/9/68 51/10/63
f 52/11/69 46/9/68 54/10/72
f 14/12/4 13/12/4 12/12/4
f 13/12/4 14/12/4 2/12/4
f 13/12/4 2/12/4 11/12/4
f 11/12/4 2/12/4 3/12/4
f 11/12/4 3/12/4 10/12/4
f 12/12/3 13/12/3 14/12/3
f 2/12/3 14/12/3 13/12/3
f 11/12/3 2/12/3 13/12/3
f 3/12/3 2/12/3 11/12/3
f 10/12/3 3/12/3 11/12/3
f 26/13/4 25/13/4 24/13/4
f 25/13/4 26/13/4 23/13/4
f 25/13/4 23/13/4 22/13/4
f 22/13/4 23/13/4 21/13/4
f 24/13/3 25/13/3 26/13/3
f 23/13/3 26/13/3 25/13/3
f 22/13/3 23/13/3 25/13/3
f 21/13/3 23/13/3 22/13/3
f 39/15/73 40/14/73 38/14/73
f 38/14/74 40/14/74 39/15/74
f 36/14/4 34/14/4 33/14/4
f 34/14/4 36/14/4 35/14/4
f 34/14/4 35/14/4 37/14/4
f 37/14/4 35/14/4 38/14/4
f 37/14/4 38/14/4 40/14/4
f 33/14/3 34/14/3 36/14/3
f 35/14/3 36/14/3 34/14/3
f 37/14/3 35/14/3 34/14/3
f 38/14/3 35/14/3 37/14/3
f 40/14/3 38/14/3 37/14/3
f 52/17/75 53/16/75 54/16/75
f 54/16/76 53/16/76 52/17/76
f 47/16/4 49/16/4 48/16/4
f 49/16/4 47/16/4 50/16/4
f 50/16/4 47/16/4 51/16/4
f 50/16/4 51/16/4 53/16/4
f 53/16/4 51/16/4 54/16/4
f 48/16/3 49/16/3 47/16/3
f 50/16/3 47/16/3 49/16/3
f 51/16/3 47/16/3 50/16/3
f 53/16/3 51/16/3 50/16/3
f 54/16/3 51/16/3 53/16/3

g snow-detail-rocks




usemtl colormap

f 3/2/1 2/2/1 1/1/1
f 1/1/2 2/2/2 3/2/2
f 6/3/3 5/3/3 4/3/3
f 5/3/3 6/3/3 7/3/3
f 5/3/3 7/3/3 8/3/3
f 8/3/3 7/3/3 9/3/3
f 4/3/4 5/3/4 6/3/4
f 7/3/4 6/3/4 5/3/4
f 8/3/4 7/3/4 5/3/4
f 9/3/4 7/3/4 8/3/4
f 7/3/6 10/2/5 9/3/5
f 10/2/5 7/3/6 11/2/6
f 9/3/8 10/2/8 7/3/7
f 11/2/7 7/3/7 10/2/8
f 9/3/5 1/1/9 8/3/9
f 1/1/9 9/3/5 3/2/9
f 3/2/9 9/3/5 10/2/5
f 8/3/10 1/1/10 9/3/8
f 3/2/10 9/3/8 1/1/10
f 10/2/8 9/3/8 3/2/10
f 13/2/12 4/3/11 12/2/11
f 4/3/11 13/2/12 6/3/12
f 12/2/14 4/3/14 13/2/13
f 6/3/13 13/2/13 4/3/14
f 1/1/15 5/3/16 8/3/15
f 5/3/16 1/1/15 14/2/16
f 14/2/16 1/1/15 2/2/15
f 8/3/17 5/3/18 1/1/17
f 14/2/18 1/1/17 5/3/18
f 2/2/17 1/1/17 14/2/18
f 13/2/12 7/3/6 6/3/12
f 7/3/6 13/2/12 11/2/6
f 6/3/13 7/3/7 13/2/13
f 11/2/7 13/2/13 7/3/7
f 14/2/16 4/3/11 5/3/16
f 4/3/11 14/2/16 12/2/11
f 5/3/18 4/3/14 14/2/18
f 12/2/14 14/2/18 4/3/14
f 17/4/3 16/4/3 15/4/3
f 16/4/3 17/4/3 18/4/3
f 16/4/3 18/4/3 19/4/3
f 19/4/3 18/4/3 20/4/3
f 15/4/4 16/4/4 17/4/4
f 18/4/4 17/4/4 16/4/4
f 19/4/4 18/4/4 16/4/4
f 20/4/4 18/4/4 19/4/4
f 18/4/20 21/5/19 20/4/19
f 21/5/19 18/4/20 22/5/20
f 20/4/22 21/5/22 18/4/21
f 22/5/21 18/4/21 21/5/22
f 20/4/19 23/5/23 19/4/23
f 23/5/23 20/4/19 21/5/19
f 19/4/24 23/5/24 20/4/22
f 21/5/22 20/4/22 23/5/24
f 25/5/26 15/4/25 24/5/25
f 15/4/25 25/5/26 17/4/26
f 24/5/28 15/4/28 25/5/27
f 17/4/27 25/5/27 15/4/28
f 23/5/23 16/4/29 19/4/23
f 16/4/29 23/5/23 26/5/29
f 19/4/24 16/4/30 23/5/24
f 26/5/30 23/5/24 16/4/30
f 25/5/26 18/4/20 17/4/26
f 18/4/20 25/5/26 22/5/20
f 17/4/27 18/4/21 25/5/27
f 22/5/21 25/5/27 18/4/21
f 26/5/29 15/4/25 16/4/29
f 15/4/25 26/5/29 24/5/25
f 16/4/30 15/4/28 26/5/30
f 24/5/28 26/5/30 15/4/28
f 29/6/3 28/6/3 27/6/3
f 28/6/3 29/6/3 30/6/3
f 28/6/3 30/6/3 31/6/3
f 31/6/3 30/6/3 32/6/3
f 27/6/4 28/6/4 29/6/4
f 30/6/4 29/6/4 28/6/4
f 31/6/4 30/6/4 28/6/4
f 32/6/4 30/6/4 31/6/4
f 34/7/32 27/6/31 33/7/31
f 27/6/31 34/7/32 29/6/32
f 33/7/34 27/6/34 34/7/33
f 29/6/33 34/7/33 27/6/34
f 35/7/35 28/6/36 31/6/35
f 28/6/36 35/7/35 36/7/36
f 31/6/37 28/6/38 35/7/37
f 36/7/38 35/7/37 28/6/38
f 34/7/32 30/6/39 29/6/32
f 30/6/39 34/7/32 37/7/39
f 29/6/33 30/6/40 34/7/33
f 37/7/40 34/7/33 30/6/40
f 36/7/36 27/6/31 28/6/36
f 27/6/31 36/7/36 33/7/31
f 28/6/38 27/6/34 36/7/38
f 33/7/34 36/7/38 27/6/34
f 32/6/41 35/7/35 31/6/35
f 35/7/35 32/6/41 38/7/41
f 38/7/41 32/6/41 39/8/41
f 31/6/37 35/7/37 32/6/42
f 38/7/42 32/6/42 35/7/37
f 39/8/42 32/6/42 38/7/42
f 30/6/39 39/8/43 32/6/43
f 39/8/43 30/6/39 40/7/43
f 40/7/43 30/6/39 37/7/39
f 32/6/44 39/8/44 30/6/40
f 40/7/44 30/6/40 39/8/44
f 37/7/40 30/6/40 40/7/44
f 43/9/3 42/9/3 41/9/3
f 42/9/3 43/9/3 44/9/3
f 42/9/3 44/9/3 45/9/3
f 45/9/3 44/9/3 46/9/3
f 41/9/4 42/9/4 43/9/4
f 44/9/4 43/9/4 42/9/4
f 45/9/4 44/9/4 42/9/4
f 46/9/4 44/9/4 45/9/4
f 47/10/47 41/9/46 42/9/45
f 41/9/46 47/10/47 48/10/48
f 42/9/51 41/9/50 47/10/49
f 48/10/52 47/10/49 41/9/50
f 49/10/55 44/9/54 43/9/53
f 44/9/54 49/10/55 50/10/56
f 43/9/59 44/9/58 49/10/57
f 50/10/60 49/10/57 44/9/58
f 51/10/62 42/9/45 45/9/61
f 42/9/45 51/10/62 47/10/47
f 45/9/64 42/9/51 51/10/63
f 47/10/49 51/10/63 42/9/51
f 50/10/56 46/9/65 44/9/54
f 46/9/65 50/10/56 52/11/66
f 52/11/66 50/10/56 53/10/67
f 44/9/58 46/9/68 50/10/60
f 52/11/69 50/10/60 46/9/68
f 53/10/70 50/10/60 52/11/69
f 48/10/48 43/9/53 41/9/46
f 43/9/53 48/10/48 49/10/55
f 41/9/50 43/9/59 48/10/52
f 49/10/57 48/10/52 43/9/59
f 46/9/65 51/10/62 45/9/61
f 51/10/62 46/9/65 54/10/71
f 54/10/71 46/9/65 52/11/66
f 45/9/64 51/10/63 46/9/68
f 54/10/72 46/9/68 51/10/63
f 52/11/69 46/9/68 54/10/72
f 14/12/4 13/12/4 12/12/4
f 13/12/4 14/12/4 2/12/4
f 13/12/4 2/12/4 11/12/4
f 11/12/4 2/12/4 3/12/4
f 11/12/4 3/12/4 10/12/4
f 12/12/3 13/12/3 14/12/3
f 2/12/3 14/12/3 13/12/3
f 11/12/3 2/12/3 13/12/3
f 3/12/3 2/12/3 11/12/3
f 10/12/3 3/12/3 11/12/3
f 26/13/4 25/13/4 24/13/4
f 25/13/4 26/13/4 23/13/4
f 25/13/4 23/13/4 22/13/4
f 22/13/4 23/13/4 21/13/4
f 24/13/3 25/13/3 26/13/3
f 23/13/3 26/13/3 25/13/3
f 22/13/3 23/13/3 25/13/3
f 21/13/3 23/13/3 22/13/3
f 39/15/73 40/14/73 38/14/73
f 38/14/74 40/14/74 39/15/74
f 36/14/4 34/14/4 33/14/4
f 34/14/4 36/14/4 35/14/4
f 34/14/4 35/14/4 37/14/4
f 37/14/4 35/14/4 38/14/4
f 37/14/4 38/14/4 40/14/4
f 33/14/3 34/14/3 36/14/3
f 35/14/3 36/14/3 34/14/3
f 37/14/3 35/14/3 34/14/3
f 38/14/3 35/14/3 37/14/3
f 40/14/3 38/14/3 37/14/3
f 52/17/75 53/16/75 54/16/75
f 54/16/76 53/16/76 52/17/76
f 47/16/4 49/16/4 48/16/4
f 49/16/4 47/16/4 50/16/4
f 50/16/4 47/16/4 51/16/4
f 50/16/4 51/16/4 53/16/4
f 53/16/4 51/16/4 54/16/4
f 48/16/3 49/16/3 47/16/3
f 50/16/3 47/16/3 49/16/3
f 51/16/3 47/16/3 50/16/3
f 53/16/3 51/16/3 50/16/3
f 54/16/3 51/16/3 53/16/3

