# Created by Kenney (www.kenney.nl)

mtllib snow-tile-tree.mtl

g snow-tile-tree

v 0.5 0 0.5 1 1 1
v 0.5 0 -0.5 1 1 1
v -0.5 0 0.5 1 1 1
v -0.5 0 -0.5 1 1 1
v 0.5 0.2 -0.5 1 1 1
v 0.5 0.2 0.5 1 1 1
v -0.5 0.2 0.5 1 1 1
v -0.5 0.2 -0.5 1 1 1
v 0.02262742 0.96 0.02262742 1 1 1
v 1.443823E-15 0.636 0.2 1 1 1
v -0.02262742 0.96 0.02262742 1 1 1
v 0.02262742 0.96 -0.02262742 1 1 1
v 0.2 0.636 7.219114E-16 1 1 1
v -0.02262742 0.96 -0.02262742 1 1 1
v 1.443823E-15 0.636 -0.2 1 1 1
v 0.1414214 0.636 0.1414214 1 1 1
v 0.1414214 0.636 -0.1414214 1 1 1
v -0.1414214 0.636 0.1414214 1 1 1
v -0.2 0.636 7.219114E-16 1 1 1
v -0.1414214 0.636 -0.1414214 1 1 1
v 0.168566 0.55 -7.219114E-16 1 1 1
v 0.25 0.43 7.219114E-16 1 1 1
v 0.1191942 0.55 0.1191942 1 1 1
v 0.1767767 0.43 0.1767767 1 1 1
v -0.1767767 0.43 -0.1767767 1 1 1
v -0.1191942 0.55 -0.1191942 1 1 1
v -0.25 0.43 7.219114E-16 1 1 1
v -0.168566 0.55 -7.219114E-16 1 1 1
v 1.443823E-15 0.43 -0.25 1 1 1
v 0.1767767 0.43 -0.1767767 1 1 1
v 1.443823E-15 0.55 -0.168566 1 1 1
v 0.1191942 0.55 -0.1191942 1 1 1
v 1.443823E-15 0.43 0.25 1 1 1
v 1.443823E-15 0.55 0.168566 1 1 1
v -0.1767767 0.43 0.1767767 1 1 1
v -0.1191942 0.55 0.1191942 1 1 1
v 0.06875 0.2 -0.06875 1 1 1
v -0.06875 0.2 -0.06875 1 1 1
v 0.06875 0.2 0.06875 1 1 1
v -0.06875 0.2 0.06875 1 1 1
v -0.053125 0.35 -0.053125 1 1 1
v -0.053125 0.35 0.053125 1 1 1
v 0.053125 0.35 -0.053125 1 1 1
v 0.053125 0.35 0.053125 1 1 1
v -0.225 0.35 7.219114E-16 1 1 1
v -0.159099 0.35 0.159099 1 1 1
v 0.225 0.35 7.219114E-16 1 1 1
v 0.159099 0.35 -0.159099 1 1 1
v 0.159099 0.35 0.159099 1 1 1
v 1.443823E-15 0.35 0.225 1 1 1
v 1.443823E-15 0.35 -0.225 1 1 1
v -0.159099 0.35 -0.159099 1 1 1

vn 0 -1 0
vn 0 1 0
vn 1 0 0
vn -1 0 0
vn 0 0 1
vn 0 0 -1
vn 0.5779995 0.5760496 0.5779995
vn 0 0.4612523 0.887269
vn -0.5779995 0.5760496 0.5779995
vn 0.5779995 -0.5760496 -0.5779995
vn 0 -0.4612523 -0.887269
vn -0.5779995 -0.5760496 -0.5779995
vn 0.5779995 0.5760496 -0.5779995
vn 0.887269 0.4612523 0
vn -0.887269 -0.4612523 0
vn -0.5779995 -0.5760496 0.5779995
vn -0.5779995 0.5760496 -0.5779995
vn 0 0.4612523 -0.887269
vn 0 -0.4612523 0.887269
vn 0.5779995 -0.5760496 0.5779995
vn 0.6277373 0.4603172 0.6277373
vn -0.6277373 -0.4603172 -0.6277373
vn 0.6277373 0.4603172 -0.6277373
vn -0.6277373 -0.4603172 0.6277373
vn -0.6277373 0.4603172 0.6277373
vn 0.6277373 -0.4603172 -0.6277373
vn -0.887269 0.4612523 0
vn 0.887269 -0.4612523 0
vn -0.6277373 0.4603172 -0.6277373
vn 0.6277373 -0.4603172 0.6277373
vn 0.8274584 0.561527 0
vn 0.5851015 0.561527 0.5851015
vn -0.5851015 -0.561527 -0.5851015
vn -0.8274584 -0.561527 0
vn -0.5851015 0.561527 -0.5851015
vn -0.8274584 0.561527 0
vn 0.8274584 -0.561527 0
vn 0.5851015 -0.561527 0.5851015
vn 0 0.561527 -0.8274584
vn 0.5851015 0.561527 -0.5851015
vn 0 -0.561527 0.8274584
vn -0.5851015 -0.561527 0.5851015
vn 0 0.561527 0.8274584
vn 0 -0.561527 -0.8274584
vn -0.5851015 0.561527 0.5851015
vn 0.5851015 -0.561527 -0.5851015
vn -0.9946185 0.1036061 0
vn 0.9946185 -0.1036061 0
vn 0.9946185 0.1036061 0
vn -0.9946185 -0.1036061 0
vn 0 0.1036061 -0.9946185
vn 0 -0.1036061 0.9946185
vn 0 0.1036061 0.9946185
vn 0 -0.1036061 -0.9946185
vn 0 -0.343298 -0.9392266
vn 0.6641335 -0.343298 -0.6641335
vn 0 0.343298 0.9392266
vn -0.6641335 0.343298 0.6641335
vn -0.95448 -0.298275 0
vn -0.6749192 -0.298275 0.6749192
vn 0.6749192 0.298275 -0.6749192
vn 0.95448 0.298275 0
vn 0.6641335 -0.343298 0.6641335
vn 0 -0.343298 0.9392266
vn -0.6641335 0.343298 -0.6641335
vn 0 0.343298 -0.9392266
vn 0 -0.298275 0.95448
vn 0 0.298275 -0.95448
vn -0.6641335 -0.343298 0.6641335
vn 0.6641335 0.343298 -0.6641335
vn 0.9392266 -0.343298 0
vn -0.9392266 0.343298 0
vn -0.6749192 -0.298275 -0.6749192
vn 0.6749192 0.298275 0.6749192
vn 0 -0.298275 -0.95448
vn 0 0.298275 0.95448
vn -0.6641335 -0.343298 -0.6641335
vn 0.6641335 0.343298 0.6641335
vn -0.9392266 -0.343298 0
vn 0.9392266 0.343298 0
vn 0.95448 -0.298275 0
vn 0.6749192 -0.298275 0.6749192
vn -0.6749192 0.298275 -0.6749192
vn -0.95448 0.298275 0
vn 0.6749192 -0.298275 -0.6749192
vn -0.6749192 0.298275 0.6749192

vt 0.96875 0.025
vt 0.96875 0.225
vt 0.96875 0.1397368
vt 0.96875 0.1171053
vt 0.96875 0.08552632
vt 0.09375 0.275
vt 0.09375 0.3144737
vt 0.59375 0.3671052
vt 0.59375 0.3897368
vt 0.59375 0.3144737
vt 0.59375 0.3355263

usemtl colormap

f 3/1/1 2/1/1 1/1/1
f 2/1/1 3/1/1 4/1/1
f 1/1/2 2/1/2 3/1/2
f 4/1/2 3/1/2 2/1/2
f 6/2/3 2/1/3 5/2/3
f 2/1/3 6/2/3 1/1/3
f 5/2/4 2/1/4 6/2/4
f 1/1/4 6/2/4 2/1/4
f 6/2/5 3/1/5 1/1/5
f 3/1/5 6/2/5 7/2/5
f 1/1/6 3/1/6 6/2/6
f 7/2/6 6/2/6 3/1/6
f 3/1/4 8/2/4 4/1/4
f 8/2/4 3/1/4 7/2/4
f 4/1/3 8/2/3 3/1/3
f 7/2/3 3/1/3 8/2/3
f 8/2/6 2/1/6 4/1/6
f 2/1/6 8/2/6 5/2/6
f 4/1/5 2/1/5 8/2/5
f 5/2/5 8/2/5 2/1/5
f 8/2/2 6/2/2 5/2/2
f 6/2/2 8/2/2 7/2/2
f 5/2/1 6/2/1 8/2/1
f 7/2/1 8/2/1 6/2/1
f 11/2/9 10/3/8 9/2/7
f 9/2/12 10/3/11 11/2/10
f 9/2/7 13/3/14 12/2/13
f 12/2/16 13/3/15 9/2/12
f 12/2/13 15/3/18 14/2/17
f 14/2/20 15/3/19 12/2/16
f 16/3/21 13/3/14 9/2/7
f 9/2/12 13/3/15 16/3/22
f 13/3/14 17/3/23 12/2/13
f 12/2/16 17/3/24 13/3/15
f 11/2/9 18/3/25 10/3/8
f 10/3/11 18/3/26 11/2/10
f 11/2/9 14/2/17 19/3/27
f 19/3/28 14/2/20 11/2/10
f 18/3/25 11/2/9 19/3/27
f 19/3/28 11/2/10 18/3/26
f 9/2/7 10/3/8 16/3/21
f 16/3/22 10/3/11 9/2/12
f 14/2/17 15/3/18 20/3/29
f 20/3/30 15/3/19 14/2/20
f 12/2/13 17/3/23 15/3/18
f 15/3/19 17/3/24 12/2/16
f 19/3/27 14/2/17 20/3/29
f 20/3/30 14/2/20 19/3/28
f 23/4/32 22/5/31 21/4/31
f 22/5/31 23/4/32 24/5/32
f 21/4/34 22/5/34 23/4/33
f 24/5/33 23/4/33 22/5/34
f 27/5/36 26/4/35 25/5/35
f 26/4/35 27/5/36 28/4/36
f 25/5/38 26/4/38 27/5/37
f 28/4/37 27/5/37 26/4/38
f 31/4/39 30/5/40 29/5/39
f 30/5/40 31/4/39 32/4/40
f 29/5/41 30/5/42 31/4/41
f 32/4/42 31/4/41 30/5/42
f 14/2/2 9/2/2 12/2/2
f 9/2/2 14/2/2 11/2/2
f 12/2/1 9/2/1 14/2/1
f 11/2/1 14/2/1 9/2/1
f 23/4/32 33/5/43 24/5/32
f 33/5/43 23/4/32 34/4/43
f 24/5/33 33/5/44 23/4/33
f 34/4/44 23/4/33 33/5/44
f 32/4/40 22/5/31 30/5/40
f 22/5/31 32/4/40 21/4/31
f 30/5/42 22/5/34 32/4/42
f 21/4/34 32/4/42 22/5/34
f 34/4/43 35/5/45 33/5/43
f 35/5/45 34/4/43 36/4/45
f 33/5/44 35/5/46 34/4/44
f 36/4/46 34/4/44 35/5/46
f 26/4/35 29/5/39 25/5/35
f 29/5/39 26/4/35 31/4/39
f 25/5/38 29/5/41 26/4/38
f 31/4/41 26/4/38 29/5/41
f 27/5/36 36/4/45 28/4/36
f 36/4/45 27/5/36 35/5/45
f 28/4/37 36/4/46 27/5/37
f 35/5/46 27/5/37 36/4/46
f 39/6/1 38/6/1 37/6/1
f 38/6/1 39/6/1 40/6/1
f 37/6/2 38/6/2 39/6/2
f 40/6/2 39/6/2 38/6/2
f 40/6/47 41/7/47 38/6/47
f 41/7/47 40/6/47 42/7/47
f 38/6/48 41/7/48 40/6/48
f 42/7/48 40/6/48 41/7/48
f 43/7/49 39/6/49 37/6/49
f 39/6/49 43/7/49 44/7/49
f 37/6/50 39/6/50 43/7/50
f 44/7/50 43/7/50 39/6/50
f 41/7/51 37/6/51 38/6/51
f 37/6/51 41/7/51 43/7/51
f 38/6/52 37/6/52 41/7/52
f 43/7/52 41/7/52 37/6/52
f 44/7/53 40/6/53 39/6/53
f 40/6/53 44/7/53 42/7/53
f 39/6/54 40/6/54 44/7/54
f 42/7/54 44/7/54 40/6/54
f 15/9/55 32/8/56 31/8/55
f 17/9/56 32/8/56 15/9/55
f 31/8/57 32/8/58 15/9/57
f 15/9/57 32/8/58 17/9/58
f 46/10/60 27/11/59 45/10/59
f 27/11/59 46/10/60 35/11/60
f 45/10/62 27/11/62 46/10/61
f 35/11/61 46/10/61 27/11/62
f 16/9/63 34/8/64 23/8/63
f 10/9/64 34/8/64 16/9/63
f 23/8/65 34/8/66 16/9/65
f 16/9/65 34/8/66 10/9/66
f 49/10/1 48/10/1 47/10/1
f 48/10/1 49/10/1 50/10/1
f 48/10/1 50/10/1 44/10/1
f 48/10/1 44/10/1 43/10/1
f 43/10/1 51/10/1 48/10/1
f 51/10/1 43/10/1 41/10/1
f 44/10/1 50/10/1 42/10/1
f 51/10/1 41/10/1 52/10/1
f 52/10/1 41/10/1 42/10/1
f 42/10/1 50/10/1 46/10/1
f 52/10/1 42/10/1 46/10/1
f 52/10/1 46/10/1 45/10/1
f 47/10/2 48/10/2 49/10/2
f 50/10/2 49/10/2 48/10/2
f 44/10/2 50/10/2 48/10/2
f 43/10/2 44/10/2 48/10/2
f 48/10/2 51/10/2 43/10/2
f 41/10/2 43/10/2 51/10/2
f 42/10/2 50/10/2 44/10/2
f 52/10/2 41/10/2 51/10/2
f 42/10/2 41/10/2 52/10/2
f 46/10/2 50/10/2 42/10/2
f 46/10/2 42/10/2 52/10/2
f 45/10/2 46/10/2 52/10/2
f 33/11/67 46/10/60 50/10/67
f 46/10/60 33/11/67 35/11/60
f 50/10/68 46/10/61 33/11/68
f 35/11/61 33/11/68 46/10/61
f 18/9/69 36/8/69 10/9/64
f 10/9/64 36/8/69 34/8/64
f 10/9/66 36/8/70 18/9/70
f 34/8/66 36/8/70 10/9/66
f 16/9/63 21/8/71 13/9/71
f 16/9/63 23/8/63 21/8/71
f 13/9/72 21/8/72 16/9/65
f 21/8/72 23/8/65 16/9/65
f 52/10/73 27/11/59 25/11/73
f 27/11/59 52/10/73 45/10/59
f 25/11/74 27/11/62 52/10/74
f 45/10/62 52/10/74 27/11/62
f 25/11/73 51/10/75 52/10/73
f 51/10/75 25/11/73 29/11/75
f 52/10/74 51/10/76 25/11/74
f 29/11/76 25/11/74 51/10/76
f 20/9/77 31/8/55 26/8/77
f 15/9/55 31/8/55 20/9/77
f 26/8/78 31/8/57 20/9/78
f 20/9/78 31/8/57 15/9/57
f 28/8/79 20/9/77 26/8/77
f 19/9/79 20/9/77 28/8/79
f 26/8/78 20/9/78 28/8/80
f 28/8/80 20/9/78 19/9/80
f 24/11/82 47/10/81 22/11/81
f 47/10/81 24/11/82 49/10/82
f 22/11/84 47/10/84 24/11/83
f 49/10/83 24/11/83 47/10/84
f 13/9/71 21/8/71 32/8/56
f 13/9/71 32/8/56 17/9/56
f 32/8/58 21/8/72 13/9/72
f 17/9/58 32/8/58 13/9/72
f 29/11/75 48/10/85 51/10/75
f 48/10/85 29/11/75 30/11/85
f 51/10/76 48/10/86 29/11/76
f 30/11/86 29/11/76 48/10/86
f 22/11/81 48/10/85 30/11/85
f 48/10/85 22/11/81 47/10/81
f 30/11/86 48/10/86 22/11/84
f 47/10/84 22/11/84 48/10/86
f 24/11/82 50/10/67 49/10/82
f 50/10/67 24/11/82 33/11/67
f 49/10/83 50/10/68 24/11/83
f 33/11/68 24/11/83 50/10/68
f 18/9/69 19/9/79 36/8/69
f 36/8/69 19/9/79 28/8/79
f 36/8/70 19/9/80 18/9/70
f 28/8/80 19/9/80 36/8/70

g snow-tile-tree




usemtl colormap

f 3/1/1 2/1/1 1/1/1
f 2/1/1 3/1/1 4/1/1
f 1/1/2 2/1/2 3/1/2
f 4/1/2 3/1/2 2/1/2
f 6/2/3 2/1/3 5/2/3
f 2/1/3 6/2/3 1/1/3
f 5/2/4 2/1/4 6/2/4
f 1/1/4 6/2/4 2/1/4
f 6/2/5 3/1/5 1/1/5
f 3/1/5 6/2/5 7/2/5
f 1/1/6 3/1/6 6/2/6
f 7/2/6 6/2/6 3/1/6
f 3/1/4 8/2/4 4/1/4
f 8/2/4 3/1/4 7/2/4
f 4/1/3 8/2/3 3/1/3
f 7/2/3 3/1/3 8/2/3
f 8/2/6 2/1/6 4/1/6
f 2/1/6 8/2/6 5/2/6
f 4/1/5 2/1/5 8/2/5
f 5/2/5 8/2/5 2/1/5
f 8/2/2 6/2/2 5/2/2
f 6/2/2 8/2/2 7/2/2
f 5/2/1 6/2/1 8/2/1
f 7/2/1 8/2/1 6/2/1
f 11/2/9 10/3/8 9/2/7
f 9/2/12 10/3/11 11/2/10
f 9/2/7 13/3/14 12/2/13
f 12/2/16 13/3/15 9/2/12
f 12/2/13 15/3/18 14/2/17
f 14/2/20 15/3/19 12/2/16
f 16/3/21 13/3/14 9/2/7
f 9/2/12 13/3/15 16/3/22
f 13/3/14 17/3/23 12/2/13
f 12/2/16 17/3/24 13/3/15
f 11/2/9 18/3/25 10/3/8
f 10/3/11 18/3/26 11/2/10
f 11/2/9 14/2/17 19/3/27
f 19/3/28 14/2/20 11/2/10
f 18/3/25 11/2/9 19/3/27
f 19/3/28 11/2/10 18/3/26
f 9/2/7 10/3/8 16/3/21
f 16/3/22 10/3/11 9/2/12
f 14/2/17 15/3/18 20/3/29
f 20/3/30 15/3/19 14/2/20
f 12/2/13 17/3/23 15/3/18
f 15/3/19 17/3/24 12/2/16
f 19/3/27 14/2/17 20/3/29
f 20/3/30 14/2/20 19/3/28
f 23/4/32 22/5/31 21/4/31
f 22/5/31 23/4/32 24/5/32
f 21/4/34 22/5/34 23/4/33
f 24/5/33 23/4/33 22/5/34
f 27/5/36 26/4/35 25/5/35
f 26/4/35 27/5/36 28/4/36
f 25/5/38 26/4/38 27/5/37
f 28/4/37 27/5/37 26/4/38
f 31/4/39 30/5/40 29/5/39
f 30/5/40 31/4/39 32/4/40
f 29/5/41 30/5/42 31/4/41
f 32/4/42 31/4/41 30/5/42
f 14/2/2 9/2/2 12/2/2
f 9/2/2 14/2/2 11/2/2
f 12/2/1 9/2/1 14/2/1
f 11/2/1 14/2/1 9/2/1
f 23/4/32 33/5/43 24/5/32
f 33/5/43 23/4/32 34/4/43
f 24/5/33 33/5/44 23/4/33
f 34/4/44 23/4/33 33/5/44
f 32/4/40 22/5/31 30/5/40
f 22/5/31 32/4/40 21/4/31
f 30/5/42 22/5/34 32/4/42
f 21/4/34 32/4/42 22/5/34
f 34/4/43 35/5/45 33/5/43
f 35/5/45 34/4/43 36/4/45
f 33/5/44 35/5/46 34/4/44
f 36/4/46 34/4/44 35/5/46
f 26/4/35 29/5/39 25/5/35
f 29/5/39 26/4/35 31/4/39
f 25/5/38 29/5/41 26/4/38
f 31/4/41 26/4/38 29/5/41
f 27/5/36 36/4/45 28/4/36
f 36/4/45 27/5/36 35/5/45
f 28/4/37 36/4/46 27/5/37
f 35/5/46 27/5/37 36/4/46
f 39/6/1 38/6/1 37/6/1
f 38/6/1 39/6/1 40/6/1
f 37/6/2 38/6/2 39/6/2
f 40/6/2 39/6/2 38/6/2
f 40/6/47 41/7/47 38/6/47
f 41/7/47 40/6/47 42/7/47
f 38/6/48 41/7/48 40/6/48
f 42/7/48 40/6/48 41/7/48
f 43/7/49 39/6/49 37/6/49
f 39/6/49 43/7/49 44/7/49
f 37/6/50 39/6/50 43/7/50
f 44/7/50 43/7/50 39/6/50
f 41/7/51 37/6/51 38/6/51
f 37/6/51 41/7/51 43/7/51
f 38/6/52 37/6/52 41/7/52
f 43/7/52 41/7/52 37/6/52
f 44/7/53 40/6/53 39/6/53
f 40/6/53 44/7/53 42/7/53
f 39/6/54 40/6/54 44/7/54
f 42/7/54 44/7/54 40/6/54
f 15/9/55 32/8/56 31/8/55
f 17/9/56 32/8/56 15/9/55
f 31/8/57 32/8/58 15/9/57
f 15/9/57 32/8/58 17/9/58
f 46/10/60 27/11/59 45/10/59
f 27/11/59 46/10/60 35/11/60
f 45/10/62 27/11/62 46/10/61
f 35/11/61 46/10/61 27/11/62
f 16/9/63 34/8/64 23/8/63
f 10/9/64 34/8/64 16/9/63
f 23/8/65 34/8/66 16/9/65
f 16/9/65 34/8/66 10/9/66
f 49/10/1 48/10/1 47/10/1
f 48/10/1 49/10/1 50/10/1
f 48/10/1 50/10/1 44/10/1
f 48/10/1 44/10/1 43/10/1
f 43/10/1 51/10/1 48/10/1
f 51/10/1 43/10/1 41/10/1
f 44/10/1 50/10/1 42/10/1
f 51/10/1 41/10/1 52/10/1
f 52/10/1 41/10/1 42/10/1
f 42/10/1 50/10/1 46/10/1
f 52/10/1 42/10/1 46/10/1
f 52/10/1 46/10/1 45/10/1
f 47/10/2 48/10/2 49/10/2
f 50/10/2 49/10/2 48/10/2
f 44/10/2 50/10/2 48/10/2
f 43/10/2 44/10/2 48/10/2
f 48/10/2 51/10/2 43/10/2
f 41/10/2 43/10/2 51/10/2
f 42/10/2 50/10/2 44/10/2
f 52/10/2 41/10/2 51/10/2
f 42/10/2 41/10/2 52/10/2
f 46/10/2 50/10/2 42/10/2
f 46/10/2 42/10/2 52/10/2
f 45/10/2 46/10/2 52/10/2
f 33/11/67 46/10/60 50/10/67
f 46/10/60 33/11/67 35/11/60
f 50/10/68 46/10/61 33/11/68
f 35/11/61 33/11/68 46/10/61
f 18/9/69 36/8/69 10/9/64
f 10/9/64 36/8/69 34/8/64
f 10/9/66 36/8/70 18/9/70
f 34/8/66 36/8/70 10/9/66
f 16/9/63 21/8/71 13/9/71
f 16/9/63 23/8/63 21/8/71
f 13/9/72 21/8/72 16/9/65
f 21/8/72 23/8/65 16/9/65
f 52/10/73 27/11/59 25/11/73
f 27/11/59 52/10/73 45/10/59
f 25/11/74 27/11/62 52/10/74
f 45/10/62 52/10/74 27/11/62
f 25/11/73 51/10/75 52/10/73
f 51/10/75 25/11/73 29/11/75
f 52/10/74 51/10/76 25/11/74
f 29/11/76 25/11/74 51/10/76
f 20/9/77 31/8/55 26/8/77
f 15/9/55 31/8/55 20/9/77
f 26/8/78 31/8/57 20/9/78
f 20/9/78 31/8/57 15/9/57
f 28/8/79 20/9/77 26/8/77
f 19/9/79 20/9/77 28/8/79
f 26/8/78 20/9/78 28/8/80
f 28/8/80 20/9/78 19/9/80
f 24/11/82 47/10/81 22/11/81
f 47/10/81 24/11/82 49/10/82
f 22/11/84 47/10/84 24/11/83
f 49/10/83 24/11/83 47/10/84
f 13/9/71 21/8/71 32/8/56
f 13/9/71 32/8/56 17/9/56
f 32/8/58 21/8/72 13/9/72
f 17/9/58 32/8/58 13/9/72
f 29/11/75 48/10/85 51/10/75
f 48/10/85 29/11/75 30/11/85
f 51/10/76 48/10/86 29/11/76
f 30/11/86 29/11/76 48/10/86
f 22/11/81 48/10/85 30/11/85
f 48/10/85 22/11/81 47/10/81
f 30/11/86 48/10/86 22/11/84
f 47/10/84 22/11/84 48/10/86
f 24/11/82 50/10/67 49/10/82
f 50/10/67 24/11/82 33/11/67
f 49/10/83 50/10/68 24/11/83
f 33/11/68 24/11/83 50/10/68
f 18/9/69 19/9/79 36/8/69
f 36/8/69 19/9/79 28/8/79
f 36/8/70 19/9/80 18/9/70
f 28/8/80 19/9/80 36/8/70

