# Created by Kenney (www.kenney.nl)

mtllib snow-tile-slope.mtl

g snow-tile-slope

v -0.5 0 -0.5 1 1 1
v 0.5 0 -0.5 1 1 1
v -0.5 0.4 -0.5 1 1 1
v 0.5 0.4 -0.5 1 1 1
v 0.5 0 0.5 1 1 1
v -0.5 0 0.5 1 1 1
v 0.5 0.2 0.5 1 1 1
v -0.5 0.2 0.5 1 1 1

vn 0 0 -1
vn 0 0 1
vn 0 -1 0
vn 0 1 0
vn -1 0 0
vn 1 0 0
vn 0 0.9805807 0.1961161
vn 0 -0.9805807 -0.1961161

vt 0.96875 0.025
vt 0.96875 0.225
vt 0.96875 0.125

usemtl colormap

f 3/2/1 2/1/1 1/1/1
f 2/1/1 3/2/1 4/2/1
f 1/1/2 2/1/2 3/2/2
f 4/2/2 3/2/2 2/1/2
f 7/3/2 6/1/2 5/1/2
f 6/1/2 7/3/2 8/3/2
f 5/1/1 6/1/1 7/3/1
f 8/3/1 7/3/1 6/1/1
f 6/1/3 2/1/3 5/1/3
f 2/1/3 6/1/3 1/1/3
f 5/1/4 2/1/4 6/1/4
f 1/1/4 6/1/4 2/1/4
f 6/1/5 3/2/5 1/1/5
f 3/2/5 6/1/5 8/3/5
f 1/1/6 3/2/6 6/1/6
f 8/3/6 6/1/6 3/2/6
f 7/3/6 2/1/6 4/2/6
f 2/1/6 7/3/6 5/1/6
f 4/2/5 2/1/5 7/3/5
f 5/1/5 7/3/5 2/1/5
f 4/2/7 8/3/7 7/3/7
f 8/3/7 4/2/7 3/2/7
f 7/3/8 8/3/8 4/2/8
f 3/2/8 4/2/8 8/3/8

g snow-tile-slope




usemtl colormap

f 3/2/1 2/1/1 1/1/1
f 2/1/1 3/2/1 4/2/1
f 1/1/2 2/1/2 3/2/2
f 4/2/2 3/2/2 2/1/2
f 7/3/2 6/1/2 5/1/2
f 6/1/2 7/3/2 8/3/2
f 5/1/1 6/1/1 7/3/1
f 8/3/1 7/3/1 6/1/1
f 6/1/3 2/1/3 5/1/3
f 2/1/3 6/1/3 1/1/3
f 5/1/4 2/1/4 6/1/4
f 1/1/4 6/1/4 2/1/4
f 6/1/5 3/2/5 1/1/5
f 3/2/5 6/1/5 8/3/5
f 1/1/6 3/2/6 6/1/6
f 8/3/6 6/1/6 3/2/6
f 7/3/6 2/1/6 4/2/6
f 2/1/6 7/3/6 5/1/6
f 4/2/5 2/1/5 7/3/5
f 5/1/5 7/3/5 2/1/5
f 4/2/7 8/3/7 7/3/7
f 8/3/7 4/2/7 3/2/7
f 7/3/8 8/3/8 4/2/8
f 3/2/8 4/2/8 8/3/8

