# Created by Kenney (www.kenney.nl)

mtllib snow-tile-spawn-end.mtl

g snow-tile-spawn-end

v 0.5 0.2 -0.5 1 1 1
v 0.5 -1.025898E-29 -0.5 1 1 1
v 0.5 0.2 0.5 1 1 1
v 0.5 -1.025898E-29 0.5 1 1 1
v -0.5 -1.025898E-29 0.5 1 1 1
v -0.5 -1.025898E-29 -0.5 1 1 1
v -0.5 0.2 0.5 1 1 1
v -0.5 0.2 -0.5 1 1 1
v -0.375 0.2 0.5 1 1 1
v -0.375 0.2 -0.375 1 1 1
v 0.375 0.2 -0.375 1 1 1
v 0.375 0.2 0.5 1 1 1
v 0.375 0.1 0.5 1 1 1
v -0.375 0.1 0.5 1 1 1
v -0.225 0.15 -0.343125 1 1 1
v -0.225 0.15 -0.2245 1 1 1
v -0.343625 0.15 -0.343125 1 1 1
v -0.343625 0.15 -0.2245 1 1 1
v -0.343625 0.1 -0.343125 1 1 1
v -0.343625 0.1 -0.2245 1 1 1
v -0.225 0.1 -0.343125 1 1 1
v -0.225 0.1 -0.2245 1 1 1
v -0.225125 0.15 0.2245 1 1 1
v -0.225125 0.15 0.343125 1 1 1
v -0.34375 0.15 0.2245 1 1 1
v -0.34375 0.15 0.343125 1 1 1
v -0.34375 0.1 0.2245 1 1 1
v -0.34375 0.1 0.343125 1 1 1
v -0.225125 0.1 0.2245 1 1 1
v -0.225125 0.1 0.343125 1 1 1
v 0.343625 0.15 0.2245 1 1 1
v 0.343625 0.15 0.343125 1 1 1
v 0.225 0.15 0.2245 1 1 1
v 0.225 0.15 0.343125 1 1 1
v 0.225 0.1 0.2245 1 1 1
v 0.225 0.1 0.343125 1 1 1
v 0.343625 0.1 0.2245 1 1 1
v 0.343625 0.1 0.343125 1 1 1
v 0.34375 0.09999999 -0.343125 1 1 1
v 0.34375 0.09999999 0.343125 1 1 1
v 0.275 0.2 -0.2745 1 1 1
v 0.275 0.2 0.2745 1 1 1
v -0.34375 0.09999999 -0.343125 1 1 1
v -0.275 0.2 -0.2745 1 1 1
v -0.34375 0.09999999 0.343125 1 1 1
v -0.275 0.2 0.2745 1 1 1
v 0.175 0.2 -0.1745 1 1 1
v -0.175 0.2 -0.1745 1 1 1
v -0.175 0.2 0.1745 1 1 1
v 0.175 0.2 0.1745 1 1 1
v 0.34375 0.15 -0.343125 1 1 1
v 0.34375 0.15 -0.2245 1 1 1
v 0.225125 0.15 -0.343125 1 1 1
v 0.225125 0.15 -0.2245 1 1 1
v 0.225125 0.1 -0.343125 1 1 1
v 0.225125 0.1 -0.2245 1 1 1
v 0.34375 0.1 -0.343125 1 1 1
v 0.34375 0.1 -0.2245 1 1 1
v -0.175 0.05 -0.1745 1 1 1
v -0.175 0.05 0.1745 1 1 1
v 0.175 0.05 0.1745 1 1 1
v 0.175 0.05 -0.1745 1 1 1
v -0.375 0.1 -0.375 1 1 1
v 0.375 0.1 -0.375 1 1 1
v 0.175 0.1 0.1745 1 1 1
v -0.175 0.1 0.1745 1 1 1
v 0.175 0.1 -0.1745 1 1 1
v -0.175 0.1 -0.1745 1 1 1
v 0.1110676 0.13195 0.375625 1 1 1
v 0.09138042 0.13195 0.3319304 1 1 1
v 0.1587519 0.13195 0.3804227 1 1 1
v 0.1867489 0.13195 0.3415258 1 1 1
v 0.1193775 0.13195 0.2930335 1 1 1
v 0.1670617 0.13195 0.2978312 1 1 1
v 0.1017353 0.1 0.3885907 1 1 1
v 0.07548567 0.1 0.3303312 1 1 1
v 0.2026437 0.1 0.343125 1 1 1
v 0.1763941 0.1 0.2848655 1 1 1
v 0.1653143 0.1 0.3949876 1 1 1
v 0.1128151 0.1 0.2784686 1 1 1

vn 1 0 0
vn -1 0 0
vn 0 -1 0
vn 0 1 0
vn 0 0 1
vn 0 0 -1
vn 0.5068918 0.6967704 -0.5075152
vn 0.5068918 0.6967704 0.5075152
vn 0.5067922 0.6967703 -0.5076148
vn 0.5067922 0.6967703 0.5076148
vn -0.5067922 -0.6967703 0.5076148
vn -0.5068918 -0.6967704 -0.5075152
vn -0.5068918 -0.6967704 0.5075152
vn -0.5067922 -0.6967703 -0.5076148
vn -0.5068918 0.6967704 -0.5075152
vn -0.5067922 0.6967703 -0.5076148
vn -0.5068918 0.6967704 0.5075152
vn -0.5067922 0.6967703 0.5076148
vn 0.5068918 -0.6967704 -0.5075152
vn 0.5067922 -0.6967703 0.5076148
vn 0.5068918 -0.6967704 0.5075152
vn 0.5067922 -0.6967703 -0.5076148
vn 0.7066349 0 0.7075783
vn 0.7066349 0 -0.7075783
vn -0.7066349 0 0.7075783
vn -0.7066349 0 -0.7075783
vn 0.5773503 0.5773503 0.5773503
vn 0.7071068 0.7071068 0
vn -0.5773503 -0.5773503 -0.5773503
vn -0.7071068 -0.7071068 0
vn -0.5773503 0.5773503 0.5773503
vn -0.7071068 0.7071068 0
vn 0.7071068 -0.7071068 0
vn 0.5773503 -0.5773503 -0.5773503
vn -0.5225104 0.4472136 0.7259358
vn -0.8899341 0.4472136 -0.08953941
vn 0.8899341 -0.4472136 0.08953941
vn 0.5225104 -0.4472136 -0.7259358
vn 0.8899341 0.4472136 0.08953941
vn 0.5225104 0.4472136 -0.7259358
vn -0.5225104 -0.4472136 0.7259358
vn -0.8899341 -0.4472136 -0.08953941
vn 0.3674236 0.4472136 0.8154752
vn -0.3674236 -0.4472136 -0.8154752
vn -0.3674236 0.4472136 -0.8154752
vn 0.3674236 -0.4472136 0.8154752

vt 0.96875 0.225
vt 0.96875 0.025
vt 0.96875 0.125
vt 0.84375 0.225
vt 0.84375 0.025
vt 0.84375 0.09166666
vt 0.59375 0.225
vt 0.59375 0.025
vt 0.09375 0.075
vt 0.09375 0.175

usemtl colormap

f 3/1/1 2/2/1 1/1/1
f 2/2/1 3/1/1 4/2/1
f 1/1/2 2/2/2 3/1/2
f 4/2/2 3/1/2 2/2/2
f 5/2/3 2/2/3 4/2/3
f 2/2/3 5/2/3 6/2/3
f 4/2/4 2/2/4 5/2/4
f 6/2/4 5/2/4 2/2/4
f 9/1/4 8/1/4 7/1/4
f 10/1/4 8/1/4 9/1/4
f 11/1/4 8/1/4 10/1/4
f 8/1/4 11/1/4 1/1/4
f 12/1/4 1/1/4 11/1/4
f 1/1/4 12/1/4 3/1/4
f 7/1/3 8/1/3 9/1/3
f 9/1/3 8/1/3 10/1/3
f 10/1/3 8/1/3 11/1/3
f 1/1/3 11/1/3 8/1/3
f 11/1/3 1/1/3 12/1/3
f 3/1/3 12/1/3 1/1/3
f 5/2/2 8/1/2 6/2/2
f 8/1/2 5/2/2 7/1/2
f 6/2/1 8/1/1 5/2/1
f 7/1/1 5/2/1 8/1/1
f 13/3/5 3/1/5 12/1/5
f 13/3/5 4/2/5 3/1/5
f 4/2/5 13/3/5 5/2/5
f 14/3/5 5/2/5 13/3/5
f 5/2/5 14/3/5 7/1/5
f 7/1/5 14/3/5 9/1/5
f 12/1/6 3/1/6 13/3/6
f 3/1/6 4/2/6 13/3/6
f 5/2/6 13/3/6 4/2/6
f 13/3/6 5/2/6 14/3/6
f 7/1/6 14/3/6 5/2/6
f 9/1/6 14/3/6 7/1/6
f 8/1/6 2/2/6 6/2/6
f 2/2/6 8/1/6 1/1/6
f 6/2/5 2/2/5 8/1/5
f 1/1/5 8/1/5 2/2/5
f 17/4/4 16/4/4 15/4/4
f 16/4/4 17/4/4 18/4/4
f 15/4/3 16/4/3 17/4/3
f 18/4/3 17/4/3 16/4/3
f 20/5/2 17/4/2 19/5/2
f 17/4/2 20/5/2 18/4/2
f 19/5/1 17/4/1 20/5/1
f 18/4/1 20/5/1 17/4/1
f 17/4/6 21/5/6 19/5/6
f 21/5/6 17/4/6 15/4/6
f 19/5/5 21/5/5 17/4/5
f 15/4/5 17/4/5 21/5/5
f 16/4/1 21/5/1 15/4/1
f 21/5/1 16/4/1 22/5/1
f 15/4/2 21/5/2 16/4/2
f 22/5/2 16/4/2 21/5/2
f 16/4/5 20/5/5 22/5/5
f 20/5/5 16/4/5 18/4/5
f 22/5/6 20/5/6 16/4/6
f 18/4/6 16/4/6 20/5/6
f 25/4/4 24/4/4 23/4/4
f 24/4/4 25/4/4 26/4/4
f 23/4/3 24/4/3 25/4/3
f 26/4/3 25/4/3 24/4/3
f 28/5/2 25/4/2 27/5/2
f 25/4/2 28/5/2 26/4/2
f 27/5/1 25/4/1 28/5/1
f 26/4/1 28/5/1 25/4/1
f 25/4/6 29/5/6 27/5/6
f 29/5/6 25/4/6 23/4/6
f 27/5/5 29/5/5 25/4/5
f 23/4/5 25/4/5 29/5/5
f 24/4/1 29/5/1 23/4/1
f 29/5/1 24/4/1 30/5/1
f 23/4/2 29/5/2 24/4/2
f 30/5/2 24/4/2 29/5/2
f 24/4/5 28/5/5 30/5/5
f 28/5/5 24/4/5 26/4/5
f 30/5/6 28/5/6 24/4/6
f 26/4/6 24/4/6 28/5/6
f 33/4/4 32/4/4 31/4/4
f 32/4/4 33/4/4 34/4/4
f 31/4/3 32/4/3 33/4/3
f 34/4/3 33/4/3 32/4/3
f 36/5/2 33/4/2 35/5/2
f 33/4/2 36/5/2 34/4/2
f 35/5/1 33/4/1 36/5/1
f 34/4/1 36/5/1 33/4/1
f 33/4/6 37/5/6 35/5/6
f 37/5/6 33/4/6 31/4/6
f 35/5/5 37/5/5 33/4/5
f 31/4/5 33/4/5 37/5/5
f 32/4/1 37/5/1 31/4/1
f 37/5/1 32/4/1 38/5/1
f 31/4/2 37/5/2 32/4/2
f 38/5/2 32/4/2 37/5/2
f 32/4/5 36/5/5 38/5/5
f 36/5/5 32/4/5 34/4/5
f 38/5/6 36/5/6 32/4/6
f 34/4/6 32/4/6 36/5/6
f 41/4/9 40/6/8 39/6/7
f 40/6/8 41/4/9 42/4/10
f 39/6/13 40/6/12 41/4/11
f 42/4/14 41/4/11 40/6/12
f 45/6/17 44/4/16 43/6/15
f 44/4/16 45/6/17 46/4/18
f 43/6/21 44/4/20 45/6/19
f 46/4/22 45/6/19 44/4/20
f 44/4/16 39/6/7 43/6/15
f 39/6/7 44/4/16 41/4/9
f 43/6/21 39/6/13 44/4/20
f 41/4/11 44/4/20 39/6/13
f 42/4/10 45/6/17 40/6/8
f 45/6/17 42/4/10 46/4/18
f 40/6/12 45/6/19 42/4/14
f 46/4/22 42/4/14 45/6/19
f 48/4/3 44/4/3 47/4/3
f 49/4/3 44/4/3 48/4/3
f 44/4/3 41/4/3 47/4/3
f 44/4/3 49/4/3 46/4/3
f 42/4/3 47/4/3 41/4/3
f 49/4/3 50/4/3 46/4/3
f 47/4/3 42/4/3 50/4/3
f 46/4/3 50/4/3 42/4/3
f 47/4/4 44/4/4 48/4/4
f 48/4/4 44/4/4 49/4/4
f 47/4/4 41/4/4 44/4/4
f 46/4/4 49/4/4 44/4/4
f 41/4/4 47/4/4 42/4/4
f 46/4/4 50/4/4 49/4/4
f 42/4/4 50/4/4 46/4/4
f 50/4/4 42/4/4 47/4/4
f 53/4/4 52/4/4 51/4/4
f 52/4/4 53/4/4 54/4/4
f 51/4/3 52/4/3 53/4/3
f 54/4/3 53/4/3 52/4/3
f 56/5/2 53/4/2 55/5/2
f 53/4/2 56/5/2 54/4/2
f 55/5/1 53/4/1 56/5/1
f 54/4/1 56/5/1 53/4/1
f 53/4/6 57/5/6 55/5/6
f 57/5/6 53/4/6 51/4/6
f 55/5/5 57/5/5 53/4/5
f 51/4/5 53/4/5 57/5/5
f 52/4/1 57/5/1 51/4/1
f 57/5/1 52/4/1 58/5/1
f 51/4/2 57/5/2 52/4/2
f 58/5/2 52/4/2 57/5/2
f 52/4/5 56/5/5 58/5/5
f 56/5/5 52/4/5 54/4/5
f 58/5/6 56/5/6 52/4/6
f 54/4/6 52/4/6 56/5/6
f 49/7/24 59/8/23 48/7/23
f 59/8/23 49/7/24 60/8/24
f 48/7/26 59/8/26 49/7/25
f 60/8/25 49/7/25 59/8/26
f 49/7/24 61/8/26 60/8/24
f 61/8/26 49/7/24 50/7/26
f 60/8/25 61/8/23 49/7/25
f 50/7/23 49/7/25 61/8/23
f 61/8/26 47/7/25 62/8/25
f 47/7/25 61/8/26 50/7/26
f 62/8/24 47/7/24 61/8/23
f 50/7/23 61/8/23 47/7/24
f 47/7/25 59/8/23 62/8/25
f 59/8/23 47/7/25 48/7/23
f 62/8/24 59/8/26 47/7/24
f 48/7/26 47/7/24 59/8/26
f 59/8/4 61/8/4 62/8/4
f 61/8/4 59/8/4 60/8/4
f 62/8/3 61/8/3 59/8/3
f 60/8/3 59/8/3 61/8/3
f 9/9/1 63/10/27 10/9/1
f 63/10/27 9/9/1 14/10/28
f 10/9/2 63/10/29 9/9/2
f 14/10/30 9/9/2 63/10/29
f 13/10/32 11/9/2 64/10/31
f 11/9/2 13/10/32 12/9/2
f 64/10/34 11/9/1 13/10/33
f 12/9/1 13/10/33 11/9/1
f 11/9/5 63/10/27 64/10/31
f 63/10/27 11/9/5 10/9/5
f 64/10/34 63/10/29 11/9/6
f 10/9/6 11/9/6 63/10/29
f 14/10/30 65/10/3 13/10/33
f 64/10/34 13/10/33 65/10/3
f 66/10/3 65/10/3 14/10/30
f 67/10/3 64/10/34 65/10/3
f 63/10/29 66/10/3 14/10/30
f 64/10/34 67/10/3 63/10/29
f 66/10/3 63/10/29 68/10/3
f 68/10/3 63/10/29 67/10/3
f 13/10/32 65/10/4 14/10/28
f 65/10/4 13/10/32 64/10/31
f 14/10/28 65/10/4 66/10/4
f 65/10/4 64/10/31 67/10/4
f 14/10/28 66/10/4 63/10/27
f 63/10/27 67/10/4 64/10/31
f 68/10/4 63/10/27 66/10/4
f 67/10/4 63/10/27 68/10/4
f 71/10/4 70/10/4 69/10/4
f 70/10/4 71/10/4 72/10/4
f 70/10/4 72/10/4 73/10/4
f 73/10/4 72/10/4 74/10/4
f 69/10/3 70/10/3 71/10/3
f 72/10/3 71/10/3 70/10/3
f 73/10/3 72/10/3 70/10/3
f 74/10/3 72/10/3 73/10/3
f 70/10/36 75/9/35 69/10/35
f 75/9/35 70/10/36 76/9/36
f 69/10/38 75/9/38 70/10/37
f 76/9/37 70/10/37 75/9/38
f 78/9/40 72/10/39 77/9/39
f 72/10/39 78/9/40 74/10/40
f 77/9/42 72/10/42 78/9/41
f 74/10/41 78/9/41 72/10/42
f 71/10/43 75/9/35 79/9/43
f 75/9/35 71/10/43 69/10/35
f 79/9/44 75/9/38 71/10/44
f 69/10/38 71/10/44 75/9/38
f 80/9/45 74/10/40 78/9/40
f 74/10/40 80/9/45 73/10/45
f 78/9/41 74/10/41 80/9/46
f 73/10/46 80/9/46 74/10/41
f 70/10/36 80/9/45 76/9/36
f 80/9/45 70/10/36 73/10/45
f 76/9/37 80/9/46 70/10/37
f 73/10/46 70/10/37 80/9/46
f 72/10/39 79/9/43 77/9/39
f 79/9/43 72/10/39 71/10/43
f 77/9/42 79/9/44 72/10/42
f 71/10/44 72/10/42 79/9/44

g snow-tile-spawn-end




usemtl colormap

f 3/1/1 2/2/1 1/1/1
f 2/2/1 3/1/1 4/2/1
f 1/1/2 2/2/2 3/1/2
f 4/2/2 3/1/2 2/2/2
f 5/2/3 2/2/3 4/2/3
f 2/2/3 5/2/3 6/2/3
f 4/2/4 2/2/4 5/2/4
f 6/2/4 5/2/4 2/2/4
f 9/1/4 8/1/4 7/1/4
f 10/1/4 8/1/4 9/1/4
f 11/1/4 8/1/4 10/1/4
f 8/1/4 11/1/4 1/1/4
f 12/1/4 1/1/4 11/1/4
f 1/1/4 12/1/4 3/1/4
f 7/1/3 8/1/3 9/1/3
f 9/1/3 8/1/3 10/1/3
f 10/1/3 8/1/3 11/1/3
f 1/1/3 11/1/3 8/1/3
f 11/1/3 1/1/3 12/1/3
f 3/1/3 12/1/3 1/1/3
f 5/2/2 8/1/2 6/2/2
f 8/1/2 5/2/2 7/1/2
f 6/2/1 8/1/1 5/2/1
f 7/1/1 5/2/1 8/1/1
f 13/3/5 3/1/5 12/1/5
f 13/3/5 4/2/5 3/1/5
f 4/2/5 13/3/5 5/2/5
f 14/3/5 5/2/5 13/3/5
f 5/2/5 14/3/5 7/1/5
f 7/1/5 14/3/5 9/1/5
f 12/1/6 3/1/6 13/3/6
f 3/1/6 4/2/6 13/3/6
f 5/2/6 13/3/6 4/2/6
f 13/3/6 5/2/6 14/3/6
f 7/1/6 14/3/6 5/2/6
f 9/1/6 14/3/6 7/1/6
f 8/1/6 2/2/6 6/2/6
f 2/2/6 8/1/6 1/1/6
f 6/2/5 2/2/5 8/1/5
f 1/1/5 8/1/5 2/2/5
f 17/4/4 16/4/4 15/4/4
f 16/4/4 17/4/4 18/4/4
f 15/4/3 16/4/3 17/4/3
f 18/4/3 17/4/3 16/4/3
f 20/5/2 17/4/2 19/5/2
f 17/4/2 20/5/2 18/4/2
f 19/5/1 17/4/1 20/5/1
f 18/4/1 20/5/1 17/4/1
f 17/4/6 21/5/6 19/5/6
f 21/5/6 17/4/6 15/4/6
f 19/5/5 21/5/5 17/4/5
f 15/4/5 17/4/5 21/5/5
f 16/4/1 21/5/1 15/4/1
f 21/5/1 16/4/1 22/5/1
f 15/4/2 21/5/2 16/4/2
f 22/5/2 16/4/2 21/5/2
f 16/4/5 20/5/5 22/5/5
f 20/5/5 16/4/5 18/4/5
f 22/5/6 20/5/6 16/4/6
f 18/4/6 16/4/6 20/5/6
f 25/4/4 24/4/4 23/4/4
f 24/4/4 25/4/4 26/4/4
f 23/4/3 24/4/3 25/4/3
f 26/4/3 25/4/3 24/4/3
f 28/5/2 25/4/2 27/5/2
f 25/4/2 28/5/2 26/4/2
f 27/5/1 25/4/1 28/5/1
f 26/4/1 28/5/1 25/4/1
f 25/4/6 29/5/6 27/5/6
f 29/5/6 25/4/6 23/4/6
f 27/5/5 29/5/5 25/4/5
f 23/4/5 25/4/5 29/5/5
f 24/4/1 29/5/1 23/4/1
f 29/5/1 24/4/1 30/5/1
f 23/4/2 29/5/2 24/4/2
f 30/5/2 24/4/2 29/5/2
f 24/4/5 28/5/5 30/5/5
f 28/5/5 24/4/5 26/4/5
f 30/5/6 28/5/6 24/4/6
f 26/4/6 24/4/6 28/5/6
f 33/4/4 32/4/4 31/4/4
f 32/4/4 33/4/4 34/4/4
f 31/4/3 32/4/3 33/4/3
f 34/4/3 33/4/3 32/4/3
f 36/5/2 33/4/2 35/5/2
f 33/4/2 36/5/2 34/4/2
f 35/5/1 33/4/1 36/5/1
f 34/4/1 36/5/1 33/4/1
f 33/4/6 37/5/6 35/5/6
f 37/5/6 33/4/6 31/4/6
f 35/5/5 37/5/5 33/4/5
f 31/4/5 33/4/5 37/5/5
f 32/4/1 37/5/1 31/4/1
f 37/5/1 32/4/1 38/5/1
f 31/4/2 37/5/2 32/4/2
f 38/5/2 32/4/2 37/5/2
f 32/4/5 36/5/5 38/5/5
f 36/5/5 32/4/5 34/4/5
f 38/5/6 36/5/6 32/4/6
f 34/4/6 32/4/6 36/5/6
f 41/4/9 40/6/8 39/6/7
f 40/6/8 41/4/9 42/4/10
f 39/6/13 40/6/12 41/4/11
f 42/4/14 41/4/11 40/6/12
f 45/6/17 44/4/16 43/6/15
f 44/4/16 45/6/17 46/4/18
f 43/6/21 44/4/20 45/6/19
f 46/4/22 45/6/19 44/4/20
f 44/4/16 39/6/7 43/6/15
f 39/6/7 44/4/16 41/4/9
f 43/6/21 39/6/13 44/4/20
f 41/4/11 44/4/20 39/6/13
f 42/4/10 45/6/17 40/6/8
f 45/6/17 42/4/10 46/4/18
f 40/6/12 45/6/19 42/4/14
f 46/4/22 42/4/14 45/6/19
f 48/4/3 44/4/3 47/4/3
f 49/4/3 44/4/3 48/4/3
f 44/4/3 41/4/3 47/4/3
f 44/4/3 49/4/3 46/4/3
f 42/4/3 47/4/3 41/4/3
f 49/4/3 50/4/3 46/4/3
f 47/4/3 42/4/3 50/4/3
f 46/4/3 50/4/3 42/4/3
f 47/4/4 44/4/4 48/4/4
f 48/4/4 44/4/4 49/4/4
f 47/4/4 41/4/4 44/4/4
f 46/4/4 49/4/4 44/4/4
f 41/4/4 47/4/4 42/4/4
f 46/4/4 50/4/4 49/4/4
f 42/4/4 50/4/4 46/4/4
f 50/4/4 42/4/4 47/4/4
f 53/4/4 52/4/4 51/4/4
f 52/4/4 53/4/4 54/4/4
f 51/4/3 52/4/3 53/4/3
f 54/4/3 53/4/3 52/4/3
f 56/5/2 53/4/2 55/5/2
f 53/4/2 56/5/2 54/4/2
f 55/5/1 53/4/1 56/5/1
f 54/4/1 56/5/1 53/4/1
f 53/4/6 57/5/6 55/5/6
f 57/5/6 53/4/6 51/4/6
f 55/5/5 57/5/5 53/4/5
f 51/4/5 53/4/5 57/5/5
f 52/4/1 57/5/1 51/4/1
f 57/5/1 52/4/1 58/5/1
f 51/4/2 57/5/2 52/4/2
f 58/5/2 52/4/2 57/5/2
f 52/4/5 56/5/5 58/5/5
f 56/5/5 52/4/5 54/4/5
f 58/5/6 56/5/6 52/4/6
f 54/4/6 52/4/6 56/5/6
f 49/7/24 59/8/23 48/7/23
f 59/8/23 49/7/24 60/8/24
f 48/7/26 59/8/26 49/7/25
f 60/8/25 49/7/25 59/8/26
f 49/7/24 61/8/26 60/8/24
f 61/8/26 49/7/24 50/7/26
f 60/8/25 61/8/23 49/7/25
f 50/7/23 49/7/25 61/8/23
f 61/8/26 47/7/25 62/8/25
f 47/7/25 61/8/26 50/7/26
f 62/8/24 47/7/24 61/8/23
f 50/7/23 61/8/23 47/7/24
f 47/7/25 59/8/23 62/8/25
f 59/8/23 47/7/25 48/7/23
f 62/8/24 59/8/26 47/7/24
f 48/7/26 47/7/24 59/8/26
f 59/8/4 61/8/4 62/8/4
f 61/8/4 59/8/4 60/8/4
f 62/8/3 61/8/3 59/8/3
f 60/8/3 59/8/3 61/8/3
f 9/9/1 63/10/27 10/9/1
f 63/10/27 9/9/1 14/10/28
f 10/9/2 63/10/29 9/9/2
f 14/10/30 9/9/2 63/10/29
f 13/10/32 11/9/2 64/10/31
f 11/9/2 13/10/32 12/9/2
f 64/10/34 11/9/1 13/10/33
f 12/9/1 13/10/33 11/9/1
f 11/9/5 63/10/27 64/10/31
f 63/10/27 11/9/5 10/9/5
f 64/10/34 63/10/29 11/9/6
f 10/9/6 11/9/6 63/10/29
f 14/10/30 65/10/3 13/10/33
f 64/10/34 13/10/33 65/10/3
f 66/10/3 65/10/3 14/10/30
f 67/10/3 64/10/34 65/10/3
f 63/10/29 66/10/3 14/10/30
f 64/10/34 67/10/3 63/10/29
f 66/10/3 63/10/29 68/10/3
f 68/10/3 63/10/29 67/10/3
f 13/10/32 65/10/4 14/10/28
f 65/10/4 13/10/32 64/10/31
f 14/10/28 65/10/4 66/10/4
f 65/10/4 64/10/31 67/10/4
f 14/10/28 66/10/4 63/10/27
f 63/10/27 67/10/4 64/10/31
f 68/10/4 63/10/27 66/10/4
f 67/10/4 63/10/27 68/10/4
f 71/10/4 70/10/4 69/10/4
f 70/10/4 71/10/4 72/10/4
f 70/10/4 72/10/4 73/10/4
f 73/10/4 72/10/4 74/10/4
f 69/10/3 70/10/3 71/10/3
f 72/10/3 71/10/3 70/10/3
f 73/10/3 72/10/3 70/10/3
f 74/10/3 72/10/3 73/10/3
f 70/10/36 75/9/35 69/10/35
f 75/9/35 70/10/36 76/9/36
f 69/10/38 75/9/38 70/10/37
f 76/9/37 70/10/37 75/9/38
f 78/9/40 72/10/39 77/9/39
f 72/10/39 78/9/40 74/10/40
f 77/9/42 72/10/42 78/9/41
f 74/10/41 78/9/41 72/10/42
f 71/10/43 75/9/35 79/9/43
f 75/9/35 71/10/43 69/10/35
f 79/9/44 75/9/38 71/10/44
f 69/10/38 71/10/44 75/9/38
f 80/9/45 74/10/40 78/9/40
f 74/10/40 80/9/45 73/10/45
f 78/9/41 74/10/41 80/9/46
f 73/10/46 80/9/46 74/10/41
f 70/10/36 80/9/45 76/9/36
f 80/9/45 70/10/36 73/10/45
f 76/9/37 80/9/46 70/10/37
f 73/10/46 70/10/37 80/9/46
f 72/10/39 79/9/43 77/9/39
f 79/9/43 72/10/39 71/10/43
f 77/9/42 79/9/44 72/10/42
f 71/10/44 72/10/42 79/9/44

