# Created by Kenney (www.kenney.nl)

mtllib spawn-round.mtl

g spawn-round

v 0.243068 0.05 0.1591874 1 1 1
v 0.243068 0 0.1591874 1 1 1
v 0.3269485 0.05 0.243068 1 1 1
v 0.3269485 0 0.243068 1 1 1
v 0.1591874 0 0.243068 1 1 1
v 0.1591874 0.05 0.243068 1 1 1
v 0.243068 0 0.3269485 1 1 1
v 0.243068 0.05 0.3269485 1 1 1
v 0.243068 0.05 -0.3269485 1 1 1
v 0.243068 0 -0.3269485 1 1 1
v 0.3269485 0.05 -0.243068 1 1 1
v 0.3269485 0 -0.243068 1 1 1
v 0.1591874 0 -0.243068 1 1 1
v 0.1591874 0.05 -0.243068 1 1 1
v 0.243068 0 -0.1591874 1 1 1
v 0.243068 0.05 -0.1591874 1 1 1
v -0.3269485 0 -0.243068 1 1 1
v -0.3269485 0.05 -0.243068 1 1 1
v -0.243068 0 -0.1591874 1 1 1
v -0.243068 0.05 -0.1591874 1 1 1
v -0.1591874 0 -0.243068 1 1 1
v -0.1591874 0.05 -0.243068 1 1 1
v -0.243068 0 -0.3269485 1 1 1
v -0.243068 0.05 -0.3269485 1 1 1
v -0.3269485 0 0.243068 1 1 1
v -0.3269485 0.05 0.243068 1 1 1
v -0.243068 0 0.3269485 1 1 1
v -0.243068 0.05 0.3269485 1 1 1
v -0.1591874 0.05 0.243068 1 1 1
v -0.243068 0.05 0.1591874 1 1 1
v -0.243068 0 0.1591874 1 1 1
v -0.1591874 0 0.243068 1 1 1
v 0.243068 0 -0.243068 1 1 1
v 0.34375 0 1.466382E-13 1 1 1
v 0.1941008 0.1 -0.1941008 1 1 1
v 0.2745 0.1 1.177618E-13 1 1 1
v 1.472699E-13 0 -0.34375 1 1 1
v 1.155058E-13 0.1 -0.2745 1 1 1
v -0.243068 0 -0.243068 1 1 1
v -0.1941008 0.1 -0.1941008 1 1 1
v -0.34375 0 -1.464578E-13 1 1 1
v -0.2745 0.1 -1.174008E-13 1 1 1
v -0.243068 0 0.243068 1 1 1
v -0.1941008 0.1 0.1941008 1 1 1
v 0.243068 0 0.243068 1 1 1
v -1.472699E-13 0 0.34375 1 1 1
v 0.1941008 0.1 0.1941008 1 1 1
v -1.155058E-13 0.1 0.2745 1 1 1
v 0.1662608 0.1 7.04766E-14 1 1 1
v 0.1175641 0.1 -0.1175641 1 1 1
v 0.1175641 0.1 0.1175641 1 1 1
v 7.219114E-14 0.1 -0.1662608 1 1 1
v -7.219114E-14 0.1 0.1662608 1 1 1
v -0.1175641 0.1 0.1175641 1 1 1
v -0.1175641 0.1 -0.1175641 1 1 1
v -0.1662608 0.1 -7.065708E-14 1 1 1
v 7.219114E-14 0 -0.1662608 1 1 1
v -0.1175641 0 -0.1175641 1 1 1
v -0.1662608 0 -7.065708E-14 1 1 1
v -0.1175641 0 0.1175641 1 1 1
v -7.219114E-14 0 0.1662608 1 1 1
v 0.1662608 0 7.04766E-14 1 1 1
v 0.1175641 0 0.1175641 1 1 1
v 0.1175641 0 -0.1175641 1 1 1

vn 0.7071068 0 -0.7071068
vn -0.7071068 0 0.7071068
vn -0.7071068 0 -0.7071068
vn 0.7071068 0 0.7071068
vn 0 1 0
vn 0 -1 0
vn 0.5813254 0.5693169 -0.5813254
vn 0.8221182 0.5693169 0
vn -0.5813254 -0.5693169 0.5813254
vn -0.8221182 -0.5693169 0
vn 0 0.5693169 -0.8221182
vn 0 -0.5693169 0.8221182
vn -0.5813254 0.5693169 -0.5813254
vn 0.5813254 -0.5693169 0.5813254
vn -0.8221182 0.5693169 0
vn 0.8221182 -0.5693169 0
vn -0.5813254 0.5693169 0.5813254
vn 0.5813254 -0.5693169 -0.5813254
vn 0.5813254 0.5693169 0.5813254
vn 0 0.5693169 0.8221182
vn -0.5813254 -0.5693169 -0.5813254
vn 0 -0.5693169 -0.8221182
vn 0 0 1
vn 0 0 -1
vn 1 0 0
vn -1 0 0

vt 0.84375 0.225
vt 0.84375 0.025
vt 0.84375 0.09166666
vt 0.59375 0.09166666
vt 0.59375 0.225

usemtl colormap

f 3/1/1 2/2/1 1/1/1
f 2/2/1 3/1/1 4/2/1
f 1/1/2 2/2/2 3/1/2
f 4/2/2 3/1/2 2/2/2
f 6/1/3 2/2/3 5/2/3
f 2/2/3 6/1/3 1/1/3
f 5/2/4 2/2/4 6/1/4
f 1/1/4 6/1/4 2/2/4
f 3/1/4 7/2/4 4/2/4
f 7/2/4 3/1/4 8/1/4
f 4/2/3 7/2/3 3/1/3
f 8/1/3 3/1/3 7/2/3
f 1/1/5 8/1/5 3/1/5
f 8/1/5 1/1/5 6/1/5
f 3/1/6 8/1/6 1/1/6
f 6/1/6 1/1/6 8/1/6
f 7/2/2 6/1/2 5/2/2
f 6/1/2 7/2/2 8/1/2
f 5/2/1 6/1/1 7/2/1
f 8/1/1 7/2/1 6/1/1
f 11/1/1 10/2/1 9/1/1
f 10/2/1 11/1/1 12/2/1
f 9/1/2 10/2/2 11/1/2
f 12/2/2 11/1/2 10/2/2
f 14/1/3 10/2/3 13/2/3
f 10/2/3 14/1/3 9/1/3
f 13/2/4 10/2/4 14/1/4
f 9/1/4 14/1/4 10/2/4
f 11/1/4 15/2/4 12/2/4
f 15/2/4 11/1/4 16/1/4
f 12/2/3 15/2/3 11/1/3
f 16/1/3 11/1/3 15/2/3
f 15/2/2 14/1/2 13/2/2
f 14/1/2 15/2/2 16/1/2
f 13/2/1 14/1/1 15/2/1
f 16/1/1 15/2/1 14/1/1
f 9/1/5 16/1/5 11/1/5
f 16/1/5 9/1/5 14/1/5
f 11/1/6 16/1/6 9/1/6
f 14/1/6 9/1/6 16/1/6
f 19/2/2 18/1/2 17/2/2
f 18/1/2 19/2/2 20/1/2
f 17/2/1 18/1/1 19/2/1
f 20/1/1 19/2/1 18/1/1
f 22/1/4 19/2/4 21/2/4
f 19/2/4 22/1/4 20/1/4
f 21/2/3 19/2/3 22/1/3
f 20/1/3 22/1/3 19/2/3
f 18/1/3 23/2/3 17/2/3
f 23/2/3 18/1/3 24/1/3
f 17/2/4 23/2/4 18/1/4
f 24/1/4 18/1/4 23/2/4
f 22/1/1 23/2/1 24/1/1
f 23/2/1 22/1/1 21/2/1
f 24/1/2 23/2/2 22/1/2
f 21/2/2 22/1/2 23/2/2
f 24/1/5 20/1/5 22/1/5
f 20/1/5 24/1/5 18/1/5
f 22/1/6 20/1/6 24/1/6
f 18/1/6 24/1/6 20/1/6
f 27/2/2 26/1/2 25/2/2
f 26/1/2 27/2/2 28/1/2
f 25/2/1 26/1/1 27/2/1
f 28/1/1 27/2/1 26/1/1
f 30/1/5 28/1/5 29/1/5
f 28/1/5 30/1/5 26/1/5
f 29/1/6 28/1/6 30/1/6
f 26/1/6 30/1/6 28/1/6
f 26/1/3 31/2/3 25/2/3
f 31/2/3 26/1/3 30/1/3
f 25/2/4 31/2/4 26/1/4
f 30/1/4 26/1/4 31/2/4
f 29/1/4 27/2/4 32/2/4
f 27/2/4 29/1/4 28/1/4
f 32/2/3 27/2/3 29/1/3
f 28/1/3 29/1/3 27/2/3
f 29/1/1 31/2/1 30/1/1
f 31/2/1 29/1/1 32/2/1
f 30/1/2 31/2/2 29/1/2
f 32/2/2 29/1/2 31/2/2
f 35/1/7 34/3/8 33/3/7
f 34/3/8 35/1/7 36/1/8
f 33/3/9 34/3/10 35/1/9
f 36/1/10 35/1/9 34/3/10
f 38/1/11 33/3/7 37/3/11
f 33/3/7 38/1/11 35/1/7
f 37/3/12 33/3/9 38/1/12
f 35/1/9 38/1/12 33/3/9
f 40/1/13 37/3/11 39/3/13
f 37/3/11 40/1/13 38/1/11
f 39/3/14 37/3/12 40/1/14
f 38/1/12 40/1/14 37/3/12
f 41/3/15 40/1/13 39/3/13
f 40/1/13 41/3/15 42/1/15
f 39/3/14 40/1/14 41/3/16
f 42/1/16 41/3/16 40/1/14
f 43/3/17 42/1/15 41/3/15
f 42/1/15 43/3/17 44/1/17
f 41/3/16 42/1/16 43/3/18
f 44/1/18 43/3/18 42/1/16
f 47/1/19 46/3/20 45/3/19
f 46/3/20 47/1/19 48/1/20
f 45/3/21 46/3/22 47/1/21
f 48/1/22 47/1/21 46/3/22
f 47/1/19 34/3/8 36/1/8
f 34/3/8 47/1/19 45/3/19
f 36/1/10 34/3/10 47/1/21
f 45/3/21 47/1/21 34/3/10
f 35/1/5 47/1/5 36/1/5
f 47/1/5 35/1/5 49/1/5
f 49/1/5 35/1/5 50/1/5
f 51/1/5 47/1/5 49/1/5
f 50/1/5 35/1/5 38/1/5
f 50/1/5 38/1/5 52/1/5
f 47/1/5 51/1/5 48/1/5
f 48/1/5 51/1/5 53/1/5
f 48/1/5 53/1/5 54/1/5
f 52/1/5 38/1/5 40/1/5
f 48/1/5 54/1/5 44/1/5
f 52/1/5 40/1/5 55/1/5
f 44/1/5 54/1/5 56/1/5
f 55/1/5 40/1/5 56/1/5
f 44/1/5 56/1/5 40/1/5
f 44/1/5 40/1/5 42/1/5
f 36/1/6 47/1/6 35/1/6
f 49/1/6 35/1/6 47/1/6
f 49/1/6 47/1/6 51/1/6
f 50/1/6 35/1/6 49/1/6
f 38/1/6 35/1/6 50/1/6
f 52/1/6 38/1/6 50/1/6
f 48/1/6 51/1/6 47/1/6
f 53/1/6 51/1/6 48/1/6
f 54/1/6 53/1/6 48/1/6
f 40/1/6 38/1/6 52/1/6
f 44/1/6 54/1/6 48/1/6
f 55/1/6 40/1/6 52/1/6
f 56/1/6 54/1/6 44/1/6
f 56/1/6 40/1/6 55/1/6
f 40/1/6 56/1/6 44/1/6
f 42/1/6 40/1/6 44/1/6
f 48/1/20 43/3/17 46/3/20
f 43/3/17 48/1/20 44/1/17
f 46/3/22 43/3/18 48/1/22
f 44/1/18 48/1/22 43/3/18
f 52/5/23 58/4/4 57/4/23
f 58/4/4 52/5/23 55/5/4
f 57/4/24 58/4/3 52/5/24
f 55/5/3 52/5/24 58/4/3
f 56/5/25 58/4/4 55/5/4
f 58/4/4 56/5/25 59/4/25
f 55/5/3 58/4/3 56/5/26
f 59/4/26 56/5/26 58/4/3
f 54/5/1 59/4/25 56/5/25
f 59/4/25 54/5/1 60/4/1
f 56/5/26 59/4/26 54/5/2
f 60/4/2 54/5/2 59/4/26
f 54/5/1 61/4/24 60/4/1
f 61/4/24 54/5/1 53/5/24
f 60/4/2 61/4/23 54/5/2
f 53/5/23 54/5/2 61/4/23
f 64/4/5 63/4/5 62/4/5
f 63/4/5 64/4/5 57/4/5
f 63/4/5 57/4/5 61/4/5
f 61/4/5 57/4/5 58/4/5
f 61/4/5 58/4/5 60/4/5
f 60/4/5 58/4/5 59/4/5
f 62/4/6 63/4/6 64/4/6
f 57/4/6 64/4/6 63/4/6
f 61/4/6 57/4/6 63/4/6
f 58/4/6 57/4/6 61/4/6
f 60/4/6 58/4/6 61/4/6
f 59/4/6 58/4/6 60/4/6
f 53/5/24 63/4/3 61/4/24
f 63/4/3 53/5/24 51/5/3
f 61/4/23 63/4/4 53/5/23
f 51/5/4 53/5/23 63/4/4
f 63/4/3 49/5/26 62/4/26
f 49/5/26 63/4/3 51/5/3
f 62/4/25 49/5/25 63/4/4
f 51/5/4 63/4/4 49/5/25
f 62/4/26 50/5/2 64/4/2
f 50/5/2 62/4/26 49/5/26
f 64/4/1 50/5/1 62/4/25
f 49/5/25 62/4/25 50/5/1
f 50/5/2 57/4/23 64/4/2
f 57/4/23 50/5/2 52/5/23
f 64/4/1 57/4/24 50/5/1
f 52/5/24 50/5/1 57/4/24

g spawn-round




usemtl colormap

f 3/1/1 2/2/1 1/1/1
f 2/2/1 3/1/1 4/2/1
f 1/1/2 2/2/2 3/1/2
f 4/2/2 3/1/2 2/2/2
f 6/1/3 2/2/3 5/2/3
f 2/2/3 6/1/3 1/1/3
f 5/2/4 2/2/4 6/1/4
f 1/1/4 6/1/4 2/2/4
f 3/1/4 7/2/4 4/2/4
f 7/2/4 3/1/4 8/1/4
f 4/2/3 7/2/3 3/1/3
f 8/1/3 3/1/3 7/2/3
f 1/1/5 8/1/5 3/1/5
f 8/1/5 1/1/5 6/1/5
f 3/1/6 8/1/6 1/1/6
f 6/1/6 1/1/6 8/1/6
f 7/2/2 6/1/2 5/2/2
f 6/1/2 7/2/2 8/1/2
f 5/2/1 6/1/1 7/2/1
f 8/1/1 7/2/1 6/1/1
f 11/1/1 10/2/1 9/1/1
f 10/2/1 11/1/1 12/2/1
f 9/1/2 10/2/2 11/1/2
f 12/2/2 11/1/2 10/2/2
f 14/1/3 10/2/3 13/2/3
f 10/2/3 14/1/3 9/1/3
f 13/2/4 10/2/4 14/1/4
f 9/1/4 14/1/4 10/2/4
f 11/1/4 15/2/4 12/2/4
f 15/2/4 11/1/4 16/1/4
f 12/2/3 15/2/3 11/1/3
f 16/1/3 11/1/3 15/2/3
f 15/2/2 14/1/2 13/2/2
f 14/1/2 15/2/2 16/1/2
f 13/2/1 14/1/1 15/2/1
f 16/1/1 15/2/1 14/1/1
f 9/1/5 16/1/5 11/1/5
f 16/1/5 9/1/5 14/1/5
f 11/1/6 16/1/6 9/1/6
f 14/1/6 9/1/6 16/1/6
f 19/2/2 18/1/2 17/2/2
f 18/1/2 19/2/2 20/1/2
f 17/2/1 18/1/1 19/2/1
f 20/1/1 19/2/1 18/1/1
f 22/1/4 19/2/4 21/2/4
f 19/2/4 22/1/4 20/1/4
f 21/2/3 19/2/3 22/1/3
f 20/1/3 22/1/3 19/2/3
f 18/1/3 23/2/3 17/2/3
f 23/2/3 18/1/3 24/1/3
f 17/2/4 23/2/4 18/1/4
f 24/1/4 18/1/4 23/2/4
f 22/1/1 23/2/1 24/1/1
f 23/2/1 22/1/1 21/2/1
f 24/1/2 23/2/2 22/1/2
f 21/2/2 22/1/2 23/2/2
f 24/1/5 20/1/5 22/1/5
f 20/1/5 24/1/5 18/1/5
f 22/1/6 20/1/6 24/1/6
f 18/1/6 24/1/6 20/1/6
f 27/2/2 26/1/2 25/2/2
f 26/1/2 27/2/2 28/1/2
f 25/2/1 26/1/1 27/2/1
f 28/1/1 27/2/1 26/1/1
f 30/1/5 28/1/5 29/1/5
f 28/1/5 30/1/5 26/1/5
f 29/1/6 28/1/6 30/1/6
f 26/1/6 30/1/6 28/1/6
f 26/1/3 31/2/3 25/2/3
f 31/2/3 26/1/3 30/1/3
f 25/2/4 31/2/4 26/1/4
f 30/1/4 26/1/4 31/2/4
f 29/1/4 27/2/4 32/2/4
f 27/2/4 29/1/4 28/1/4
f 32/2/3 27/2/3 29/1/3
f 28/1/3 29/1/3 27/2/3
f 29/1/1 31/2/1 30/1/1
f 31/2/1 29/1/1 32/2/1
f 30/1/2 31/2/2 29/1/2
f 32/2/2 29/1/2 31/2/2
f 35/1/7 34/3/8 33/3/7
f 34/3/8 35/1/7 36/1/8
f 33/3/9 34/3/10 35/1/9
f 36/1/10 35/1/9 34/3/10
f 38/1/11 33/3/7 37/3/11
f 33/3/7 38/1/11 35/1/7
f 37/3/12 33/3/9 38/1/12
f 35/1/9 38/1/12 33/3/9
f 40/1/13 37/3/11 39/3/13
f 37/3/11 40/1/13 38/1/11
f 39/3/14 37/3/12 40/1/14
f 38/1/12 40/1/14 37/3/12
f 41/3/15 40/1/13 39/3/13
f 40/1/13 41/3/15 42/1/15
f 39/3/14 40/1/14 41/3/16
f 42/1/16 41/3/16 40/1/14
f 43/3/17 42/1/15 41/3/15
f 42/1/15 43/3/17 44/1/17
f 41/3/16 42/1/16 43/3/18
f 44/1/18 43/3/18 42/1/16
f 47/1/19 46/3/20 45/3/19
f 46/3/20 47/1/19 48/1/20
f 45/3/21 46/3/22 47/1/21
f 48/1/22 47/1/21 46/3/22
f 47/1/19 34/3/8 36/1/8
f 34/3/8 47/1/19 45/3/19
f 36/1/10 34/3/10 47/1/21
f 45/3/21 47/1/21 34/3/10
f 35/1/5 47/1/5 36/1/5
f 47/1/5 35/1/5 49/1/5
f 49/1/5 35/1/5 50/1/5
f 51/1/5 47/1/5 49/1/5
f 50/1/5 35/1/5 38/1/5
f 50/1/5 38/1/5 52/1/5
f 47/1/5 51/1/5 48/1/5
f 48/1/5 51/1/5 53/1/5
f 48/1/5 53/1/5 54/1/5
f 52/1/5 38/1/5 40/1/5
f 48/1/5 54/1/5 44/1/5
f 52/1/5 40/1/5 55/1/5
f 44/1/5 54/1/5 56/1/5
f 55/1/5 40/1/5 56/1/5
f 44/1/5 56/1/5 40/1/5
f 44/1/5 40/1/5 42/1/5
f 36/1/6 47/1/6 35/1/6
f 49/1/6 35/1/6 47/1/6
f 49/1/6 47/1/6 51/1/6
f 50/1/6 35/1/6 49/1/6
f 38/1/6 35/1/6 50/1/6
f 52/1/6 38/1/6 50/1/6
f 48/1/6 51/1/6 47/1/6
f 53/1/6 51/1/6 48/1/6
f 54/1/6 53/1/6 48/1/6
f 40/1/6 38/1/6 52/1/6
f 44/1/6 54/1/6 48/1/6
f 55/1/6 40/1/6 52/1/6
f 56/1/6 54/1/6 44/1/6
f 56/1/6 40/1/6 55/1/6
f 40/1/6 56/1/6 44/1/6
f 42/1/6 40/1/6 44/1/6
f 48/1/20 43/3/17 46/3/20
f 43/3/17 48/1/20 44/1/17
f 46/3/22 43/3/18 48/1/22
f 44/1/18 48/1/22 43/3/18
f 52/5/23 58/4/4 57/4/23
f 58/4/4 52/5/23 55/5/4
f 57/4/24 58/4/3 52/5/24
f 55/5/3 52/5/24 58/4/3
f 56/5/25 58/4/4 55/5/4
f 58/4/4 56/5/25 59/4/25
f 55/5/3 58/4/3 56/5/26
f 59/4/26 56/5/26 58/4/3
f 54/5/1 59/4/25 56/5/25
f 59/4/25 54/5/1 60/4/1
f 56/5/26 59/4/26 54/5/2
f 60/4/2 54/5/2 59/4/26
f 54/5/1 61/4/24 60/4/1
f 61/4/24 54/5/1 53/5/24
f 60/4/2 61/4/23 54/5/2
f 53/5/23 54/5/2 61/4/23
f 64/4/5 63/4/5 62/4/5
f 63/4/5 64/4/5 57/4/5
f 63/4/5 57/4/5 61/4/5
f 61/4/5 57/4/5 58/4/5
f 61/4/5 58/4/5 60/4/5
f 60/4/5 58/4/5 59/4/5
f 62/4/6 63/4/6 64/4/6
f 57/4/6 64/4/6 63/4/6
f 61/4/6 57/4/6 63/4/6
f 58/4/6 57/4/6 61/4/6
f 60/4/6 58/4/6 61/4/6
f 59/4/6 58/4/6 60/4/6
f 53/5/24 63/4/3 61/4/24
f 63/4/3 53/5/24 51/5/3
f 61/4/23 63/4/4 53/5/23
f 51/5/4 53/5/23 63/4/4
f 63/4/3 49/5/26 62/4/26
f 49/5/26 63/4/3 51/5/3
f 62/4/25 49/5/25 63/4/4
f 51/5/4 63/4/4 49/5/25
f 62/4/26 50/5/2 64/4/2
f 50/5/2 62/4/26 49/5/26
f 64/4/1 50/5/1 62/4/25
f 49/5/25 62/4/25 50/5/1
f 50/5/2 57/4/23 64/4/2
f 57/4/23 50/5/2 52/5/23
f 64/4/1 57/4/24 50/5/1
f 52/5/24 50/5/1 57/4/24

