# Created by Kenney (www.kenney.nl)

mtllib tile-straight-slope.mtl

g tile-straight-slope

v 0.5 0 0.5 1 1 1
v 0.5 0 -0.5 1 1 1
v -0.5 0 0.5 1 1 1
v -0.5 0 -0.5 1 1 1
v 0.375 0.2 0.5 1 1 1
v 0.5 0.2 0.5 1 1 1
v 0.375 0.1 0.5 1 1 1
v -0.375 0.1 0.5 1 1 1
v -0.5 0.2 0.5 1 1 1
v -0.375 0.2 0.5 1 1 1
v -0.5 0.4 -0.5 1 1 1
v -0.375 0.4 -0.5 1 1 1
v -0.375 0.3 -0.5 1 1 1
v 0.375 0.3 -0.5 1 1 1
v 0.5 0.4 -0.5 1 1 1
v 0.375 0.4 -0.5 1 1 1
v -0.375 0.1 0.5 1 1 1
v 0.375 0.1 0.5 1 1 1
v -0.09131905 0.1566111 0.2984016 1 1 1
v -0.1387239 0.1579921 0.2914962 1 1 1
v -0.06151804 0.1639718 0.2615977 1 1 1
v -0.07912181 0.1727137 0.2178885 1 1 1
v -0.1563276 0.166734 0.2477871 1 1 1
v -0.1265266 0.1740947 0.2109832 1 1 1
v -0.08545113 0.1380323 0.3098384 1 1 1
v -0.1486575 0.1398737 0.3006313 1 1 1
v -0.06918814 0.1595025 0.2024876 1 1 1
v -0.1323945 0.1613439 0.1932805 1 1 1
v -0.04571643 0.1478467 0.2607665 1 1 1
v -0.1721292 0.1515295 0.2423523 1 1 1
v -0.3001944 0.1553813 0.3860074 1 1 1
v -0.2863298 0.1643782 0.3410226 1 1 1
v -0.2673971 0.148528 0.4202737 1 1 1
v -0.2207353 0.1506717 0.4095551 1 1 1
v -0.239668 0.1665219 0.330304 1 1 1
v -0.2068708 0.1596687 0.3645703 1 1 1
v -0.3157483 0.1233371 0.3833143 1 1 1
v -0.2972623 0.1353331 0.3233345 1 1 1
v -0.2098029 0.1170577 0.4147113 1 1 1
v -0.1913169 0.1290537 0.3547316 1 1 1
v -0.2720186 0.1141995 0.4290027 1 1 1
v -0.2350465 0.1381914 0.3090432 1 1 1
v 0.2515098 0.2820359 -0.3287224 1 1 1
v 0.2236273 0.2743914 -0.2905003 1 1 1
v 0.2316942 0.2905937 -0.3715116 1 1 1
v 0.1839961 0.2915071 -0.3760786 1 1 1
v 0.1759291 0.2753048 -0.2950673 1 1 1
v 0.1561135 0.2838627 -0.3378564 1 1 1
v 0.2674092 0.2660666 -0.3303331 1 1 1
v 0.2302325 0.255874 -0.2793702 1 1 1
v 0.1773909 0.2786949 -0.3934746 1 1 1
v 0.1402141 0.2685024 -0.3425117 1 1 1
v 0.2409884 0.2774771 -0.3873852 1 1 1
v 0.166635 0.2570919 -0.2854595 1 1 1

vn 0 -1 0
vn 0 1 0
vn 0 0 1
vn 0 0 -1
vn -1 0 0
vn 1 0 0
vn 0 0.9805807 0.1961161
vn 0 -0.9805807 -0.1961161
vn 0.7476045 0.651247 0.1302494
vn 0.6582206 0.7382057 0.1476412
vn -0.7476045 -0.651247 -0.1302494
vn -0.6582206 -0.7382057 -0.1476412
vn -0.6582206 0.7382057 0.1476412
vn -0.7476045 0.651247 0.1302494
vn 0.7476045 -0.651247 -0.1302494
vn 0.6582206 -0.7382057 -0.1476412
vn -2.126816E-08 0.9805807 0.1961161
vn 2.126816E-08 -0.9805807 -0.1961161
vn 0.2597339 0.5643944 0.7835798
vn -0.4396976 0.5847712 0.6816955
vn 0.4396976 -0.5847712 -0.6816955
vn -0.2597339 -0.5643944 -0.7835798
vn 0.4396975 0.8019793 -0.4043454
vn -0.2597339 0.8223562 -0.5062296
vn 0.2597339 -0.8223562 0.5062296
vn -0.4396975 -0.8019793 0.4043454
vn 0.6994315 0.6729984 0.2405593
vn -0.6994315 -0.6729984 -0.2405593
vn -0.6994315 0.7137522 0.0367908
vn 0.6994315 -0.7137522 -0.0367908
vn -7.598131E-09 0.9805807 0.1961161
vn 7.598131E-09 -0.9805807 -0.1961161
vn -0.8708518 0.3985209 0.2877465
vn -0.6120971 0.5664318 -0.5518081
vn 0.6120971 -0.5664318 0.5518081
vn 0.8708518 -0.3985209 -0.2877465
vn 0.6120971 0.3106263 0.7272196
vn 0.8708518 0.4785372 -0.112335
vn -0.8708518 -0.4785372 0.112335
vn -0.6120971 -0.3106263 -0.7272196
vn -0.2587547 0.2706182 0.9272603
vn 0.2587547 -0.2706182 -0.9272603
vn 0.2587547 0.6064399 -0.7518488
vn -0.2587547 -0.6064399 0.7518488
vn -5.698598E-09 0.9805806 0.1961162
vn 5.698598E-09 -0.9805806 -0.1961162
vn 0.7037598 0.6798985 0.2060586
vn 0.2923684 0.5671092 0.7700052
vn -0.2923684 -0.5671092 -0.7700052
vn -0.7037598 -0.6798985 -0.2060586
vn -0.2923684 0.8196413 -0.4926551
vn -0.7037598 0.706852 0.07129153
vn 0.7037598 -0.706852 -0.07129153
vn 0.2923684 -0.8196413 0.4926551
vn 0.4113914 0.8061646 -0.4252715
vn -0.4113914 -0.8061646 0.4252715
vn -0.4113914 0.5805859 0.7026217
vn 0.4113914 -0.5805859 -0.7026217

vt 0.59375 0.275
vt 0.59375 0.375
vt 0.59375 0.325
vt 0.59375 0.475
vt 0.59375 0.425
vt 0.09375 0.325
vt 0.09375 0.365
vt 0.09375 0.405
vt 0.09375 0.425

usemtl colormap

f 3/1/1 2/1/1 1/1/1
f 2/1/1 3/1/1 4/1/1
f 1/1/2 2/1/2 3/1/2
f 4/1/2 3/1/2 2/1/2
f 7/3/3 6/2/3 5/2/3
f 7/3/3 1/1/3 6/2/3
f 1/1/3 7/3/3 3/1/3
f 8/3/3 3/1/3 7/3/3
f 3/1/3 8/3/3 9/2/3
f 9/2/3 8/3/3 10/2/3
f 5/2/4 6/2/4 7/3/4
f 6/2/4 1/1/4 7/3/4
f 3/1/4 7/3/4 1/1/4
f 7/3/4 3/1/4 8/3/4
f 9/2/4 8/3/4 3/1/4
f 10/2/4 8/3/4 9/2/4
f 3/1/5 11/4/5 4/1/5
f 11/4/5 3/1/5 9/2/5
f 4/1/6 11/4/6 3/1/6
f 9/2/6 3/1/6 11/4/6
f 13/5/4 11/4/4 12/4/4
f 13/5/4 4/1/4 11/4/4
f 4/1/4 13/5/4 2/1/4
f 14/5/4 2/1/4 13/5/4
f 2/1/4 14/5/4 15/4/4
f 15/4/4 14/5/4 16/4/4
f 12/4/3 11/4/3 13/5/3
f 11/4/3 4/1/3 13/5/3
f 2/1/3 13/5/3 4/1/3
f 13/5/3 2/1/3 14/5/3
f 15/4/3 14/5/3 2/1/3
f 16/4/3 14/5/3 15/4/3
f 6/2/6 2/1/6 15/4/6
f 2/1/6 6/2/6 1/1/6
f 15/4/5 2/1/5 6/2/5
f 1/1/5 6/2/5 2/1/5
f 12/4/7 9/2/7 10/2/7
f 9/2/7 12/4/7 11/4/7
f 10/2/8 9/2/8 12/4/8
f 11/4/8 12/4/8 9/2/8
f 15/4/7 5/2/7 6/2/7
f 5/2/7 15/4/7 16/4/7
f 6/2/8 5/2/8 15/4/8
f 16/4/8 15/4/8 5/2/8
f 10/8/6 13/7/9 12/6/6
f 13/7/9 10/8/6 17/9/10
f 12/6/5 13/7/11 10/8/5
f 17/9/12 10/8/5 13/7/11
f 14/7/14 17/9/10 18/9/13
f 17/9/10 14/7/14 13/7/9
f 18/9/16 17/9/12 14/7/15
f 13/7/11 14/7/15 17/9/12
f 18/9/13 16/6/5 14/7/14
f 16/6/5 18/9/13 5/8/5
f 14/7/15 16/6/6 18/9/16
f 5/8/6 18/9/16 16/6/6
f 21/9/17 20/9/17 19/9/17
f 20/9/17 21/9/17 22/9/17
f 20/9/17 22/9/17 23/9/17
f 23/9/17 22/9/17 24/9/17
f 19/9/18 20/9/18 21/9/18
f 22/9/18 21/9/18 20/9/18
f 23/9/18 22/9/18 20/9/18
f 24/9/18 22/9/18 23/9/18
f 20/9/20 25/6/19 19/9/19
f 25/6/19 20/9/20 26/6/20
f 19/9/22 25/6/22 20/9/21
f 26/6/21 20/9/21 25/6/22
f 28/6/24 22/9/23 27/6/23
f 22/9/23 28/6/24 24/9/24
f 27/6/26 22/9/26 28/6/25
f 24/9/25 28/6/25 22/9/26
f 21/9/27 25/6/19 29/6/27
f 25/6/19 21/9/27 19/9/19
f 29/6/28 25/6/22 21/9/28
f 19/9/22 21/9/28 25/6/22
f 30/6/29 24/9/24 28/6/24
f 24/9/24 30/6/29 23/9/29
f 28/6/25 24/9/25 30/6/30
f 23/9/30 30/6/30 24/9/25
f 20/9/20 30/6/29 26/6/20
f 30/6/29 20/9/20 23/9/29
f 26/6/21 30/6/30 20/9/21
f 23/9/30 20/9/21 30/6/30
f 22/9/23 29/6/27 27/6/23
f 29/6/27 22/9/23 21/9/27
f 27/6/26 29/6/28 22/9/26
f 21/9/28 22/9/26 29/6/28
f 33/9/31 32/9/31 31/9/31
f 32/9/31 33/9/31 34/9/31
f 32/9/31 34/9/31 35/9/31
f 35/9/31 34/9/31 36/9/31
f 31/9/32 32/9/32 33/9/32
f 34/9/32 33/9/32 32/9/32
f 35/9/32 34/9/32 32/9/32
f 36/9/32 34/9/32 35/9/32
f 32/9/34 37/6/33 31/9/33
f 37/6/33 32/9/34 38/6/34
f 31/9/36 37/6/36 32/9/35
f 38/6/35 32/9/35 37/6/36
f 40/6/38 34/9/37 39/6/37
f 34/9/37 40/6/38 36/9/38
f 39/6/40 34/9/40 40/6/39
f 36/9/39 40/6/39 34/9/40
f 33/9/41 37/6/33 41/6/41
f 37/6/33 33/9/41 31/9/33
f 41/6/42 37/6/36 33/9/42
f 31/9/36 33/9/42 37/6/36
f 42/6/43 36/9/38 40/6/38
f 36/9/38 42/6/43 35/9/43
f 40/6/39 36/9/39 42/6/44
f 35/9/44 42/6/44 36/9/39
f 32/9/34 42/6/43 38/6/34
f 42/6/43 32/9/34 35/9/43
f 38/6/35 42/6/44 32/9/35
f 35/9/44 32/9/35 42/6/44
f 34/9/37 41/6/41 39/6/37
f 41/6/41 34/9/37 33/9/41
f 39/6/40 41/6/42 34/9/40
f 33/9/42 34/9/40 41/6/42
f 45/9/45 44/9/45 43/9/45
f 44/9/45 45/9/45 46/9/45
f 44/9/45 46/9/45 47/9/45
f 47/9/45 46/9/45 48/9/45
f 43/9/46 44/9/46 45/9/46
f 46/9/46 45/9/46 44/9/46
f 47/9/46 46/9/46 44/9/46
f 48/9/46 46/9/46 47/9/46
f 44/9/48 49/6/47 43/9/47
f 49/6/47 44/9/48 50/6/48
f 43/9/50 49/6/50 44/9/49
f 50/6/49 44/9/49 49/6/50
f 52/6/52 46/9/51 51/6/51
f 46/9/51 52/6/52 48/9/52
f 51/6/54 46/9/54 52/6/53
f 48/9/53 52/6/53 46/9/54
f 45/9/55 49/6/47 53/6/55
f 49/6/47 45/9/55 43/9/47
f 53/6/56 49/6/50 45/9/56
f 43/9/50 45/9/56 49/6/50
f 54/6/57 48/9/52 52/6/52
f 48/9/52 54/6/57 47/9/57
f 52/6/53 48/9/53 54/6/58
f 47/9/58 54/6/58 48/9/53
f 44/9/48 54/6/57 50/6/48
f 54/6/57 44/9/48 47/9/57
f 50/6/49 54/6/58 44/9/49
f 47/9/58 44/9/49 54/6/58
f 46/9/51 53/6/55 51/6/51
f 53/6/55 46/9/51 45/9/55
f 51/6/54 53/6/56 46/9/54
f 45/9/56 46/9/54 53/6/56

g tile-straight-slope




usemtl colormap

f 3/1/1 2/1/1 1/1/1
f 2/1/1 3/1/1 4/1/1
f 1/1/2 2/1/2 3/1/2
f 4/1/2 3/1/2 2/1/2
f 7/3/3 6/2/3 5/2/3
f 7/3/3 1/1/3 6/2/3
f 1/1/3 7/3/3 3/1/3
f 8/3/3 3/1/3 7/3/3
f 3/1/3 8/3/3 9/2/3
f 9/2/3 8/3/3 10/2/3
f 5/2/4 6/2/4 7/3/4
f 6/2/4 1/1/4 7/3/4
f 3/1/4 7/3/4 1/1/4
f 7/3/4 3/1/4 8/3/4
f 9/2/4 8/3/4 3/1/4
f 10/2/4 8/3/4 9/2/4
f 3/1/5 11/4/5 4/1/5
f 11/4/5 3/1/5 9/2/5
f 4/1/6 11/4/6 3/1/6
f 9/2/6 3/1/6 11/4/6
f 13/5/4 11/4/4 12/4/4
f 13/5/4 4/1/4 11/4/4
f 4/1/4 13/5/4 2/1/4
f 14/5/4 2/1/4 13/5/4
f 2/1/4 14/5/4 15/4/4
f 15/4/4 14/5/4 16/4/4
f 12/4/3 11/4/3 13/5/3
f 11/4/3 4/1/3 13/5/3
f 2/1/3 13/5/3 4/1/3
f 13/5/3 2/1/3 14/5/3
f 15/4/3 14/5/3 2/1/3
f 16/4/3 14/5/3 15/4/3
f 6/2/6 2/1/6 15/4/6
f 2/1/6 6/2/6 1/1/6
f 15/4/5 2/1/5 6/2/5
f 1/1/5 6/2/5 2/1/5
f 12/4/7 9/2/7 10/2/7
f 9/2/7 12/4/7 11/4/7
f 10/2/8 9/2/8 12/4/8
f 11/4/8 12/4/8 9/2/8
f 15/4/7 5/2/7 6/2/7
f 5/2/7 15/4/7 16/4/7
f 6/2/8 5/2/8 15/4/8
f 16/4/8 15/4/8 5/2/8
f 10/8/6 13/7/9 12/6/6
f 13/7/9 10/8/6 17/9/10
f 12/6/5 13/7/11 10/8/5
f 17/9/12 10/8/5 13/7/11
f 14/7/14 17/9/10 18/9/13
f 17/9/10 14/7/14 13/7/9
f 18/9/16 17/9/12 14/7/15
f 13/7/11 14/7/15 17/9/12
f 18/9/13 16/6/5 14/7/14
f 16/6/5 18/9/13 5/8/5
f 14/7/15 16/6/6 18/9/16
f 5/8/6 18/9/16 16/6/6
f 21/9/17 20/9/17 19/9/17
f 20/9/17 21/9/17 22/9/17
f 20/9/17 22/9/17 23/9/17
f 23/9/17 22/9/17 24/9/17
f 19/9/18 20/9/18 21/9/18
f 22/9/18 21/9/18 20/9/18
f 23/9/18 22/9/18 20/9/18
f 24/9/18 22/9/18 23/9/18
f 20/9/20 25/6/19 19/9/19
f 25/6/19 20/9/20 26/6/20
f 19/9/22 25/6/22 20/9/21
f 26/6/21 20/9/21 25/6/22
f 28/6/24 22/9/23 27/6/23
f 22/9/23 28/6/24 24/9/24
f 27/6/26 22/9/26 28/6/25
f 24/9/25 28/6/25 22/9/26
f 21/9/27 25/6/19 29/6/27
f 25/6/19 21/9/27 19/9/19
f 29/6/28 25/6/22 21/9/28
f 19/9/22 21/9/28 25/6/22
f 30/6/29 24/9/24 28/6/24
f 24/9/24 30/6/29 23/9/29
f 28/6/25 24/9/25 30/6/30
f 23/9/30 30/6/30 24/9/25
f 20/9/20 30/6/29 26/6/20
f 30/6/29 20/9/20 23/9/29
f 26/6/21 30/6/30 20/9/21
f 23/9/30 20/9/21 30/6/30
f 22/9/23 29/6/27 27/6/23
f 29/6/27 22/9/23 21/9/27
f 27/6/26 29/6/28 22/9/26
f 21/9/28 22/9/26 29/6/28
f 33/9/31 32/9/31 31/9/31
f 32/9/31 33/9/31 34/9/31
f 32/9/31 34/9/31 35/9/31
f 35/9/31 34/9/31 36/9/31
f 31/9/32 32/9/32 33/9/32
f 34/9/32 33/9/32 32/9/32
f 35/9/32 34/9/32 32/9/32
f 36/9/32 34/9/32 35/9/32
f 32/9/34 37/6/33 31/9/33
f 37/6/33 32/9/34 38/6/34
f 31/9/36 37/6/36 32/9/35
f 38/6/35 32/9/35 37/6/36
f 40/6/38 34/9/37 39/6/37
f 34/9/37 40/6/38 36/9/38
f 39/6/40 34/9/40 40/6/39
f 36/9/39 40/6/39 34/9/40
f 33/9/41 37/6/33 41/6/41
f 37/6/33 33/9/41 31/9/33
f 41/6/42 37/6/36 33/9/42
f 31/9/36 33/9/42 37/6/36
f 42/6/43 36/9/38 40/6/38
f 36/9/38 42/6/43 35/9/43
f 40/6/39 36/9/39 42/6/44
f 35/9/44 42/6/44 36/9/39
f 32/9/34 42/6/43 38/6/34
f 42/6/43 32/9/34 35/9/43
f 38/6/35 42/6/44 32/9/35
f 35/9/44 32/9/35 42/6/44
f 34/9/37 41/6/41 39/6/37
f 41/6/41 34/9/37 33/9/41
f 39/6/40 41/6/42 34/9/40
f 33/9/42 34/9/40 41/6/42
f 45/9/45 44/9/45 43/9/45
f 44/9/45 45/9/45 46/9/45
f 44/9/45 46/9/45 47/9/45
f 47/9/45 46/9/45 48/9/45
f 43/9/46 44/9/46 45/9/46
f 46/9/46 45/9/46 44/9/46
f 47/9/46 46/9/46 44/9/46
f 48/9/46 46/9/46 47/9/46
f 44/9/48 49/6/47 43/9/47
f 49/6/47 44/9/48 50/6/48
f 43/9/50 49/6/50 44/9/49
f 50/6/49 44/9/49 49/6/50
f 52/6/52 46/9/51 51/6/51
f 46/9/51 52/6/52 48/9/52
f 51/6/54 46/9/54 52/6/53
f 48/9/53 52/6/53 46/9/54
f 45/9/55 49/6/47 53/6/55
f 49/6/47 45/9/55 43/9/47
f 53/6/56 49/6/50 45/9/56
f 43/9/50 45/9/56 49/6/50
f 54/6/57 48/9/52 52/6/52
f 48/9/52 54/6/57 47/9/57
f 52/6/53 48/9/53 54/6/58
f 47/9/58 54/6/58 48/9/53
f 44/9/48 54/6/57 50/6/48
f 54/6/57 44/9/48 47/9/57
f 50/6/49 54/6/58 44/9/49
f 47/9/58 44/9/49 54/6/58
f 46/9/51 53/6/55 51/6/51
f 53/6/55 46/9/51 45/9/55
f 51/6/54 53/6/56 46/9/54
f 45/9/56 46/9/54 53/6/56

