# Created by Kenney (www.kenney.nl)

mtllib tile-spawn-round.mtl

g tile-spawn-round

v 0.5 0 0.5 1 1 1
v 0.5 0 -0.5 1 1 1
v -0.5 0 0.5 1 1 1
v -0.5 0 -0.5 1 1 1
v 0.375 0.2 0.5 1 1 1
v 0.5 0.2 0.5 1 1 1
v 0.375 0.1 0.5 1 1 1
v -0.375 0.1 0.5 1 1 1
v -0.5 0.2 0.5 1 1 1
v -0.375 0.2 0.5 1 1 1
v -0.5 0.2 -0.5 1 1 1
v -0.375 0.2 -0.5 1 1 1
v -0.375 0.1 -0.5 1 1 1
v 0.375 0.1 -0.5 1 1 1
v 0.5 0.2 -0.5 1 1 1
v 0.375 0.2 -0.5 1 1 1
v -0.375 0.1 -0.5 1 1 1
v -0.375 0.1 0.5 1 1 1
v 0.375 0.1 -0.5 1 1 1
v 0.375 0.1 0.5 1 1 1
v 1.010676E-13 0.1 0.1662608 1 1 1
v -0.1175641 0.1 0.1175641 1 1 1
v -0.1662608 0.1 -2.349822E-13 1 1 1
v 0.1175641 0.1 0.1175641 1 1 1
v 0.1662608 0.1 -9.384849E-14 1 1 1
v 0.1175641 0.1 -0.1175641 1 1 1
v -0.1175641 0.1 -0.1175641 1 1 1
v 2.454499E-13 0.1 -0.1662608 1 1 1
v -0.1338118 0.13195 0.3005535 1 1 1
v -0.1199473 0.13195 0.2546778 1 1 1
v -0.1010146 0.13195 0.3354984 1 1 1
v -0.05435279 0.13195 0.3245676 1 1 1
v -0.07328551 0.13195 0.243747 1 1 1
v -0.04048825 0.13195 0.2786919 1 1 1
v -0.1493658 0.1 0.3041971 1 1 1
v -0.1308797 0.1 0.2430295 1 1 1
v -0.04342037 0.1 0.3362159 1 1 1
v -0.02493433 0.1 0.2750483 1 1 1
v -0.1056361 0.1 0.3507903 1 1 1
v -0.068664 0.1 0.2284551 1 1 1
v 0.16537 0.115975 0.4314417 1 1 1
v 0.1179652 0.115975 0.4243996 1 1 1
v 0.1951711 0.115975 0.393909 1 1 1
v 0.1775673 0.115975 0.3493342 1 1 1
v 0.1003615 0.115975 0.3798248 1 1 1
v 0.1301625 0.115975 0.3422921 1 1 1
v 0.171238 0.1 0.4463 1 1 1
v 0.1080316 0.1 0.4369105 1 1 1
v 0.187501 0.1 0.3368233 1 1 1
v 0.1242946 0.1 0.3274339 1 1 1
v 0.2109727 0.1 0.3962564 1 1 1
v 0.08455987 0.1 0.3774775 1 1 1
v -0.1459187 0.115975 -0.3549682 1 1 1
v -0.1933234 0.115975 -0.3620102 1 1 1
v -0.1161176 0.115975 -0.3925009 1 1 1
v -0.1337214 0.115975 -0.4370757 1 1 1
v -0.2109272 0.115975 -0.406585 1 1 1
v -0.1811262 0.115975 -0.4441178 1 1 1
v -0.1400507 0.1 -0.3401099 1 1 1
v -0.2032571 0.1 -0.3494993 1 1 1
v -0.1237877 0.1 -0.4495866 1 1 1
v -0.1869941 0.1 -0.458976 1 1 1
v -0.100316 0.1 -0.3901535 1 1 1
v -0.2267288 0.1 -0.4089324 1 1 1
v 0.2430677 0.15 0.1591874 1 1 1
v 0.2430677 0.1 0.1591874 1 1 1
v 0.3269483 0.15 0.243068 1 1 1
v 0.3269483 0.1 0.243068 1 1 1
v 0.1591872 0.1 0.243068 1 1 1
v 0.1591872 0.15 0.243068 1 1 1
v 0.2430677 0.1 0.3269485 1 1 1
v 0.2430677 0.15 0.3269485 1 1 1
v 0.2430677 0.15 -0.3269485 1 1 1
v 0.2430677 0.1 -0.3269485 1 1 1
v 0.3269483 0.15 -0.243068 1 1 1
v 0.3269483 0.1 -0.243068 1 1 1
v 0.1591872 0.1 -0.243068 1 1 1
v 0.1591872 0.15 -0.243068 1 1 1
v 0.2430677 0.1 -0.1591874 1 1 1
v 0.2430677 0.15 -0.1591874 1 1 1
v -0.3269483 0.1 -0.243068 1 1 1
v -0.3269483 0.15 -0.243068 1 1 1
v -0.2430677 0.1 -0.1591874 1 1 1
v -0.2430677 0.15 -0.1591874 1 1 1
v -0.1591872 0.1 -0.243068 1 1 1
v -0.1591872 0.15 -0.243068 1 1 1
v -0.2430677 0.1 -0.3269485 1 1 1
v -0.2430677 0.15 -0.3269485 1 1 1
v -0.3269483 0.1 0.243068 1 1 1
v -0.3269483 0.15 0.243068 1 1 1
v -0.2430677 0.1 0.3269485 1 1 1
v -0.2430677 0.15 0.3269485 1 1 1
v -0.1591872 0.15 0.243068 1 1 1
v -0.2430677 0.15 0.1591874 1 1 1
v -0.2430677 0.1 0.1591874 1 1 1
v -0.1591872 0.1 0.243068 1 1 1
v 0.243068 0.1 -0.243068 1 1 1
v 0.34375 0.1 -1.75966E-14 1 1 1
v 0.1941008 0.2 -0.1941008 1 1 1
v 0.2745 0.2 -4.647305E-14 1 1 1
v 3.205287E-13 0.1 -0.34375 1 1 1
v 2.887646E-13 0.2 -0.2745 1 1 1
v -0.243068 0.1 -0.243068 1 1 1
v -0.1941008 0.2 -0.1941008 1 1 1
v -0.34375 0.1 -3.106926E-13 1 1 1
v -0.2745 0.2 -2.816357E-13 1 1 1
v -0.243068 0.1 0.243068 1 1 1
v -0.1941008 0.2 0.1941008 1 1 1
v 0.243068 0.1 0.243068 1 1 1
v 2.59888E-14 0.1 0.34375 1 1 1
v 0.1941008 0.2 0.1941008 1 1 1
v 5.77529E-14 0.2 0.2745 1 1 1
v 0.1662608 0.2 -9.375825E-14 1 1 1
v 0.1175641 0.2 -0.1175641 1 1 1
v 0.1175641 0.2 0.1175641 1 1 1
v 2.454499E-13 0.2 -0.1662608 1 1 1
v 1.010676E-13 0.2 0.1662608 1 1 1
v -0.1175641 0.2 0.1175641 1 1 1
v -0.1175641 0.2 -0.1175641 1 1 1
v -0.1662608 0.2 -2.348919E-13 1 1 1
v 2.454499E-13 0.05 -0.1662608 1 1 1
v -0.1175641 0.05 -0.1175641 1 1 1
v -0.1662608 0.05 -2.348919E-13 1 1 1
v -0.1175641 0.05 0.1175641 1 1 1
v 1.010676E-13 0.05 0.1662608 1 1 1
v 0.1662608 0.05 -9.375825E-14 1 1 1
v 0.1175641 0.05 0.1175641 1 1 1
v 0.1175641 0.05 -0.1175641 1 1 1

vn 0 -1 0
vn 0 1 0
vn 0 0 1
vn 0 0 -1
vn -1 0 0
vn 1 0 0
vn 0.7071068 0.7071068 0
vn -0.7071068 -0.7071068 0
vn -0.7071068 0.7071068 0
vn 0.7071068 -0.7071068 0
vn -0.8708519 0.4472136 0.2040024
vn -0.6120972 0.4472136 -0.6521786
vn 0.6120972 -0.4472136 0.6521786
vn 0.8708519 -0.4472136 -0.2040024
vn 0.6120972 0.4472136 0.6521786
vn 0.8708519 0.4472136 -0.2040024
vn -0.8708519 -0.4472136 0.2040024
vn -0.6120972 -0.4472136 -0.6521786
vn -0.2587547 0.4472136 0.856181
vn 0.2587547 -0.4472136 -0.856181
vn 0.2587547 0.4472136 -0.856181
vn -0.2587547 -0.4472136 0.856181
vn 0.2597339 0.7071068 0.6576765
vn -0.4396976 0.7071068 0.5537744
vn 0.4396976 -0.7071068 -0.5537744
vn -0.2597339 -0.7071068 -0.6576765
vn 0.4396976 0.7071068 -0.5537744
vn -0.2597339 0.7071068 -0.6576765
vn 0.2597339 -0.7071068 0.6576765
vn -0.4396976 -0.7071068 0.5537744
vn 0.6994314 0.7071068 0.1039021
vn -0.6994314 -0.7071068 -0.1039021
vn -0.6994314 0.7071068 -0.1039021
vn 0.6994314 -0.7071068 0.1039021
vn 0.7071068 0 -0.7071068
vn -0.7071068 0 0.7071068
vn -0.7071068 0 -0.7071068
vn 0.7071068 0 0.7071068
vn 0.5813254 0.5693169 -0.5813254
vn 0.8221182 0.5693169 0
vn -0.5813254 -0.5693169 0.5813254
vn -0.8221182 -0.5693169 0
vn 0 0.5693169 -0.8221182
vn 0 -0.5693169 0.8221182
vn -0.5813254 0.5693169 -0.5813254
vn 0.5813254 -0.5693169 0.5813254
vn -0.8221182 0.5693169 0
vn 0.8221182 -0.5693169 0
vn -0.5813254 0.5693169 0.5813254
vn 0.5813254 -0.5693169 -0.5813254
vn 0.5813254 0.5693169 0.5813254
vn 0 0.5693169 0.8221182
vn -0.5813254 -0.5693169 -0.5813254
vn 0 -0.5693169 -0.8221182

vt 0.59375 0.275
vt 0.59375 0.475
vt 0.59375 0.375
vt 0.09375 0.325
vt 0.09375 0.425
vt 0.84375 0.225
vt 0.84375 0.025
vt 0.84375 0.09166666
vt 0.59375 0.025
vt 0.59375 0.225

usemtl colormap

f 3/1/1 2/1/1 1/1/1
f 2/1/1 3/1/1 4/1/1
f 1/1/2 2/1/2 3/1/2
f 4/1/2 3/1/2 2/1/2
f 7/3/3 6/2/3 5/2/3
f 7/3/3 1/1/3 6/2/3
f 1/1/3 7/3/3 3/1/3
f 8/3/3 3/1/3 7/3/3
f 3/1/3 8/3/3 9/2/3
f 9/2/3 8/3/3 10/2/3
f 5/2/4 6/2/4 7/3/4
f 6/2/4 1/1/4 7/3/4
f 3/1/4 7/3/4 1/1/4
f 7/3/4 3/1/4 8/3/4
f 9/2/4 8/3/4 3/1/4
f 10/2/4 8/3/4 9/2/4
f 3/1/5 11/2/5 4/1/5
f 11/2/5 3/1/5 9/2/5
f 4/1/6 11/2/6 3/1/6
f 9/2/6 3/1/6 11/2/6
f 13/3/4 11/2/4 12/2/4
f 13/3/4 4/1/4 11/2/4
f 4/1/4 13/3/4 2/1/4
f 14/3/4 2/1/4 13/3/4
f 2/1/4 14/3/4 15/2/4
f 15/2/4 14/3/4 16/2/4
f 12/2/3 11/2/3 13/3/3
f 11/2/3 4/1/3 13/3/3
f 2/1/3 13/3/3 4/1/3
f 13/3/3 2/1/3 14/3/3
f 15/2/3 14/3/3 2/1/3
f 16/2/3 14/3/3 15/2/3
f 6/2/6 2/1/6 15/2/6
f 2/1/6 6/2/6 1/1/6
f 15/2/5 2/1/5 6/2/5
f 1/1/5 6/2/5 2/1/5
f 12/2/2 9/2/2 10/2/2
f 9/2/2 12/2/2 11/2/2
f 10/2/1 9/2/1 12/2/1
f 11/2/1 12/2/1 9/2/1
f 15/2/2 5/2/2 6/2/2
f 5/2/2 15/2/2 16/2/2
f 6/2/1 5/2/1 15/2/1
f 16/2/1 15/2/1 5/2/1
f 10/4/6 17/5/7 12/4/6
f 17/5/7 10/4/6 18/5/7
f 12/4/5 17/5/8 10/4/5
f 18/5/8 10/4/5 17/5/8
f 20/5/9 16/4/5 19/5/9
f 16/4/5 20/5/9 5/4/5
f 19/5/10 16/4/6 20/5/10
f 5/4/6 20/5/10 16/4/6
f 22/5/1 21/5/1 18/5/8
f 23/5/1 22/5/1 18/5/8
f 21/5/1 24/5/1 18/5/8
f 18/5/8 24/5/1 20/5/10
f 18/5/8 17/5/8 23/5/1
f 19/5/10 20/5/10 24/5/1
f 25/5/1 19/5/10 24/5/1
f 25/5/1 26/5/1 19/5/10
f 17/5/8 19/5/10 26/5/1
f 23/5/1 17/5/8 27/5/1
f 28/5/1 17/5/8 26/5/1
f 27/5/1 17/5/8 28/5/1
f 18/5/7 21/5/2 22/5/2
f 18/5/7 22/5/2 23/5/2
f 18/5/7 24/5/2 21/5/2
f 20/5/9 24/5/2 18/5/7
f 23/5/2 17/5/7 18/5/7
f 24/5/2 20/5/9 19/5/9
f 24/5/2 19/5/9 25/5/2
f 19/5/9 26/5/2 25/5/2
f 26/5/2 19/5/9 17/5/7
f 27/5/2 17/5/7 23/5/2
f 26/5/2 17/5/7 28/5/2
f 28/5/2 17/5/7 27/5/2
f 31/5/2 30/5/2 29/5/2
f 30/5/2 31/5/2 32/5/2
f 30/5/2 32/5/2 33/5/2
f 33/5/2 32/5/2 34/5/2
f 29/5/1 30/5/1 31/5/1
f 32/5/1 31/5/1 30/5/1
f 33/5/1 32/5/1 30/5/1
f 34/5/1 32/5/1 33/5/1
f 30/5/12 35/4/11 29/5/11
f 35/4/11 30/5/12 36/4/12
f 29/5/14 35/4/14 30/5/13
f 36/4/13 30/5/13 35/4/14
f 38/4/16 32/5/15 37/4/15
f 32/5/15 38/4/16 34/5/16
f 37/4/18 32/5/18 38/4/17
f 34/5/17 38/4/17 32/5/18
f 31/5/19 35/4/11 39/4/19
f 35/4/11 31/5/19 29/5/11
f 39/4/20 35/4/14 31/5/20
f 29/5/14 31/5/20 35/4/14
f 40/4/21 34/5/16 38/4/16
f 34/5/16 40/4/21 33/5/21
f 38/4/17 34/5/17 40/4/22
f 33/5/22 40/4/22 34/5/17
f 30/5/12 40/4/21 36/4/12
f 40/4/21 30/5/12 33/5/21
f 36/4/13 40/4/22 30/5/13
f 33/5/22 30/5/13 40/4/22
f 32/5/15 39/4/19 37/4/15
f 39/4/19 32/5/15 31/5/19
f 37/4/18 39/4/20 32/5/18
f 31/5/20 32/5/18 39/4/20
f 43/5/2 42/5/2 41/5/2
f 42/5/2 43/5/2 44/5/2
f 42/5/2 44/5/2 45/5/2
f 45/5/2 44/5/2 46/5/2
f 41/5/1 42/5/1 43/5/1
f 44/5/1 43/5/1 42/5/1
f 45/5/1 44/5/1 42/5/1
f 46/5/1 44/5/1 45/5/1
f 42/5/24 47/4/23 41/5/23
f 47/4/23 42/5/24 48/4/24
f 41/5/26 47/4/26 42/5/25
f 48/4/25 42/5/25 47/4/26
f 50/4/28 44/5/27 49/4/27
f 44/5/27 50/4/28 46/5/28
f 49/4/30 44/5/30 50/4/29
f 46/5/29 50/4/29 44/5/30
f 43/5/31 47/4/23 51/4/31
f 47/4/23 43/5/31 41/5/23
f 51/4/32 47/4/26 43/5/32
f 41/5/26 43/5/32 47/4/26
f 52/4/33 46/5/28 50/4/28
f 46/5/28 52/4/33 45/5/33
f 50/4/29 46/5/29 52/4/34
f 45/5/34 52/4/34 46/5/29
f 42/5/24 52/4/33 48/4/24
f 52/4/33 42/5/24 45/5/33
f 48/4/25 52/4/34 42/5/25
f 45/5/34 42/5/25 52/4/34
f 44/5/27 51/4/31 49/4/27
f 51/4/31 44/5/27 43/5/31
f 49/4/30 51/4/32 44/5/30
f 43/5/32 44/5/30 51/4/32
f 55/5/2 54/5/2 53/5/2
f 54/5/2 55/5/2 56/5/2
f 54/5/2 56/5/2 57/5/2
f 57/5/2 56/5/2 58/5/2
f 53/5/1 54/5/1 55/5/1
f 56/5/1 55/5/1 54/5/1
f 57/5/1 56/5/1 54/5/1
f 58/5/1 56/5/1 57/5/1
f 54/5/24 59/4/23 53/5/23
f 59/4/23 54/5/24 60/4/24
f 53/5/26 59/4/26 54/5/25
f 60/4/25 54/5/25 59/4/26
f 62/4/28 56/5/27 61/4/27
f 56/5/27 62/4/28 58/5/28
f 61/4/30 56/5/30 62/4/29
f 58/5/29 62/4/29 56/5/30
f 55/5/31 59/4/23 63/4/31
f 59/4/23 55/5/31 53/5/23
f 63/4/32 59/4/26 55/5/32
f 53/5/26 55/5/32 59/4/26
f 64/4/33 58/5/28 62/4/28
f 58/5/28 64/4/33 57/5/33
f 62/4/29 58/5/29 64/4/34
f 57/5/34 64/4/34 58/5/29
f 54/5/24 64/4/33 60/4/24
f 64/4/33 54/5/24 57/5/33
f 60/4/25 64/4/34 54/5/25
f 57/5/34 54/5/25 64/4/34
f 56/5/27 63/4/31 61/4/27
f 63/4/31 56/5/27 55/5/31
f 61/4/30 63/4/32 56/5/30
f 55/5/32 56/5/30 63/4/32
f 67/6/35 66/7/35 65/6/35
f 66/7/35 67/6/35 68/7/35
f 65/6/36 66/7/36 67/6/36
f 68/7/36 67/6/36 66/7/36
f 70/6/37 66/7/37 69/7/37
f 66/7/37 70/6/37 65/6/37
f 69/7/38 66/7/38 70/6/38
f 65/6/38 70/6/38 66/7/38
f 67/6/38 71/7/38 68/7/38
f 71/7/38 67/6/38 72/6/38
f 68/7/37 71/7/37 67/6/37
f 72/6/37 67/6/37 71/7/37
f 65/6/2 72/6/2 67/6/2
f 72/6/2 65/6/2 70/6/2
f 67/6/1 72/6/1 65/6/1
f 70/6/1 65/6/1 72/6/1
f 71/7/36 70/6/36 69/7/36
f 70/6/36 71/7/36 72/6/36
f 69/7/35 70/6/35 71/7/35
f 72/6/35 71/7/35 70/6/35
f 75/6/35 74/7/35 73/6/35
f 74/7/35 75/6/35 76/7/35
f 73/6/36 74/7/36 75/6/36
f 76/7/36 75/6/36 74/7/36
f 78/6/37 74/7/37 77/7/37
f 74/7/37 78/6/37 73/6/37
f 77/7/38 74/7/38 78/6/38
f 73/6/38 78/6/38 74/7/38
f 75/6/38 79/7/38 76/7/38
f 79/7/38 75/6/38 80/6/38
f 76/7/37 79/7/37 75/6/37
f 80/6/37 75/6/37 79/7/37
f 79/7/36 78/6/36 77/7/36
f 78/6/36 79/7/36 80/6/36
f 77/7/35 78/6/35 79/7/35
f 80/6/35 79/7/35 78/6/35
f 73/6/2 80/6/2 75/6/2
f 80/6/2 73/6/2 78/6/2
f 75/6/1 80/6/1 73/6/1
f 78/6/1 73/6/1 80/6/1
f 83/7/36 82/6/36 81/7/36
f 82/6/36 83/7/36 84/6/36
f 81/7/35 82/6/35 83/7/35
f 84/6/35 83/7/35 82/6/35
f 86/6/38 83/7/38 85/7/38
f 83/7/38 86/6/38 84/6/38
f 85/7/37 83/7/37 86/6/37
f 84/6/37 86/6/37 83/7/37
f 82/6/37 87/7/37 81/7/37
f 87/7/37 82/6/37 88/6/37
f 81/7/38 87/7/38 82/6/38
f 88/6/38 82/6/38 87/7/38
f 86/6/35 87/7/35 88/6/35
f 87/7/35 86/6/35 85/7/35
f 88/6/36 87/7/36 86/6/36
f 85/7/36 86/6/36 87/7/36
f 88/6/2 84/6/2 86/6/2
f 84/6/2 88/6/2 82/6/2
f 86/6/1 84/6/1 88/6/1
f 82/6/1 88/6/1 84/6/1
f 91/7/36 90/6/36 89/7/36
f 90/6/36 91/7/36 92/6/36
f 89/7/35 90/6/35 91/7/35
f 92/6/35 91/7/35 90/6/35
f 94/6/2 92/6/2 93/6/2
f 92/6/2 94/6/2 90/6/2
f 93/6/1 92/6/1 94/6/1
f 90/6/1 94/6/1 92/6/1
f 90/6/37 95/7/37 89/7/37
f 95/7/37 90/6/37 94/6/37
f 89/7/38 95/7/38 90/6/38
f 94/6/38 90/6/38 95/7/38
f 93/6/38 91/7/38 96/7/38
f 91/7/38 93/6/38 92/6/38
f 96/7/37 91/7/37 93/6/37
f 92/6/37 93/6/37 91/7/37
f 93/6/35 95/7/35 94/6/35
f 95/7/35 93/6/35 96/7/35
f 94/6/36 95/7/36 93/6/36
f 96/7/36 93/6/36 95/7/36
f 99/6/39 98/8/40 97/8/39
f 98/8/40 99/6/39 100/6/40
f 97/8/41 98/8/42 99/6/41
f 100/6/42 99/6/41 98/8/42
f 102/6/43 97/8/39 101/8/43
f 97/8/39 102/6/43 99/6/39
f 101/8/44 97/8/41 102/6/44
f 99/6/41 102/6/44 97/8/41
f 104/6/45 101/8/43 103/8/45
f 101/8/43 104/6/45 102/6/43
f 103/8/46 101/8/44 104/6/46
f 102/6/44 104/6/46 101/8/44
f 105/8/47 104/6/45 103/8/45
f 104/6/45 105/8/47 106/6/47
f 103/8/46 104/6/46 105/8/48
f 106/6/48 105/8/48 104/6/46
f 107/8/49 106/6/47 105/8/47
f 106/6/47 107/8/49 108/6/49
f 105/8/48 106/6/48 107/8/50
f 108/6/50 107/8/50 106/6/48
f 111/6/51 110/8/52 109/8/51
f 110/8/52 111/6/51 112/6/52
f 109/8/53 110/8/54 111/6/53
f 112/6/54 111/6/53 110/8/54
f 111/6/51 98/8/40 100/6/40
f 98/8/40 111/6/51 109/8/51
f 100/6/42 98/8/42 111/6/53
f 109/8/53 111/6/53 98/8/42
f 99/6/2 111/6/2 100/6/2
f 111/6/2 99/6/2 113/6/2
f 113/6/2 99/6/2 114/6/2
f 115/6/2 111/6/2 113/6/2
f 114/6/2 99/6/2 102/6/2
f 114/6/2 102/6/2 116/6/2
f 111/6/2 115/6/2 112/6/2
f 112/6/2 115/6/2 117/6/2
f 112/6/2 117/6/2 118/6/2
f 116/6/2 102/6/2 104/6/2
f 112/6/2 118/6/2 108/6/2
f 116/6/2 104/6/2 119/6/2
f 108/6/2 118/6/2 120/6/2
f 119/6/2 104/6/2 120/6/2
f 108/6/2 120/6/2 104/6/2
f 108/6/2 104/6/2 106/6/2
f 100/6/1 111/6/1 99/6/1
f 113/6/1 99/6/1 111/6/1
f 113/6/1 111/6/1 115/6/1
f 114/6/1 99/6/1 113/6/1
f 102/6/1 99/6/1 114/6/1
f 116/6/1 102/6/1 114/6/1
f 112/6/1 115/6/1 111/6/1
f 117/6/1 115/6/1 112/6/1
f 118/6/1 117/6/1 112/6/1
f 104/6/1 102/6/1 116/6/1
f 108/6/1 118/6/1 112/6/1
f 119/6/1 104/6/1 116/6/1
f 120/6/1 118/6/1 108/6/1
f 120/6/1 104/6/1 119/6/1
f 104/6/1 120/6/1 108/6/1
f 106/6/1 104/6/1 108/6/1
f 112/6/52 107/8/49 110/8/52
f 107/8/49 112/6/52 108/6/49
f 110/8/54 107/8/50 112/6/54
f 108/6/50 112/6/54 107/8/50
f 116/10/3 122/9/38 121/9/3
f 122/9/38 116/10/3 119/10/38
f 121/9/4 122/9/37 116/10/4
f 119/10/37 116/10/4 122/9/37
f 120/10/6 122/9/38 119/10/38
f 122/9/38 120/10/6 123/9/6
f 119/10/37 122/9/37 120/10/5
f 123/9/5 120/10/5 122/9/37
f 118/10/35 123/9/6 120/10/6
f 123/9/6 118/10/35 124/9/35
f 120/10/5 123/9/5 118/10/36
f 124/9/36 118/10/36 123/9/5
f 118/10/35 125/9/4 124/9/35
f 125/9/4 118/10/35 117/10/4
f 124/9/36 125/9/3 118/10/36
f 117/10/3 118/10/36 125/9/3
f 128/9/2 127/9/2 126/9/2
f 127/9/2 128/9/2 121/9/2
f 127/9/2 121/9/2 125/9/2
f 125/9/2 121/9/2 122/9/2
f 125/9/2 122/9/2 124/9/2
f 124/9/2 122/9/2 123/9/2
f 126/9/1 127/9/1 128/9/1
f 121/9/1 128/9/1 127/9/1
f 125/9/1 121/9/1 127/9/1
f 122/9/1 121/9/1 125/9/1
f 124/9/1 122/9/1 125/9/1
f 123/9/1 122/9/1 124/9/1
f 117/10/4 127/9/37 125/9/4
f 127/9/37 117/10/4 115/10/37
f 125/9/3 127/9/38 117/10/3
f 115/10/38 117/10/3 127/9/38
f 127/9/37 113/10/5 126/9/5
f 113/10/5 127/9/37 115/10/37
f 126/9/6 113/10/6 127/9/38
f 115/10/38 127/9/38 113/10/6
f 126/9/5 114/10/36 128/9/36
f 114/10/36 126/9/5 113/10/5
f 128/9/35 114/10/35 126/9/6
f 113/10/6 126/9/6 114/10/35
f 114/10/36 121/9/3 128/9/36
f 121/9/3 114/10/36 116/10/3
f 128/9/35 121/9/4 114/10/35
f 116/10/4 114/10/35 121/9/4

g tile-spawn-round




usemtl colormap

f 3/1/1 2/1/1 1/1/1
f 2/1/1 3/1/1 4/1/1
f 1/1/2 2/1/2 3/1/2
f 4/1/2 3/1/2 2/1/2
f 7/3/3 6/2/3 5/2/3
f 7/3/3 1/1/3 6/2/3
f 1/1/3 7/3/3 3/1/3
f 8/3/3 3/1/3 7/3/3
f 3/1/3 8/3/3 9/2/3
f 9/2/3 8/3/3 10/2/3
f 5/2/4 6/2/4 7/3/4
f 6/2/4 1/1/4 7/3/4
f 3/1/4 7/3/4 1/1/4
f 7/3/4 3/1/4 8/3/4
f 9/2/4 8/3/4 3/1/4
f 10/2/4 8/3/4 9/2/4
f 3/1/5 11/2/5 4/1/5
f 11/2/5 3/1/5 9/2/5
f 4/1/6 11/2/6 3/1/6
f 9/2/6 3/1/6 11/2/6
f 13/3/4 11/2/4 12/2/4
f 13/3/4 4/1/4 11/2/4
f 4/1/4 13/3/4 2/1/4
f 14/3/4 2/1/4 13/3/4
f 2/1/4 14/3/4 15/2/4
f 15/2/4 14/3/4 16/2/4
f 12/2/3 11/2/3 13/3/3
f 11/2/3 4/1/3 13/3/3
f 2/1/3 13/3/3 4/1/3
f 13/3/3 2/1/3 14/3/3
f 15/2/3 14/3/3 2/1/3
f 16/2/3 14/3/3 15/2/3
f 6/2/6 2/1/6 15/2/6
f 2/1/6 6/2/6 1/1/6
f 15/2/5 2/1/5 6/2/5
f 1/1/5 6/2/5 2/1/5
f 12/2/2 9/2/2 10/2/2
f 9/2/2 12/2/2 11/2/2
f 10/2/1 9/2/1 12/2/1
f 11/2/1 12/2/1 9/2/1
f 15/2/2 5/2/2 6/2/2
f 5/2/2 15/2/2 16/2/2
f 6/2/1 5/2/1 15/2/1
f 16/2/1 15/2/1 5/2/1
f 10/4/6 17/5/7 12/4/6
f 17/5/7 10/4/6 18/5/7
f 12/4/5 17/5/8 10/4/5
f 18/5/8 10/4/5 17/5/8
f 20/5/9 16/4/5 19/5/9
f 16/4/5 20/5/9 5/4/5
f 19/5/10 16/4/6 20/5/10
f 5/4/6 20/5/10 16/4/6
f 22/5/1 21/5/1 18/5/8
f 23/5/1 22/5/1 18/5/8
f 21/5/1 24/5/1 18/5/8
f 18/5/8 24/5/1 20/5/10
f 18/5/8 17/5/8 23/5/1
f 19/5/10 20/5/10 24/5/1
f 25/5/1 19/5/10 24/5/1
f 25/5/1 26/5/1 19/5/10
f 17/5/8 19/5/10 26/5/1
f 23/5/1 17/5/8 27/5/1
f 28/5/1 17/5/8 26/5/1
f 27/5/1 17/5/8 28/5/1
f 18/5/7 21/5/2 22/5/2
f 18/5/7 22/5/2 23/5/2
f 18/5/7 24/5/2 21/5/2
f 20/5/9 24/5/2 18/5/7
f 23/5/2 17/5/7 18/5/7
f 24/5/2 20/5/9 19/5/9
f 24/5/2 19/5/9 25/5/2
f 19/5/9 26/5/2 25/5/2
f 26/5/2 19/5/9 17/5/7
f 27/5/2 17/5/7 23/5/2
f 26/5/2 17/5/7 28/5/2
f 28/5/2 17/5/7 27/5/2
f 31/5/2 30/5/2 29/5/2
f 30/5/2 31/5/2 32/5/2
f 30/5/2 32/5/2 33/5/2
f 33/5/2 32/5/2 34/5/2
f 29/5/1 30/5/1 31/5/1
f 32/5/1 31/5/1 30/5/1
f 33/5/1 32/5/1 30/5/1
f 34/5/1 32/5/1 33/5/1
f 30/5/12 35/4/11 29/5/11
f 35/4/11 30/5/12 36/4/12
f 29/5/14 35/4/14 30/5/13
f 36/4/13 30/5/13 35/4/14
f 38/4/16 32/5/15 37/4/15
f 32/5/15 38/4/16 34/5/16
f 37/4/18 32/5/18 38/4/17
f 34/5/17 38/4/17 32/5/18
f 31/5/19 35/4/11 39/4/19
f 35/4/11 31/5/19 29/5/11
f 39/4/20 35/4/14 31/5/20
f 29/5/14 31/5/20 35/4/14
f 40/4/21 34/5/16 38/4/16
f 34/5/16 40/4/21 33/5/21
f 38/4/17 34/5/17 40/4/22
f 33/5/22 40/4/22 34/5/17
f 30/5/12 40/4/21 36/4/12
f 40/4/21 30/5/12 33/5/21
f 36/4/13 40/4/22 30/5/13
f 33/5/22 30/5/13 40/4/22
f 32/5/15 39/4/19 37/4/15
f 39/4/19 32/5/15 31/5/19
f 37/4/18 39/4/20 32/5/18
f 31/5/20 32/5/18 39/4/20
f 43/5/2 42/5/2 41/5/2
f 42/5/2 43/5/2 44/5/2
f 42/5/2 44/5/2 45/5/2
f 45/5/2 44/5/2 46/5/2
f 41/5/1 42/5/1 43/5/1
f 44/5/1 43/5/1 42/5/1
f 45/5/1 44/5/1 42/5/1
f 46/5/1 44/5/1 45/5/1
f 42/5/24 47/4/23 41/5/23
f 47/4/23 42/5/24 48/4/24
f 41/5/26 47/4/26 42/5/25
f 48/4/25 42/5/25 47/4/26
f 50/4/28 44/5/27 49/4/27
f 44/5/27 50/4/28 46/5/28
f 49/4/30 44/5/30 50/4/29
f 46/5/29 50/4/29 44/5/30
f 43/5/31 47/4/23 51/4/31
f 47/4/23 43/5/31 41/5/23
f 51/4/32 47/4/26 43/5/32
f 41/5/26 43/5/32 47/4/26
f 52/4/33 46/5/28 50/4/28
f 46/5/28 52/4/33 45/5/33
f 50/4/29 46/5/29 52/4/34
f 45/5/34 52/4/34 46/5/29
f 42/5/24 52/4/33 48/4/24
f 52/4/33 42/5/24 45/5/33
f 48/4/25 52/4/34 42/5/25
f 45/5/34 42/5/25 52/4/34
f 44/5/27 51/4/31 49/4/27
f 51/4/31 44/5/27 43/5/31
f 49/4/30 51/4/32 44/5/30
f 43/5/32 44/5/30 51/4/32
f 55/5/2 54/5/2 53/5/2
f 54/5/2 55/5/2 56/5/2
f 54/5/2 56/5/2 57/5/2
f 57/5/2 56/5/2 58/5/2
f 53/5/1 54/5/1 55/5/1
f 56/5/1 55/5/1 54/5/1
f 57/5/1 56/5/1 54/5/1
f 58/5/1 56/5/1 57/5/1
f 54/5/24 59/4/23 53/5/23
f 59/4/23 54/5/24 60/4/24
f 53/5/26 59/4/26 54/5/25
f 60/4/25 54/5/25 59/4/26
f 62/4/28 56/5/27 61/4/27
f 56/5/27 62/4/28 58/5/28
f 61/4/30 56/5/30 62/4/29
f 58/5/29 62/4/29 56/5/30
f 55/5/31 59/4/23 63/4/31
f 59/4/23 55/5/31 53/5/23
f 63/4/32 59/4/26 55/5/32
f 53/5/26 55/5/32 59/4/26
f 64/4/33 58/5/28 62/4/28
f 58/5/28 64/4/33 57/5/33
f 62/4/29 58/5/29 64/4/34
f 57/5/34 64/4/34 58/5/29
f 54/5/24 64/4/33 60/4/24
f 64/4/33 54/5/24 57/5/33
f 60/4/25 64/4/34 54/5/25
f 57/5/34 54/5/25 64/4/34
f 56/5/27 63/4/31 61/4/27
f 63/4/31 56/5/27 55/5/31
f 61/4/30 63/4/32 56/5/30
f 55/5/32 56/5/30 63/4/32
f 67/6/35 66/7/35 65/6/35
f 66/7/35 67/6/35 68/7/35
f 65/6/36 66/7/36 67/6/36
f 68/7/36 67/6/36 66/7/36
f 70/6/37 66/7/37 69/7/37
f 66/7/37 70/6/37 65/6/37
f 69/7/38 66/7/38 70/6/38
f 65/6/38 70/6/38 66/7/38
f 67/6/38 71/7/38 68/7/38
f 71/7/38 67/6/38 72/6/38
f 68/7/37 71/7/37 67/6/37
f 72/6/37 67/6/37 71/7/37
f 65/6/2 72/6/2 67/6/2
f 72/6/2 65/6/2 70/6/2
f 67/6/1 72/6/1 65/6/1
f 70/6/1 65/6/1 72/6/1
f 71/7/36 70/6/36 69/7/36
f 70/6/36 71/7/36 72/6/36
f 69/7/35 70/6/35 71/7/35
f 72/6/35 71/7/35 70/6/35
f 75/6/35 74/7/35 73/6/35
f 74/7/35 75/6/35 76/7/35
f 73/6/36 74/7/36 75/6/36
f 76/7/36 75/6/36 74/7/36
f 78/6/37 74/7/37 77/7/37
f 74/7/37 78/6/37 73/6/37
f 77/7/38 74/7/38 78/6/38
f 73/6/38 78/6/38 74/7/38
f 75/6/38 79/7/38 76/7/38
f 79/7/38 75/6/38 80/6/38
f 76/7/37 79/7/37 75/6/37
f 80/6/37 75/6/37 79/7/37
f 79/7/36 78/6/36 77/7/36
f 78/6/36 79/7/36 80/6/36
f 77/7/35 78/6/35 79/7/35
f 80/6/35 79/7/35 78/6/35
f 73/6/2 80/6/2 75/6/2
f 80/6/2 73/6/2 78/6/2
f 75/6/1 80/6/1 73/6/1
f 78/6/1 73/6/1 80/6/1
f 83/7/36 82/6/36 81/7/36
f 82/6/36 83/7/36 84/6/36
f 81/7/35 82/6/35 83/7/35
f 84/6/35 83/7/35 82/6/35
f 86/6/38 83/7/38 85/7/38
f 83/7/38 86/6/38 84/6/38
f 85/7/37 83/7/37 86/6/37
f 84/6/37 86/6/37 83/7/37
f 82/6/37 87/7/37 81/7/37
f 87/7/37 82/6/37 88/6/37
f 81/7/38 87/7/38 82/6/38
f 88/6/38 82/6/38 87/7/38
f 86/6/35 87/7/35 88/6/35
f 87/7/35 86/6/35 85/7/35
f 88/6/36 87/7/36 86/6/36
f 85/7/36 86/6/36 87/7/36
f 88/6/2 84/6/2 86/6/2
f 84/6/2 88/6/2 82/6/2
f 86/6/1 84/6/1 88/6/1
f 82/6/1 88/6/1 84/6/1
f 91/7/36 90/6/36 89/7/36
f 90/6/36 91/7/36 92/6/36
f 89/7/35 90/6/35 91/7/35
f 92/6/35 91/7/35 90/6/35
f 94/6/2 92/6/2 93/6/2
f 92/6/2 94/6/2 90/6/2
f 93/6/1 92/6/1 94/6/1
f 90/6/1 94/6/1 92/6/1
f 90/6/37 95/7/37 89/7/37
f 95/7/37 90/6/37 94/6/37
f 89/7/38 95/7/38 90/6/38
f 94/6/38 90/6/38 95/7/38
f 93/6/38 91/7/38 96/7/38
f 91/7/38 93/6/38 92/6/38
f 96/7/37 91/7/37 93/6/37
f 92/6/37 93/6/37 91/7/37
f 93/6/35 95/7/35 94/6/35
f 95/7/35 93/6/35 96/7/35
f 94/6/36 95/7/36 93/6/36
f 96/7/36 93/6/36 95/7/36
f 99/6/39 98/8/40 97/8/39
f 98/8/40 99/6/39 100/6/40
f 97/8/41 98/8/42 99/6/41
f 100/6/42 99/6/41 98/8/42
f 102/6/43 97/8/39 101/8/43
f 97/8/39 102/6/43 99/6/39
f 101/8/44 97/8/41 102/6/44
f 99/6/41 102/6/44 97/8/41
f 104/6/45 101/8/43 103/8/45
f 101/8/43 104/6/45 102/6/43
f 103/8/46 101/8/44 104/6/46
f 102/6/44 104/6/46 101/8/44
f 105/8/47 104/6/45 103/8/45
f 104/6/45 105/8/47 106/6/47
f 103/8/46 104/6/46 105/8/48
f 106/6/48 105/8/48 104/6/46
f 107/8/49 106/6/47 105/8/47
f 106/6/47 107/8/49 108/6/49
f 105/8/48 106/6/48 107/8/50
f 108/6/50 107/8/50 106/6/48
f 111/6/51 110/8/52 109/8/51
f 110/8/52 111/6/51 112/6/52
f 109/8/53 110/8/54 111/6/53
f 112/6/54 111/6/53 110/8/54
f 111/6/51 98/8/40 100/6/40
f 98/8/40 111/6/51 109/8/51
f 100/6/42 98/8/42 111/6/53
f 109/8/53 111/6/53 98/8/42
f 99/6/2 111/6/2 100/6/2
f 111/6/2 99/6/2 113/6/2
f 113/6/2 99/6/2 114/6/2
f 115/6/2 111/6/2 113/6/2
f 114/6/2 99/6/2 102/6/2
f 114/6/2 102/6/2 116/6/2
f 111/6/2 115/6/2 112/6/2
f 112/6/2 115/6/2 117/6/2
f 112/6/2 117/6/2 118/6/2
f 116/6/2 102/6/2 104/6/2
f 112/6/2 118/6/2 108/6/2
f 116/6/2 104/6/2 119/6/2
f 108/6/2 118/6/2 120/6/2
f 119/6/2 104/6/2 120/6/2
f 108/6/2 120/6/2 104/6/2
f 108/6/2 104/6/2 106/6/2
f 100/6/1 111/6/1 99/6/1
f 113/6/1 99/6/1 111/6/1
f 113/6/1 111/6/1 115/6/1
f 114/6/1 99/6/1 113/6/1
f 102/6/1 99/6/1 114/6/1
f 116/6/1 102/6/1 114/6/1
f 112/6/1 115/6/1 111/6/1
f 117/6/1 115/6/1 112/6/1
f 118/6/1 117/6/1 112/6/1
f 104/6/1 102/6/1 116/6/1
f 108/6/1 118/6/1 112/6/1
f 119/6/1 104/6/1 116/6/1
f 120/6/1 118/6/1 108/6/1
f 120/6/1 104/6/1 119/6/1
f 104/6/1 120/6/1 108/6/1
f 106/6/1 104/6/1 108/6/1
f 112/6/52 107/8/49 110/8/52
f 107/8/49 112/6/52 108/6/49
f 110/8/54 107/8/50 112/6/54
f 108/6/50 112/6/54 107/8/50
f 116/10/3 122/9/38 121/9/3
f 122/9/38 116/10/3 119/10/38
f 121/9/4 122/9/37 116/10/4
f 119/10/37 116/10/4 122/9/37
f 120/10/6 122/9/38 119/10/38
f 122/9/38 120/10/6 123/9/6
f 119/10/37 122/9/37 120/10/5
f 123/9/5 120/10/5 122/9/37
f 118/10/35 123/9/6 120/10/6
f 123/9/6 118/10/35 124/9/35
f 120/10/5 123/9/5 118/10/36
f 124/9/36 118/10/36 123/9/5
f 118/10/35 125/9/4 124/9/35
f 125/9/4 118/10/35 117/10/4
f 124/9/36 125/9/3 118/10/36
f 117/10/3 118/10/36 125/9/3
f 128/9/2 127/9/2 126/9/2
f 127/9/2 128/9/2 121/9/2
f 127/9/2 121/9/2 125/9/2
f 125/9/2 121/9/2 122/9/2
f 125/9/2 122/9/2 124/9/2
f 124/9/2 122/9/2 123/9/2
f 126/9/1 127/9/1 128/9/1
f 121/9/1 128/9/1 127/9/1
f 125/9/1 121/9/1 127/9/1
f 122/9/1 121/9/1 125/9/1
f 124/9/1 122/9/1 125/9/1
f 123/9/1 122/9/1 124/9/1
f 117/10/4 127/9/37 125/9/4
f 127/9/37 117/10/4 115/10/37
f 125/9/3 127/9/38 117/10/3
f 115/10/38 117/10/3 127/9/38
f 127/9/37 113/10/5 126/9/5
f 113/10/5 127/9/37 115/10/37
f 126/9/6 113/10/6 127/9/38
f 115/10/38 127/9/38 113/10/6
f 126/9/5 114/10/36 128/9/36
f 114/10/36 126/9/5 113/10/5
f 128/9/35 114/10/35 126/9/6
f 113/10/6 126/9/6 114/10/35
f 114/10/36 121/9/3 128/9/36
f 121/9/3 114/10/36 116/10/3
f 128/9/35 121/9/4 114/10/35
f 116/10/4 114/10/35 121/9/4

