# Created by Kenney (www.kenney.nl)

mtllib tile-tree.mtl

g tile-tree

v 0.5 0 0.5 1 1 1
v 0.5 0 -0.5 1 1 1
v -0.5 0 0.5 1 1 1
v -0.5 0 -0.5 1 1 1
v 0.5 0.2 -0.5 1 1 1
v 0.5 0.2 0.5 1 1 1
v -0.5 0.2 0.5 1 1 1
v -0.5 0.2 -0.5 1 1 1
v 0.02262742 0.96 0.02262742 1 1 1
v 1.082867E-15 0.636 0.2 1 1 1
v -0.02262742 0.96 0.02262742 1 1 1
v 0.02262742 0.96 -0.02262742 1 1 1
v 0.2 0.636 7.219114E-16 1 1 1
v -0.02262742 0.96 -0.02262742 1 1 1
v 1.082867E-15 0.636 -0.2 1 1 1
v 0.1414214 0.636 0.1414214 1 1 1
v 0.1414214 0.636 -0.1414214 1 1 1
v -0.1414214 0.636 0.1414214 1 1 1
v -0.2 0.636 7.219114E-16 1 1 1
v -0.1414214 0.636 -0.1414214 1 1 1
v 1.082867E-15 0.55 -0.168566 1 1 1
v 0.1191942 0.55 -0.1191942 1 1 1
v -0.225 0.35 7.219114E-16 1 1 1
v -0.25 0.43 7.219114E-16 1 1 1
v -0.159099 0.35 0.159099 1 1 1
v -0.1767767 0.43 0.1767767 1 1 1
v 0.168566 0.55 -7.219114E-16 1 1 1
v 0.25 0.43 7.219114E-16 1 1 1
v 0.1191942 0.55 0.1191942 1 1 1
v 0.1767767 0.43 0.1767767 1 1 1
v 1.082867E-15 0.55 0.168566 1 1 1
v -0.1767767 0.43 -0.1767767 1 1 1
v -0.1191942 0.55 -0.1191942 1 1 1
v -0.168566 0.55 -7.219114E-16 1 1 1
v 0.225 0.35 7.219114E-16 1 1 1
v 0.159099 0.35 -0.159099 1 1 1
v 0.159099 0.35 0.159099 1 1 1
v 1.082867E-15 0.35 0.225 1 1 1
v 0.053125 0.35 0.053125 1 1 1
v 0.053125 0.35 -0.053125 1 1 1
v 1.082867E-15 0.35 -0.225 1 1 1
v -0.053125 0.35 -0.053125 1 1 1
v -0.053125 0.35 0.053125 1 1 1
v -0.159099 0.35 -0.159099 1 1 1
v 1.082867E-15 0.43 0.25 1 1 1
v -0.1191942 0.55 0.1191942 1 1 1
v 1.082867E-15 0.43 -0.25 1 1 1
v 0.1767767 0.43 -0.1767767 1 1 1
v 0.224563 0.2320055 0.3611799 1 1 1
v 0.2304385 0.2 0.3157252 1 1 1
v 0.3029267 0.2960165 0.4087375 1 1 1
v 0.320553 0.2 0.2723735 1 1 1
v 0.347984 0.2960165 0.3870617 1 1 1
v 0.3597349 0.2320055 0.2961524 1 1 1
v 0.2443134 0.1615858 0.3445668 1 1 1
v 0.334428 0.1615858 0.3012151 1 1 1
v 0.3618589 0.2576023 0.4159033 1 1 1
v 0.3736098 0.1935913 0.3249939 1 1 1
v 0.238438 0.1935913 0.3900215 1 1 1
v 0.3168016 0.2576023 0.4375792 1 1 1
v 0.3614407 0.2320055 0.2735138 1 1 1
v 0.319138 0.2 0.2911529 1 1 1
v 0.363445 0.2960165 0.18187 1 1 1
v 0.2365371 0.2 0.2347872 1 1 1
v 0.3221445 0.2960165 0.1536872 1 1 1
v 0.2375393 0.2320055 0.1889653 1 1 1
v 0.3371781 0.1615858 0.264716 1 1 1
v 0.2545772 0.1615858 0.2083504 1 1 1
v 0.3401846 0.2576023 0.1272504 1 1 1
v 0.2555794 0.1935913 0.1625285 1 1 1
v 0.3794807 0.1935913 0.247077 1 1 1
v 0.3814851 0.2576023 0.1554332 1 1 1
v 0.2170808 0.2320055 0.1988072 1 1 1
v 0.253508 0.2 0.2266228 1 1 1
v 0.1367128 0.2960165 0.2428933 1 1 1
v 0.2459944 0.2 0.3263402 1 1 1
v 0.132956 0.2960165 0.292752 1 1 1
v 0.2058104 0.2320055 0.3483832 1 1 1
v 0.221593 0.1615858 0.2242181 1 1 1
v 0.2140794 0.1615858 0.3239354 1 1 1
v 0.101041 0.2576023 0.2903472 1 1 1
v 0.1738954 0.1935913 0.3459785 1 1 1
v 0.1851658 0.1935913 0.1964025 1 1 1
v 0.1047978 0.2576023 0.2404885 1 1 1
v 0.06875 0.2 -0.06875 1 1 1
v -0.06875 0.2 -0.06875 1 1 1
v 0.06875 0.2 0.06875 1 1 1
v -0.06875 0.2 0.06875 1 1 1

vn 0 -1 0
vn 0 1 0
vn 1 0 0
vn -1 0 0
vn 0 0 1
vn 0 0 -1
vn 0.5779995 0.5760496 0.5779995
vn 0 0.4612523 0.887269
vn -0.5779995 0.5760496 0.5779995
vn 0.5779995 -0.5760496 -0.5779995
vn 0 -0.4612523 -0.887269
vn -0.5779995 -0.5760496 -0.5779995
vn 0.5779995 0.5760496 -0.5779995
vn 0.887269 0.4612523 0
vn -0.887269 -0.4612523 0
vn -0.5779995 -0.5760496 0.5779995
vn -0.5779995 0.5760496 -0.5779995
vn 0 0.4612523 -0.887269
vn 0 -0.4612523 0.887269
vn 0.5779995 -0.5760496 0.5779995
vn 0.6277373 0.4603172 0.6277373
vn -0.6277373 -0.4603172 -0.6277373
vn 0.6277373 0.4603172 -0.6277373
vn -0.6277373 -0.4603172 0.6277373
vn -0.6277373 0.4603172 0.6277373
vn 0.6277373 -0.4603172 -0.6277373
vn -0.887269 0.4612523 0
vn 0.887269 -0.4612523 0
vn -0.6277373 0.4603172 -0.6277373
vn 0.6277373 -0.4603172 0.6277373
vn 0 -0.343298 -0.9392266
vn 0.6641335 -0.343298 -0.6641335
vn 0 0.343298 0.9392266
vn -0.6641335 0.343298 0.6641335
vn -0.95448 -0.298275 0
vn -0.6749192 -0.298275 0.6749192
vn 0.6749192 0.298275 -0.6749192
vn 0.95448 0.298275 0
vn 0.8274584 0.561527 0
vn 0.5851015 0.561527 0.5851015
vn -0.5851015 -0.561527 -0.5851015
vn -0.8274584 -0.561527 0
vn 0.6641335 -0.343298 0.6641335
vn 0 -0.343298 0.9392266
vn -0.6641335 0.343298 -0.6641335
vn 0 0.343298 -0.9392266
vn -0.5851015 0.561527 -0.5851015
vn -0.8274584 0.561527 0
vn 0.8274584 -0.561527 0
vn 0.5851015 -0.561527 0.5851015
vn 0 -0.298275 0.95448
vn 0 0.298275 -0.95448
vn -0.6641335 -0.343298 0.6641335
vn 0.6641335 0.343298 -0.6641335
vn 0.9392266 -0.343298 0
vn -0.9392266 0.343298 0
vn -0.6749192 -0.298275 -0.6749192
vn 0.6749192 0.298275 0.6749192
vn 0 -0.298275 -0.95448
vn 0 0.298275 0.95448
vn -0.6641335 -0.343298 -0.6641335
vn 0.6641335 0.343298 0.6641335
vn -0.9392266 -0.343298 0
vn 0.9392266 0.343298 0
vn 0.95448 -0.298275 0
vn 0.6749192 -0.298275 0.6749192
vn -0.6749192 0.298275 -0.6749192
vn -0.95448 0.298275 0
vn 0 0.561527 -0.8274584
vn 0.5851015 0.561527 -0.5851015
vn 0 -0.561527 0.8274584
vn -0.5851015 -0.561527 0.5851015
vn 0.6749192 -0.298275 -0.6749192
vn -0.6749192 0.298275 0.6749192
vn 0 0.561527 0.8274584
vn 0 -0.561527 -0.8274584
vn -0.5851015 0.561527 0.5851015
vn 0.5851015 -0.561527 -0.5851015
vn -0.2774984 0.7682835 -0.5768319
vn 0.2774984 -0.7682835 0.5768319
vn -0.3330638 -0.6401097 -0.6923352
vn 0.3330638 0.6401097 0.6923352
vn 0.7570813 0.5445098 0.3610223
vn 0.9011455 0 -0.4335169
vn -0.9011455 0 0.4335169
vn -0.7570813 -0.5445098 -0.3610223
vn -0.9549597 -0.2862658 0.07812753
vn 0.9549597 0.2862658 -0.07812753
vn -0.1904391 0.5445098 0.8168489
vn 0.1904391 -0.5445098 -0.8168489
vn 0.6570583 -0.2862658 -0.697371
vn -0.6570583 0.2862658 0.697371
vn -0.3608021 0.7682835 0.5287366
vn 0.3608021 -0.7682835 -0.5287366
vn -0.433048 -0.6401097 0.6346093
vn 0.433048 0.6401097 -0.6346093
vn -0.06588608 0.5445098 -0.8361627
vn -0.8260093 0 -0.5636566
vn 0.8260093 0 0.5636566
vn 0.06588608 -0.5445098 0.8361627
vn 0.5451402 -0.2862658 0.7879556
vn -0.5451402 0.2862658 -0.7879556
vn 0.8026314 0.5445098 -0.2434991
vn -0.8026314 -0.5445098 0.2434991
vn -0.9324701 -0.2862658 -0.2203438
vn 0.9324701 0.2862658 0.2203438
vn 0.6383003 0.7682835 0.0480954
vn -0.6383003 -0.7682835 -0.0480954
vn 0.7661118 -0.6401097 0.05772589
vn -0.7661118 0.6401097 -0.05772589
vn -0.6911951 0.5445098 0.4751405
vn -0.07513618 0 0.9971733
vn 0.07513618 0 -0.9971733
vn 0.6911951 -0.5445098 -0.4751405
vn 0.4098195 -0.2862658 -0.8660831
vn -0.4098195 0.2862658 0.8660831
vn -0.6121922 0.5445098 -0.5733496
vn 0.6121922 -0.5445098 0.5733496
vn 0.2754118 -0.2862658 0.9177147
vn -0.2754118 0.2862658 -0.9177147
vn -0.9946185 0.1036061 0
vn 0.9946185 -0.1036061 0
vn 0.9946185 0.1036061 0
vn -0.9946185 -0.1036061 0
vn 0 0.1036061 -0.9946185
vn 0 -0.1036061 0.9946185
vn 0 0.1036061 0.9946185
vn 0 -0.1036061 -0.9946185

vt 0.59375 0.275
vt 0.59375 0.475
vt 0.59375 0.3897368
vt 0.59375 0.3671052
vt 0.59375 0.3144737
vt 0.59375 0.3355263
vt 0.59375 0.3797673
vt 0.59375 0.3321509
vt 0.59375 0.4178491
vt 0.59375 0.3226163
vt 0.09375 0.275
vt 0.09375 0.3144737

usemtl colormap

f 3/1/1 2/1/1 1/1/1
f 2/1/1 3/1/1 4/1/1
f 1/1/2 2/1/2 3/1/2
f 4/1/2 3/1/2 2/1/2
f 6/2/3 2/1/3 5/2/3
f 2/1/3 6/2/3 1/1/3
f 5/2/4 2/1/4 6/2/4
f 1/1/4 6/2/4 2/1/4
f 6/2/5 3/1/5 1/1/5
f 3/1/5 6/2/5 7/2/5
f 1/1/6 3/1/6 6/2/6
f 7/2/6 6/2/6 3/1/6
f 3/1/4 8/2/4 4/1/4
f 8/2/4 3/1/4 7/2/4
f 4/1/3 8/2/3 3/1/3
f 7/2/3 3/1/3 8/2/3
f 8/2/6 2/1/6 4/1/6
f 2/1/6 8/2/6 5/2/6
f 4/1/5 2/1/5 8/2/5
f 5/2/5 8/2/5 2/1/5
f 8/2/2 6/2/2 5/2/2
f 6/2/2 8/2/2 7/2/2
f 5/2/1 6/2/1 8/2/1
f 7/2/1 8/2/1 6/2/1
f 11/2/9 10/3/8 9/2/7
f 9/2/12 10/3/11 11/2/10
f 9/2/7 13/3/14 12/2/13
f 12/2/16 13/3/15 9/2/12
f 12/2/13 15/3/18 14/2/17
f 14/2/20 15/3/19 12/2/16
f 16/3/21 13/3/14 9/2/7
f 9/2/12 13/3/15 16/3/22
f 13/3/14 17/3/23 12/2/13
f 12/2/16 17/3/24 13/3/15
f 11/2/9 18/3/25 10/3/8
f 10/3/11 18/3/26 11/2/10
f 11/2/9 14/2/17 19/3/27
f 19/3/28 14/2/20 11/2/10
f 18/3/25 11/2/9 19/3/27
f 19/3/28 11/2/10 18/3/26
f 9/2/7 10/3/8 16/3/21
f 16/3/22 10/3/11 9/2/12
f 14/2/17 15/3/18 20/3/29
f 20/3/30 15/3/19 14/2/20
f 12/2/13 17/3/23 15/3/18
f 15/3/19 17/3/24 12/2/16
f 19/3/27 14/2/17 20/3/29
f 20/3/30 14/2/20 19/3/28
f 15/3/31 22/4/32 21/4/31
f 17/3/32 22/4/32 15/3/31
f 21/4/33 22/4/34 15/3/33
f 15/3/33 22/4/34 17/3/34
f 25/5/36 24/6/35 23/5/35
f 24/6/35 25/5/36 26/6/36
f 23/5/38 24/6/38 25/5/37
f 26/6/37 25/5/37 24/6/38
f 29/4/40 28/6/39 27/4/39
f 28/6/39 29/4/40 30/6/40
f 27/4/42 28/6/42 29/4/41
f 30/6/41 29/4/41 28/6/42
f 16/3/43 31/4/44 29/4/43
f 10/3/44 31/4/44 16/3/43
f 29/4/45 31/4/46 16/3/45
f 16/3/45 31/4/46 10/3/46
f 24/6/48 33/4/47 32/6/47
f 33/4/47 24/6/48 34/4/48
f 32/6/50 33/4/50 24/6/49
f 34/4/49 24/6/49 33/4/50
f 37/5/1 36/5/1 35/5/1
f 36/5/1 37/5/1 38/5/1
f 36/5/1 38/5/1 39/5/1
f 36/5/1 39/5/1 40/5/1
f 40/5/1 41/5/1 36/5/1
f 41/5/1 40/5/1 42/5/1
f 39/5/1 38/5/1 43/5/1
f 41/5/1 42/5/1 44/5/1
f 44/5/1 42/5/1 43/5/1
f 43/5/1 38/5/1 25/5/1
f 44/5/1 43/5/1 25/5/1
f 44/5/1 25/5/1 23/5/1
f 35/5/2 36/5/2 37/5/2
f 38/5/2 37/5/2 36/5/2
f 39/5/2 38/5/2 36/5/2
f 40/5/2 39/5/2 36/5/2
f 36/5/2 41/5/2 40/5/2
f 42/5/2 40/5/2 41/5/2
f 43/5/2 38/5/2 39/5/2
f 44/5/2 42/5/2 41/5/2
f 43/5/2 42/5/2 44/5/2
f 25/5/2 38/5/2 43/5/2
f 25/5/2 43/5/2 44/5/2
f 23/5/2 25/5/2 44/5/2
f 45/6/51 25/5/36 38/5/51
f 25/5/36 45/6/51 26/6/36
f 38/5/52 25/5/37 45/6/52
f 26/6/37 45/6/52 25/5/37
f 18/3/53 46/4/53 10/3/44
f 10/3/44 46/4/53 31/4/44
f 10/3/46 46/4/54 18/3/54
f 31/4/46 46/4/54 10/3/46
f 16/3/43 27/4/55 13/3/55
f 16/3/43 29/4/43 27/4/55
f 13/3/56 27/4/56 16/3/45
f 27/4/56 29/4/45 16/3/45
f 44/5/57 24/6/35 32/6/57
f 24/6/35 44/5/57 23/5/35
f 32/6/58 24/6/38 44/5/58
f 23/5/38 44/5/58 24/6/38
f 32/6/57 41/5/59 44/5/57
f 41/5/59 32/6/57 47/6/59
f 44/5/58 41/5/60 32/6/58
f 47/6/60 32/6/58 41/5/60
f 20/3/61 21/4/31 33/4/61
f 15/3/31 21/4/31 20/3/61
f 33/4/62 21/4/33 20/3/62
f 20/3/62 21/4/33 15/3/33
f 34/4/63 20/3/61 33/4/61
f 19/3/63 20/3/61 34/4/63
f 33/4/62 20/3/62 34/4/64
f 34/4/64 20/3/62 19/3/64
f 30/6/66 35/5/65 28/6/65
f 35/5/65 30/6/66 37/5/66
f 28/6/68 35/5/68 30/6/67
f 37/5/67 30/6/67 35/5/68
f 13/3/55 27/4/55 22/4/32
f 13/3/55 22/4/32 17/3/32
f 22/4/34 27/4/56 13/3/56
f 17/3/34 22/4/34 13/3/56
f 21/4/69 48/6/70 47/6/69
f 48/6/70 21/4/69 22/4/70
f 47/6/71 48/6/72 21/4/71
f 22/4/72 21/4/71 48/6/72
f 14/2/2 9/2/2 12/2/2
f 9/2/2 14/2/2 11/2/2
f 12/2/1 9/2/1 14/2/1
f 11/2/1 14/2/1 9/2/1
f 47/6/59 36/5/73 41/5/59
f 36/5/73 47/6/59 48/6/73
f 41/5/60 36/5/74 47/6/60
f 48/6/74 47/6/60 36/5/74
f 29/4/40 45/6/75 30/6/40
f 45/6/75 29/4/40 31/4/75
f 30/6/41 45/6/76 29/4/41
f 31/4/76 29/4/41 45/6/76
f 28/6/65 36/5/73 48/6/73
f 36/5/73 28/6/65 35/5/65
f 48/6/74 36/5/74 28/6/68
f 35/5/68 28/6/68 36/5/74
f 30/6/66 38/5/51 37/5/66
f 38/5/51 30/6/66 45/6/51
f 37/5/67 38/5/52 30/6/67
f 45/6/52 30/6/67 38/5/52
f 22/4/70 28/6/39 48/6/70
f 28/6/39 22/4/70 27/4/39
f 48/6/72 28/6/42 22/4/72
f 27/4/42 22/4/72 28/6/42
f 18/3/53 19/3/63 46/4/53
f 46/4/53 19/3/63 34/4/63
f 46/4/54 19/3/64 18/3/54
f 34/4/64 19/3/64 46/4/54
f 31/4/75 26/6/77 45/6/75
f 26/6/77 31/4/75 46/4/77
f 45/6/76 26/6/78 31/4/76
f 46/4/78 31/4/76 26/6/78
f 33/4/47 47/6/69 32/6/47
f 47/6/69 33/4/47 21/4/69
f 32/6/50 47/6/71 33/4/50
f 21/4/71 33/4/50 47/6/71
f 24/6/48 46/4/77 34/4/48
f 46/4/77 24/6/48 26/6/77
f 34/4/49 46/4/78 24/6/49
f 26/6/78 24/6/49 46/4/78
f 51/2/79 50/8/79 49/7/79
f 50/8/79 51/2/79 52/8/79
f 52/8/79 51/2/79 53/2/79
f 52/8/79 53/2/79 54/7/79
f 49/7/80 50/8/80 51/2/80
f 52/8/80 51/2/80 50/8/80
f 53/2/80 51/2/80 52/8/80
f 54/7/80 53/2/80 52/8/80
f 50/8/81 56/1/81 55/1/81
f 56/1/81 50/8/81 52/8/81
f 55/1/82 56/1/82 50/8/82
f 52/8/82 50/8/82 56/1/82
f 58/10/84 53/2/83 57/9/83
f 53/2/83 58/10/84 54/7/84
f 57/9/86 53/2/86 58/10/85
f 54/7/85 58/10/85 53/2/86
f 55/1/80 60/9/80 59/10/80
f 60/9/80 55/1/80 56/1/80
f 60/9/80 56/1/80 57/9/80
f 57/9/80 56/1/80 58/10/80
f 59/10/79 60/9/79 55/1/79
f 56/1/79 55/1/79 60/9/79
f 57/9/79 56/1/79 60/9/79
f 58/10/79 56/1/79 57/9/79
f 49/7/85 55/1/87 59/10/85
f 55/1/87 49/7/85 50/8/87
f 59/10/84 55/1/88 49/7/84
f 50/8/88 49/7/84 55/1/88
f 53/2/83 60/9/89 57/9/83
f 60/9/89 53/2/83 51/2/89
f 57/9/86 60/9/90 53/2/86
f 51/2/90 53/2/86 60/9/90
f 56/1/91 54/7/84 58/10/84
f 54/7/84 56/1/91 52/8/91
f 58/10/85 54/7/85 56/1/92
f 52/8/92 56/1/92 54/7/85
f 51/2/89 59/10/85 60/9/89
f 59/10/85 51/2/89 49/7/85
f 60/9/90 59/10/84 51/2/90
f 49/7/84 51/2/90 59/10/84
f 63/2/93 62/8/93 61/7/93
f 62/8/93 63/2/93 64/8/93
f 64/8/93 63/2/93 65/2/93
f 64/8/93 65/2/93 66/7/93
f 61/7/94 62/8/94 63/2/94
f 64/8/94 63/2/94 62/8/94
f 65/2/94 63/2/94 64/8/94
f 66/7/94 65/2/94 64/8/94
f 62/8/95 68/1/95 67/1/95
f 68/1/95 62/8/95 64/8/95
f 67/1/96 68/1/96 62/8/96
f 64/8/96 62/8/96 68/1/96
f 70/10/98 65/2/97 69/9/97
f 65/2/97 70/10/98 66/7/98
f 69/9/100 65/2/100 70/10/99
f 66/7/99 70/10/99 65/2/100
f 67/1/94 72/9/94 71/10/94
f 72/9/94 67/1/94 68/1/94
f 72/9/94 68/1/94 69/9/94
f 69/9/94 68/1/94 70/10/94
f 71/10/93 72/9/93 67/1/93
f 68/1/93 67/1/93 72/9/93
f 69/9/93 68/1/93 72/9/93
f 70/10/93 68/1/93 69/9/93
f 61/7/99 67/1/101 71/10/99
f 67/1/101 61/7/99 62/8/101
f 71/10/98 67/1/102 61/7/98
f 62/8/102 61/7/98 67/1/102
f 65/2/97 72/9/103 69/9/97
f 72/9/103 65/2/97 63/2/103
f 69/9/100 72/9/104 65/2/100
f 63/2/104 65/2/100 72/9/104
f 68/1/105 66/7/98 70/10/98
f 66/7/98 68/1/105 64/8/105
f 70/10/99 66/7/99 68/1/106
f 64/8/106 68/1/106 66/7/99
f 63/2/103 71/10/99 72/9/103
f 71/10/99 63/2/103 61/7/99
f 72/9/104 71/10/98 63/2/104
f 61/7/98 63/2/104 71/10/98
f 75/2/107 74/8/107 73/7/107
f 74/8/107 75/2/107 76/8/107
f 76/8/107 75/2/107 77/2/107
f 76/8/107 77/2/107 78/7/107
f 73/7/108 74/8/108 75/2/108
f 76/8/108 75/2/108 74/8/108
f 77/2/108 75/2/108 76/8/108
f 78/7/108 77/2/108 76/8/108
f 74/8/109 80/1/109 79/1/109
f 80/1/109 74/8/109 76/8/109
f 79/1/110 80/1/110 74/8/110
f 76/8/110 74/8/110 80/1/110
f 82/10/112 77/2/111 81/9/111
f 77/2/111 82/10/112 78/7/112
f 81/9/114 77/2/114 82/10/113
f 78/7/113 82/10/113 77/2/114
f 79/1/108 84/9/108 83/10/108
f 84/9/108 79/1/108 80/1/108
f 84/9/108 80/1/108 81/9/108
f 81/9/108 80/1/108 82/10/108
f 83/10/107 84/9/107 79/1/107
f 80/1/107 79/1/107 84/9/107
f 81/9/107 80/1/107 84/9/107
f 82/10/107 80/1/107 81/9/107
f 73/7/113 79/1/115 83/10/113
f 79/1/115 73/7/113 74/8/115
f 83/10/112 79/1/116 73/7/112
f 74/8/116 73/7/112 79/1/116
f 77/2/111 84/9/117 81/9/111
f 84/9/117 77/2/111 75/2/117
f 81/9/114 84/9/118 77/2/114
f 75/2/118 77/2/114 84/9/118
f 80/1/119 78/7/112 82/10/112
f 78/7/112 80/1/119 76/8/119
f 82/10/113 78/7/113 80/1/120
f 76/8/120 80/1/120 78/7/113
f 75/2/117 83/10/113 84/9/117
f 83/10/113 75/2/117 73/7/113
f 84/9/118 83/10/112 75/2/118
f 73/7/112 75/2/118 83/10/112
f 87/11/1 86/11/1 85/11/1
f 86/11/1 87/11/1 88/11/1
f 85/11/2 86/11/2 87/11/2
f 88/11/2 87/11/2 86/11/2
f 88/11/121 42/12/121 86/11/121
f 42/12/121 88/11/121 43/12/121
f 86/11/122 42/12/122 88/11/122
f 43/12/122 88/11/122 42/12/122
f 40/12/123 87/11/123 85/11/123
f 87/11/123 40/12/123 39/12/123
f 85/11/124 87/11/124 40/12/124
f 39/12/124 40/12/124 87/11/124
f 42/12/125 85/11/125 86/11/125
f 85/11/125 42/12/125 40/12/125
f 86/11/126 85/11/126 42/12/126
f 40/12/126 42/12/126 85/11/126
f 39/12/127 88/11/127 87/11/127
f 88/11/127 39/12/127 43/12/127
f 87/11/128 88/11/128 39/12/128
f 43/12/128 39/12/128 88/11/128

g tile-tree




usemtl colormap

f 3/1/1 2/1/1 1/1/1
f 2/1/1 3/1/1 4/1/1
f 1/1/2 2/1/2 3/1/2
f 4/1/2 3/1/2 2/1/2
f 6/2/3 2/1/3 5/2/3
f 2/1/3 6/2/3 1/1/3
f 5/2/4 2/1/4 6/2/4
f 1/1/4 6/2/4 2/1/4
f 6/2/5 3/1/5 1/1/5
f 3/1/5 6/2/5 7/2/5
f 1/1/6 3/1/6 6/2/6
f 7/2/6 6/2/6 3/1/6
f 3/1/4 8/2/4 4/1/4
f 8/2/4 3/1/4 7/2/4
f 4/1/3 8/2/3 3/1/3
f 7/2/3 3/1/3 8/2/3
f 8/2/6 2/1/6 4/1/6
f 2/1/6 8/2/6 5/2/6
f 4/1/5 2/1/5 8/2/5
f 5/2/5 8/2/5 2/1/5
f 8/2/2 6/2/2 5/2/2
f 6/2/2 8/2/2 7/2/2
f 5/2/1 6/2/1 8/2/1
f 7/2/1 8/2/1 6/2/1
f 11/2/9 10/3/8 9/2/7
f 9/2/12 10/3/11 11/2/10
f 9/2/7 13/3/14 12/2/13
f 12/2/16 13/3/15 9/2/12
f 12/2/13 15/3/18 14/2/17
f 14/2/20 15/3/19 12/2/16
f 16/3/21 13/3/14 9/2/7
f 9/2/12 13/3/15 16/3/22
f 13/3/14 17/3/23 12/2/13
f 12/2/16 17/3/24 13/3/15
f 11/2/9 18/3/25 10/3/8
f 10/3/11 18/3/26 11/2/10
f 11/2/9 14/2/17 19/3/27
f 19/3/28 14/2/20 11/2/10
f 18/3/25 11/2/9 19/3/27
f 19/3/28 11/2/10 18/3/26
f 9/2/7 10/3/8 16/3/21
f 16/3/22 10/3/11 9/2/12
f 14/2/17 15/3/18 20/3/29
f 20/3/30 15/3/19 14/2/20
f 12/2/13 17/3/23 15/3/18
f 15/3/19 17/3/24 12/2/16
f 19/3/27 14/2/17 20/3/29
f 20/3/30 14/2/20 19/3/28
f 15/3/31 22/4/32 21/4/31
f 17/3/32 22/4/32 15/3/31
f 21/4/33 22/4/34 15/3/33
f 15/3/33 22/4/34 17/3/34
f 25/5/36 24/6/35 23/5/35
f 24/6/35 25/5/36 26/6/36
f 23/5/38 24/6/38 25/5/37
f 26/6/37 25/5/37 24/6/38
f 29/4/40 28/6/39 27/4/39
f 28/6/39 29/4/40 30/6/40
f 27/4/42 28/6/42 29/4/41
f 30/6/41 29/4/41 28/6/42
f 16/3/43 31/4/44 29/4/43
f 10/3/44 31/4/44 16/3/43
f 29/4/45 31/4/46 16/3/45
f 16/3/45 31/4/46 10/3/46
f 24/6/48 33/4/47 32/6/47
f 33/4/47 24/6/48 34/4/48
f 32/6/50 33/4/50 24/6/49
f 34/4/49 24/6/49 33/4/50
f 37/5/1 36/5/1 35/5/1
f 36/5/1 37/5/1 38/5/1
f 36/5/1 38/5/1 39/5/1
f 36/5/1 39/5/1 40/5/1
f 40/5/1 41/5/1 36/5/1
f 41/5/1 40/5/1 42/5/1
f 39/5/1 38/5/1 43/5/1
f 41/5/1 42/5/1 44/5/1
f 44/5/1 42/5/1 43/5/1
f 43/5/1 38/5/1 25/5/1
f 44/5/1 43/5/1 25/5/1
f 44/5/1 25/5/1 23/5/1
f 35/5/2 36/5/2 37/5/2
f 38/5/2 37/5/2 36/5/2
f 39/5/2 38/5/2 36/5/2
f 40/5/2 39/5/2 36/5/2
f 36/5/2 41/5/2 40/5/2
f 42/5/2 40/5/2 41/5/2
f 43/5/2 38/5/2 39/5/2
f 44/5/2 42/5/2 41/5/2
f 43/5/2 42/5/2 44/5/2
f 25/5/2 38/5/2 43/5/2
f 25/5/2 43/5/2 44/5/2
f 23/5/2 25/5/2 44/5/2
f 45/6/51 25/5/36 38/5/51
f 25/5/36 45/6/51 26/6/36
f 38/5/52 25/5/37 45/6/52
f 26/6/37 45/6/52 25/5/37
f 18/3/53 46/4/53 10/3/44
f 10/3/44 46/4/53 31/4/44
f 10/3/46 46/4/54 18/3/54
f 31/4/46 46/4/54 10/3/46
f 16/3/43 27/4/55 13/3/55
f 16/3/43 29/4/43 27/4/55
f 13/3/56 27/4/56 16/3/45
f 27/4/56 29/4/45 16/3/45
f 44/5/57 24/6/35 32/6/57
f 24/6/35 44/5/57 23/5/35
f 32/6/58 24/6/38 44/5/58
f 23/5/38 44/5/58 24/6/38
f 32/6/57 41/5/59 44/5/57
f 41/5/59 32/6/57 47/6/59
f 44/5/58 41/5/60 32/6/58
f 47/6/60 32/6/58 41/5/60
f 20/3/61 21/4/31 33/4/61
f 15/3/31 21/4/31 20/3/61
f 33/4/62 21/4/33 20/3/62
f 20/3/62 21/4/33 15/3/33
f 34/4/63 20/3/61 33/4/61
f 19/3/63 20/3/61 34/4/63
f 33/4/62 20/3/62 34/4/64
f 34/4/64 20/3/62 19/3/64
f 30/6/66 35/5/65 28/6/65
f 35/5/65 30/6/66 37/5/66
f 28/6/68 35/5/68 30/6/67
f 37/5/67 30/6/67 35/5/68
f 13/3/55 27/4/55 22/4/32
f 13/3/55 22/4/32 17/3/32
f 22/4/34 27/4/56 13/3/56
f 17/3/34 22/4/34 13/3/56
f 21/4/69 48/6/70 47/6/69
f 48/6/70 21/4/69 22/4/70
f 47/6/71 48/6/72 21/4/71
f 22/4/72 21/4/71 48/6/72
f 14/2/2 9/2/2 12/2/2
f 9/2/2 14/2/2 11/2/2
f 12/2/1 9/2/1 14/2/1
f 11/2/1 14/2/1 9/2/1
f 47/6/59 36/5/73 41/5/59
f 36/5/73 47/6/59 48/6/73
f 41/5/60 36/5/74 47/6/60
f 48/6/74 47/6/60 36/5/74
f 29/4/40 45/6/75 30/6/40
f 45/6/75 29/4/40 31/4/75
f 30/6/41 45/6/76 29/4/41
f 31/4/76 29/4/41 45/6/76
f 28/6/65 36/5/73 48/6/73
f 36/5/73 28/6/65 35/5/65
f 48/6/74 36/5/74 28/6/68
f 35/5/68 28/6/68 36/5/74
f 30/6/66 38/5/51 37/5/66
f 38/5/51 30/6/66 45/6/51
f 37/5/67 38/5/52 30/6/67
f 45/6/52 30/6/67 38/5/52
f 22/4/70 28/6/39 48/6/70
f 28/6/39 22/4/70 27/4/39
f 48/6/72 28/6/42 22/4/72
f 27/4/42 22/4/72 28/6/42
f 18/3/53 19/3/63 46/4/53
f 46/4/53 19/3/63 34/4/63
f 46/4/54 19/3/64 18/3/54
f 34/4/64 19/3/64 46/4/54
f 31/4/75 26/6/77 45/6/75
f 26/6/77 31/4/75 46/4/77
f 45/6/76 26/6/78 31/4/76
f 46/4/78 31/4/76 26/6/78
f 33/4/47 47/6/69 32/6/47
f 47/6/69 33/4/47 21/4/69
f 32/6/50 47/6/71 33/4/50
f 21/4/71 33/4/50 47/6/71
f 24/6/48 46/4/77 34/4/48
f 46/4/77 24/6/48 26/6/77
f 34/4/49 46/4/78 24/6/49
f 26/6/78 24/6/49 46/4/78
f 51/2/79 50/8/79 49/7/79
f 50/8/79 51/2/79 52/8/79
f 52/8/79 51/2/79 53/2/79
f 52/8/79 53/2/79 54/7/79
f 49/7/80 50/8/80 51/2/80
f 52/8/80 51/2/80 50/8/80
f 53/2/80 51/2/80 52/8/80
f 54/7/80 53/2/80 52/8/80
f 50/8/81 56/1/81 55/1/81
f 56/1/81 50/8/81 52/8/81
f 55/1/82 56/1/82 50/8/82
f 52/8/82 50/8/82 56/1/82
f 58/10/84 53/2/83 57/9/83
f 53/2/83 58/10/84 54/7/84
f 57/9/86 53/2/86 58/10/85
f 54/7/85 58/10/85 53/2/86
f 55/1/80 60/9/80 59/10/80
f 60/9/80 55/1/80 56/1/80
f 60/9/80 56/1/80 57/9/80
f 57/9/80 56/1/80 58/10/80
f 59/10/79 60/9/79 55/1/79
f 56/1/79 55/1/79 60/9/79
f 57/9/79 56/1/79 60/9/79
f 58/10/79 56/1/79 57/9/79
f 49/7/85 55/1/87 59/10/85
f 55/1/87 49/7/85 50/8/87
f 59/10/84 55/1/88 49/7/84
f 50/8/88 49/7/84 55/1/88
f 53/2/83 60/9/89 57/9/83
f 60/9/89 53/2/83 51/2/89
f 57/9/86 60/9/90 53/2/86
f 51/2/90 53/2/86 60/9/90
f 56/1/91 54/7/84 58/10/84
f 54/7/84 56/1/91 52/8/91
f 58/10/85 54/7/85 56/1/92
f 52/8/92 56/1/92 54/7/85
f 51/2/89 59/10/85 60/9/89
f 59/10/85 51/2/89 49/7/85
f 60/9/90 59/10/84 51/2/90
f 49/7/84 51/2/90 59/10/84
f 63/2/93 62/8/93 61/7/93
f 62/8/93 63/2/93 64/8/93
f 64/8/93 63/2/93 65/2/93
f 64/8/93 65/2/93 66/7/93
f 61/7/94 62/8/94 63/2/94
f 64/8/94 63/2/94 62/8/94
f 65/2/94 63/2/94 64/8/94
f 66/7/94 65/2/94 64/8/94
f 62/8/95 68/1/95 67/1/95
f 68/1/95 62/8/95 64/8/95
f 67/1/96 68/1/96 62/8/96
f 64/8/96 62/8/96 68/1/96
f 70/10/98 65/2/97 69/9/97
f 65/2/97 70/10/98 66/7/98
f 69/9/100 65/2/100 70/10/99
f 66/7/99 70/10/99 65/2/100
f 67/1/94 72/9/94 71/10/94
f 72/9/94 67/1/94 68/1/94
f 72/9/94 68/1/94 69/9/94
f 69/9/94 68/1/94 70/10/94
f 71/10/93 72/9/93 67/1/93
f 68/1/93 67/1/93 72/9/93
f 69/9/93 68/1/93 72/9/93
f 70/10/93 68/1/93 69/9/93
f 61/7/99 67/1/101 71/10/99
f 67/1/101 61/7/99 62/8/101
f 71/10/98 67/1/102 61/7/98
f 62/8/102 61/7/98 67/1/102
f 65/2/97 72/9/103 69/9/97
f 72/9/103 65/2/97 63/2/103
f 69/9/100 72/9/104 65/2/100
f 63/2/104 65/2/100 72/9/104
f 68/1/105 66/7/98 70/10/98
f 66/7/98 68/1/105 64/8/105
f 70/10/99 66/7/99 68/1/106
f 64/8/106 68/1/106 66/7/99
f 63/2/103 71/10/99 72/9/103
f 71/10/99 63/2/103 61/7/99
f 72/9/104 71/10/98 63/2/104
f 61/7/98 63/2/104 71/10/98
f 75/2/107 74/8/107 73/7/107
f 74/8/107 75/2/107 76/8/107
f 76/8/107 75/2/107 77/2/107
f 76/8/107 77/2/107 78/7/107
f 73/7/108 74/8/108 75/2/108
f 76/8/108 75/2/108 74/8/108
f 77/2/108 75/2/108 76/8/108
f 78/7/108 77/2/108 76/8/108
f 74/8/109 80/1/109 79/1/109
f 80/1/109 74/8/109 76/8/109
f 79/1/110 80/1/110 74/8/110
f 76/8/110 74/8/110 80/1/110
f 82/10/112 77/2/111 81/9/111
f 77/2/111 82/10/112 78/7/112
f 81/9/114 77/2/114 82/10/113
f 78/7/113 82/10/113 77/2/114
f 79/1/108 84/9/108 83/10/108
f 84/9/108 79/1/108 80/1/108
f 84/9/108 80/1/108 81/9/108
f 81/9/108 80/1/108 82/10/108
f 83/10/107 84/9/107 79/1/107
f 80/1/107 79/1/107 84/9/107
f 81/9/107 80/1/107 84/9/107
f 82/10/107 80/1/107 81/9/107
f 73/7/113 79/1/115 83/10/113
f 79/1/115 73/7/113 74/8/115
f 83/10/112 79/1/116 73/7/112
f 74/8/116 73/7/112 79/1/116
f 77/2/111 84/9/117 81/9/111
f 84/9/117 77/2/111 75/2/117
f 81/9/114 84/9/118 77/2/114
f 75/2/118 77/2/114 84/9/118
f 80/1/119 78/7/112 82/10/112
f 78/7/112 80/1/119 76/8/119
f 82/10/113 78/7/113 80/1/120
f 76/8/120 80/1/120 78/7/113
f 75/2/117 83/10/113 84/9/117
f 83/10/113 75/2/117 73/7/113
f 84/9/118 83/10/112 75/2/118
f 73/7/112 75/2/118 83/10/112
f 87/11/1 86/11/1 85/11/1
f 86/11/1 87/11/1 88/11/1
f 85/11/2 86/11/2 87/11/2
f 88/11/2 87/11/2 86/11/2
f 88/11/121 42/12/121 86/11/121
f 42/12/121 88/11/121 43/12/121
f 86/11/122 42/12/122 88/11/122
f 43/12/122 88/11/122 42/12/122
f 40/12/123 87/11/123 85/11/123
f 87/11/123 40/12/123 39/12/123
f 85/11/124 87/11/124 40/12/124
f 39/12/124 40/12/124 87/11/124
f 42/12/125 85/11/125 86/11/125
f 85/11/125 42/12/125 40/12/125
f 86/11/126 85/11/126 42/12/126
f 40/12/126 42/12/126 85/11/126
f 39/12/127 88/11/127 87/11/127
f 88/11/127 39/12/127 43/12/127
f 87/11/128 88/11/128 39/12/128
f 43/12/128 39/12/128 88/11/128

