# Created by Kenney (www.kenney.nl)

mtllib tile-crossing.mtl

g tile-crossing

v -0.375 0.2 0.5 1 1 1
v -0.375 0.1 0.5 1 1 1
v -0.5 0.2 0.5 1 1 1
v -0.5 0 0.5 1 1 1
v 0.375 0.1 0.5 1 1 1
v 0.5 0 0.5 1 1 1
v 0.5 0.2 0.5 1 1 1
v 0.375 0.2 0.5 1 1 1
v 0.5 0.2 0.375 1 1 1
v 0.5 0.1 0.375 1 1 1
v 0.5 0.1 -0.375 1 1 1
v 0.5 0 -0.5 1 1 1
v 0.5 0.2 -0.375 1 1 1
v 0.5 0.2 -0.5 1 1 1
v -0.375 0.2 -0.5 1 1 1
v -0.5 0.2 -0.5 1 1 1
v -0.375 0.1 -0.5 1 1 1
v -0.5 0 -0.5 1 1 1
v 0.375 0.1 -0.5 1 1 1
v 0.375 0.2 -0.5 1 1 1
v -0.384515 0.2 -0.4521646 1 1 1
v -0.4116116 0.2 -0.4116116 1 1 1
v -0.4521646 0.2 -0.384515 1 1 1
v -0.5 0.2 -0.375 1 1 1
v 0.4521646 0.2 -0.384515 1 1 1
v 0.4116116 0.2 -0.4116116 1 1 1
v 0.384515 0.2 -0.4521646 1 1 1
v -0.5 0.2 0.375 1 1 1
v -0.5 0.1 0.375 1 1 1
v -0.5 0.1 -0.375 1 1 1
v -0.384515 0.2 0.4521646 1 1 1
v -0.4116116 0.2 0.4116116 1 1 1
v -0.4521646 0.2 0.384515 1 1 1
v 0.4521646 0.2 0.384515 1 1 1
v 0.4116116 0.2 0.4116116 1 1 1
v 0.384515 0.2 0.4521646 1 1 1
v -0.4521646 0.1 -0.384515 1 1 1
v -0.4116116 0.1 -0.4116116 1 1 1
v -0.384515 0.1 -0.4521646 1 1 1
v 0.4521646 0.1 -0.384515 1 1 1
v 0.4116116 0.1 -0.4116116 1 1 1
v 0.384515 0.1 -0.4521646 1 1 1
v -0.384515 0.1 0.4521646 1 1 1
v -0.4116116 0.1 0.4116116 1 1 1
v -0.4521646 0.1 0.384515 1 1 1
v 0.4521646 0.1 0.384515 1 1 1
v 0.4116116 0.1 0.4116116 1 1 1
v 0.384515 0.1 0.4521646 1 1 1
v 0.2182351 0.13195 0.2971792 1 1 1
v 0.2320996 0.13195 0.2513035 1 1 1
v 0.2510323 0.13195 0.3321241 1 1 1
v 0.2976941 0.13195 0.3211932 1 1 1
v 0.2787614 0.13195 0.2403727 1 1 1
v 0.3115587 0.13195 0.2753175 1 1 1
v 0.2026811 0.1 0.3008228 1 1 1
v 0.2211672 0.1 0.2396552 1 1 1
v 0.3086265 0.1 0.3328415 1 1 1
v 0.3271126 0.1 0.2716739 1 1 1
v 0.2464108 0.1 0.347416 1 1 1
v 0.2833829 0.1 0.2250807 1 1 1
v 0.2166642 0.13195 -0.3292735 1 1 1
v 0.2305287 0.13195 -0.3751492 1 1 1
v 0.2494614 0.13195 -0.2943286 1 1 1
v 0.2961232 0.13195 -0.3052594 1 1 1
v 0.2771905 0.13195 -0.38608 1 1 1
v 0.3099878 0.13195 -0.3511351 1 1 1
v 0.2011102 0.1 -0.3256299 1 1 1
v 0.2195963 0.1 -0.3867975 1 1 1
v 0.3070557 0.1 -0.2936111 1 1 1
v 0.3255417 0.1 -0.3547787 1 1 1
v 0.2448399 0.1 -0.2790367 1 1 1
v 0.281812 0.1 -0.4013719 1 1 1
v 0.1555076 0.115975 -0.221622 1 1 1
v 0.1081028 0.115975 -0.2286641 1 1 1
v 0.1853086 0.115975 -0.2591548 1 1 1
v 0.1677049 0.115975 -0.3037296 1 1 1
v 0.09049904 0.115975 -0.2732389 1 1 1
v 0.1203001 0.115975 -0.3107716 1 1 1
v 0.1613755 0.1 -0.2067638 1 1 1
v 0.09816913 0.1 -0.2161532 1 1 1
v 0.1776385 0.1 -0.3162405 1 1 1
v 0.1144321 0.1 -0.3256299 1 1 1
v 0.2011102 0.1 -0.2568074 1 1 1
v 0.07469744 0.1 -0.2755863 1 1 1

vn 0 0 1
vn 0 0 -1
vn 1 0 0
vn -1 0 0
vn 0 1 0
vn 0 -1 0
vn 0.129611 0.7474093 0.6515982
vn 0.1950903 0 0.9807853
vn 0.2514771 0.7537675 0.6071194
vn 0.3826834 0 0.9238795
vn -0.2514771 -0.7537675 -0.6071194
vn -0.1950903 0 -0.9807853
vn -0.129611 -0.7474093 -0.6515982
vn -0.3826834 0 -0.9238795
vn 0.4646691 0.7537675 0.4646691
vn 0.7071068 0 0.7071068
vn -0.7071068 0 -0.7071068
vn -0.4646691 -0.7537675 -0.4646691
vn 0.9238795 0 0.3826834
vn 0.6071194 0.7537675 0.2514771
vn -0.6071194 -0.7537675 -0.2514771
vn -0.9238795 0 -0.3826834
vn 0.9807853 0 0.1950903
vn 0.6515982 0.7474093 0.129611
vn -0.6515982 -0.7474093 -0.129611
vn -0.9807853 0 -0.1950903
vn -0.2514771 0.7537675 0.6071194
vn -0.4646691 0.7537675 0.4646691
vn -0.3826834 0 0.9238795
vn -0.7071068 0 0.7071068
vn 0.3826834 0 -0.9238795
vn 0.4646691 -0.7537675 -0.4646691
vn 0.2514771 -0.7537675 -0.6071194
vn 0.7071068 0 -0.7071068
vn -0.6515982 0.7474093 0.129611
vn -0.9807853 0 0.1950903
vn -0.6071194 0.7537675 0.2514771
vn -0.9238795 0 0.3826834
vn 0.6071194 -0.7537675 -0.2514771
vn 0.9807853 0 -0.1950903
vn 0.6515982 -0.7474093 -0.129611
vn 0.9238795 0 -0.3826834
vn 0.6071194 0.7537675 -0.2514771
vn 0.6515982 0.7474093 -0.129611
vn -0.6071194 -0.7537675 0.2514771
vn -0.6515982 -0.7474093 0.129611
vn 0.4646691 0.7537675 -0.4646691
vn -0.4646691 -0.7537675 0.4646691
vn 0.129611 0.7474093 -0.6515982
vn 0.2514771 0.7537675 -0.6071194
vn 0.1950903 0 -0.9807853
vn -0.1950903 0 0.9807853
vn -0.2514771 -0.7537675 0.6071194
vn -0.129611 -0.7474093 0.6515982
vn -0.129611 0.7474093 0.6515982
vn 0.129611 -0.7474093 -0.6515982
vn -0.129611 0.7474093 -0.6515982
vn -0.2514771 0.7537675 -0.6071194
vn 0.2514771 -0.7537675 0.6071194
vn 0.129611 -0.7474093 0.6515982
vn -0.4646691 0.7537675 -0.4646691
vn 0.4646691 -0.7537675 0.4646691
vn -0.6071194 0.7537675 -0.2514771
vn -0.6515982 0.7474093 -0.129611
vn 0.6515982 -0.7474093 0.129611
vn 0.6071194 -0.7537675 0.2514771
vn -0.8708519 0.4472136 0.2040024
vn -0.6120972 0.4472136 -0.6521786
vn 0.6120972 -0.4472136 0.6521786
vn 0.8708519 -0.4472136 -0.2040024
vn 0.6120972 0.4472136 0.6521786
vn 0.8708519 0.4472136 -0.2040024
vn -0.8708519 -0.4472136 0.2040024
vn -0.6120972 -0.4472136 -0.6521786
vn -0.2587547 0.4472136 0.856181
vn 0.2587547 -0.4472136 -0.856181
vn 0.2587547 0.4472136 -0.856181
vn -0.2587547 -0.4472136 0.856181
vn 0.2597339 0.7071068 0.6576765
vn -0.4396976 0.7071068 0.5537744
vn 0.4396976 -0.7071068 -0.5537744
vn -0.2597339 -0.7071068 -0.6576765
vn 0.4396976 0.7071068 -0.5537744
vn -0.2597339 0.7071068 -0.6576765
vn 0.2597339 -0.7071068 0.6576765
vn -0.4396976 -0.7071068 0.5537744
vn 0.6994314 0.7071068 0.1039021
vn -0.6994314 -0.7071068 -0.1039021
vn -0.6994314 0.7071068 -0.1039021
vn 0.6994314 -0.7071068 0.1039021

vt 0.59375 0.475
vt 0.59375 0.375
vt 0.59375 0.275
vt 0.09375 0.425
vt 0.09375 0.325

usemtl colormap

f 3/1/1 2/2/1 1/1/1
f 4/3/1 2/2/1 3/1/1
f 2/2/1 4/3/1 5/2/1
f 6/3/1 5/2/1 4/3/1
f 5/2/1 6/3/1 7/1/1
f 5/2/1 7/1/1 8/1/1
f 1/1/2 2/2/2 3/1/2
f 3/1/2 2/2/2 4/3/2
f 5/2/2 4/3/2 2/2/2
f 4/3/2 5/2/2 6/3/2
f 7/1/2 6/3/2 5/2/2
f 8/1/2 7/1/2 5/2/2
f 7/1/3 10/2/3 9/1/3
f 6/3/3 10/2/3 7/1/3
f 6/3/3 11/2/3 10/2/3
f 12/3/3 11/2/3 6/3/3
f 12/3/3 13/1/3 11/2/3
f 13/1/3 12/3/3 14/1/3
f 9/1/4 10/2/4 7/1/4
f 7/1/4 10/2/4 6/3/4
f 10/2/4 11/2/4 6/3/4
f 6/3/4 11/2/4 12/3/4
f 11/2/4 13/1/4 12/3/4
f 14/1/4 12/3/4 13/1/4
f 17/2/2 16/1/2 15/1/2
f 17/2/2 18/3/2 16/1/2
f 18/3/2 17/2/2 12/3/2
f 19/2/2 12/3/2 17/2/2
f 12/3/2 19/2/2 14/1/2
f 14/1/2 19/2/2 20/1/2
f 15/1/1 16/1/1 17/2/1
f 16/1/1 18/3/1 17/2/1
f 12/3/1 17/2/1 18/3/1
f 17/2/1 12/3/1 19/2/1
f 14/1/1 19/2/1 12/3/1
f 20/1/1 19/2/1 14/1/1
f 16/1/5 21/1/5 15/1/5
f 21/1/5 16/1/5 22/1/5
f 22/1/5 16/1/5 23/1/5
f 23/1/5 16/1/5 24/1/5
f 15/1/6 21/1/6 16/1/6
f 22/1/6 16/1/6 21/1/6
f 23/1/6 16/1/6 22/1/6
f 24/1/6 16/1/6 23/1/6
f 20/1/5 13/1/5 14/1/5
f 13/1/5 20/1/5 25/1/5
f 25/1/5 20/1/5 26/1/5
f 26/1/5 20/1/5 27/1/5
f 14/1/6 13/1/6 20/1/6
f 25/1/6 20/1/6 13/1/6
f 26/1/6 20/1/6 25/1/6
f 27/1/6 20/1/6 26/1/6
f 28/1/4 4/3/4 3/1/4
f 29/2/4 4/3/4 28/1/4
f 30/2/4 4/3/4 29/2/4
f 30/2/4 18/3/4 4/3/4
f 18/3/4 30/2/4 16/1/4
f 24/1/4 16/1/4 30/2/4
f 3/1/3 4/3/3 28/1/3
f 28/1/3 4/3/3 29/2/3
f 29/2/3 4/3/3 30/2/3
f 4/3/3 18/3/3 30/2/3
f 16/1/3 30/2/3 18/3/3
f 30/2/3 16/1/3 24/1/3
f 31/1/5 3/1/5 1/1/5
f 3/1/5 31/1/5 32/1/5
f 3/1/5 32/1/5 33/1/5
f 3/1/5 33/1/5 28/1/5
f 1/1/6 3/1/6 31/1/6
f 32/1/6 31/1/6 3/1/6
f 33/1/6 32/1/6 3/1/6
f 28/1/6 33/1/6 3/1/6
f 9/1/5 8/1/5 7/1/5
f 8/1/5 9/1/5 34/1/5
f 8/1/5 34/1/5 35/1/5
f 8/1/5 35/1/5 36/1/5
f 7/1/6 8/1/6 9/1/6
f 34/1/6 9/1/6 8/1/6
f 35/1/6 34/1/6 8/1/6
f 36/1/6 35/1/6 8/1/6
f 37/4/9 24/5/8 30/4/7
f 24/5/8 37/4/9 23/5/10
f 30/4/13 24/5/12 37/4/11
f 23/5/14 37/4/11 24/5/12
f 22/5/16 37/4/9 38/4/15
f 37/4/9 22/5/16 23/5/10
f 38/4/18 37/4/11 22/5/17
f 23/5/14 22/5/17 37/4/11
f 22/5/16 39/4/20 21/5/19
f 39/4/20 22/5/16 38/4/15
f 21/5/22 39/4/21 22/5/17
f 38/4/18 22/5/17 39/4/21
f 21/5/19 17/4/24 15/5/23
f 17/4/24 21/5/19 39/4/20
f 15/5/26 17/4/25 21/5/22
f 39/4/21 21/5/22 17/4/25
f 25/5/29 41/4/28 40/4/27
f 41/4/28 25/5/29 26/5/30
f 40/4/33 41/4/32 25/5/31
f 26/5/34 25/5/31 41/4/32
f 42/4/37 20/5/36 19/4/35
f 20/5/36 42/4/37 27/5/38
f 19/4/41 20/5/40 42/4/39
f 27/5/42 42/4/39 20/5/40
f 1/5/40 43/4/43 31/5/42
f 43/4/43 1/5/40 2/4/44
f 31/5/38 43/4/45 1/5/36
f 2/4/46 1/5/36 43/4/45
f 31/5/42 44/4/47 32/5/34
f 44/4/47 31/5/42 43/4/43
f 32/5/30 44/4/48 31/5/38
f 43/4/45 31/5/38 44/4/48
f 28/5/51 45/4/50 29/4/49
f 45/4/50 28/5/51 33/5/31
f 29/4/54 45/4/53 28/5/52
f 33/5/29 28/5/52 45/4/53
f 13/5/52 40/4/27 11/4/55
f 40/4/27 13/5/52 25/5/29
f 11/4/56 40/4/33 13/5/51
f 25/5/31 13/5/51 40/4/33
f 33/5/31 44/4/47 45/4/50
f 44/4/47 33/5/31 32/5/34
f 45/4/53 44/4/48 33/5/29
f 32/5/30 33/5/29 44/4/48
f 41/4/28 27/5/38 42/4/37
f 27/5/38 41/4/28 26/5/30
f 42/4/39 27/5/42 41/4/32
f 26/5/34 41/4/32 27/5/42
f 46/4/58 9/5/12 10/4/57
f 9/5/12 46/4/58 34/5/14
f 10/4/60 9/5/8 46/4/59
f 34/5/10 46/4/59 9/5/8
f 35/5/17 46/4/58 47/4/61
f 46/4/58 35/5/17 34/5/14
f 47/4/62 46/4/59 35/5/16
f 34/5/10 35/5/16 46/4/59
f 5/4/64 36/5/22 48/4/63
f 36/5/22 5/4/64 8/5/26
f 48/4/66 36/5/19 5/4/65
f 8/5/23 5/4/65 36/5/19
f 48/4/63 35/5/17 47/4/61
f 35/5/17 48/4/63 36/5/22
f 47/4/62 35/5/16 48/4/66
f 36/5/19 48/4/66 35/5/16
f 40/4/27 10/4/57 11/4/55
f 10/4/57 40/4/27 46/4/58
f 46/4/58 40/4/27 41/4/28
f 46/4/58 41/4/28 47/4/61
f 47/4/61 41/4/28 42/4/37
f 47/4/61 42/4/37 48/4/63
f 48/4/63 42/4/37 5/4/64
f 5/4/64 42/4/37 19/4/35
f 5/4/64 19/4/35 2/4/44
f 2/4/44 19/4/35 17/4/24
f 2/4/44 17/4/24 43/4/43
f 43/4/43 17/4/24 39/4/20
f 43/4/43 39/4/20 44/4/47
f 44/4/47 39/4/20 38/4/15
f 44/4/47 38/4/15 37/4/9
f 44/4/47 37/4/9 45/4/50
f 45/4/50 37/4/9 30/4/7
f 45/4/50 30/4/7 29/4/49
f 11/4/56 10/4/60 40/4/33
f 46/4/59 40/4/33 10/4/60
f 41/4/32 40/4/33 46/4/59
f 47/4/62 41/4/32 46/4/59
f 42/4/39 41/4/32 47/4/62
f 48/4/66 42/4/39 47/4/62
f 5/4/65 42/4/39 48/4/66
f 19/4/41 42/4/39 5/4/65
f 2/4/46 19/4/41 5/4/65
f 17/4/25 19/4/41 2/4/46
f 43/4/45 17/4/25 2/4/46
f 39/4/21 17/4/25 43/4/45
f 44/4/48 39/4/21 43/4/45
f 38/4/18 39/4/21 44/4/48
f 37/4/11 38/4/18 44/4/48
f 45/4/53 37/4/11 44/4/48
f 30/4/13 37/4/11 45/4/53
f 29/4/54 30/4/13 45/4/53
f 51/4/5 50/4/5 49/4/5
f 50/4/5 51/4/5 52/4/5
f 50/4/5 52/4/5 53/4/5
f 53/4/5 52/4/5 54/4/5
f 49/4/6 50/4/6 51/4/6
f 52/4/6 51/4/6 50/4/6
f 53/4/6 52/4/6 50/4/6
f 54/4/6 52/4/6 53/4/6
f 50/4/68 55/5/67 49/4/67
f 55/5/67 50/4/68 56/5/68
f 49/4/70 55/5/70 50/4/69
f 56/5/69 50/4/69 55/5/70
f 58/5/72 52/4/71 57/5/71
f 52/4/71 58/5/72 54/4/72
f 57/5/74 52/4/74 58/5/73
f 54/4/73 58/5/73 52/4/74
f 51/4/75 55/5/67 59/5/75
f 55/5/67 51/4/75 49/4/67
f 59/5/76 55/5/70 51/4/76
f 49/4/70 51/4/76 55/5/70
f 60/5/77 54/4/72 58/5/72
f 54/4/72 60/5/77 53/4/77
f 58/5/73 54/4/73 60/5/78
f 53/4/78 60/5/78 54/4/73
f 50/4/68 60/5/77 56/5/68
f 60/5/77 50/4/68 53/4/77
f 56/5/69 60/5/78 50/4/69
f 53/4/78 50/4/69 60/5/78
f 52/4/71 59/5/75 57/5/71
f 59/5/75 52/4/71 51/4/75
f 57/5/74 59/5/76 52/4/74
f 51/4/76 52/4/74 59/5/76
f 63/4/5 62/4/5 61/4/5
f 62/4/5 63/4/5 64/4/5
f 62/4/5 64/4/5 65/4/5
f 65/4/5 64/4/5 66/4/5
f 61/4/6 62/4/6 63/4/6
f 64/4/6 63/4/6 62/4/6
f 65/4/6 64/4/6 62/4/6
f 66/4/6 64/4/6 65/4/6
f 62/4/68 67/5/67 61/4/67
f 67/5/67 62/4/68 68/5/68
f 61/4/70 67/5/70 62/4/69
f 68/5/69 62/4/69 67/5/70
f 70/5/72 64/4/71 69/5/71
f 64/4/71 70/5/72 66/4/72
f 69/5/74 64/4/74 70/5/73
f 66/4/73 70/5/73 64/4/74
f 63/4/75 67/5/67 71/5/75
f 67/5/67 63/4/75 61/4/67
f 71/5/76 67/5/70 63/4/76
f 61/4/70 63/4/76 67/5/70
f 72/5/77 66/4/72 70/5/72
f 66/4/72 72/5/77 65/4/77
f 70/5/73 66/4/73 72/5/78
f 65/4/78 72/5/78 66/4/73
f 62/4/68 72/5/77 68/5/68
f 72/5/77 62/4/68 65/4/77
f 68/5/69 72/5/78 62/4/69
f 65/4/78 62/4/69 72/5/78
f 64/4/71 71/5/75 69/5/71
f 71/5/75 64/4/71 63/4/75
f 69/5/74 71/5/76 64/4/74
f 63/4/76 64/4/74 71/5/76
f 75/4/5 74/4/5 73/4/5
f 74/4/5 75/4/5 76/4/5
f 74/4/5 76/4/5 77/4/5
f 77/4/5 76/4/5 78/4/5
f 73/4/6 74/4/6 75/4/6
f 76/4/6 75/4/6 74/4/6
f 77/4/6 76/4/6 74/4/6
f 78/4/6 76/4/6 77/4/6
f 74/4/80 79/5/79 73/4/79
f 79/5/79 74/4/80 80/5/80
f 73/4/82 79/5/82 74/4/81
f 80/5/81 74/4/81 79/5/82
f 82/5/84 76/4/83 81/5/83
f 76/4/83 82/5/84 78/4/84
f 81/5/86 76/4/86 82/5/85
f 78/4/85 82/5/85 76/4/86
f 75/4/87 79/5/79 83/5/87
f 79/5/79 75/4/87 73/4/79
f 83/5/88 79/5/82 75/4/88
f 73/4/82 75/4/88 79/5/82
f 84/5/89 78/4/84 82/5/84
f 78/4/84 84/5/89 77/4/89
f 82/5/85 78/4/85 84/5/90
f 77/4/90 84/5/90 78/4/85
f 74/4/80 84/5/89 80/5/80
f 84/5/89 74/4/80 77/4/89
f 80/5/81 84/5/90 74/4/81
f 77/4/90 74/4/81 84/5/90
f 76/4/83 83/5/87 81/5/83
f 83/5/87 76/4/83 75/4/87
f 81/5/86 83/5/88 76/4/86
f 75/4/88 76/4/86 83/5/88

g tile-crossing




usemtl colormap

f 3/1/1 2/2/1 1/1/1
f 4/3/1 2/2/1 3/1/1
f 2/2/1 4/3/1 5/2/1
f 6/3/1 5/2/1 4/3/1
f 5/2/1 6/3/1 7/1/1
f 5/2/1 7/1/1 8/1/1
f 1/1/2 2/2/2 3/1/2
f 3/1/2 2/2/2 4/3/2
f 5/2/2 4/3/2 2/2/2
f 4/3/2 5/2/2 6/3/2
f 7/1/2 6/3/2 5/2/2
f 8/1/2 7/1/2 5/2/2
f 7/1/3 10/2/3 9/1/3
f 6/3/3 10/2/3 7/1/3
f 6/3/3 11/2/3 10/2/3
f 12/3/3 11/2/3 6/3/3
f 12/3/3 13/1/3 11/2/3
f 13/1/3 12/3/3 14/1/3
f 9/1/4 10/2/4 7/1/4
f 7/1/4 10/2/4 6/3/4
f 10/2/4 11/2/4 6/3/4
f 6/3/4 11/2/4 12/3/4
f 11/2/4 13/1/4 12/3/4
f 14/1/4 12/3/4 13/1/4
f 17/2/2 16/1/2 15/1/2
f 17/2/2 18/3/2 16/1/2
f 18/3/2 17/2/2 12/3/2
f 19/2/2 12/3/2 17/2/2
f 12/3/2 19/2/2 14/1/2
f 14/1/2 19/2/2 20/1/2
f 15/1/1 16/1/1 17/2/1
f 16/1/1 18/3/1 17/2/1
f 12/3/1 17/2/1 18/3/1
f 17/2/1 12/3/1 19/2/1
f 14/1/1 19/2/1 12/3/1
f 20/1/1 19/2/1 14/1/1
f 16/1/5 21/1/5 15/1/5
f 21/1/5 16/1/5 22/1/5
f 22/1/5 16/1/5 23/1/5
f 23/1/5 16/1/5 24/1/5
f 15/1/6 21/1/6 16/1/6
f 22/1/6 16/1/6 21/1/6
f 23/1/6 16/1/6 22/1/6
f 24/1/6 16/1/6 23/1/6
f 20/1/5 13/1/5 14/1/5
f 13/1/5 20/1/5 25/1/5
f 25/1/5 20/1/5 26/1/5
f 26/1/5 20/1/5 27/1/5
f 14/1/6 13/1/6 20/1/6
f 25/1/6 20/1/6 13/1/6
f 26/1/6 20/1/6 25/1/6
f 27/1/6 20/1/6 26/1/6
f 28/1/4 4/3/4 3/1/4
f 29/2/4 4/3/4 28/1/4
f 30/2/4 4/3/4 29/2/4
f 30/2/4 18/3/4 4/3/4
f 18/3/4 30/2/4 16/1/4
f 24/1/4 16/1/4 30/2/4
f 3/1/3 4/3/3 28/1/3
f 28/1/3 4/3/3 29/2/3
f 29/2/3 4/3/3 30/2/3
f 4/3/3 18/3/3 30/2/3
f 16/1/3 30/2/3 18/3/3
f 30/2/3 16/1/3 24/1/3
f 31/1/5 3/1/5 1/1/5
f 3/1/5 31/1/5 32/1/5
f 3/1/5 32/1/5 33/1/5
f 3/1/5 33/1/5 28/1/5
f 1/1/6 3/1/6 31/1/6
f 32/1/6 31/1/6 3/1/6
f 33/1/6 32/1/6 3/1/6
f 28/1/6 33/1/6 3/1/6
f 9/1/5 8/1/5 7/1/5
f 8/1/5 9/1/5 34/1/5
f 8/1/5 34/1/5 35/1/5
f 8/1/5 35/1/5 36/1/5
f 7/1/6 8/1/6 9/1/6
f 34/1/6 9/1/6 8/1/6
f 35/1/6 34/1/6 8/1/6
f 36/1/6 35/1/6 8/1/6
f 37/4/9 24/5/8 30/4/7
f 24/5/8 37/4/9 23/5/10
f 30/4/13 24/5/12 37/4/11
f 23/5/14 37/4/11 24/5/12
f 22/5/16 37/4/9 38/4/15
f 37/4/9 22/5/16 23/5/10
f 38/4/18 37/4/11 22/5/17
f 23/5/14 22/5/17 37/4/11
f 22/5/16 39/4/20 21/5/19
f 39/4/20 22/5/16 38/4/15
f 21/5/22 39/4/21 22/5/17
f 38/4/18 22/5/17 39/4/21
f 21/5/19 17/4/24 15/5/23
f 17/4/24 21/5/19 39/4/20
f 15/5/26 17/4/25 21/5/22
f 39/4/21 21/5/22 17/4/25
f 25/5/29 41/4/28 40/4/27
f 41/4/28 25/5/29 26/5/30
f 40/4/33 41/4/32 25/5/31
f 26/5/34 25/5/31 41/4/32
f 42/4/37 20/5/36 19/4/35
f 20/5/36 42/4/37 27/5/38
f 19/4/41 20/5/40 42/4/39
f 27/5/42 42/4/39 20/5/40
f 1/5/40 43/4/43 31/5/42
f 43/4/43 1/5/40 2/4/44
f 31/5/38 43/4/45 1/5/36
f 2/4/46 1/5/36 43/4/45
f 31/5/42 44/4/47 32/5/34
f 44/4/47 31/5/42 43/4/43
f 32/5/30 44/4/48 31/5/38
f 43/4/45 31/5/38 44/4/48
f 28/5/51 45/4/50 29/4/49
f 45/4/50 28/5/51 33/5/31
f 29/4/54 45/4/53 28/5/52
f 33/5/29 28/5/52 45/4/53
f 13/5/52 40/4/27 11/4/55
f 40/4/27 13/5/52 25/5/29
f 11/4/56 40/4/33 13/5/51
f 25/5/31 13/5/51 40/4/33
f 33/5/31 44/4/47 45/4/50
f 44/4/47 33/5/31 32/5/34
f 45/4/53 44/4/48 33/5/29
f 32/5/30 33/5/29 44/4/48
f 41/4/28 27/5/38 42/4/37
f 27/5/38 41/4/28 26/5/30
f 42/4/39 27/5/42 41/4/32
f 26/5/34 41/4/32 27/5/42
f 46/4/58 9/5/12 10/4/57
f 9/5/12 46/4/58 34/5/14
f 10/4/60 9/5/8 46/4/59
f 34/5/10 46/4/59 9/5/8
f 35/5/17 46/4/58 47/4/61
f 46/4/58 35/5/17 34/5/14
f 47/4/62 46/4/59 35/5/16
f 34/5/10 35/5/16 46/4/59
f 5/4/64 36/5/22 48/4/63
f 36/5/22 5/4/64 8/5/26
f 48/4/66 36/5/19 5/4/65
f 8/5/23 5/4/65 36/5/19
f 48/4/63 35/5/17 47/4/61
f 35/5/17 48/4/63 36/5/22
f 47/4/62 35/5/16 48/4/66
f 36/5/19 48/4/66 35/5/16
f 40/4/27 10/4/57 11/4/55
f 10/4/57 40/4/27 46/4/58
f 46/4/58 40/4/27 41/4/28
f 46/4/58 41/4/28 47/4/61
f 47/4/61 41/4/28 42/4/37
f 47/4/61 42/4/37 48/4/63
f 48/4/63 42/4/37 5/4/64
f 5/4/64 42/4/37 19/4/35
f 5/4/64 19/4/35 2/4/44
f 2/4/44 19/4/35 17/4/24
f 2/4/44 17/4/24 43/4/43
f 43/4/43 17/4/24 39/4/20
f 43/4/43 39/4/20 44/4/47
f 44/4/47 39/4/20 38/4/15
f 44/4/47 38/4/15 37/4/9
f 44/4/47 37/4/9 45/4/50
f 45/4/50 37/4/9 30/4/7
f 45/4/50 30/4/7 29/4/49
f 11/4/56 10/4/60 40/4/33
f 46/4/59 40/4/33 10/4/60
f 41/4/32 40/4/33 46/4/59
f 47/4/62 41/4/32 46/4/59
f 42/4/39 41/4/32 47/4/62
f 48/4/66 42/4/39 47/4/62
f 5/4/65 42/4/39 48/4/66
f 19/4/41 42/4/39 5/4/65
f 2/4/46 19/4/41 5/4/65
f 17/4/25 19/4/41 2/4/46
f 43/4/45 17/4/25 2/4/46
f 39/4/21 17/4/25 43/4/45
f 44/4/48 39/4/21 43/4/45
f 38/4/18 39/4/21 44/4/48
f 37/4/11 38/4/18 44/4/48
f 45/4/53 37/4/11 44/4/48
f 30/4/13 37/4/11 45/4/53
f 29/4/54 30/4/13 45/4/53
f 51/4/5 50/4/5 49/4/5
f 50/4/5 51/4/5 52/4/5
f 50/4/5 52/4/5 53/4/5
f 53/4/5 52/4/5 54/4/5
f 49/4/6 50/4/6 51/4/6
f 52/4/6 51/4/6 50/4/6
f 53/4/6 52/4/6 50/4/6
f 54/4/6 52/4/6 53/4/6
f 50/4/68 55/5/67 49/4/67
f 55/5/67 50/4/68 56/5/68
f 49/4/70 55/5/70 50/4/69
f 56/5/69 50/4/69 55/5/70
f 58/5/72 52/4/71 57/5/71
f 52/4/71 58/5/72 54/4/72
f 57/5/74 52/4/74 58/5/73
f 54/4/73 58/5/73 52/4/74
f 51/4/75 55/5/67 59/5/75
f 55/5/67 51/4/75 49/4/67
f 59/5/76 55/5/70 51/4/76
f 49/4/70 51/4/76 55/5/70
f 60/5/77 54/4/72 58/5/72
f 54/4/72 60/5/77 53/4/77
f 58/5/73 54/4/73 60/5/78
f 53/4/78 60/5/78 54/4/73
f 50/4/68 60/5/77 56/5/68
f 60/5/77 50/4/68 53/4/77
f 56/5/69 60/5/78 50/4/69
f 53/4/78 50/4/69 60/5/78
f 52/4/71 59/5/75 57/5/71
f 59/5/75 52/4/71 51/4/75
f 57/5/74 59/5/76 52/4/74
f 51/4/76 52/4/74 59/5/76
f 63/4/5 62/4/5 61/4/5
f 62/4/5 63/4/5 64/4/5
f 62/4/5 64/4/5 65/4/5
f 65/4/5 64/4/5 66/4/5
f 61/4/6 62/4/6 63/4/6
f 64/4/6 63/4/6 62/4/6
f 65/4/6 64/4/6 62/4/6
f 66/4/6 64/4/6 65/4/6
f 62/4/68 67/5/67 61/4/67
f 67/5/67 62/4/68 68/5/68
f 61/4/70 67/5/70 62/4/69
f 68/5/69 62/4/69 67/5/70
f 70/5/72 64/4/71 69/5/71
f 64/4/71 70/5/72 66/4/72
f 69/5/74 64/4/74 70/5/73
f 66/4/73 70/5/73 64/4/74
f 63/4/75 67/5/67 71/5/75
f 67/5/67 63/4/75 61/4/67
f 71/5/76 67/5/70 63/4/76
f 61/4/70 63/4/76 67/5/70
f 72/5/77 66/4/72 70/5/72
f 66/4/72 72/5/77 65/4/77
f 70/5/73 66/4/73 72/5/78
f 65/4/78 72/5/78 66/4/73
f 62/4/68 72/5/77 68/5/68
f 72/5/77 62/4/68 65/4/77
f 68/5/69 72/5/78 62/4/69
f 65/4/78 62/4/69 72/5/78
f 64/4/71 71/5/75 69/5/71
f 71/5/75 64/4/71 63/4/75
f 69/5/74 71/5/76 64/4/74
f 63/4/76 64/4/74 71/5/76
f 75/4/5 74/4/5 73/4/5
f 74/4/5 75/4/5 76/4/5
f 74/4/5 76/4/5 77/4/5
f 77/4/5 76/4/5 78/4/5
f 73/4/6 74/4/6 75/4/6
f 76/4/6 75/4/6 74/4/6
f 77/4/6 76/4/6 74/4/6
f 78/4/6 76/4/6 77/4/6
f 74/4/80 79/5/79 73/4/79
f 79/5/79 74/4/80 80/5/80
f 73/4/82 79/5/82 74/4/81
f 80/5/81 74/4/81 79/5/82
f 82/5/84 76/4/83 81/5/83
f 76/4/83 82/5/84 78/4/84
f 81/5/86 76/4/86 82/5/85
f 78/4/85 82/5/85 76/4/86
f 75/4/87 79/5/79 83/5/87
f 79/5/79 75/4/87 73/4/79
f 83/5/88 79/5/82 75/4/88
f 73/4/82 75/4/88 79/5/82
f 84/5/89 78/4/84 82/5/84
f 78/4/84 84/5/89 77/4/89
f 82/5/85 78/4/85 84/5/90
f 77/4/90 84/5/90 78/4/85
f 74/4/80 84/5/89 80/5/80
f 84/5/89 74/4/80 77/4/89
f 80/5/81 84/5/90 74/4/81
f 77/4/90 74/4/81 84/5/90
f 76/4/83 83/5/87 81/5/83
f 83/5/87 76/4/83 75/4/87
f 81/5/86 83/5/88 76/4/86
f 75/4/88 76/4/86 83/5/88

