# Created by Kenney (www.kenney.nl)

mtllib tile-river-slope.mtl

g tile-river-slope

v 0.5 0 0.5 1 1 1
v 0.5 0 -0.5 1 1 1
v -0.5 0 0.5 1 1 1
v -0.5 0 -0.5 1 1 1
v -0.5 0.4 -0.5 1 1 1
v -0.5 0.2 0.5 1 1 1
v 0.375 0.45 -0.5 1 1 1
v 0.25 0.45 -0.5 1 1 1
v 0.375 0.4 -0.5 1 1 1
v 0.25 0.3 -0.5 1 1 1
v 0.5 0.4 -0.5 1 1 1
v -0.25 0.3 -0.5 1 1 1
v -0.375 0.4 -0.5 1 1 1
v -0.25 0.45 -0.5 1 1 1
v -0.375 0.45 -0.5 1 1 1
v -0.375 0.25 0.5 1 1 1
v -0.25 0.25 0.5 1 1 1
v -0.375 0.2 0.5 1 1 1
v -0.25 0.1 0.5 1 1 1
v 0.25 0.1 0.5 1 1 1
v 0.5 0.2 0.5 1 1 1
v 0.375 0.2 0.5 1 1 1
v 0.25 0.25 0.5 1 1 1
v 0.375 0.25 0.5 1 1 1
v -0.3435851 0.3826875 -0.3319806 1 1 1
v -0.3714677 0.3750431 -0.2937585 1 1 1
v -0.3634008 0.3912453 -0.3747698 1 1 1
v -0.4110989 0.3921587 -0.3793368 1 1 1
v -0.4191658 0.3759564 -0.2983255 1 1 1
v -0.4389815 0.3845143 -0.3411147 1 1 1
v -0.3276858 0.3667182 -0.3335913 1 1 1
v -0.3648625 0.3565257 -0.2826284 1 1 1
v -0.4177041 0.3793465 -0.3967328 1 1 1
v -0.4548808 0.369154 -0.3457699 1 1 1
v -0.3541066 0.3781287 -0.3906435 1 1 1
v -0.42846 0.3577435 -0.2887177 1 1 1
v 0.3392919 0.301192 0.1569535 1 1 1
v 0.3531565 0.310189 0.1119686 1 1 1
v 0.3720892 0.2943388 0.1912197 1 1 1
v 0.418751 0.2964825 0.1805012 1 1 1
v 0.3998183 0.3123327 0.1012501 1 1 1
v 0.4326155 0.3054794 0.1355164 1 1 1
v 0.323738 0.2691479 0.1542604 1 1 1
v 0.3422241 0.2811439 0.09428062 1 1 1
v 0.4296834 0.2628685 0.1856574 1 1 1
v 0.4481695 0.2748645 0.1256776 1 1 1
v 0.3674677 0.2600102 0.1999488 1 1 1
v 0.4044398 0.2840021 0.07998922 1 1 1
v 0.42322 0.2392526 0.3851938 1 1 1
v 0.3758152 0.2406337 0.3782884 1 1 1
v 0.453021 0.2466134 0.3483899 1 1 1
v 0.4354172 0.2553552 0.3046807 1 1 1
v 0.3582114 0.2493755 0.3345792 1 1 1
v 0.3880124 0.2567363 0.2977754 1 1 1
v 0.4290879 0.2206739 0.3966305 1 1 1
v 0.3658815 0.2225153 0.3874234 1 1 1
v 0.4453509 0.242144 0.2892798 1 1 1
v 0.3821445 0.2439855 0.2800727 1 1 1
v 0.4688226 0.2304883 0.3475587 1 1 1
v 0.3424098 0.2341711 0.3291445 1 1 1

vn 0 -1 0
vn 0 1 0
vn -1 0 0
vn 1 0 0
vn 0 0 -1
vn 0 0 1
vn 0 0.9805807 0.1961161
vn 0 -0.9805807 -0.1961161
vn -0.6582206 0.7382057 0.1476412
vn -0.7476045 0.651247 0.1302494
vn 0.6582206 -0.7382057 -0.1476412
vn 0.7476045 -0.651247 -0.1302494
vn 0.6582206 0.7382057 0.1476412
vn 0.7476045 0.651247 0.1302494
vn -0.7476045 -0.651247 -0.1302494
vn -0.6582206 -0.7382057 -0.1476412
vn -5.698598E-09 0.9805806 0.1961162
vn 5.698598E-09 -0.9805806 -0.1961162
vn 0.7037598 0.6798985 0.2060586
vn 0.2923684 0.5671092 0.7700052
vn -0.2923684 -0.5671092 -0.7700052
vn -0.7037598 -0.6798985 -0.2060586
vn -0.2923684 0.8196413 -0.4926551
vn -0.7037598 0.706852 0.07129153
vn 0.7037598 -0.706852 -0.07129153
vn 0.2923684 -0.8196413 0.4926551
vn 0.4113914 0.8061646 -0.4252715
vn -0.4113914 -0.8061646 0.4252715
vn -0.4113914 0.5805859 0.7026217
vn 0.4113914 -0.5805859 -0.7026217
vn -7.598131E-09 0.9805807 0.1961161
vn 7.598131E-09 -0.9805807 -0.1961161
vn -0.8708518 0.3985209 0.2877465
vn -0.6120971 0.5664318 -0.5518081
vn 0.6120971 -0.5664318 0.5518081
vn 0.8708518 -0.3985209 -0.2877465
vn 0.6120971 0.3106263 0.7272196
vn 0.8708518 0.4785372 -0.112335
vn -0.8708518 -0.4785372 0.112335
vn -0.6120971 -0.3106263 -0.7272196
vn -0.2587547 0.2706182 0.9272603
vn 0.2587547 -0.2706182 -0.9272603
vn 0.2587547 0.6064399 -0.7518488
vn -0.2587547 -0.6064399 0.7518488
vn -2.126816E-08 0.9805807 0.1961161
vn 2.126816E-08 -0.9805807 -0.1961161
vn 0.2597339 0.5643944 0.7835798
vn -0.4396976 0.5847712 0.6816955
vn 0.4396976 -0.5847712 -0.6816955
vn -0.2597339 -0.5643944 -0.7835798
vn 0.4396975 0.8019793 -0.4043454
vn -0.2597339 0.8223562 -0.5062296
vn 0.2597339 -0.8223562 0.5062296
vn -0.4396975 -0.8019793 0.4043454
vn 0.6994315 0.6729984 0.2405593
vn -0.6994315 -0.6729984 -0.2405593
vn -0.6994315 0.7137522 0.0367908
vn 0.6994315 -0.7137522 -0.0367908

vt 0.59375 0.275
vt 0.59375 0.4527778
vt 0.59375 0.3638889
vt 0.59375 0.475
vt 0.59375 0.4083334
vt 0.59375 0.3861111
vt 0.59375 0.3194444
vt 0.34375 0.1583333
vt 0.34375 0.06944445
vt 0.09375 0.4083334
vt 0.09375 0.475
vt 0.09375 0.3194444
vt 0.09375 0.3861111
vt 0.09375 0.4527778
vt 0.09375 0.3638889
vt 0.09375 0.425
vt 0.09375 0.325

usemtl colormap

f 3/1/1 2/1/1 1/1/1
f 2/1/1 3/1/1 4/1/1
f 1/1/2 2/1/2 3/1/2
f 4/1/2 3/1/2 2/1/2
f 3/1/3 5/2/3 4/1/3
f 5/2/3 3/1/3 6/3/3
f 4/1/4 5/2/4 3/1/4
f 6/3/4 3/1/4 5/2/4
f 9/2/5 8/4/5 7/4/5
f 8/4/5 9/2/5 10/5/5
f 11/2/5 10/5/5 9/2/5
f 2/1/5 10/5/5 11/2/5
f 10/5/5 2/1/5 12/5/5
f 2/1/5 5/2/5 12/5/5
f 5/2/5 2/1/5 4/1/5
f 12/5/5 5/2/5 13/2/5
f 12/5/5 13/2/5 14/4/5
f 14/4/5 13/2/5 15/4/5
f 7/4/6 8/4/6 9/2/6
f 10/5/6 9/2/6 8/4/6
f 9/2/6 10/5/6 11/2/6
f 11/2/6 10/5/6 2/1/6
f 12/5/6 2/1/6 10/5/6
f 12/5/6 5/2/6 2/1/6
f 4/1/6 2/1/6 5/2/6
f 13/2/6 5/2/6 12/5/6
f 14/4/6 13/2/6 12/5/6
f 15/4/6 13/2/6 14/4/6
f 18/3/6 17/6/6 16/6/6
f 17/6/6 18/3/6 19/7/6
f 6/3/6 19/7/6 18/3/6
f 3/1/6 19/7/6 6/3/6
f 19/7/6 3/1/6 20/7/6
f 1/1/6 20/7/6 3/1/6
f 20/7/6 1/1/6 21/3/6
f 20/7/6 21/3/6 22/3/6
f 20/7/6 22/3/6 23/6/6
f 23/6/6 22/3/6 24/6/6
f 16/6/5 17/6/5 18/3/5
f 19/7/5 18/3/5 17/6/5
f 18/3/5 19/7/5 6/3/5
f 6/3/5 19/7/5 3/1/5
f 20/7/5 3/1/5 19/7/5
f 3/1/5 20/7/5 1/1/5
f 21/3/5 1/1/5 20/7/5
f 22/3/5 21/3/5 20/7/5
f 23/6/5 22/3/5 20/7/5
f 24/6/5 22/3/5 23/6/5
f 11/2/4 1/1/4 2/1/4
f 1/1/4 11/2/4 21/3/4
f 2/1/3 1/1/3 11/2/3
f 21/3/3 11/2/3 1/1/3
f 5/2/7 18/3/7 13/2/7
f 18/3/7 5/2/7 6/3/7
f 13/2/8 18/3/8 5/2/8
f 6/3/8 5/2/8 18/3/8
f 9/2/7 21/3/7 11/2/7
f 21/3/7 9/2/7 22/3/7
f 11/2/8 21/3/8 9/2/8
f 22/3/8 9/2/8 21/3/8
f 12/8/7 20/9/7 10/8/7
f 20/9/7 12/8/7 19/9/7
f 10/8/8 20/9/8 12/8/8
f 19/9/8 12/8/8 20/9/8
f 20/12/3 8/11/9 10/10/3
f 8/11/9 20/12/3 23/13/10
f 10/10/4 8/11/11 20/12/4
f 23/13/12 20/12/4 8/11/11
f 17/13/14 12/10/4 14/11/13
f 12/10/4 17/13/14 19/12/4
f 14/11/16 12/10/3 17/13/15
f 19/12/3 17/13/15 12/10/3
f 24/13/14 9/14/4 7/11/13
f 9/14/4 24/13/14 22/15/4
f 7/11/16 9/14/3 24/13/15
f 22/15/3 24/13/15 9/14/3
f 18/15/3 15/11/9 13/14/3
f 15/11/9 18/15/3 16/13/10
f 13/14/4 15/11/11 18/15/4
f 16/13/12 18/15/4 15/11/11
f 8/11/9 24/13/14 7/11/13
f 24/13/14 8/11/9 23/13/10
f 7/11/16 24/13/15 8/11/11
f 23/13/12 8/11/11 24/13/15
f 15/11/9 17/13/14 14/11/13
f 17/13/14 15/11/9 16/13/10
f 14/11/16 17/13/15 15/11/11
f 16/13/12 15/11/11 17/13/15
f 27/16/17 26/16/17 25/16/17
f 26/16/17 27/16/17 28/16/17
f 26/16/17 28/16/17 29/16/17
f 29/16/17 28/16/17 30/16/17
f 25/16/18 26/16/18 27/16/18
f 28/16/18 27/16/18 26/16/18
f 29/16/18 28/16/18 26/16/18
f 30/16/18 28/16/18 29/16/18
f 26/16/20 31/17/19 25/16/19
f 31/17/19 26/16/20 32/17/20
f 25/16/22 31/17/22 26/16/21
f 32/17/21 26/16/21 31/17/22
f 34/17/24 28/16/23 33/17/23
f 28/16/23 34/17/24 30/16/24
f 33/17/26 28/16/26 34/17/25
f 30/16/25 34/17/25 28/16/26
f 27/16/27 31/17/19 35/17/27
f 31/17/19 27/16/27 25/16/19
f 35/17/28 31/17/22 27/16/28
f 25/16/22 27/16/28 31/17/22
f 36/17/29 30/16/24 34/17/24
f 30/16/24 36/17/29 29/16/29
f 34/17/25 30/16/25 36/17/30
f 29/16/30 36/17/30 30/16/25
f 26/16/20 36/17/29 32/17/20
f 36/17/29 26/16/20 29/16/29
f 32/17/21 36/17/30 26/16/21
f 29/16/30 26/16/21 36/17/30
f 28/16/23 35/17/27 33/17/23
f 35/17/27 28/16/23 27/16/27
f 33/17/26 35/17/28 28/16/26
f 27/16/28 28/16/26 35/17/28
f 39/16/31 38/16/31 37/16/31
f 38/16/31 39/16/31 40/16/31
f 38/16/31 40/16/31 41/16/31
f 41/16/31 40/16/31 42/16/31
f 37/16/32 38/16/32 39/16/32
f 40/16/32 39/16/32 38/16/32
f 41/16/32 40/16/32 38/16/32
f 42/16/32 40/16/32 41/16/32
f 38/16/34 43/17/33 37/16/33
f 43/17/33 38/16/34 44/17/34
f 37/16/36 43/17/36 38/16/35
f 44/17/35 38/16/35 43/17/36
f 46/17/38 40/16/37 45/17/37
f 40/16/37 46/17/38 42/16/38
f 45/17/40 40/16/40 46/17/39
f 42/16/39 46/17/39 40/16/40
f 39/16/41 43/17/33 47/17/41
f 43/17/33 39/16/41 37/16/33
f 47/17/42 43/17/36 39/16/42
f 37/16/36 39/16/42 43/17/36
f 48/17/43 42/16/38 46/17/38
f 42/16/38 48/17/43 41/16/43
f 46/17/39 42/16/39 48/17/44
f 41/16/44 48/17/44 42/16/39
f 38/16/34 48/17/43 44/17/34
f 48/17/43 38/16/34 41/16/43
f 44/17/35 48/17/44 38/16/35
f 41/16/44 38/16/35 48/17/44
f 40/16/37 47/17/41 45/17/37
f 47/17/41 40/16/37 39/16/41
f 45/17/40 47/17/42 40/16/40
f 39/16/42 40/16/40 47/17/42
f 51/16/45 50/16/45 49/16/45
f 50/16/45 51/16/45 52/16/45
f 50/16/45 52/16/45 53/16/45
f 53/16/45 52/16/45 54/16/45
f 49/16/46 50/16/46 51/16/46
f 52/16/46 51/16/46 50/16/46
f 53/16/46 52/16/46 50/16/46
f 54/16/46 52/16/46 53/16/46
f 50/16/48 55/17/47 49/16/47
f 55/17/47 50/16/48 56/17/48
f 49/16/50 55/17/50 50/16/49
f 56/17/49 50/16/49 55/17/50
f 58/17/52 52/16/51 57/17/51
f 52/16/51 58/17/52 54/16/52
f 57/17/54 52/16/54 58/17/53
f 54/16/53 58/17/53 52/16/54
f 51/16/55 55/17/47 59/17/55
f 55/17/47 51/16/55 49/16/47
f 59/17/56 55/17/50 51/16/56
f 49/16/50 51/16/56 55/17/50
f 60/17/57 54/16/52 58/17/52
f 54/16/52 60/17/57 53/16/57
f 58/17/53 54/16/53 60/17/58
f 53/16/58 60/17/58 54/16/53
f 50/16/48 60/17/57 56/17/48
f 60/17/57 50/16/48 53/16/57
f 56/17/49 60/17/58 50/16/49
f 53/16/58 50/16/49 60/17/58
f 52/16/51 59/17/55 57/17/51
f 59/17/55 52/16/51 51/16/55
f 57/17/54 59/17/56 52/16/54
f 51/16/56 52/16/54 59/17/56

g tile-river-slope




usemtl colormap

f 3/1/1 2/1/1 1/1/1
f 2/1/1 3/1/1 4/1/1
f 1/1/2 2/1/2 3/1/2
f 4/1/2 3/1/2 2/1/2
f 3/1/3 5/2/3 4/1/3
f 5/2/3 3/1/3 6/3/3
f 4/1/4 5/2/4 3/1/4
f 6/3/4 3/1/4 5/2/4
f 9/2/5 8/4/5 7/4/5
f 8/4/5 9/2/5 10/5/5
f 11/2/5 10/5/5 9/2/5
f 2/1/5 10/5/5 11/2/5
f 10/5/5 2/1/5 12/5/5
f 2/1/5 5/2/5 12/5/5
f 5/2/5 2/1/5 4/1/5
f 12/5/5 5/2/5 13/2/5
f 12/5/5 13/2/5 14/4/5
f 14/4/5 13/2/5 15/4/5
f 7/4/6 8/4/6 9/2/6
f 10/5/6 9/2/6 8/4/6
f 9/2/6 10/5/6 11/2/6
f 11/2/6 10/5/6 2/1/6
f 12/5/6 2/1/6 10/5/6
f 12/5/6 5/2/6 2/1/6
f 4/1/6 2/1/6 5/2/6
f 13/2/6 5/2/6 12/5/6
f 14/4/6 13/2/6 12/5/6
f 15/4/6 13/2/6 14/4/6
f 18/3/6 17/6/6 16/6/6
f 17/6/6 18/3/6 19/7/6
f 6/3/6 19/7/6 18/3/6
f 3/1/6 19/7/6 6/3/6
f 19/7/6 3/1/6 20/7/6
f 1/1/6 20/7/6 3/1/6
f 20/7/6 1/1/6 21/3/6
f 20/7/6 21/3/6 22/3/6
f 20/7/6 22/3/6 23/6/6
f 23/6/6 22/3/6 24/6/6
f 16/6/5 17/6/5 18/3/5
f 19/7/5 18/3/5 17/6/5
f 18/3/5 19/7/5 6/3/5
f 6/3/5 19/7/5 3/1/5
f 20/7/5 3/1/5 19/7/5
f 3/1/5 20/7/5 1/1/5
f 21/3/5 1/1/5 20/7/5
f 22/3/5 21/3/5 20/7/5
f 23/6/5 22/3/5 20/7/5
f 24/6/5 22/3/5 23/6/5
f 11/2/4 1/1/4 2/1/4
f 1/1/4 11/2/4 21/3/4
f 2/1/3 1/1/3 11/2/3
f 21/3/3 11/2/3 1/1/3
f 5/2/7 18/3/7 13/2/7
f 18/3/7 5/2/7 6/3/7
f 13/2/8 18/3/8 5/2/8
f 6/3/8 5/2/8 18/3/8
f 9/2/7 21/3/7 11/2/7
f 21/3/7 9/2/7 22/3/7
f 11/2/8 21/3/8 9/2/8
f 22/3/8 9/2/8 21/3/8
f 12/8/7 20/9/7 10/8/7
f 20/9/7 12/8/7 19/9/7
f 10/8/8 20/9/8 12/8/8
f 19/9/8 12/8/8 20/9/8
f 20/12/3 8/11/9 10/10/3
f 8/11/9 20/12/3 23/13/10
f 10/10/4 8/11/11 20/12/4
f 23/13/12 20/12/4 8/11/11
f 17/13/14 12/10/4 14/11/13
f 12/10/4 17/13/14 19/12/4
f 14/11/16 12/10/3 17/13/15
f 19/12/3 17/13/15 12/10/3
f 24/13/14 9/14/4 7/11/13
f 9/14/4 24/13/14 22/15/4
f 7/11/16 9/14/3 24/13/15
f 22/15/3 24/13/15 9/14/3
f 18/15/3 15/11/9 13/14/3
f 15/11/9 18/15/3 16/13/10
f 13/14/4 15/11/11 18/15/4
f 16/13/12 18/15/4 15/11/11
f 8/11/9 24/13/14 7/11/13
f 24/13/14 8/11/9 23/13/10
f 7/11/16 24/13/15 8/11/11
f 23/13/12 8/11/11 24/13/15
f 15/11/9 17/13/14 14/11/13
f 17/13/14 15/11/9 16/13/10
f 14/11/16 17/13/15 15/11/11
f 16/13/12 15/11/11 17/13/15
f 27/16/17 26/16/17 25/16/17
f 26/16/17 27/16/17 28/16/17
f 26/16/17 28/16/17 29/16/17
f 29/16/17 28/16/17 30/16/17
f 25/16/18 26/16/18 27/16/18
f 28/16/18 27/16/18 26/16/18
f 29/16/18 28/16/18 26/16/18
f 30/16/18 28/16/18 29/16/18
f 26/16/20 31/17/19 25/16/19
f 31/17/19 26/16/20 32/17/20
f 25/16/22 31/17/22 26/16/21
f 32/17/21 26/16/21 31/17/22
f 34/17/24 28/16/23 33/17/23
f 28/16/23 34/17/24 30/16/24
f 33/17/26 28/16/26 34/17/25
f 30/16/25 34/17/25 28/16/26
f 27/16/27 31/17/19 35/17/27
f 31/17/19 27/16/27 25/16/19
f 35/17/28 31/17/22 27/16/28
f 25/16/22 27/16/28 31/17/22
f 36/17/29 30/16/24 34/17/24
f 30/16/24 36/17/29 29/16/29
f 34/17/25 30/16/25 36/17/30
f 29/16/30 36/17/30 30/16/25
f 26/16/20 36/17/29 32/17/20
f 36/17/29 26/16/20 29/16/29
f 32/17/21 36/17/30 26/16/21
f 29/16/30 26/16/21 36/17/30
f 28/16/23 35/17/27 33/17/23
f 35/17/27 28/16/23 27/16/27
f 33/17/26 35/17/28 28/16/26
f 27/16/28 28/16/26 35/17/28
f 39/16/31 38/16/31 37/16/31
f 38/16/31 39/16/31 40/16/31
f 38/16/31 40/16/31 41/16/31
f 41/16/31 40/16/31 42/16/31
f 37/16/32 38/16/32 39/16/32
f 40/16/32 39/16/32 38/16/32
f 41/16/32 40/16/32 38/16/32
f 42/16/32 40/16/32 41/16/32
f 38/16/34 43/17/33 37/16/33
f 43/17/33 38/16/34 44/17/34
f 37/16/36 43/17/36 38/16/35
f 44/17/35 38/16/35 43/17/36
f 46/17/38 40/16/37 45/17/37
f 40/16/37 46/17/38 42/16/38
f 45/17/40 40/16/40 46/17/39
f 42/16/39 46/17/39 40/16/40
f 39/16/41 43/17/33 47/17/41
f 43/17/33 39/16/41 37/16/33
f 47/17/42 43/17/36 39/16/42
f 37/16/36 39/16/42 43/17/36
f 48/17/43 42/16/38 46/17/38
f 42/16/38 48/17/43 41/16/43
f 46/17/39 42/16/39 48/17/44
f 41/16/44 48/17/44 42/16/39
f 38/16/34 48/17/43 44/17/34
f 48/17/43 38/16/34 41/16/43
f 44/17/35 48/17/44 38/16/35
f 41/16/44 38/16/35 48/17/44
f 40/16/37 47/17/41 45/17/37
f 47/17/41 40/16/37 39/16/41
f 45/17/40 47/17/42 40/16/40
f 39/16/42 40/16/40 47/17/42
f 51/16/45 50/16/45 49/16/45
f 50/16/45 51/16/45 52/16/45
f 50/16/45 52/16/45 53/16/45
f 53/16/45 52/16/45 54/16/45
f 49/16/46 50/16/46 51/16/46
f 52/16/46 51/16/46 50/16/46
f 53/16/46 52/16/46 50/16/46
f 54/16/46 52/16/46 53/16/46
f 50/16/48 55/17/47 49/16/47
f 55/17/47 50/16/48 56/17/48
f 49/16/50 55/17/50 50/16/49
f 56/17/49 50/16/49 55/17/50
f 58/17/52 52/16/51 57/17/51
f 52/16/51 58/17/52 54/16/52
f 57/17/54 52/16/54 58/17/53
f 54/16/53 58/17/53 52/16/54
f 51/16/55 55/17/47 59/17/55
f 55/17/47 51/16/55 49/16/47
f 59/17/56 55/17/50 51/16/56
f 49/16/50 51/16/56 55/17/50
f 60/17/57 54/16/52 58/17/52
f 54/16/52 60/17/57 53/16/57
f 58/17/53 54/16/53 60/17/58
f 53/16/58 60/17/58 54/16/53
f 50/16/48 60/17/57 56/17/48
f 60/17/57 50/16/48 53/16/57
f 56/17/49 60/17/58 50/16/49
f 53/16/58 50/16/49 60/17/58
f 52/16/51 59/17/55 57/17/51
f 59/17/55 52/16/51 51/16/55
f 57/17/54 59/17/56 52/16/54
f 51/16/56 52/16/54 59/17/56

