# Created by Kenney (www.kenney.nl)

mtllib tower-round-bottom-c.mtl

g tower-round-bottom-c

v 0.5 0 0 1 1 1
v 0.4330127 0 -0.25 1 1 1
v 0.4330127 0 0.25 1 1 1
v 0.25 0 -0.4330127 1 1 1
v 0.25 0 0.4330127 1 1 1
v 0 0 0.5 1 1 1
v 0 0 -0.5 1 1 1
v -0.25 0 0.4330127 1 1 1
v -0.25 0 -0.4330127 1 1 1
v -0.4330127 0 0.25 1 1 1
v -0.4330127 0 -0.25 1 1 1
v -0.5 0 0 1 1 1
v 0 0.175 -0.5 1 1 1
v 0.25 0.175 -0.4330127 1 1 1
v 0.4330127 0.175 -0.25 1 1 1
v 0.5 0.175 0 1 1 1
v 0.4330127 0.175 0.25 1 1 1
v 0.25 0.175 0.4330127 1 1 1
v 0 0.175 0.5 1 1 1
v -0.25 0.175 0.4330127 1 1 1
v -0.4330127 0.175 0.25 1 1 1
v -0.5 0.175 0 1 1 1
v -0.4330127 0.175 -0.25 1 1 1
v -0.25 0.175 -0.4330127 1 1 1
v 0.3464102 0.3 0.2 1 1 1
v 0.2 0.3 0.3464102 1 1 1
v 0 0.3 -0.4 1 1 1
v 0.2 0.3 -0.3464102 1 1 1
v -0.4 0.3 0 1 1 1
v -0.3464102 0.3 0.2 1 1 1
v 0.3464102 0.3 -0.2 1 1 1
v 0.4 0.3 0 1 1 1
v -0.2 0.3 -0.3464102 1 1 1
v -0.3464102 0.3 -0.2 1 1 1
v 0 0.3 0.4 1 1 1
v -0.2 0.3 0.3464102 1 1 1
v 0.3464101 0.4 -0.2 1 1 1
v 0.3464101 0.3 -0.2 1 1 1
v 0.3964101 0.4 -0.2 1 1 1
v 0.4 0.3 -1.811073E-09 1 1 1
v 0.4232051 0.4 -4.577332E-09 1 1 1
v 0.3464102 0.3 0.2 1 1 1
v 0.3964102 0.4 0.2 1 1 1
v 0.3464102 0.4 0.2 1 1 1
v 0.4 0.4 -1.811074E-09 1 1 1
v -0.3464102 0.4 0.2 1 1 1
v -0.3464102 0.3 0.2 1 1 1
v -0.3964102 0.4 0.2 1 1 1
v -0.4 0.3 -1.584687E-09 1 1 1
v -0.4232051 0.4 -4.350949E-09 1 1 1
v -0.3464101 0.3 -0.2 1 1 1
v -0.3964101 0.4 -0.2 1 1 1
v -0.3464101 0.4 -0.2 1 1 1
v -0.4 0.4 -1.584686E-09 1 1 1
v 0.2 0.4 0.3464102 1 1 1
v 0.2 0.4 0.3964102 1 1 1
v 1.443823E-15 0.3 0.4 1 1 1
v 0 0.4 0.4232051 1 1 1
v -0.2 0.4 0.3964102 1 1 1
v -0.2 0.4 0.3464102 1 1 1
v 2.887646E-15 0.4 0.4 1 1 1
v -0.2 0.4 -0.3464102 1 1 1
v -0.2 0.4 -0.3964102 1 1 1
v -3.608225E-16 0.3 -0.4 1 1 1
v 3.457855E-10 0.4 -0.4232051 1 1 1
v 0.2 0.4 -0.3964102 1 1 1
v 0.2 0.4 -0.3464102 1 1 1
v -1.804112E-15 0.4 -0.4 1 1 1
v -0.4 0.5 0 1 1 1
v -0.3464102 0.5 -0.2 1 1 1
v -0.3464102 0.5 0.2 1 1 1
v -0.2 0.5 0.3464102 1 1 1
v -0.2 0.5 0 1 1 1
v -0.2 0.5 -0.3464102 1 1 1
v -0.1414214 0.5 0.1414214 1 1 1
v -0.1414214 0.5 -0.1414214 1 1 1
v 0 0.5 -0.2 1 1 1
v 0 0.5 -0.4 1 1 1
v 0.1414214 0.5 -0.1414214 1 1 1
v 0 0.5 0.4 1 1 1
v 0 0.5 0.2 1 1 1
v 0.1414214 0.5 0.1414214 1 1 1
v 0.2 0.5 -0.3464102 1 1 1
v 0.2 0.5 0.3464102 1 1 1
v 0.2 0.5 0 1 1 1
v 0.3464102 0.5 0.2 1 1 1
v 0.3464102 0.5 -0.2 1 1 1
v 0.4 0.5 0 1 1 1
v -0.1414214 0.575 -0.1414214 1 1 1
v 0 0.575 -0.2 1 1 1
v -0.2 0.575 0 1 1 1
v -0.1414214 0.575 0.1414214 1 1 1
v 0 0.575 0.2 1 1 1
v 0.1414214 0.575 0.1414214 1 1 1
v 0.2 0.575 0 1 1 1
v 0.1414214 0.575 -0.1414214 1 1 1
v 0.1458804 0.6 0 1 1 1
v 0.103153 0.6 0.103153 1 1 1
v 0.103153 0.6 -0.103153 1 1 1
v 0 0.6 -0.1458804 1 1 1
v 0 0.6 0.1458804 1 1 1
v -0.103153 0.6 -0.103153 1 1 1
v -0.103153 0.6 0.103153 1 1 1
v -0.1458804 0.6 0 1 1 1

vn 0 -1 0
vn 0 1 0
vn 0 0 -1
vn 0.5 0 -0.8660254
vn 0 0 1
vn -0.5 0 0.8660254
vn 0.8660254 0 -0.5
vn -0.8660254 0 0.5
vn 1 0 0
vn -1 0 0
vn 0.8660254 0 0.5
vn -0.8660254 0 -0.5
vn 0.5 0 0.8660254
vn -0.5 0 -0.8660254
vn 0.6762522 0.6246951 0.3904344
vn 0.3904344 0.6246951 0.6762522
vn -0.6762522 -0.6246951 -0.3904344
vn -0.3904344 -0.6246951 -0.6762522
vn 0 0.6246951 -0.7808689
vn 0.3904344 0.6246951 -0.6762522
vn 0 -0.6246951 0.7808689
vn -0.3904344 -0.6246951 0.6762522
vn -0.7808689 0.6246951 0
vn -0.6762522 0.6246951 0.3904344
vn 0.6762522 -0.6246951 -0.3904344
vn 0.7808689 -0.6246951 0
vn 0.6762522 0.6246951 -0.3904344
vn 0.7808689 0.6246951 0
vn -0.6762522 -0.6246951 0.3904344
vn -0.7808689 -0.6246951 0
vn -0.3904344 0.6246951 -0.6762522
vn 0.3904344 -0.6246951 0.6762522
vn -0.6762522 0.6246951 -0.3904344
vn 0.6762522 -0.6246951 0.3904344
vn 0 0.6246951 0.7808689
vn -0.3904344 0.6246951 0.6762522
vn 0 -0.6246951 -0.7808689
vn 0.3904344 -0.6246951 -0.6762522
vn -1.192093E-07 0 -1
vn 0.8309248 -0.3446269 -0.4368026
vn 0.6971254 -0.3485627 -0.6265144
vn -0.6971254 0.3485627 0.6265144
vn -0.8309248 0.3446269 0.4368026
vn 1.192093E-07 0 1
vn 0.974117 -0.2260446 -1.161238E-07
vn 0.9542557 -0.298992 -1.137561E-07
vn -0.9542557 0.298992 1.137561E-07
vn -0.974117 0.2260446 1.161238E-07
vn 0.8309249 -0.3446269 0.4368024
vn 0.6971256 -0.3485627 0.6265143
vn -0.6971256 0.3485627 -0.6265143
vn -0.8309249 0.3446269 -0.4368024
vn -1.192093E-07 0 1
vn -0.8309249 -0.3446269 0.4368024
vn -0.6971256 -0.3485627 0.6265143
vn 0.6971256 0.3485627 -0.6265143
vn 0.8309249 0.3446269 -0.4368024
vn 1.192093E-07 0 -1
vn -0.974117 -0.2260446 -1.161238E-07
vn -0.9542557 -0.298992 -1.137561E-07
vn 0.9542557 0.298992 1.137561E-07
vn 0.974117 0.2260446 1.161238E-07
vn -0.8309248 -0.3446269 -0.4368026
vn -0.6971254 -0.3485627 -0.6265144
vn 0.6971254 0.3485627 0.6265144
vn 0.8309248 0.3446269 0.4368026
vn 0.4368024 -0.3446269 0.8309247
vn 0.6265143 -0.3485627 0.6971254
vn -0.6265143 0.3485627 -0.6971254
vn -0.4368024 0.3446269 -0.8309247
vn 0 -0.2260446 0.9741169
vn 0 -0.298992 0.9542556
vn 0 0.298992 -0.9542556
vn 0 0.2260446 -0.9741169
vn -0.4368024 -0.3446269 0.8309247
vn -0.6265143 -0.3485627 0.6971254
vn 0.6265143 0.3485627 -0.6971254
vn 0.4368024 0.3446269 -0.8309247
vn -1 0 -1.490124E-08
vn -0.4368024 -0.3446269 -0.8309247
vn -0.6265143 -0.3485627 -0.6971254
vn 0.6265143 0.3485627 0.6971254
vn 0.4368024 0.3446269 0.8309247
vn 1 0 1.490124E-08
vn 1.451555E-08 -0.2260446 -0.9741169
vn 1.421959E-08 -0.298992 -0.9542556
vn -1.421959E-08 0.298992 0.9542556
vn -1.451555E-08 0.2260446 0.9741169
vn 0.4368024 -0.3446269 -0.8309247
vn 0.6265143 -0.3485627 -0.6971254
vn -0.6265143 0.3485627 0.6971254
vn -0.4368024 0.3446269 0.8309247
vn -0.7071068 0 -0.7071068
vn 0.7071068 0 0.7071068
vn -0.7071068 0 0.7071068
vn 0.7071068 0 -0.7071068
vn 0.2645356 0.9643759 0
vn 0.1870549 0.9643759 0.1870549
vn 0.1870549 0.9643759 -0.1870549
vn 0 0.9643759 -0.2645356
vn 0 0.9643759 0.2645356
vn -0.1870549 0.9643759 -0.1870549
vn -0.1870549 0.9643759 0.1870549
vn -0.2645356 0.9643759 0
vn -0.1870549 -0.9643759 0.1870549
vn -0.1870549 -0.9643759 -0.1870549
vn -0.2645356 -0.9643759 0
vn 0 -0.9643759 0.2645356
vn 0 -0.9643759 -0.2645356
vn 0.1870549 -0.9643759 0.1870549
vn 0.1870549 -0.9643759 -0.1870549
vn 0.2645356 -0.9643759 0
vn 0 0.9078208 -0.4193585
vn -0.2965312 0.9078208 -0.2965312
vn 0.2965312 -0.9078208 0.2965312
vn 0 -0.9078208 0.4193585
vn 0.4193585 0.9078208 0
vn 0.2965312 0.9078208 -0.2965312
vn -0.2965312 -0.9078208 0.2965312
vn -0.4193585 -0.9078208 0
vn 0.2965312 0.9078208 0.2965312
vn 0 0.9078208 0.4193585
vn 0 -0.9078208 -0.4193585
vn -0.2965312 -0.9078208 -0.2965312
vn -0.2965312 0.9078208 0.2965312
vn -0.4193585 0.9078208 0
vn 0.2965312 -0.9078208 -0.2965312
vn 0.4193585 -0.9078208 0

vt 0.96875 0.275
vt 0.96875 0.345
vt 0.96875 0.395
vt 0.96875 0.425
vt 0.96875 0.325
vt 0.84375 0.225
vt 0.84375 0.145
vt 0.84375 0.075
vt 0.84375 0.15
vt 0.84375 0.175

usemtl colormap

f 3/1/1 2/1/1 1/1/1
f 2/1/1 3/1/1 4/1/1
f 4/1/1 3/1/1 5/1/1
f 4/1/1 5/1/1 6/1/1
f 4/1/1 6/1/1 7/1/1
f 7/1/1 6/1/1 8/1/1
f 7/1/1 8/1/1 9/1/1
f 9/1/1 8/1/1 10/1/1
f 9/1/1 10/1/1 11/1/1
f 11/1/1 10/1/1 12/1/1
f 1/1/2 2/1/2 3/1/2
f 4/1/2 3/1/2 2/1/2
f 5/1/2 3/1/2 4/1/2
f 6/1/2 5/1/2 4/1/2
f 7/1/2 6/1/2 4/1/2
f 8/1/2 6/1/2 7/1/2
f 9/1/2 8/1/2 7/1/2
f 10/1/2 8/1/2 9/1/2
f 11/1/2 10/1/2 9/1/2
f 12/1/2 10/1/2 11/1/2
f 13/2/3 4/1/4 7/1/3
f 4/1/4 13/2/3 14/2/4
f 7/1/5 4/1/6 13/2/5
f 14/2/6 13/2/5 4/1/6
f 15/2/7 4/1/4 14/2/4
f 4/1/4 15/2/7 2/1/7
f 14/2/6 4/1/6 15/2/8
f 2/1/8 15/2/8 4/1/6
f 16/2/9 2/1/7 15/2/7
f 2/1/7 16/2/9 1/1/9
f 15/2/8 2/1/8 16/2/10
f 1/1/10 16/2/10 2/1/8
f 17/2/11 1/1/9 16/2/9
f 1/1/9 17/2/11 3/1/11
f 16/2/10 1/1/10 17/2/12
f 3/1/12 17/2/12 1/1/10
f 18/2/13 3/1/11 17/2/11
f 3/1/11 18/2/13 5/1/13
f 17/2/12 3/1/12 18/2/14
f 5/1/14 18/2/14 3/1/12
f 18/2/13 6/1/5 5/1/13
f 6/1/5 18/2/13 19/2/5
f 5/1/14 6/1/3 18/2/14
f 19/2/3 18/2/14 6/1/3
f 19/2/5 8/1/6 6/1/5
f 8/1/6 19/2/5 20/2/6
f 6/1/3 8/1/4 19/2/3
f 20/2/4 19/2/3 8/1/4
f 8/1/6 21/2/8 10/1/8
f 21/2/8 8/1/6 20/2/6
f 10/1/7 21/2/7 8/1/4
f 20/2/4 8/1/4 21/2/7
f 10/1/8 22/2/10 12/1/10
f 22/2/10 10/1/8 21/2/8
f 12/1/9 22/2/9 10/1/7
f 21/2/7 10/1/7 22/2/9
f 12/1/10 23/2/12 11/1/12
f 23/2/12 12/1/10 22/2/10
f 11/1/11 23/2/11 12/1/9
f 22/2/9 12/1/9 23/2/11
f 11/1/12 24/2/14 9/1/14
f 24/2/14 11/1/12 23/2/12
f 9/1/13 24/2/13 11/1/11
f 23/2/11 11/1/11 24/2/13
f 24/2/14 7/1/3 9/1/14
f 7/1/3 24/2/14 13/2/3
f 9/1/13 7/1/5 24/2/13
f 13/2/5 24/2/13 7/1/5
f 25/3/15 18/2/16 17/2/15
f 18/2/16 25/3/15 26/3/16
f 17/2/17 18/2/18 25/3/17
f 26/3/18 25/3/17 18/2/18
f 27/3/19 14/2/20 13/2/19
f 14/2/20 27/3/19 28/3/20
f 13/2/21 14/2/22 27/3/21
f 28/3/22 27/3/21 14/2/22
f 21/2/24 29/3/23 22/2/23
f 29/3/23 21/2/24 30/3/24
f 22/2/26 29/3/26 21/2/25
f 30/3/25 21/2/25 29/3/26
f 31/3/27 16/2/28 15/2/27
f 16/2/28 31/3/27 32/3/28
f 15/2/29 16/2/30 31/3/29
f 32/3/30 31/3/29 16/2/30
f 33/3/31 13/2/19 24/2/31
f 13/2/19 33/3/31 27/3/19
f 24/2/32 13/2/21 33/3/32
f 27/3/21 33/3/32 13/2/21
f 14/2/20 31/3/27 15/2/27
f 31/3/27 14/2/20 28/3/20
f 15/2/29 31/3/29 14/2/22
f 28/3/22 14/2/22 31/3/29
f 24/2/31 34/3/33 33/3/31
f 34/3/33 24/2/31 23/2/33
f 33/3/32 34/3/34 24/2/32
f 23/2/34 24/2/32 34/3/34
f 22/2/23 34/3/33 23/2/33
f 34/3/33 22/2/23 29/3/23
f 23/2/34 34/3/34 22/2/26
f 29/3/26 22/2/26 34/3/34
f 35/3/35 20/2/36 19/2/35
f 20/2/36 35/3/35 36/3/36
f 19/2/37 20/2/38 35/3/37
f 36/3/38 35/3/37 20/2/38
f 25/3/15 16/2/28 32/3/28
f 16/2/28 25/3/15 17/2/15
f 32/3/30 16/2/30 25/3/17
f 17/2/17 25/3/17 16/2/30
f 30/3/24 20/2/36 36/3/36
f 20/2/36 30/3/24 21/2/24
f 36/3/38 20/2/38 30/3/25
f 21/2/25 30/3/25 20/2/38
f 26/3/16 19/2/35 18/2/16
f 19/2/35 26/3/16 35/3/35
f 18/2/18 19/2/37 26/3/18
f 35/3/37 26/3/18 19/2/37
f 39/4/41 38/5/40 37/4/39
f 37/4/44 38/5/43 39/4/42
f 41/4/46 40/5/45 38/5/40
f 38/5/43 40/5/48 41/4/47
f 43/4/50 42/5/49 41/4/46
f 41/4/47 42/5/52 43/4/51
f 43/4/50 44/4/44 42/5/49
f 42/5/52 44/4/39 43/4/51
f 41/4/46 42/5/49 40/5/45
f 40/5/48 42/5/52 41/4/47
f 41/4/46 38/5/40 39/4/41
f 39/4/42 38/5/43 41/4/47
f 45/4/2 39/4/2 37/4/2
f 39/4/2 45/4/2 41/4/2
f 41/4/2 45/4/2 44/4/2
f 41/4/2 44/4/2 43/4/2
f 37/4/1 39/4/1 45/4/1
f 41/4/1 45/4/1 39/4/1
f 44/4/1 45/4/1 41/4/1
f 43/4/1 44/4/1 41/4/1
f 48/4/55 47/5/54 46/4/53
f 46/4/58 47/5/57 48/4/56
f 50/4/60 49/5/59 47/5/54
f 47/5/57 49/5/62 50/4/61
f 52/4/64 51/5/63 50/4/60
f 50/4/61 51/5/66 52/4/65
f 52/4/64 53/4/58 51/5/63
f 51/5/66 53/4/53 52/4/65
f 50/4/60 51/5/63 49/5/59
f 49/5/62 51/5/66 50/4/61
f 50/4/60 47/5/54 48/4/55
f 48/4/56 47/5/57 50/4/61
f 54/4/2 48/4/2 46/4/2
f 48/4/2 54/4/2 50/4/2
f 50/4/2 54/4/2 53/4/2
f 50/4/2 53/4/2 52/4/2
f 46/4/1 48/4/1 54/4/1
f 50/4/1 54/4/1 48/4/1
f 53/4/1 54/4/1 50/4/1
f 52/4/1 53/4/1 50/4/1
f 56/4/68 26/5/67 55/4/9
f 55/4/10 26/5/70 56/4/69
f 58/4/72 57/5/71 26/5/67
f 26/5/70 57/5/74 58/4/73
f 59/4/76 36/5/75 58/4/72
f 58/4/73 36/5/78 59/4/77
f 59/4/76 60/4/10 36/5/75
f 36/5/78 60/4/9 59/4/77
f 58/4/72 36/5/75 57/5/71
f 57/5/74 36/5/78 58/4/73
f 58/4/72 26/5/67 56/4/68
f 56/4/69 26/5/70 58/4/73
f 61/4/2 56/4/2 55/4/2
f 56/4/2 61/4/2 58/4/2
f 58/4/2 61/4/2 60/4/2
f 58/4/2 60/4/2 59/4/2
f 55/4/1 56/4/1 61/4/1
f 58/4/1 61/4/1 56/4/1
f 60/4/1 61/4/1 58/4/1
f 59/4/1 60/4/1 58/4/1
f 63/4/81 33/5/80 62/4/79
f 62/4/84 33/5/83 63/4/82
f 65/4/86 64/5/85 33/5/80
f 33/5/83 64/5/88 65/4/87
f 66/4/90 28/5/89 65/4/86
f 65/4/87 28/5/92 66/4/91
f 66/4/90 67/4/84 28/5/89
f 28/5/92 67/4/79 66/4/91
f 65/4/86 28/5/89 64/5/85
f 64/5/88 28/5/92 65/4/87
f 65/4/86 33/5/80 63/4/81
f 63/4/82 33/5/83 65/4/87
f 68/4/2 63/4/2 62/4/2
f 63/4/2 68/4/2 65/4/2
f 65/4/2 68/4/2 67/4/2
f 65/4/2 67/4/2 66/4/2
f 62/4/1 63/4/1 68/4/1
f 65/4/1 68/4/1 63/4/1
f 67/4/1 68/4/1 65/4/1
f 66/4/1 67/4/1 65/4/1
f 71/6/2 70/6/2 69/6/2
f 72/6/2 70/6/2 71/6/2
f 73/6/2 70/6/2 72/6/2
f 73/6/2 74/6/2 70/6/2
f 72/6/2 75/6/2 73/6/2
f 76/6/2 74/6/2 73/6/2
f 77/6/2 74/6/2 76/6/2
f 77/6/2 78/6/2 74/6/2
f 79/6/2 78/6/2 77/6/2
f 80/6/2 75/6/2 72/6/2
f 80/6/2 81/6/2 75/6/2
f 80/6/2 82/6/2 81/6/2
f 79/6/2 83/6/2 78/6/2
f 84/6/2 82/6/2 80/6/2
f 84/6/2 85/6/2 82/6/2
f 83/6/2 79/6/2 85/6/2
f 84/6/2 83/6/2 85/6/2
f 86/6/2 83/6/2 84/6/2
f 86/6/2 87/6/2 83/6/2
f 87/6/2 86/6/2 88/6/2
f 69/6/1 70/6/1 71/6/1
f 71/6/1 70/6/1 72/6/1
f 72/6/1 70/6/1 73/6/1
f 70/6/1 74/6/1 73/6/1
f 73/6/1 75/6/1 72/6/1
f 73/6/1 74/6/1 76/6/1
f 76/6/1 74/6/1 77/6/1
f 74/6/1 78/6/1 77/6/1
f 77/6/1 78/6/1 79/6/1
f 72/6/1 75/6/1 80/6/1
f 75/6/1 81/6/1 80/6/1
f 81/6/1 82/6/1 80/6/1
f 78/6/1 83/6/1 79/6/1
f 80/6/1 82/6/1 84/6/1
f 82/6/1 85/6/1 84/6/1
f 85/6/1 79/6/1 83/6/1
f 85/6/1 83/6/1 84/6/1
f 84/6/1 83/6/1 86/6/1
f 83/6/1 87/6/1 86/6/1
f 88/6/1 86/6/1 87/6/1
f 78/6/3 28/7/4 27/7/3
f 28/7/4 78/6/3 83/6/4
f 27/7/5 28/7/6 78/6/5
f 83/6/6 78/6/5 28/7/6
f 74/6/14 27/7/3 33/7/14
f 27/7/3 74/6/14 78/6/3
f 33/7/13 27/7/5 74/6/13
f 78/6/5 74/6/13 27/7/5
f 34/7/12 74/6/14 33/7/14
f 74/6/14 34/7/12 70/6/12
f 33/7/13 74/6/13 34/7/11
f 70/6/11 34/7/11 74/6/13
f 29/7/10 70/6/12 34/7/12
f 70/6/12 29/7/10 69/6/10
f 34/7/11 70/6/11 29/7/9
f 69/6/9 29/7/9 70/6/11
f 30/7/8 69/6/10 29/7/10
f 69/6/10 30/7/8 71/6/8
f 29/7/9 69/6/9 30/7/7
f 71/6/7 30/7/7 69/6/9
f 36/7/6 71/6/8 30/7/8
f 71/6/8 36/7/6 72/6/6
f 30/7/7 71/6/7 36/7/4
f 72/6/4 36/7/4 71/6/7
f 80/6/5 36/7/6 35/7/5
f 36/7/6 80/6/5 72/6/6
f 35/7/3 36/7/4 80/6/3
f 72/6/4 80/6/3 36/7/4
f 84/6/13 35/7/5 26/7/13
f 35/7/5 84/6/13 80/6/5
f 26/7/14 35/7/3 84/6/14
f 80/6/3 84/6/14 35/7/3
f 84/6/13 25/7/11 86/6/11
f 25/7/11 84/6/13 26/7/13
f 86/6/12 25/7/12 84/6/14
f 26/7/14 84/6/14 25/7/12
f 86/6/11 32/7/9 88/6/9
f 32/7/9 86/6/11 25/7/11
f 88/6/10 32/7/10 86/6/12
f 25/7/12 86/6/12 32/7/10
f 88/6/9 31/7/7 87/6/7
f 31/7/7 88/6/9 32/7/9
f 87/6/8 31/7/8 88/6/10
f 32/7/10 88/6/10 31/7/8
f 87/6/7 28/7/4 83/6/4
f 28/7/4 87/6/7 31/7/7
f 83/6/6 28/7/6 87/6/8
f 31/7/8 87/6/8 28/7/6
f 89/9/93 77/8/3 76/8/93
f 77/8/3 89/9/93 90/9/3
f 76/8/94 77/8/5 89/9/94
f 90/9/5 89/9/94 77/8/5
f 73/8/10 89/9/93 76/8/93
f 89/9/93 73/8/10 91/9/10
f 76/8/94 89/9/94 73/8/9
f 91/9/9 73/8/9 89/9/94
f 75/8/95 91/9/10 73/8/10
f 91/9/10 75/8/95 92/9/95
f 73/8/9 91/9/9 75/8/96
f 92/9/96 75/8/96 91/9/9
f 93/9/5 75/8/95 81/8/5
f 75/8/95 93/9/5 92/9/95
f 81/8/3 75/8/96 93/9/3
f 92/9/96 93/9/3 75/8/96
f 94/9/94 81/8/5 82/8/94
f 81/8/5 94/9/94 93/9/5
f 82/8/93 81/8/3 94/9/93
f 93/9/3 94/9/93 81/8/3
f 94/9/94 85/8/9 95/9/9
f 85/8/9 94/9/94 82/8/94
f 95/9/10 85/8/10 94/9/93
f 82/8/93 94/9/93 85/8/10
f 95/9/9 79/8/96 96/9/96
f 79/8/96 95/9/9 85/8/9
f 96/9/95 79/8/95 95/9/10
f 85/8/10 95/9/10 79/8/95
f 90/9/3 79/8/96 77/8/3
f 79/8/96 90/9/3 96/9/96
f 77/8/5 79/8/95 90/9/5
f 96/9/95 90/9/5 79/8/95
f 99/10/99 98/10/98 97/10/97
f 98/10/98 99/10/99 100/10/100
f 98/10/98 100/10/100 101/10/101
f 101/10/101 100/10/100 102/10/102
f 101/10/101 102/10/102 103/10/103
f 103/10/103 102/10/102 104/10/104
f 97/10/107 98/10/106 99/10/105
f 100/10/108 99/10/105 98/10/106
f 101/10/109 100/10/108 98/10/106
f 102/10/110 100/10/108 101/10/109
f 103/10/111 102/10/110 101/10/109
f 104/10/112 102/10/110 103/10/111
f 89/9/114 100/10/100 90/9/113
f 100/10/100 89/9/114 102/10/102
f 90/9/116 100/10/108 89/9/115
f 102/10/110 89/9/115 100/10/108
f 96/9/118 97/10/97 95/9/117
f 97/10/97 96/9/118 99/10/99
f 95/9/120 97/10/107 96/9/119
f 99/10/105 96/9/119 97/10/107
f 98/10/98 93/9/122 94/9/121
f 93/9/122 98/10/98 101/10/101
f 94/9/124 93/9/123 98/10/106
f 101/10/109 98/10/106 93/9/123
f 104/10/104 92/9/125 103/10/103
f 92/9/125 104/10/104 91/9/126
f 103/10/111 92/9/127 104/10/112
f 91/9/128 104/10/112 92/9/127
f 90/9/113 99/10/99 96/9/118
f 99/10/99 90/9/113 100/10/100
f 96/9/119 99/10/105 90/9/116
f 100/10/108 90/9/116 99/10/105
f 97/10/97 94/9/121 95/9/117
f 94/9/121 97/10/97 98/10/98
f 95/9/120 94/9/124 97/10/107
f 98/10/106 97/10/107 94/9/124
f 103/10/103 93/9/122 101/10/101
f 93/9/122 103/10/103 92/9/125
f 101/10/109 93/9/123 103/10/111
f 92/9/127 103/10/111 93/9/123
f 89/9/114 104/10/104 102/10/102
f 104/10/104 89/9/114 91/9/126
f 102/10/110 104/10/112 89/9/115
f 91/9/128 89/9/115 104/10/112

g tower-round-bottom-c




usemtl colormap

f 3/1/1 2/1/1 1/1/1
f 2/1/1 3/1/1 4/1/1
f 4/1/1 3/1/1 5/1/1
f 4/1/1 5/1/1 6/1/1
f 4/1/1 6/1/1 7/1/1
f 7/1/1 6/1/1 8/1/1
f 7/1/1 8/1/1 9/1/1
f 9/1/1 8/1/1 10/1/1
f 9/1/1 10/1/1 11/1/1
f 11/1/1 10/1/1 12/1/1
f 1/1/2 2/1/2 3/1/2
f 4/1/2 3/1/2 2/1/2
f 5/1/2 3/1/2 4/1/2
f 6/1/2 5/1/2 4/1/2
f 7/1/2 6/1/2 4/1/2
f 8/1/2 6/1/2 7/1/2
f 9/1/2 8/1/2 7/1/2
f 10/1/2 8/1/2 9/1/2
f 11/1/2 10/1/2 9/1/2
f 12/1/2 10/1/2 11/1/2
f 13/2/3 4/1/4 7/1/3
f 4/1/4 13/2/3 14/2/4
f 7/1/5 4/1/6 13/2/5
f 14/2/6 13/2/5 4/1/6
f 15/2/7 4/1/4 14/2/4
f 4/1/4 15/2/7 2/1/7
f 14/2/6 4/1/6 15/2/8
f 2/1/8 15/2/8 4/1/6
f 16/2/9 2/1/7 15/2/7
f 2/1/7 16/2/9 1/1/9
f 15/2/8 2/1/8 16/2/10
f 1/1/10 16/2/10 2/1/8
f 17/2/11 1/1/9 16/2/9
f 1/1/9 17/2/11 3/1/11
f 16/2/10 1/1/10 17/2/12
f 3/1/12 17/2/12 1/1/10
f 18/2/13 3/1/11 17/2/11
f 3/1/11 18/2/13 5/1/13
f 17/2/12 3/1/12 18/2/14
f 5/1/14 18/2/14 3/1/12
f 18/2/13 6/1/5 5/1/13
f 6/1/5 18/2/13 19/2/5
f 5/1/14 6/1/3 18/2/14
f 19/2/3 18/2/14 6/1/3
f 19/2/5 8/1/6 6/1/5
f 8/1/6 19/2/5 20/2/6
f 6/1/3 8/1/4 19/2/3
f 20/2/4 19/2/3 8/1/4
f 8/1/6 21/2/8 10/1/8
f 21/2/8 8/1/6 20/2/6
f 10/1/7 21/2/7 8/1/4
f 20/2/4 8/1/4 21/2/7
f 10/1/8 22/2/10 12/1/10
f 22/2/10 10/1/8 21/2/8
f 12/1/9 22/2/9 10/1/7
f 21/2/7 10/1/7 22/2/9
f 12/1/10 23/2/12 11/1/12
f 23/2/12 12/1/10 22/2/10
f 11/1/11 23/2/11 12/1/9
f 22/2/9 12/1/9 23/2/11
f 11/1/12 24/2/14 9/1/14
f 24/2/14 11/1/12 23/2/12
f 9/1/13 24/2/13 11/1/11
f 23/2/11 11/1/11 24/2/13
f 24/2/14 7/1/3 9/1/14
f 7/1/3 24/2/14 13/2/3
f 9/1/13 7/1/5 24/2/13
f 13/2/5 24/2/13 7/1/5
f 25/3/15 18/2/16 17/2/15
f 18/2/16 25/3/15 26/3/16
f 17/2/17 18/2/18 25/3/17
f 26/3/18 25/3/17 18/2/18
f 27/3/19 14/2/20 13/2/19
f 14/2/20 27/3/19 28/3/20
f 13/2/21 14/2/22 27/3/21
f 28/3/22 27/3/21 14/2/22
f 21/2/24 29/3/23 22/2/23
f 29/3/23 21/2/24 30/3/24
f 22/2/26 29/3/26 21/2/25
f 30/3/25 21/2/25 29/3/26
f 31/3/27 16/2/28 15/2/27
f 16/2/28 31/3/27 32/3/28
f 15/2/29 16/2/30 31/3/29
f 32/3/30 31/3/29 16/2/30
f 33/3/31 13/2/19 24/2/31
f 13/2/19 33/3/31 27/3/19
f 24/2/32 13/2/21 33/3/32
f 27/3/21 33/3/32 13/2/21
f 14/2/20 31/3/27 15/2/27
f 31/3/27 14/2/20 28/3/20
f 15/2/29 31/3/29 14/2/22
f 28/3/22 14/2/22 31/3/29
f 24/2/31 34/3/33 33/3/31
f 34/3/33 24/2/31 23/2/33
f 33/3/32 34/3/34 24/2/32
f 23/2/34 24/2/32 34/3/34
f 22/2/23 34/3/33 23/2/33
f 34/3/33 22/2/23 29/3/23
f 23/2/34 34/3/34 22/2/26
f 29/3/26 22/2/26 34/3/34
f 35/3/35 20/2/36 19/2/35
f 20/2/36 35/3/35 36/3/36
f 19/2/37 20/2/38 35/3/37
f 36/3/38 35/3/37 20/2/38
f 25/3/15 16/2/28 32/3/28
f 16/2/28 25/3/15 17/2/15
f 32/3/30 16/2/30 25/3/17
f 17/2/17 25/3/17 16/2/30
f 30/3/24 20/2/36 36/3/36
f 20/2/36 30/3/24 21/2/24
f 36/3/38 20/2/38 30/3/25
f 21/2/25 30/3/25 20/2/38
f 26/3/16 19/2/35 18/2/16
f 19/2/35 26/3/16 35/3/35
f 18/2/18 19/2/37 26/3/18
f 35/3/37 26/3/18 19/2/37
f 39/4/41 38/5/40 37/4/39
f 37/4/44 38/5/43 39/4/42
f 41/4/46 40/5/45 38/5/40
f 38/5/43 40/5/48 41/4/47
f 43/4/50 42/5/49 41/4/46
f 41/4/47 42/5/52 43/4/51
f 43/4/50 44/4/44 42/5/49
f 42/5/52 44/4/39 43/4/51
f 41/4/46 42/5/49 40/5/45
f 40/5/48 42/5/52 41/4/47
f 41/4/46 38/5/40 39/4/41
f 39/4/42 38/5/43 41/4/47
f 45/4/2 39/4/2 37/4/2
f 39/4/2 45/4/2 41/4/2
f 41/4/2 45/4/2 44/4/2
f 41/4/2 44/4/2 43/4/2
f 37/4/1 39/4/1 45/4/1
f 41/4/1 45/4/1 39/4/1
f 44/4/1 45/4/1 41/4/1
f 43/4/1 44/4/1 41/4/1
f 48/4/55 47/5/54 46/4/53
f 46/4/58 47/5/57 48/4/56
f 50/4/60 49/5/59 47/5/54
f 47/5/57 49/5/62 50/4/61
f 52/4/64 51/5/63 50/4/60
f 50/4/61 51/5/66 52/4/65
f 52/4/64 53/4/58 51/5/63
f 51/5/66 53/4/53 52/4/65
f 50/4/60 51/5/63 49/5/59
f 49/5/62 51/5/66 50/4/61
f 50/4/60 47/5/54 48/4/55
f 48/4/56 47/5/57 50/4/61
f 54/4/2 48/4/2 46/4/2
f 48/4/2 54/4/2 50/4/2
f 50/4/2 54/4/2 53/4/2
f 50/4/2 53/4/2 52/4/2
f 46/4/1 48/4/1 54/4/1
f 50/4/1 54/4/1 48/4/1
f 53/4/1 54/4/1 50/4/1
f 52/4/1 53/4/1 50/4/1
f 56/4/68 26/5/67 55/4/9
f 55/4/10 26/5/70 56/4/69
f 58/4/72 57/5/71 26/5/67
f 26/5/70 57/5/74 58/4/73
f 59/4/76 36/5/75 58/4/72
f 58/4/73 36/5/78 59/4/77
f 59/4/76 60/4/10 36/5/75
f 36/5/78 60/4/9 59/4/77
f 58/4/72 36/5/75 57/5/71
f 57/5/74 36/5/78 58/4/73
f 58/4/72 26/5/67 56/4/68
f 56/4/69 26/5/70 58/4/73
f 61/4/2 56/4/2 55/4/2
f 56/4/2 61/4/2 58/4/2
f 58/4/2 61/4/2 60/4/2
f 58/4/2 60/4/2 59/4/2
f 55/4/1 56/4/1 61/4/1
f 58/4/1 61/4/1 56/4/1
f 60/4/1 61/4/1 58/4/1
f 59/4/1 60/4/1 58/4/1
f 63/4/81 33/5/80 62/4/79
f 62/4/84 33/5/83 63/4/82
f 65/4/86 64/5/85 33/5/80
f 33/5/83 64/5/88 65/4/87
f 66/4/90 28/5/89 65/4/86
f 65/4/87 28/5/92 66/4/91
f 66/4/90 67/4/84 28/5/89
f 28/5/92 67/4/79 66/4/91
f 65/4/86 28/5/89 64/5/85
f 64/5/88 28/5/92 65/4/87
f 65/4/86 33/5/80 63/4/81
f 63/4/82 33/5/83 65/4/87
f 68/4/2 63/4/2 62/4/2
f 63/4/2 68/4/2 65/4/2
f 65/4/2 68/4/2 67/4/2
f 65/4/2 67/4/2 66/4/2
f 62/4/1 63/4/1 68/4/1
f 65/4/1 68/4/1 63/4/1
f 67/4/1 68/4/1 65/4/1
f 66/4/1 67/4/1 65/4/1
f 71/6/2 70/6/2 69/6/2
f 72/6/2 70/6/2 71/6/2
f 73/6/2 70/6/2 72/6/2
f 73/6/2 74/6/2 70/6/2
f 72/6/2 75/6/2 73/6/2
f 76/6/2 74/6/2 73/6/2
f 77/6/2 74/6/2 76/6/2
f 77/6/2 78/6/2 74/6/2
f 79/6/2 78/6/2 77/6/2
f 80/6/2 75/6/2 72/6/2
f 80/6/2 81/6/2 75/6/2
f 80/6/2 82/6/2 81/6/2
f 79/6/2 83/6/2 78/6/2
f 84/6/2 82/6/2 80/6/2
f 84/6/2 85/6/2 82/6/2
f 83/6/2 79/6/2 85/6/2
f 84/6/2 83/6/2 85/6/2
f 86/6/2 83/6/2 84/6/2
f 86/6/2 87/6/2 83/6/2
f 87/6/2 86/6/2 88/6/2
f 69/6/1 70/6/1 71/6/1
f 71/6/1 70/6/1 72/6/1
f 72/6/1 70/6/1 73/6/1
f 70/6/1 74/6/1 73/6/1
f 73/6/1 75/6/1 72/6/1
f 73/6/1 74/6/1 76/6/1
f 76/6/1 74/6/1 77/6/1
f 74/6/1 78/6/1 77/6/1
f 77/6/1 78/6/1 79/6/1
f 72/6/1 75/6/1 80/6/1
f 75/6/1 81/6/1 80/6/1
f 81/6/1 82/6/1 80/6/1
f 78/6/1 83/6/1 79/6/1
f 80/6/1 82/6/1 84/6/1
f 82/6/1 85/6/1 84/6/1
f 85/6/1 79/6/1 83/6/1
f 85/6/1 83/6/1 84/6/1
f 84/6/1 83/6/1 86/6/1
f 83/6/1 87/6/1 86/6/1
f 88/6/1 86/6/1 87/6/1
f 78/6/3 28/7/4 27/7/3
f 28/7/4 78/6/3 83/6/4
f 27/7/5 28/7/6 78/6/5
f 83/6/6 78/6/5 28/7/6
f 74/6/14 27/7/3 33/7/14
f 27/7/3 74/6/14 78/6/3
f 33/7/13 27/7/5 74/6/13
f 78/6/5 74/6/13 27/7/5
f 34/7/12 74/6/14 33/7/14
f 74/6/14 34/7/12 70/6/12
f 33/7/13 74/6/13 34/7/11
f 70/6/11 34/7/11 74/6/13
f 29/7/10 70/6/12 34/7/12
f 70/6/12 29/7/10 69/6/10
f 34/7/11 70/6/11 29/7/9
f 69/6/9 29/7/9 70/6/11
f 30/7/8 69/6/10 29/7/10
f 69/6/10 30/7/8 71/6/8
f 29/7/9 69/6/9 30/7/7
f 71/6/7 30/7/7 69/6/9
f 36/7/6 71/6/8 30/7/8
f 71/6/8 36/7/6 72/6/6
f 30/7/7 71/6/7 36/7/4
f 72/6/4 36/7/4 71/6/7
f 80/6/5 36/7/6 35/7/5
f 36/7/6 80/6/5 72/6/6
f 35/7/3 36/7/4 80/6/3
f 72/6/4 80/6/3 36/7/4
f 84/6/13 35/7/5 26/7/13
f 35/7/5 84/6/13 80/6/5
f 26/7/14 35/7/3 84/6/14
f 80/6/3 84/6/14 35/7/3
f 84/6/13 25/7/11 86/6/11
f 25/7/11 84/6/13 26/7/13
f 86/6/12 25/7/12 84/6/14
f 26/7/14 84/6/14 25/7/12
f 86/6/11 32/7/9 88/6/9
f 32/7/9 86/6/11 25/7/11
f 88/6/10 32/7/10 86/6/12
f 25/7/12 86/6/12 32/7/10
f 88/6/9 31/7/7 87/6/7
f 31/7/7 88/6/9 32/7/9
f 87/6/8 31/7/8 88/6/10
f 32/7/10 88/6/10 31/7/8
f 87/6/7 28/7/4 83/6/4
f 28/7/4 87/6/7 31/7/7
f 83/6/6 28/7/6 87/6/8
f 31/7/8 87/6/8 28/7/6
f 89/9/93 77/8/3 76/8/93
f 77/8/3 89/9/93 90/9/3
f 76/8/94 77/8/5 89/9/94
f 90/9/5 89/9/94 77/8/5
f 73/8/10 89/9/93 76/8/93
f 89/9/93 73/8/10 91/9/10
f 76/8/94 89/9/94 73/8/9
f 91/9/9 73/8/9 89/9/94
f 75/8/95 91/9/10 73/8/10
f 91/9/10 75/8/95 92/9/95
f 73/8/9 91/9/9 75/8/96
f 92/9/96 75/8/96 91/9/9
f 93/9/5 75/8/95 81/8/5
f 75/8/95 93/9/5 92/9/95
f 81/8/3 75/8/96 93/9/3
f 92/9/96 93/9/3 75/8/96
f 94/9/94 81/8/5 82/8/94
f 81/8/5 94/9/94 93/9/5
f 82/8/93 81/8/3 94/9/93
f 93/9/3 94/9/93 81/8/3
f 94/9/94 85/8/9 95/9/9
f 85/8/9 94/9/94 82/8/94
f 95/9/10 85/8/10 94/9/93
f 82/8/93 94/9/93 85/8/10
f 95/9/9 79/8/96 96/9/96
f 79/8/96 95/9/9 85/8/9
f 96/9/95 79/8/95 95/9/10
f 85/8/10 95/9/10 79/8/95
f 90/9/3 79/8/96 77/8/3
f 79/8/96 90/9/3 96/9/96
f 77/8/5 79/8/95 90/9/5
f 96/9/95 90/9/5 79/8/95
f 99/10/99 98/10/98 97/10/97
f 98/10/98 99/10/99 100/10/100
f 98/10/98 100/10/100 101/10/101
f 101/10/101 100/10/100 102/10/102
f 101/10/101 102/10/102 103/10/103
f 103/10/103 102/10/102 104/10/104
f 97/10/107 98/10/106 99/10/105
f 100/10/108 99/10/105 98/10/106
f 101/10/109 100/10/108 98/10/106
f 102/10/110 100/10/108 101/10/109
f 103/10/111 102/10/110 101/10/109
f 104/10/112 102/10/110 103/10/111
f 89/9/114 100/10/100 90/9/113
f 100/10/100 89/9/114 102/10/102
f 90/9/116 100/10/108 89/9/115
f 102/10/110 89/9/115 100/10/108
f 96/9/118 97/10/97 95/9/117
f 97/10/97 96/9/118 99/10/99
f 95/9/120 97/10/107 96/9/119
f 99/10/105 96/9/119 97/10/107
f 98/10/98 93/9/122 94/9/121
f 93/9/122 98/10/98 101/10/101
f 94/9/124 93/9/123 98/10/106
f 101/10/109 98/10/106 93/9/123
f 104/10/104 92/9/125 103/10/103
f 92/9/125 104/10/104 91/9/126
f 103/10/111 92/9/127 104/10/112
f 91/9/128 104/10/112 92/9/127
f 90/9/113 99/10/99 96/9/118
f 99/10/99 90/9/113 100/10/100
f 96/9/119 99/10/105 90/9/116
f 100/10/108 90/9/116 99/10/105
f 97/10/97 94/9/121 95/9/117
f 94/9/121 97/10/97 98/10/98
f 95/9/120 94/9/124 97/10/107
f 98/10/106 97/10/107 94/9/124
f 103/10/103 93/9/122 101/10/101
f 93/9/122 103/10/103 92/9/125
f 101/10/109 93/9/123 103/10/111
f 92/9/127 103/10/111 93/9/123
f 89/9/114 104/10/104 102/10/102
f 104/10/104 89/9/114 91/9/126
f 102/10/110 104/10/112 89/9/115
f 91/9/128 89/9/115 104/10/112

