# Created by Kenney (www.kenney.nl)

mtllib tower-square-middle-b.mtl

g tower-square-middle-b

v 0.4 0.3 0.35 1 1 1
v 0.4 0.3 -0.35 1 1 1
v 0.35 0.3 0.4 1 1 1
v 0.35 0.3 -0.4 1 1 1
v -0.35 0.3 0.4 1 1 1
v -0.35 0.3 -0.4 1 1 1
v -0.4 0.3 0.35 1 1 1
v -0.4 0.3 -0.35 1 1 1
v 0.4375 0.4 -0.5 1 1 1
v -0.4375 0.4 -0.5 1 1 1
v -0.5 0.4 -0.4375 1 1 1
v -0.5 0.4 0.4375 1 1 1
v 0.5 0.4 -0.4375 1 1 1
v 0.5 0.4 0.4375 1 1 1
v 0.4375 0.4 0.5 1 1 1
v -0.4375 0.4 0.5 1 1 1
v 0.5 0.5 -0.4375 1 1 1
v 0.5 0.5 0.4375 1 1 1
v 0.4375 0.5 -0.5 1 1 1
v 0.4375 0.5 0.5 1 1 1
v -0.4375 0.5 -0.5 1 1 1
v -0.4375 0.5 0.5 1 1 1
v -0.5 0.5 -0.4375 1 1 1
v -0.5 0.5 0.4375 1 1 1
v 0.3 0.3 -0.4 1 1 1
v 0.3 1.082867E-15 -0.4 1 1 1
v 0.4 0.3 -0.3 1 1 1
v 0.4 1.082867E-15 -0.3 1 1 1
v -0.4 1.082867E-15 -0.3 1 1 1
v -0.3 1.082867E-15 -0.4 1 1 1
v -0.4 0.3 -0.3 1 1 1
v -0.3 0.3 -0.4 1 1 1
v -0.4 1.082867E-15 0.15 1 1 1
v -0.325 1.082867E-15 0.15 1 1 1
v -0.4 0.3 0.15 1 1 1
v -0.325 0.3 0.15 1 1 1
v -0.4 0.3 -0.15 1 1 1
v -0.4 1.082867E-15 -0.15 1 1 1
v 0.325 1.082867E-15 0.15 1 1 1
v 0.4 1.082867E-15 0.15 1 1 1
v 0.325 0.3 0.15 1 1 1
v 0.4 0.3 0.15 1 1 1
v -0.4 0.3 0.3 1 1 1
v -0.3 0.3 0.4 1 1 1
v -0.4 1.082867E-15 0.3 1 1 1
v -0.3 1.082867E-15 0.4 1 1 1
v -0.15 1.082867E-15 0.4 1 1 1
v -0.15 0.3 0.4 1 1 1
v 0.15 1.082867E-15 -0.4 1 1 1
v 0.15 0.3 -0.4 1 1 1
v 0.3 1.082867E-15 0.4 1 1 1
v 0.15 1.082867E-15 0.4 1 1 1
v 0.3 0.3 0.4 1 1 1
v 0.15 0.3 0.4 1 1 1
v -0.15 0.3 -0.4 1 1 1
v -0.15 1.082867E-15 -0.4 1 1 1
v -0.15 0.3 -0.325 1 1 1
v -0.15 2.905693E-14 -0.325 1 1 1
v -0.15 0.3 0.325 1 1 1
v -0.15 1.534062E-15 0.325 1 1 1
v 0.4 0.3 0.3 1 1 1
v 0.4 1.082867E-15 0.3 1 1 1
v 0.4 0.3 -0.15 1 1 1
v 0.4 1.082867E-15 -0.15 1 1 1
v 0.15 0.3 -0.325 1 1 1
v 0.15 0 -0.325 1 1 1
v 0.325 1.082867E-15 -0.15 1 1 1
v 0.15 6.136247E-15 0.325 1 1 1
v -0.325 2.905693E-14 -0.15 1 1 1
v 0.325 0.3 -0.15 1 1 1
v 0.15 0.3 0.325 1 1 1
v -0.325 0.3 -0.15 1 1 1

vn 0 -1 0
vn 0 1 0
vn 0.2636292 -0.7876078 -0.5569323
vn -0.2636292 -0.7876078 -0.5569323
vn 0.1908574 -0.7725679 -0.6055677
vn -0.1908574 -0.7725679 -0.6055677
vn -0.1908574 0.7725679 0.6055677
vn 0.2636292 0.7876078 0.5569323
vn -0.2636292 0.7876078 0.5569323
vn 0.1908574 0.7725679 0.6055677
vn -0.5569323 -0.7876078 -0.2636292
vn -0.5569323 -0.7876078 0.2636292
vn -0.6055677 -0.7725679 -0.1908574
vn -0.6055677 -0.7725679 0.1908574
vn 0.6055677 0.7725679 0.1908574
vn 0.5569323 0.7876078 -0.2636292
vn 0.5569323 0.7876078 0.2636292
vn 0.6055677 0.7725679 -0.1908574
vn 0.5569323 -0.7876078 -0.2636292
vn 0.6055677 -0.7725679 -0.1908574
vn 0.5569323 -0.7876078 0.2636292
vn 0.6055677 -0.7725679 0.1908574
vn -0.5569323 0.7876078 -0.2636292
vn -0.6055677 0.7725679 0.1908574
vn -0.5569323 0.7876078 0.2636292
vn -0.6055677 0.7725679 -0.1908574
vn 0.2636292 -0.7876078 0.5569323
vn 0.1908574 -0.7725679 0.6055677
vn -0.2636292 -0.7876078 0.5569323
vn -0.1908574 -0.7725679 0.6055677
vn 0.2636292 0.7876078 -0.5569323
vn -0.1908574 0.7725679 -0.6055677
vn -0.2636292 0.7876078 -0.5569323
vn 0.1908574 0.7725679 -0.6055677
vn 0.9238795 0 -0.3826834
vn 0.9238795 0 0.3826834
vn -0.9238795 0 -0.3826834
vn -0.9238795 0 0.3826834
vn 0.3826834 0 -0.9238795
vn -0.3826834 0 0.9238795
vn -0.3826834 0 -0.9238795
vn 0.3826834 0 0.9238795
vn 0 0 -1
vn 0 0 1
vn -1 0 0
vn 1 0 0

vt 0.59375 0.075
vt 0.59375 0.125
vt 0.59375 0.175
vt 0.34375 0.575
vt 0.34375 0.675
vt 0.84375 0.075
vt 0.84375 0.175

usemtl colormap

f 3/1/1 2/1/1 1/1/1
f 2/1/1 3/1/1 4/1/1
f 4/1/1 3/1/1 5/1/1
f 4/1/1 5/1/1 6/1/1
f 6/1/1 5/1/1 7/1/1
f 6/1/1 7/1/1 8/1/1
f 1/1/2 2/1/2 3/1/2
f 4/1/2 3/1/2 2/1/2
f 5/1/2 3/1/2 4/1/2
f 6/1/2 5/1/2 4/1/2
f 7/1/2 5/1/2 6/1/2
f 8/1/2 7/1/2 6/1/2
f 4/1/5 10/2/4 9/2/3
f 10/2/4 4/1/5 6/1/6
f 9/2/9 10/2/8 4/1/7
f 6/1/10 4/1/7 10/2/8
f 8/1/13 12/2/12 11/2/11
f 12/2/12 8/1/13 7/1/14
f 11/2/17 12/2/16 8/1/15
f 7/1/18 8/1/15 12/2/16
f 14/2/21 2/1/20 13/2/19
f 2/1/20 14/2/21 1/1/22
f 13/2/25 2/1/24 14/2/23
f 1/1/26 14/2/23 2/1/24
f 16/2/29 3/1/28 15/2/27
f 3/1/28 16/2/29 5/1/30
f 15/2/33 3/1/32 16/2/31
f 5/1/34 16/2/31 3/1/32
f 8/1/13 10/2/4 6/1/6
f 10/2/4 8/1/13 11/2/11
f 6/1/10 10/2/8 8/1/15
f 11/2/17 8/1/15 10/2/8
f 15/2/27 1/1/22 14/2/21
f 1/1/22 15/2/27 3/1/28
f 14/2/23 1/1/26 15/2/33
f 3/1/32 15/2/33 1/1/26
f 2/1/20 9/2/3 13/2/19
f 9/2/3 2/1/20 4/1/5
f 13/2/25 9/2/9 2/1/24
f 4/1/7 2/1/24 9/2/9
f 16/2/29 7/1/14 5/1/30
f 7/1/14 16/2/29 12/2/12
f 5/1/34 7/1/18 16/2/31
f 12/2/16 16/2/31 7/1/18
f 19/3/2 18/3/2 17/3/2
f 18/3/2 19/3/2 20/3/2
f 20/3/2 19/3/2 21/3/2
f 20/3/2 21/3/2 22/3/2
f 22/3/2 21/3/2 23/3/2
f 22/3/2 23/3/2 24/3/2
f 17/3/1 18/3/1 19/3/1
f 20/3/1 19/3/1 18/3/1
f 21/3/1 19/3/1 20/3/1
f 22/3/1 21/3/1 20/3/1
f 23/3/1 21/3/1 22/3/1
f 24/3/1 23/3/1 22/3/1
f 18/3/36 13/2/35 17/3/35
f 13/2/35 18/3/36 14/2/36
f 17/3/38 13/2/38 18/3/37
f 14/2/37 18/3/37 13/2/38
f 17/3/35 9/2/39 19/3/39
f 9/2/39 17/3/35 13/2/35
f 19/3/40 9/2/40 17/3/38
f 13/2/38 17/3/38 9/2/40
f 21/3/41 9/2/39 10/2/41
f 9/2/39 21/3/41 19/3/39
f 10/2/42 9/2/40 21/3/42
f 19/3/40 21/3/42 9/2/40
f 11/2/37 21/3/41 10/2/41
f 21/3/41 11/2/37 23/3/37
f 10/2/42 21/3/42 11/2/36
f 23/3/36 11/2/36 21/3/42
f 12/2/38 23/3/37 11/2/37
f 23/3/37 12/2/38 24/3/38
f 11/2/36 23/3/36 12/2/35
f 24/3/35 12/2/35 23/3/36
f 16/2/40 24/3/38 12/2/38
f 24/3/38 16/2/40 22/3/40
f 12/2/35 24/3/35 16/2/39
f 22/3/39 16/2/39 24/3/35
f 20/3/42 16/2/40 15/2/42
f 16/2/40 20/3/42 22/3/40
f 15/2/41 16/2/39 20/3/41
f 22/3/39 20/3/41 16/2/39
f 20/3/42 14/2/36 18/3/36
f 14/2/36 20/3/42 15/2/42
f 18/3/37 14/2/37 20/3/41
f 15/2/41 20/3/41 14/2/37
f 27/4/35 26/5/39 25/4/39
f 26/5/39 27/4/35 28/5/35
f 25/4/40 26/5/40 27/4/38
f 28/5/38 27/4/38 26/5/40
f 31/4/37 30/5/41 29/5/37
f 30/5/41 31/4/37 32/4/41
f 29/5/36 30/5/42 31/4/36
f 32/4/42 31/4/36 30/5/42
f 35/4/43 34/5/43 33/5/43
f 34/5/43 35/4/43 36/4/43
f 33/5/44 34/5/44 35/4/44
f 36/4/44 35/4/44 34/5/44
f 29/5/37 37/4/45 31/4/37
f 37/4/45 29/5/37 38/5/45
f 31/4/36 37/4/46 29/5/36
f 38/5/46 29/5/36 37/4/46
f 41/4/43 40/5/43 39/5/43
f 40/5/43 41/4/43 42/4/43
f 39/5/44 40/5/44 41/4/44
f 42/4/44 41/4/44 40/5/44
f 45/5/38 44/4/40 43/4/38
f 44/4/40 45/5/38 46/5/40
f 43/4/35 44/4/39 45/5/35
f 46/5/39 45/5/35 44/4/39
f 48/4/44 46/5/40 47/5/44
f 46/5/40 48/4/44 44/4/40
f 47/5/43 46/5/39 48/4/43
f 44/4/39 48/4/43 46/5/39
f 50/4/43 26/5/39 49/5/43
f 26/5/39 50/4/43 25/4/39
f 49/5/44 26/5/40 50/4/44
f 25/4/40 50/4/44 26/5/40
f 33/5/45 43/4/38 35/4/45
f 43/4/38 33/5/45 45/5/38
f 35/4/46 43/4/35 33/5/46
f 45/5/35 33/5/46 43/4/35
f 53/4/42 52/5/44 51/5/42
f 52/5/44 53/4/42 54/4/44
f 51/5/41 52/5/43 53/4/41
f 54/4/43 53/4/41 52/5/43
f 57/4/46 56/5/46 55/4/46
f 56/5/46 57/4/46 58/5/46
f 55/4/45 56/5/45 57/4/45
f 58/5/45 57/4/45 56/5/45
f 48/4/46 60/5/46 59/4/46
f 60/5/46 48/4/46 47/5/46
f 59/4/45 60/5/45 48/4/45
f 47/5/45 48/4/45 60/5/45
f 61/4/36 40/5/46 42/4/46
f 40/5/46 61/4/36 62/5/36
f 42/4/45 40/5/45 61/4/37
f 62/5/37 61/4/37 40/5/45
f 63/4/46 28/5/35 27/4/35
f 28/5/35 63/4/46 64/5/46
f 27/4/38 28/5/38 63/4/45
f 64/5/45 63/4/45 28/5/38
f 49/5/45 65/4/45 50/4/45
f 65/4/45 49/5/45 66/5/45
f 50/4/46 65/4/46 49/5/46
f 66/5/46 49/5/46 65/4/46
f 64/5/1 26/5/1 28/5/1
f 26/5/1 64/5/1 67/5/1
f 67/5/1 51/5/1 26/5/1
f 26/5/1 51/5/1 49/5/1
f 39/5/1 51/5/1 67/5/1
f 49/5/1 51/5/1 66/5/1
f 39/5/1 62/5/1 51/5/1
f 62/5/1 39/5/1 40/5/1
f 66/5/1 51/5/1 52/5/1
f 66/5/1 52/5/1 68/5/1
f 68/5/1 58/5/1 66/5/1
f 58/5/1 68/5/1 60/5/1
f 30/5/1 58/5/1 60/5/1
f 58/5/1 30/5/1 56/5/1
f 60/5/1 46/5/1 30/5/1
f 46/5/1 60/5/1 47/5/1
f 30/5/1 46/5/1 69/5/1
f 30/5/1 69/5/1 29/5/1
f 29/5/1 69/5/1 38/5/1
f 69/5/1 46/5/1 34/5/1
f 45/5/1 34/5/1 46/5/1
f 34/5/1 45/5/1 33/5/1
f 28/5/2 26/5/2 64/5/2
f 67/5/2 64/5/2 26/5/2
f 26/5/2 51/5/2 67/5/2
f 49/5/2 51/5/2 26/5/2
f 67/5/2 51/5/2 39/5/2
f 66/5/2 51/5/2 49/5/2
f 51/5/2 62/5/2 39/5/2
f 40/5/2 39/5/2 62/5/2
f 52/5/2 51/5/2 66/5/2
f 68/5/2 52/5/2 66/5/2
f 66/5/2 58/5/2 68/5/2
f 60/5/2 68/5/2 58/5/2
f 60/5/2 58/5/2 30/5/2
f 56/5/2 30/5/2 58/5/2
f 30/5/2 46/5/2 60/5/2
f 47/5/2 60/5/2 46/5/2
f 69/5/2 46/5/2 30/5/2
f 29/5/2 69/5/2 30/5/2
f 38/5/2 69/5/2 29/5/2
f 34/5/2 46/5/2 69/5/2
f 46/5/2 34/5/2 45/5/2
f 33/5/2 45/5/2 34/5/2
f 32/4/41 56/5/43 30/5/41
f 56/5/43 32/4/41 55/4/43
f 30/5/42 56/5/44 32/4/42
f 55/4/44 32/4/42 56/5/44
f 63/4/44 67/5/44 64/5/44
f 67/5/44 63/4/44 70/4/44
f 64/5/43 67/5/43 63/4/43
f 70/4/43 63/4/43 67/5/43
f 68/5/45 54/4/45 71/4/45
f 54/4/45 68/5/45 52/5/45
f 71/4/46 54/4/46 68/5/46
f 52/5/46 68/5/46 54/4/46
f 61/4/36 51/5/42 62/5/36
f 51/5/42 61/4/36 53/4/42
f 62/5/37 51/5/41 61/4/37
f 53/4/41 61/4/37 51/5/41
f 69/5/44 37/4/44 38/5/44
f 37/4/44 69/5/44 72/4/44
f 38/5/43 37/4/43 69/5/43
f 72/4/43 69/5/43 37/4/43
f 41/6/46 67/7/46 70/6/46
f 67/7/46 41/6/46 39/7/46
f 70/6/45 67/7/45 41/6/45
f 39/7/45 41/6/45 67/7/45
f 69/7/45 36/6/45 72/6/45
f 36/6/45 69/7/45 34/7/45
f 72/6/46 36/6/46 69/7/46
f 34/7/46 69/7/46 36/6/46
f 25/6/2 63/6/2 27/6/2
f 63/6/2 25/6/2 70/6/2
f 70/6/2 25/6/2 41/6/2
f 53/6/2 41/6/2 25/6/2
f 53/6/2 25/6/2 50/6/2
f 53/6/2 50/6/2 65/6/2
f 61/6/2 41/6/2 53/6/2
f 41/6/2 61/6/2 42/6/2
f 53/6/2 65/6/2 54/6/2
f 54/6/2 65/6/2 71/6/2
f 57/6/2 71/6/2 65/6/2
f 71/6/2 57/6/2 59/6/2
f 57/6/2 32/6/2 59/6/2
f 32/6/2 57/6/2 55/6/2
f 59/6/2 32/6/2 48/6/2
f 48/6/2 32/6/2 44/6/2
f 44/6/2 32/6/2 72/6/2
f 72/6/2 32/6/2 31/6/2
f 72/6/2 31/6/2 37/6/2
f 36/6/2 44/6/2 72/6/2
f 44/6/2 36/6/2 43/6/2
f 43/6/2 36/6/2 35/6/2
f 27/6/1 63/6/1 25/6/1
f 70/6/1 25/6/1 63/6/1
f 41/6/1 25/6/1 70/6/1
f 25/6/1 41/6/1 53/6/1
f 50/6/1 25/6/1 53/6/1
f 65/6/1 50/6/1 53/6/1
f 53/6/1 41/6/1 61/6/1
f 42/6/1 61/6/1 41/6/1
f 54/6/1 65/6/1 53/6/1
f 71/6/1 65/6/1 54/6/1
f 65/6/1 71/6/1 57/6/1
f 59/6/1 57/6/1 71/6/1
f 59/6/1 32/6/1 57/6/1
f 55/6/1 57/6/1 32/6/1
f 48/6/1 32/6/1 59/6/1
f 44/6/1 32/6/1 48/6/1
f 72/6/1 32/6/1 44/6/1
f 31/6/1 32/6/1 72/6/1
f 37/6/1 31/6/1 72/6/1
f 72/6/1 44/6/1 36/6/1
f 43/6/1 36/6/1 44/6/1
f 35/6/1 36/6/1 43/6/1
f 58/7/43 65/6/43 66/7/43
f 65/6/43 58/7/43 57/6/43
f 66/7/44 65/6/44 58/7/44
f 57/6/44 58/7/44 65/6/44
f 68/7/44 59/6/44 60/7/44
f 59/6/44 68/7/44 71/6/44
f 60/7/43 59/6/43 68/7/43
f 71/6/43 68/7/43 59/6/43

g tower-square-middle-b




usemtl colormap

f 3/1/1 2/1/1 1/1/1
f 2/1/1 3/1/1 4/1/1
f 4/1/1 3/1/1 5/1/1
f 4/1/1 5/1/1 6/1/1
f 6/1/1 5/1/1 7/1/1
f 6/1/1 7/1/1 8/1/1
f 1/1/2 2/1/2 3/1/2
f 4/1/2 3/1/2 2/1/2
f 5/1/2 3/1/2 4/1/2
f 6/1/2 5/1/2 4/1/2
f 7/1/2 5/1/2 6/1/2
f 8/1/2 7/1/2 6/1/2
f 4/1/5 10/2/4 9/2/3
f 10/2/4 4/1/5 6/1/6
f 9/2/9 10/2/8 4/1/7
f 6/1/10 4/1/7 10/2/8
f 8/1/13 12/2/12 11/2/11
f 12/2/12 8/1/13 7/1/14
f 11/2/17 12/2/16 8/1/15
f 7/1/18 8/1/15 12/2/16
f 14/2/21 2/1/20 13/2/19
f 2/1/20 14/2/21 1/1/22
f 13/2/25 2/1/24 14/2/23
f 1/1/26 14/2/23 2/1/24
f 16/2/29 3/1/28 15/2/27
f 3/1/28 16/2/29 5/1/30
f 15/2/33 3/1/32 16/2/31
f 5/1/34 16/2/31 3/1/32
f 8/1/13 10/2/4 6/1/6
f 10/2/4 8/1/13 11/2/11
f 6/1/10 10/2/8 8/1/15
f 11/2/17 8/1/15 10/2/8
f 15/2/27 1/1/22 14/2/21
f 1/1/22 15/2/27 3/1/28
f 14/2/23 1/1/26 15/2/33
f 3/1/32 15/2/33 1/1/26
f 2/1/20 9/2/3 13/2/19
f 9/2/3 2/1/20 4/1/5
f 13/2/25 9/2/9 2/1/24
f 4/1/7 2/1/24 9/2/9
f 16/2/29 7/1/14 5/1/30
f 7/1/14 16/2/29 12/2/12
f 5/1/34 7/1/18 16/2/31
f 12/2/16 16/2/31 7/1/18
f 19/3/2 18/3/2 17/3/2
f 18/3/2 19/3/2 20/3/2
f 20/3/2 19/3/2 21/3/2
f 20/3/2 21/3/2 22/3/2
f 22/3/2 21/3/2 23/3/2
f 22/3/2 23/3/2 24/3/2
f 17/3/1 18/3/1 19/3/1
f 20/3/1 19/3/1 18/3/1
f 21/3/1 19/3/1 20/3/1
f 22/3/1 21/3/1 20/3/1
f 23/3/1 21/3/1 22/3/1
f 24/3/1 23/3/1 22/3/1
f 18/3/36 13/2/35 17/3/35
f 13/2/35 18/3/36 14/2/36
f 17/3/38 13/2/38 18/3/37
f 14/2/37 18/3/37 13/2/38
f 17/3/35 9/2/39 19/3/39
f 9/2/39 17/3/35 13/2/35
f 19/3/40 9/2/40 17/3/38
f 13/2/38 17/3/38 9/2/40
f 21/3/41 9/2/39 10/2/41
f 9/2/39 21/3/41 19/3/39
f 10/2/42 9/2/40 21/3/42
f 19/3/40 21/3/42 9/2/40
f 11/2/37 21/3/41 10/2/41
f 21/3/41 11/2/37 23/3/37
f 10/2/42 21/3/42 11/2/36
f 23/3/36 11/2/36 21/3/42
f 12/2/38 23/3/37 11/2/37
f 23/3/37 12/2/38 24/3/38
f 11/2/36 23/3/36 12/2/35
f 24/3/35 12/2/35 23/3/36
f 16/2/40 24/3/38 12/2/38
f 24/3/38 16/2/40 22/3/40
f 12/2/35 24/3/35 16/2/39
f 22/3/39 16/2/39 24/3/35
f 20/3/42 16/2/40 15/2/42
f 16/2/40 20/3/42 22/3/40
f 15/2/41 16/2/39 20/3/41
f 22/3/39 20/3/41 16/2/39
f 20/3/42 14/2/36 18/3/36
f 14/2/36 20/3/42 15/2/42
f 18/3/37 14/2/37 20/3/41
f 15/2/41 20/3/41 14/2/37
f 27/4/35 26/5/39 25/4/39
f 26/5/39 27/4/35 28/5/35
f 25/4/40 26/5/40 27/4/38
f 28/5/38 27/4/38 26/5/40
f 31/4/37 30/5/41 29/5/37
f 30/5/41 31/4/37 32/4/41
f 29/5/36 30/5/42 31/4/36
f 32/4/42 31/4/36 30/5/42
f 35/4/43 34/5/43 33/5/43
f 34/5/43 35/4/43 36/4/43
f 33/5/44 34/5/44 35/4/44
f 36/4/44 35/4/44 34/5/44
f 29/5/37 37/4/45 31/4/37
f 37/4/45 29/5/37 38/5/45
f 31/4/36 37/4/46 29/5/36
f 38/5/46 29/5/36 37/4/46
f 41/4/43 40/5/43 39/5/43
f 40/5/43 41/4/43 42/4/43
f 39/5/44 40/5/44 41/4/44
f 42/4/44 41/4/44 40/5/44
f 45/5/38 44/4/40 43/4/38
f 44/4/40 45/5/38 46/5/40
f 43/4/35 44/4/39 45/5/35
f 46/5/39 45/5/35 44/4/39
f 48/4/44 46/5/40 47/5/44
f 46/5/40 48/4/44 44/4/40
f 47/5/43 46/5/39 48/4/43
f 44/4/39 48/4/43 46/5/39
f 50/4/43 26/5/39 49/5/43
f 26/5/39 50/4/43 25/4/39
f 49/5/44 26/5/40 50/4/44
f 25/4/40 50/4/44 26/5/40
f 33/5/45 43/4/38 35/4/45
f 43/4/38 33/5/45 45/5/38
f 35/4/46 43/4/35 33/5/46
f 45/5/35 33/5/46 43/4/35
f 53/4/42 52/5/44 51/5/42
f 52/5/44 53/4/42 54/4/44
f 51/5/41 52/5/43 53/4/41
f 54/4/43 53/4/41 52/5/43
f 57/4/46 56/5/46 55/4/46
f 56/5/46 57/4/46 58/5/46
f 55/4/45 56/5/45 57/4/45
f 58/5/45 57/4/45 56/5/45
f 48/4/46 60/5/46 59/4/46
f 60/5/46 48/4/46 47/5/46
f 59/4/45 60/5/45 48/4/45
f 47/5/45 48/4/45 60/5/45
f 61/4/36 40/5/46 42/4/46
f 40/5/46 61/4/36 62/5/36
f 42/4/45 40/5/45 61/4/37
f 62/5/37 61/4/37 40/5/45
f 63/4/46 28/5/35 27/4/35
f 28/5/35 63/4/46 64/5/46
f 27/4/38 28/5/38 63/4/45
f 64/5/45 63/4/45 28/5/38
f 49/5/45 65/4/45 50/4/45
f 65/4/45 49/5/45 66/5/45
f 50/4/46 65/4/46 49/5/46
f 66/5/46 49/5/46 65/4/46
f 64/5/1 26/5/1 28/5/1
f 26/5/1 64/5/1 67/5/1
f 67/5/1 51/5/1 26/5/1
f 26/5/1 51/5/1 49/5/1
f 39/5/1 51/5/1 67/5/1
f 49/5/1 51/5/1 66/5/1
f 39/5/1 62/5/1 51/5/1
f 62/5/1 39/5/1 40/5/1
f 66/5/1 51/5/1 52/5/1
f 66/5/1 52/5/1 68/5/1
f 68/5/1 58/5/1 66/5/1
f 58/5/1 68/5/1 60/5/1
f 30/5/1 58/5/1 60/5/1
f 58/5/1 30/5/1 56/5/1
f 60/5/1 46/5/1 30/5/1
f 46/5/1 60/5/1 47/5/1
f 30/5/1 46/5/1 69/5/1
f 30/5/1 69/5/1 29/5/1
f 29/5/1 69/5/1 38/5/1
f 69/5/1 46/5/1 34/5/1
f 45/5/1 34/5/1 46/5/1
f 34/5/1 45/5/1 33/5/1
f 28/5/2 26/5/2 64/5/2
f 67/5/2 64/5/2 26/5/2
f 26/5/2 51/5/2 67/5/2
f 49/5/2 51/5/2 26/5/2
f 67/5/2 51/5/2 39/5/2
f 66/5/2 51/5/2 49/5/2
f 51/5/2 62/5/2 39/5/2
f 40/5/2 39/5/2 62/5/2
f 52/5/2 51/5/2 66/5/2
f 68/5/2 52/5/2 66/5/2
f 66/5/2 58/5/2 68/5/2
f 60/5/2 68/5/2 58/5/2
f 60/5/2 58/5/2 30/5/2
f 56/5/2 30/5/2 58/5/2
f 30/5/2 46/5/2 60/5/2
f 47/5/2 60/5/2 46/5/2
f 69/5/2 46/5/2 30/5/2
f 29/5/2 69/5/2 30/5/2
f 38/5/2 69/5/2 29/5/2
f 34/5/2 46/5/2 69/5/2
f 46/5/2 34/5/2 45/5/2
f 33/5/2 45/5/2 34/5/2
f 32/4/41 56/5/43 30/5/41
f 56/5/43 32/4/41 55/4/43
f 30/5/42 56/5/44 32/4/42
f 55/4/44 32/4/42 56/5/44
f 63/4/44 67/5/44 64/5/44
f 67/5/44 63/4/44 70/4/44
f 64/5/43 67/5/43 63/4/43
f 70/4/43 63/4/43 67/5/43
f 68/5/45 54/4/45 71/4/45
f 54/4/45 68/5/45 52/5/45
f 71/4/46 54/4/46 68/5/46
f 52/5/46 68/5/46 54/4/46
f 61/4/36 51/5/42 62/5/36
f 51/5/42 61/4/36 53/4/42
f 62/5/37 51/5/41 61/4/37
f 53/4/41 61/4/37 51/5/41
f 69/5/44 37/4/44 38/5/44
f 37/4/44 69/5/44 72/4/44
f 38/5/43 37/4/43 69/5/43
f 72/4/43 69/5/43 37/4/43
f 41/6/46 67/7/46 70/6/46
f 67/7/46 41/6/46 39/7/46
f 70/6/45 67/7/45 41/6/45
f 39/7/45 41/6/45 67/7/45
f 69/7/45 36/6/45 72/6/45
f 36/6/45 69/7/45 34/7/45
f 72/6/46 36/6/46 69/7/46
f 34/7/46 69/7/46 36/6/46
f 25/6/2 63/6/2 27/6/2
f 63/6/2 25/6/2 70/6/2
f 70/6/2 25/6/2 41/6/2
f 53/6/2 41/6/2 25/6/2
f 53/6/2 25/6/2 50/6/2
f 53/6/2 50/6/2 65/6/2
f 61/6/2 41/6/2 53/6/2
f 41/6/2 61/6/2 42/6/2
f 53/6/2 65/6/2 54/6/2
f 54/6/2 65/6/2 71/6/2
f 57/6/2 71/6/2 65/6/2
f 71/6/2 57/6/2 59/6/2
f 57/6/2 32/6/2 59/6/2
f 32/6/2 57/6/2 55/6/2
f 59/6/2 32/6/2 48/6/2
f 48/6/2 32/6/2 44/6/2
f 44/6/2 32/6/2 72/6/2
f 72/6/2 32/6/2 31/6/2
f 72/6/2 31/6/2 37/6/2
f 36/6/2 44/6/2 72/6/2
f 44/6/2 36/6/2 43/6/2
f 43/6/2 36/6/2 35/6/2
f 27/6/1 63/6/1 25/6/1
f 70/6/1 25/6/1 63/6/1
f 41/6/1 25/6/1 70/6/1
f 25/6/1 41/6/1 53/6/1
f 50/6/1 25/6/1 53/6/1
f 65/6/1 50/6/1 53/6/1
f 53/6/1 41/6/1 61/6/1
f 42/6/1 61/6/1 41/6/1
f 54/6/1 65/6/1 53/6/1
f 71/6/1 65/6/1 54/6/1
f 65/6/1 71/6/1 57/6/1
f 59/6/1 57/6/1 71/6/1
f 59/6/1 32/6/1 57/6/1
f 55/6/1 57/6/1 32/6/1
f 48/6/1 32/6/1 59/6/1
f 44/6/1 32/6/1 48/6/1
f 72/6/1 32/6/1 44/6/1
f 31/6/1 32/6/1 72/6/1
f 37/6/1 31/6/1 72/6/1
f 72/6/1 44/6/1 36/6/1
f 43/6/1 36/6/1 44/6/1
f 35/6/1 36/6/1 43/6/1
f 58/7/43 65/6/43 66/7/43
f 65/6/43 58/7/43 57/6/43
f 66/7/44 65/6/44 58/7/44
f 57/6/44 58/7/44 65/6/44
f 68/7/44 59/6/44 60/7/44
f 59/6/44 68/7/44 71/6/44
f 60/7/43 59/6/43 68/7/43
f 71/6/43 68/7/43 59/6/43

