# Created by Kenney (www.kenney.nl)

mtllib tower-square-bottom-c.mtl

g tower-square-bottom-c

v 0.375 0 0.5 1 1 1
v -0.375 0 0.5 1 1 1
v 0.375 0.2 0.5 1 1 1
v -0.375 0.2 0.5 1 1 1
v 0.4 0.32 0.3 1 1 1
v 0.3 0.32 0.4 1 1 1
v 0.4 0.5 0.3 1 1 1
v 0.3 0.5 0.4 1 1 1
v 0.5 0 0.375 1 1 1
v 0.5 0.2 0.375 1 1 1
v 0.4 0.5 0.15 1 1 1
v 0.15 0.5 0.15 1 1 1
v 0.15 0.5 0.4 1 1 1
v 0.15 0.32 0.4 1 1 1
v 0.4 0.32 0.15 1 1 1
v -0.3 0.32 0.4 1 1 1
v -0.15 0.32 0.4 1 1 1
v 0.15 0.32 0.15 1 1 1
v 0.15 0.32 -0.4 1 1 1
v 0.3 0.32 -0.4 1 1 1
v 0.15 0.5 -0.4 1 1 1
v 0.3 0.5 -0.4 1 1 1
v 0.5 0.2 -0.375 1 1 1
v 0.5 0 -0.375 1 1 1
v 0.375 0 -0.5 1 1 1
v -0.375 0 -0.5 1 1 1
v -0.5 0 -0.375 1 1 1
v -0.5 0 0.375 1 1 1
v 0.4 0.32 -0.3 1 1 1
v 0.375 0.2 -0.5 1 1 1
v 0.4 0.5 -0.3 1 1 1
v 0.15 0.32 -0.15 1 1 1
v 0.15 0.5 -0.15 1 1 1
v 0.4 0.32 -0.15 1 1 1
v 0.4 0.5 -0.15 1 1 1
v -0.375 0.2 -0.5 1 1 1
v -0.15 0.5 0.4 1 1 1
v -0.3 0.5 0.4 1 1 1
v -0.5 0.2 -0.375 1 1 1
v -0.5 0.2 0.375 1 1 1
v -0.4 0.32 0.3 1 1 1
v -0.4 0.5 0.3 1 1 1
v -0.4 0.32 -0.3 1 1 1
v -0.4 0.32 -0.15 1 1 1
v -0.4 0.32 0.15 1 1 1
v -0.4 0.5 0.15 1 1 1
v -0.15 0.5 0.15 1 1 1
v -0.15 0.32 0.15 1 1 1
v -0.15 0.5 -0.4 1 1 1
v -0.15 0.32 -0.4 1 1 1
v -0.15 0.5 -0.15 1 1 1
v -0.15 0.32 -0.15 1 1 1
v -0.4 0.5 -0.15 1 1 1
v -0.3 0.32 -0.4 1 1 1
v -0.3 0.5 -0.4 1 1 1
v -0.4 0.5 -0.3 1 1 1
v 0.325 0.5 -0.325 1 1 1
v 0.325 0.32 -0.325 1 1 1
v 0.325 0.5 -0.15 1 1 1
v 0.325 0.32 0.325 1 1 1
v 0.325 0.5 0.15 1 1 1
v 0.325 0.5 0.325 1 1 1
v -0.325 0.32 -0.325 1 1 1
v -0.325 0.5 -0.325 1 1 1
v 0.15 0.5 -0.325 1 1 1
v -0.15 0.5 -0.325 1 1 1
v -0.325 0.32 0.325 1 1 1
v -0.325 0.5 -0.15 1 1 1
v -0.325 0.5 0.15 1 1 1
v -0.325 0.5 0.325 1 1 1
v 0.15 0.5 0.325 1 1 1
v -0.15 0.5 0.325 1 1 1
v -0.15 0.5 -0.15 1 1 1

vn 0.3826834 0 0.9238795
vn -0.3826834 0 0.9238795
vn -0.3826834 0 -0.9238795
vn 0.3826834 0 -0.9238795
vn 0.9238795 0 0.3826834
vn -0.9238795 0 -0.3826834
vn 0.637791 0.7132184 0.2907614
vn 0.2907614 0.7132184 0.637791
vn 0.6706864 0.7043112 0.2326494
vn 0.2326494 0.7043112 0.6706864
vn -0.6706864 -0.7043112 -0.2326494
vn -0.2907614 -0.7132184 -0.637791
vn -0.637791 -0.7132184 -0.2907614
vn -0.2326494 -0.7043112 -0.6706864
vn 0 1 0
vn 0 -1 0
vn 0 0 1
vn 0 0 -1
vn 1 0 0
vn -1 0 0
vn -0.2907614 0.7132184 0.637791
vn -0.2326494 0.7043112 0.6706864
vn 0 0.6401844 0.7682213
vn 0.2907614 -0.7132184 -0.637791
vn 0.2326494 -0.7043112 -0.6706864
vn 0 -0.6401844 -0.7682213
vn 0.9238795 0 -0.3826834
vn -0.9238795 0 0.3826834
vn 0.637791 0.7132184 -0.2907614
vn 0.6706864 0.7043112 -0.2326494
vn 0.2907614 0.7132184 -0.637791
vn 0.2326494 0.7043112 -0.6706864
vn -0.2907614 -0.7132184 0.637791
vn -0.6706864 -0.7043112 0.2326494
vn -0.637791 -0.7132184 0.2907614
vn -0.2326494 -0.7043112 0.6706864
vn 0.7682213 0.6401844 0
vn -0.7682213 -0.6401844 0
vn -0.637791 0.7132184 -0.2907614
vn -0.6706864 0.7043112 -0.2326494
vn -0.637791 0.7132184 0.2907614
vn -0.7682213 0.6401844 0
vn -0.6706864 0.7043112 0.2326494
vn 0.637791 -0.7132184 -0.2907614
vn 0.6706864 -0.7043112 0.2326494
vn 0.637791 -0.7132184 0.2907614
vn 0.7682213 -0.6401844 0
vn 0.6706864 -0.7043112 -0.2326494
vn -0.2326494 0.7043112 -0.6706864
vn -0.2907614 0.7132184 -0.637791
vn 0.2907614 -0.7132184 0.637791
vn 0.2326494 -0.7043112 0.6706864
vn 0 0.6401844 -0.7682213
vn 0 -0.6401844 0.7682213

vt 0.34375 0.525
vt 0.34375 0.605
vt 0.34375 0.653
vt 0.34375 0.725
vt 0.84375 0.175
vt 0.84375 0.075

usemtl colormap

f 3/2/1 2/1/2 1/1/1
f 2/1/2 3/2/1 4/2/2
f 1/1/3 2/1/4 3/2/3
f 4/2/4 3/2/3 2/1/4
f 7/4/5 6/3/1 5/3/5
f 6/3/1 7/4/5 8/4/1
f 5/3/6 6/3/3 7/4/6
f 8/4/3 7/4/6 6/3/3
f 10/2/5 1/1/1 9/1/5
f 1/1/1 10/2/5 3/2/1
f 9/1/6 1/1/3 10/2/6
f 3/2/3 10/2/6 1/1/3
f 5/3/9 3/2/8 10/2/7
f 3/2/8 5/3/9 6/3/10
f 10/2/13 3/2/12 5/3/11
f 6/3/14 5/3/11 3/2/12
f 12/4/15 7/4/15 11/4/15
f 7/4/15 12/4/15 8/4/15
f 8/4/15 12/4/15 13/4/15
f 11/4/16 7/4/16 12/4/16
f 8/4/16 12/4/16 7/4/16
f 13/4/16 12/4/16 8/4/16
f 8/4/1 14/3/17 6/3/1
f 14/3/17 8/4/1 13/4/17
f 6/3/3 14/3/18 8/4/3
f 13/4/18 8/4/3 14/3/18
f 7/4/5 15/3/19 11/4/19
f 15/3/19 7/4/5 5/3/5
f 11/4/20 15/3/20 7/4/6
f 5/3/6 7/4/6 15/3/20
f 6/3/10 4/2/21 3/2/8
f 4/2/21 6/3/10 16/3/22
f 16/3/22 6/3/10 14/3/23
f 16/3/22 14/3/23 17/3/23
f 3/2/12 4/2/24 6/3/14
f 16/3/25 6/3/14 4/2/24
f 14/3/26 6/3/14 16/3/25
f 17/3/26 14/3/26 16/3/25
f 12/4/18 15/3/18 18/3/18
f 15/3/18 12/4/18 11/4/18
f 18/3/17 15/3/17 12/4/17
f 11/4/17 12/4/17 15/3/17
f 14/3/20 12/4/20 18/3/20
f 12/4/20 14/3/20 13/4/20
f 18/3/19 12/4/19 14/3/19
f 13/4/19 14/3/19 12/4/19
f 21/4/18 20/3/4 19/3/18
f 20/3/4 21/4/18 22/4/4
f 19/3/17 20/3/2 21/4/17
f 22/4/2 21/4/17 20/3/2
f 10/2/5 24/1/27 23/2/27
f 24/1/27 10/2/5 9/1/5
f 23/2/28 24/1/28 10/2/6
f 9/1/6 10/2/6 24/1/28
f 9/1/16 25/1/16 24/1/16
f 25/1/16 9/1/16 1/1/16
f 25/1/16 1/1/16 26/1/16
f 26/1/16 1/1/16 2/1/16
f 26/1/16 2/1/16 27/1/16
f 27/1/16 2/1/16 28/1/16
f 24/1/15 25/1/15 9/1/15
f 1/1/15 9/1/15 25/1/15
f 26/1/15 1/1/15 25/1/15
f 2/1/15 1/1/15 26/1/15
f 27/1/15 2/1/15 26/1/15
f 28/1/15 2/1/15 27/1/15
f 30/2/31 29/3/30 23/2/29
f 29/3/30 30/2/31 20/3/32
f 23/2/35 29/3/34 30/2/33
f 20/3/36 30/2/33 29/3/34
f 31/4/27 20/3/4 22/4/4
f 20/3/4 31/4/27 29/3/27
f 22/4/2 20/3/2 31/4/28
f 29/3/28 31/4/28 20/3/2
f 23/2/27 25/1/4 30/2/4
f 25/1/4 23/2/27 24/1/27
f 30/2/2 25/1/2 23/2/28
f 24/1/28 23/2/28 25/1/2
f 32/3/20 21/4/20 19/3/20
f 21/4/20 32/3/20 33/4/20
f 19/3/19 21/4/19 32/3/19
f 33/4/19 32/3/19 21/4/19
f 29/3/30 10/2/7 23/2/29
f 10/2/7 29/3/30 34/3/37
f 10/2/7 34/3/37 15/3/37
f 10/2/7 15/3/37 5/3/9
f 23/2/35 10/2/13 29/3/34
f 34/3/38 29/3/34 10/2/13
f 15/3/38 34/3/38 10/2/13
f 5/3/11 15/3/38 10/2/13
f 35/4/19 29/3/27 31/4/27
f 29/3/27 35/4/19 34/3/19
f 31/4/28 29/3/28 35/4/20
f 34/3/20 35/4/20 29/3/28
f 22/4/15 35/4/15 31/4/15
f 35/4/15 22/4/15 33/4/15
f 33/4/15 22/4/15 21/4/15
f 31/4/16 35/4/16 22/4/16
f 33/4/16 22/4/16 35/4/16
f 21/4/16 22/4/16 33/4/16
f 36/2/3 25/1/4 26/1/3
f 25/1/4 36/2/3 30/2/4
f 26/1/1 25/1/2 36/2/1
f 30/2/2 36/2/1 25/1/2
f 35/4/17 32/3/17 34/3/17
f 32/3/17 35/4/17 33/4/17
f 34/3/18 32/3/18 35/4/18
f 33/4/18 35/4/18 32/3/18
f 37/4/17 16/3/2 17/3/17
f 16/3/2 37/4/17 38/4/2
f 17/3/18 16/3/4 37/4/18
f 38/4/4 37/4/18 16/3/4
f 28/1/28 39/2/6 27/1/6
f 39/2/6 28/1/28 40/2/28
f 27/1/5 39/2/5 28/1/27
f 40/2/27 28/1/27 39/2/5
f 16/3/2 42/4/28 41/3/28
f 42/4/28 16/3/2 38/4/2
f 41/3/27 42/4/27 16/3/4
f 38/4/4 16/3/4 42/4/27
f 2/1/2 40/2/28 28/1/28
f 40/2/28 2/1/2 4/2/2
f 28/1/27 40/2/27 2/1/4
f 4/2/4 2/1/4 40/2/27
f 40/2/41 43/3/40 39/2/39
f 43/3/40 40/2/41 44/3/42
f 44/3/42 40/2/41 45/3/42
f 45/3/42 40/2/41 41/3/43
f 39/2/46 43/3/45 40/2/44
f 44/3/47 40/2/44 43/3/45
f 45/3/47 40/2/44 44/3/47
f 41/3/48 40/2/44 45/3/47
f 41/3/28 46/4/20 45/3/20
f 46/4/20 41/3/28 42/4/28
f 45/3/19 46/4/19 41/3/27
f 42/4/27 41/3/27 46/4/19
f 41/3/43 4/2/21 16/3/22
f 4/2/21 41/3/43 40/2/41
f 16/3/25 4/2/24 41/3/48
f 40/2/44 41/3/48 4/2/24
f 37/4/19 48/3/19 47/4/19
f 48/3/19 37/4/19 17/3/19
f 47/4/20 48/3/20 37/4/20
f 17/3/20 37/4/20 48/3/20
f 46/4/18 48/3/18 45/3/18
f 48/3/18 46/4/18 47/4/18
f 45/3/17 48/3/17 46/4/17
f 47/4/17 46/4/17 48/3/17
f 46/4/15 37/4/15 47/4/15
f 37/4/15 46/4/15 38/4/15
f 38/4/15 46/4/15 42/4/15
f 47/4/16 37/4/16 46/4/16
f 38/4/16 46/4/16 37/4/16
f 42/4/16 46/4/16 38/4/16
f 51/4/19 50/3/19 49/4/19
f 50/3/19 51/4/19 52/3/19
f 49/4/20 50/3/20 51/4/20
f 52/3/20 51/4/20 50/3/20
f 51/4/17 44/3/17 52/3/17
f 44/3/17 51/4/17 53/4/17
f 52/3/18 44/3/18 51/4/18
f 53/4/18 51/4/18 44/3/18
f 55/4/3 50/3/18 54/3/3
f 50/3/18 55/4/3 49/4/18
f 54/3/1 50/3/17 55/4/1
f 49/4/17 55/4/1 50/3/17
f 36/2/50 43/3/40 54/3/49
f 43/3/40 36/2/50 39/2/39
f 54/3/52 43/3/45 36/2/51
f 39/2/46 36/2/51 43/3/45
f 55/4/15 51/4/15 49/4/15
f 51/4/15 55/4/15 53/4/15
f 53/4/15 55/4/15 56/4/15
f 49/4/16 51/4/16 55/4/16
f 53/4/16 55/4/16 51/4/16
f 56/4/16 55/4/16 53/4/16
f 44/3/20 56/4/6 43/3/6
f 56/4/6 44/3/20 53/4/20
f 43/3/5 56/4/5 44/3/19
f 53/4/19 44/3/19 56/4/5
f 54/3/49 30/2/31 36/2/50
f 30/2/31 54/3/49 20/3/32
f 20/3/32 54/3/49 50/3/53
f 20/3/32 50/3/53 19/3/53
f 36/2/51 30/2/33 54/3/52
f 20/3/36 54/3/52 30/2/33
f 50/3/54 54/3/52 20/3/36
f 19/3/54 50/3/54 20/3/36
f 39/2/6 26/1/3 27/1/6
f 26/1/3 39/2/6 36/2/3
f 27/1/5 26/1/1 39/2/5
f 36/2/1 39/2/5 26/1/1
f 56/4/6 54/3/3 43/3/6
f 54/3/3 56/4/6 55/4/3
f 43/3/5 54/3/1 56/4/5
f 55/4/1 56/4/5 54/3/1
f 48/3/15 44/3/15 45/3/15
f 44/3/15 48/3/15 52/3/15
f 17/3/15 52/3/15 48/3/15
f 14/3/15 52/3/15 17/3/15
f 14/3/15 50/3/15 52/3/15
f 18/3/15 50/3/15 14/3/15
f 32/3/15 50/3/15 18/3/15
f 50/3/15 32/3/15 19/3/15
f 15/3/15 32/3/15 18/3/15
f 32/3/15 15/3/15 34/3/15
f 45/3/16 44/3/16 48/3/16
f 52/3/16 48/3/16 44/3/16
f 48/3/16 52/3/16 17/3/16
f 17/3/16 52/3/16 14/3/16
f 52/3/16 50/3/16 14/3/16
f 14/3/16 50/3/16 18/3/16
f 18/3/16 50/3/16 32/3/16
f 19/3/16 32/3/16 50/3/16
f 18/3/16 32/3/16 15/3/16
f 34/3/16 15/3/16 32/3/16
f 59/5/19 58/6/19 57/5/19
f 58/6/19 59/5/19 60/6/19
f 60/6/19 59/5/19 61/5/19
f 60/6/19 61/5/19 62/5/19
f 57/5/20 58/6/20 59/5/20
f 60/6/20 59/5/20 58/6/20
f 61/5/20 59/5/20 60/6/20
f 62/5/20 61/5/20 60/6/20
f 64/5/18 58/6/18 63/6/18
f 58/6/18 64/5/18 65/5/18
f 65/5/18 64/5/18 66/5/18
f 57/5/18 58/6/18 65/5/18
f 63/6/17 58/6/17 64/5/17
f 65/5/17 64/5/17 58/6/17
f 65/5/17 58/6/17 57/5/17
f 66/5/17 64/5/17 65/5/17
f 67/6/20 64/5/20 63/6/20
f 64/5/20 67/6/20 68/5/20
f 68/5/20 67/6/20 69/5/20
f 69/5/20 67/6/20 70/5/20
f 63/6/19 64/5/19 67/6/19
f 68/5/19 67/6/19 64/5/19
f 69/5/19 67/6/19 68/5/19
f 70/5/19 67/6/19 69/5/19
f 62/5/17 67/6/17 60/6/17
f 67/6/17 62/5/17 71/5/17
f 67/6/17 71/5/17 72/5/17
f 70/5/17 67/6/17 72/5/17
f 60/6/18 67/6/18 62/5/18
f 71/5/18 62/5/18 67/6/18
f 72/5/18 71/5/18 67/6/18
f 72/5/18 67/6/18 70/5/18
f 47/5/15 68/5/15 69/5/15
f 68/5/15 47/5/15 73/5/15
f 72/5/15 73/5/15 47/5/15
f 71/5/15 73/5/15 72/5/15
f 71/5/15 66/5/15 73/5/15
f 12/5/15 66/5/15 71/5/15
f 33/5/15 66/5/15 12/5/15
f 66/5/15 33/5/15 65/5/15
f 61/5/15 33/5/15 12/5/15
f 33/5/15 61/5/15 59/5/15
f 69/5/16 68/5/16 47/5/16
f 73/5/16 47/5/16 68/5/16
f 47/5/16 73/5/16 72/5/16
f 72/5/16 73/5/16 71/5/16
f 73/5/16 66/5/16 71/5/16
f 71/5/16 66/5/16 12/5/16
f 12/5/16 66/5/16 33/5/16
f 65/5/16 33/5/16 66/5/16
f 12/5/16 33/5/16 61/5/16
f 59/5/16 61/5/16 33/5/16

g tower-square-bottom-c




usemtl colormap

f 3/2/1 2/1/2 1/1/1
f 2/1/2 3/2/1 4/2/2
f 1/1/3 2/1/4 3/2/3
f 4/2/4 3/2/3 2/1/4
f 7/4/5 6/3/1 5/3/5
f 6/3/1 7/4/5 8/4/1
f 5/3/6 6/3/3 7/4/6
f 8/4/3 7/4/6 6/3/3
f 10/2/5 1/1/1 9/1/5
f 1/1/1 10/2/5 3/2/1
f 9/1/6 1/1/3 10/2/6
f 3/2/3 10/2/6 1/1/3
f 5/3/9 3/2/8 10/2/7
f 3/2/8 5/3/9 6/3/10
f 10/2/13 3/2/12 5/3/11
f 6/3/14 5/3/11 3/2/12
f 12/4/15 7/4/15 11/4/15
f 7/4/15 12/4/15 8/4/15
f 8/4/15 12/4/15 13/4/15
f 11/4/16 7/4/16 12/4/16
f 8/4/16 12/4/16 7/4/16
f 13/4/16 12/4/16 8/4/16
f 8/4/1 14/3/17 6/3/1
f 14/3/17 8/4/1 13/4/17
f 6/3/3 14/3/18 8/4/3
f 13/4/18 8/4/3 14/3/18
f 7/4/5 15/3/19 11/4/19
f 15/3/19 7/4/5 5/3/5
f 11/4/20 15/3/20 7/4/6
f 5/3/6 7/4/6 15/3/20
f 6/3/10 4/2/21 3/2/8
f 4/2/21 6/3/10 16/3/22
f 16/3/22 6/3/10 14/3/23
f 16/3/22 14/3/23 17/3/23
f 3/2/12 4/2/24 6/3/14
f 16/3/25 6/3/14 4/2/24
f 14/3/26 6/3/14 16/3/25
f 17/3/26 14/3/26 16/3/25
f 12/4/18 15/3/18 18/3/18
f 15/3/18 12/4/18 11/4/18
f 18/3/17 15/3/17 12/4/17
f 11/4/17 12/4/17 15/3/17
f 14/3/20 12/4/20 18/3/20
f 12/4/20 14/3/20 13/4/20
f 18/3/19 12/4/19 14/3/19
f 13/4/19 14/3/19 12/4/19
f 21/4/18 20/3/4 19/3/18
f 20/3/4 21/4/18 22/4/4
f 19/3/17 20/3/2 21/4/17
f 22/4/2 21/4/17 20/3/2
f 10/2/5 24/1/27 23/2/27
f 24/1/27 10/2/5 9/1/5
f 23/2/28 24/1/28 10/2/6
f 9/1/6 10/2/6 24/1/28
f 9/1/16 25/1/16 24/1/16
f 25/1/16 9/1/16 1/1/16
f 25/1/16 1/1/16 26/1/16
f 26/1/16 1/1/16 2/1/16
f 26/1/16 2/1/16 27/1/16
f 27/1/16 2/1/16 28/1/16
f 24/1/15 25/1/15 9/1/15
f 1/1/15 9/1/15 25/1/15
f 26/1/15 1/1/15 25/1/15
f 2/1/15 1/1/15 26/1/15
f 27/1/15 2/1/15 26/1/15
f 28/1/15 2/1/15 27/1/15
f 30/2/31 29/3/30 23/2/29
f 29/3/30 30/2/31 20/3/32
f 23/2/35 29/3/34 30/2/33
f 20/3/36 30/2/33 29/3/34
f 31/4/27 20/3/4 22/4/4
f 20/3/4 31/4/27 29/3/27
f 22/4/2 20/3/2 31/4/28
f 29/3/28 31/4/28 20/3/2
f 23/2/27 25/1/4 30/2/4
f 25/1/4 23/2/27 24/1/27
f 30/2/2 25/1/2 23/2/28
f 24/1/28 23/2/28 25/1/2
f 32/3/20 21/4/20 19/3/20
f 21/4/20 32/3/20 33/4/20
f 19/3/19 21/4/19 32/3/19
f 33/4/19 32/3/19 21/4/19
f 29/3/30 10/2/7 23/2/29
f 10/2/7 29/3/30 34/3/37
f 10/2/7 34/3/37 15/3/37
f 10/2/7 15/3/37 5/3/9
f 23/2/35 10/2/13 29/3/34
f 34/3/38 29/3/34 10/2/13
f 15/3/38 34/3/38 10/2/13
f 5/3/11 15/3/38 10/2/13
f 35/4/19 29/3/27 31/4/27
f 29/3/27 35/4/19 34/3/19
f 31/4/28 29/3/28 35/4/20
f 34/3/20 35/4/20 29/3/28
f 22/4/15 35/4/15 31/4/15
f 35/4/15 22/4/15 33/4/15
f 33/4/15 22/4/15 21/4/15
f 31/4/16 35/4/16 22/4/16
f 33/4/16 22/4/16 35/4/16
f 21/4/16 22/4/16 33/4/16
f 36/2/3 25/1/4 26/1/3
f 25/1/4 36/2/3 30/2/4
f 26/1/1 25/1/2 36/2/1
f 30/2/2 36/2/1 25/1/2
f 35/4/17 32/3/17 34/3/17
f 32/3/17 35/4/17 33/4/17
f 34/3/18 32/3/18 35/4/18
f 33/4/18 35/4/18 32/3/18
f 37/4/17 16/3/2 17/3/17
f 16/3/2 37/4/17 38/4/2
f 17/3/18 16/3/4 37/4/18
f 38/4/4 37/4/18 16/3/4
f 28/1/28 39/2/6 27/1/6
f 39/2/6 28/1/28 40/2/28
f 27/1/5 39/2/5 28/1/27
f 40/2/27 28/1/27 39/2/5
f 16/3/2 42/4/28 41/3/28
f 42/4/28 16/3/2 38/4/2
f 41/3/27 42/4/27 16/3/4
f 38/4/4 16/3/4 42/4/27
f 2/1/2 40/2/28 28/1/28
f 40/2/28 2/1/2 4/2/2
f 28/1/27 40/2/27 2/1/4
f 4/2/4 2/1/4 40/2/27
f 40/2/41 43/3/40 39/2/39
f 43/3/40 40/2/41 44/3/42
f 44/3/42 40/2/41 45/3/42
f 45/3/42 40/2/41 41/3/43
f 39/2/46 43/3/45 40/2/44
f 44/3/47 40/2/44 43/3/45
f 45/3/47 40/2/44 44/3/47
f 41/3/48 40/2/44 45/3/47
f 41/3/28 46/4/20 45/3/20
f 46/4/20 41/3/28 42/4/28
f 45/3/19 46/4/19 41/3/27
f 42/4/27 41/3/27 46/4/19
f 41/3/43 4/2/21 16/3/22
f 4/2/21 41/3/43 40/2/41
f 16/3/25 4/2/24 41/3/48
f 40/2/44 41/3/48 4/2/24
f 37/4/19 48/3/19 47/4/19
f 48/3/19 37/4/19 17/3/19
f 47/4/20 48/3/20 37/4/20
f 17/3/20 37/4/20 48/3/20
f 46/4/18 48/3/18 45/3/18
f 48/3/18 46/4/18 47/4/18
f 45/3/17 48/3/17 46/4/17
f 47/4/17 46/4/17 48/3/17
f 46/4/15 37/4/15 47/4/15
f 37/4/15 46/4/15 38/4/15
f 38/4/15 46/4/15 42/4/15
f 47/4/16 37/4/16 46/4/16
f 38/4/16 46/4/16 37/4/16
f 42/4/16 46/4/16 38/4/16
f 51/4/19 50/3/19 49/4/19
f 50/3/19 51/4/19 52/3/19
f 49/4/20 50/3/20 51/4/20
f 52/3/20 51/4/20 50/3/20
f 51/4/17 44/3/17 52/3/17
f 44/3/17 51/4/17 53/4/17
f 52/3/18 44/3/18 51/4/18
f 53/4/18 51/4/18 44/3/18
f 55/4/3 50/3/18 54/3/3
f 50/3/18 55/4/3 49/4/18
f 54/3/1 50/3/17 55/4/1
f 49/4/17 55/4/1 50/3/17
f 36/2/50 43/3/40 54/3/49
f 43/3/40 36/2/50 39/2/39
f 54/3/52 43/3/45 36/2/51
f 39/2/46 36/2/51 43/3/45
f 55/4/15 51/4/15 49/4/15
f 51/4/15 55/4/15 53/4/15
f 53/4/15 55/4/15 56/4/15
f 49/4/16 51/4/16 55/4/16
f 53/4/16 55/4/16 51/4/16
f 56/4/16 55/4/16 53/4/16
f 44/3/20 56/4/6 43/3/6
f 56/4/6 44/3/20 53/4/20
f 43/3/5 56/4/5 44/3/19
f 53/4/19 44/3/19 56/4/5
f 54/3/49 30/2/31 36/2/50
f 30/2/31 54/3/49 20/3/32
f 20/3/32 54/3/49 50/3/53
f 20/3/32 50/3/53 19/3/53
f 36/2/51 30/2/33 54/3/52
f 20/3/36 54/3/52 30/2/33
f 50/3/54 54/3/52 20/3/36
f 19/3/54 50/3/54 20/3/36
f 39/2/6 26/1/3 27/1/6
f 26/1/3 39/2/6 36/2/3
f 27/1/5 26/1/1 39/2/5
f 36/2/1 39/2/5 26/1/1
f 56/4/6 54/3/3 43/3/6
f 54/3/3 56/4/6 55/4/3
f 43/3/5 54/3/1 56/4/5
f 55/4/1 56/4/5 54/3/1
f 48/3/15 44/3/15 45/3/15
f 44/3/15 48/3/15 52/3/15
f 17/3/15 52/3/15 48/3/15
f 14/3/15 52/3/15 17/3/15
f 14/3/15 50/3/15 52/3/15
f 18/3/15 50/3/15 14/3/15
f 32/3/15 50/3/15 18/3/15
f 50/3/15 32/3/15 19/3/15
f 15/3/15 32/3/15 18/3/15
f 32/3/15 15/3/15 34/3/15
f 45/3/16 44/3/16 48/3/16
f 52/3/16 48/3/16 44/3/16
f 48/3/16 52/3/16 17/3/16
f 17/3/16 52/3/16 14/3/16
f 52/3/16 50/3/16 14/3/16
f 14/3/16 50/3/16 18/3/16
f 18/3/16 50/3/16 32/3/16
f 19/3/16 32/3/16 50/3/16
f 18/3/16 32/3/16 15/3/16
f 34/3/16 15/3/16 32/3/16
f 59/5/19 58/6/19 57/5/19
f 58/6/19 59/5/19 60/6/19
f 60/6/19 59/5/19 61/5/19
f 60/6/19 61/5/19 62/5/19
f 57/5/20 58/6/20 59/5/20
f 60/6/20 59/5/20 58/6/20
f 61/5/20 59/5/20 60/6/20
f 62/5/20 61/5/20 60/6/20
f 64/5/18 58/6/18 63/6/18
f 58/6/18 64/5/18 65/5/18
f 65/5/18 64/5/18 66/5/18
f 57/5/18 58/6/18 65/5/18
f 63/6/17 58/6/17 64/5/17
f 65/5/17 64/5/17 58/6/17
f 65/5/17 58/6/17 57/5/17
f 66/5/17 64/5/17 65/5/17
f 67/6/20 64/5/20 63/6/20
f 64/5/20 67/6/20 68/5/20
f 68/5/20 67/6/20 69/5/20
f 69/5/20 67/6/20 70/5/20
f 63/6/19 64/5/19 67/6/19
f 68/5/19 67/6/19 64/5/19
f 69/5/19 67/6/19 68/5/19
f 70/5/19 67/6/19 69/5/19
f 62/5/17 67/6/17 60/6/17
f 67/6/17 62/5/17 71/5/17
f 67/6/17 71/5/17 72/5/17
f 70/5/17 67/6/17 72/5/17
f 60/6/18 67/6/18 62/5/18
f 71/5/18 62/5/18 67/6/18
f 72/5/18 71/5/18 67/6/18
f 72/5/18 67/6/18 70/5/18
f 47/5/15 68/5/15 69/5/15
f 68/5/15 47/5/15 73/5/15
f 72/5/15 73/5/15 47/5/15
f 71/5/15 73/5/15 72/5/15
f 71/5/15 66/5/15 73/5/15
f 12/5/15 66/5/15 71/5/15
f 33/5/15 66/5/15 12/5/15
f 66/5/15 33/5/15 65/5/15
f 61/5/15 33/5/15 12/5/15
f 33/5/15 61/5/15 59/5/15
f 69/5/16 68/5/16 47/5/16
f 73/5/16 47/5/16 68/5/16
f 47/5/16 73/5/16 72/5/16
f 72/5/16 73/5/16 71/5/16
f 73/5/16 66/5/16 71/5/16
f 71/5/16 66/5/16 12/5/16
f 12/5/16 66/5/16 33/5/16
f 65/5/16 33/5/16 66/5/16
f 12/5/16 33/5/16 61/5/16
f 59/5/16 61/5/16 33/5/16

