# Created by Kenney (www.kenney.nl)

mtllib tower-round-bottom-b.mtl

g tower-round-bottom-b

v -0.25 0 0.4330127 1 1 1
v -0.3690276 0 0.4554065 1 1 1
v -0.25 0.125 0.4330127 1 1 1
v 0.3690276 0 0.4554065 1 1 1
v 0.25 0 0.4330127 1 1 1
v 0.25 0.125 0.4330127 1 1 1
v -0.3690276 0 -0.4554065 1 1 1
v -0.25 0 -0.4330127 1 1 1
v -0.25 0.125 -0.4330127 1 1 1
v 0.25 0 -0.4330127 1 1 1
v 0.3690276 0 -0.4554065 1 1 1
v 0.25 0.125 -0.4330127 1 1 1
v -0.4330127 0 -0.25 1 1 1
v -0.4330127 0.02490903 -0.25 1 1 1
v -0.5 0 0 1 1 1
v -0.4330127 0.125 -0.25 1 1 1
v -0.5 0.125 0 1 1 1
v 0 0 -0.5 1 1 1
v 0 0.125 -0.5 1 1 1
v -0.4330127 0 0.25 1 1 1
v -0.4330127 0.125 0.25 1 1 1
v -0.4330127 0.02490903 0.25 1 1 1
v 0.4330127 0.02490903 -0.25 1 1 1
v 0.4330127 0 -0.25 1 1 1
v 0.4330127 0.125 -0.25 1 1 1
v 0.5 0.125 0 1 1 1
v 0.5 0 0 1 1 1
v 0.4330127 0.125 0.25 1 1 1
v 0.4330127 0 0.25 1 1 1
v 0.4330127 0.02490903 0.25 1 1 1
v 0 0 0.5 1 1 1
v 0 0.125 0.5 1 1 1
v 0.2 0.2 0.3464102 1 1 1
v 0 0.2 0.4 1 1 1
v -0.3464102 0.2 -0.2 1 1 1
v -0.4 0.2 0 1 1 1
v -0.3464102 0.2 0.2 1 1 1
v -0.2 0.2 -0.3464102 1 1 1
v -0.3415064 0.125 -0.3415064 1 1 1
v 0.4 0.2 0 1 1 1
v 0.3464102 0.2 0.2 1 1 1
v 0 0.2 -0.4 1 1 1
v 0.3464102 0.2 -0.2 1 1 1
v -0.2 0.2 0.3464102 1 1 1
v -0.3415064 0.125 0.3415064 1 1 1
v 0.3415064 0.125 -0.3415064 1 1 1
v 0.2 0.2 -0.3464102 1 1 1
v 0.3415064 0.125 0.3415064 1 1 1
v -0.412217 0 0.412217 1 1 1
v -0.4554065 0 0.3690276 1 1 1
v 0.412217 0 -0.412217 1 1 1
v 0.4554065 0 -0.3690276 1 1 1
v 0.412217 0 0.412217 1 1 1
v 0.4554065 0 0.3690276 1 1 1
v -0.412217 0 -0.412217 1 1 1
v -0.4554065 0 -0.3690276 1 1 1
v 0.4 0.5 0 1 1 1
v 0.3464102 0.5 0.2 1 1 1
v 0.3464102 0.5 -0.2 1 1 1
v 0.2 0.5 -0.3464102 1 1 1
v 0.2 0.5 0 1 1 1
v 0.2 0.5 0.3464102 1 1 1
v 0.1414214 0.5 -0.1414214 1 1 1
v 0.1414214 0.5 0.1414214 1 1 1
v 0 0.5 -0.4 1 1 1
v 7.219114E-16 0.5 -0.2 1 1 1
v -0.1414214 0.5 -0.1414214 1 1 1
v -0.2 0.5 -0.3464102 1 1 1
v 0 0.5 0.4 1 1 1
v 7.219114E-16 0.5 0.2 1 1 1
v -0.1414214 0.5 0.1414214 1 1 1
v -0.2 0.5 0 1 1 1
v -0.2 0.5 0.3464102 1 1 1
v -0.3464102 0.5 -0.2 1 1 1
v -0.3464102 0.5 0.2 1 1 1
v -0.4 0.5 0 1 1 1
v -0.1414214 0.575 -0.1414214 1 1 1
v 7.219114E-16 0.575 -0.2 1 1 1
v -0.2 0.575 0 1 1 1
v -0.1414214 0.575 0.1414214 1 1 1
v 7.219114E-16 0.575 0.2 1 1 1
v 0.1414214 0.575 0.1414214 1 1 1
v 0.2 0.575 0 1 1 1
v 0.1414214 0.575 -0.1414214 1 1 1
v 0.1458804 0.6 0 1 1 1
v 0.103153 0.6 0.103153 1 1 1
v 0.103153 0.6 -0.103153 1 1 1
v 7.219114E-16 0.6 -0.1458804 1 1 1
v 7.219114E-16 0.6 0.1458804 1 1 1
v -0.103153 0.6 -0.103153 1 1 1
v -0.103153 0.6 0.103153 1 1 1
v -0.1458804 0.6 0 1 1 1

vn 0.1848958 0 0.9827581
vn -0.1848958 0 -0.9827581
vn -0.1848958 0 0.9827581
vn 0.1848958 0 -0.9827581
vn -0.9992812 0 -0.03790767
vn -1 0 0
vn -0.9933135 0 -0.1154485
vn 1 0 0
vn 0.9992812 0 0.03790767
vn 0.9933135 0 0.1154485
vn -0.258819 0 -0.9659258
vn 0 0 -1
vn 0.258819 0 0.9659258
vn 0 0 1
vn 0.258819 0 -0.9659258
vn -0.258819 0 0.9659258
vn -0.9659258 0 0.258819
vn 0.9659258 0 -0.258819
vn 0.9992812 0 -0.03790767
vn 0.9933135 0 -0.1154485
vn -0.9933135 0 0.1154485
vn -0.9992812 0 0.03790767
vn 0.3801577 0.7545791 0.5348743
vn 0 0.8 0.6
vn 0.3 0.8 0.5196152
vn -0.3 -0.8 -0.5196152
vn 0 -0.8 -0.6
vn -0.3801577 -0.7545791 -0.5348743
vn -0.5196152 0.8 -0.3
vn -0.6 0.8 0
vn -0.5348743 0.7545791 -0.3801577
vn 0.5348743 -0.7545791 0.3801577
vn 0.6 -0.8 0
vn 0.5196152 -0.8 0.3
vn -0.5196152 0.8 0.3
vn -0.5348743 0.7545791 0.3801577
vn 0.5348743 -0.7545791 -0.3801577
vn 0.5196152 -0.8 -0.3
vn -0.3 0.8 -0.5196152
vn -0.3801577 0.7545791 -0.5348743
vn -0.4963566 0.7122222 -0.4963566
vn 0.3801577 -0.7545791 0.5348743
vn 0.3 -0.8 0.5196152
vn 0.4963566 -0.7122222 0.4963566
vn 0.6 0.8 0
vn 0.5348743 0.7545791 0.3801577
vn 0.5196152 0.8 0.3
vn -0.6 -0.8 0
vn -0.5348743 -0.7545791 -0.3801577
vn -0.5196152 -0.8 -0.3
vn 0 0.8 -0.6
vn 0 -0.8 0.6
vn 0.5348743 0.7545791 -0.3801577
vn 0.5196152 0.8 -0.3
vn -0.5348743 -0.7545791 0.3801577
vn -0.5196152 -0.8 0.3
vn -0.3 0.8 0.5196152
vn -0.3801577 0.7545791 0.5348743
vn -0.4963566 0.7122222 0.4963566
vn 0.3801577 -0.7545791 -0.5348743
vn 0.3 -0.8 -0.5196152
vn 0.4963566 -0.7122222 -0.4963566
vn 0.4963566 0.7122222 -0.4963566
vn 0.3 0.8 -0.5196152
vn 0.3801577 0.7545791 -0.5348743
vn -0.4963566 -0.7122222 0.4963566
vn -0.3 -0.8 0.5196152
vn -0.3801577 -0.7545791 0.5348743
vn 0.4963566 0.7122222 0.4963566
vn -0.4963566 -0.7122222 -0.4963566
vn -0.5521576 0.6246951 0.5521576
vn 0.5521576 -0.6246951 -0.5521576
vn -0.9827581 0 -0.1848958
vn 0.9827581 0 0.1848958
vn 0 -1 0
vn 0 1 0
vn 0.5521576 0.6246951 0.5521576
vn -0.5521576 -0.6246951 -0.5521576
vn 0.9827581 0 -0.1848958
vn -0.9827581 0 0.1848958
vn 0.5521576 0.6246951 -0.5521576
vn -0.5521576 -0.6246951 0.5521576
vn -0.5521576 0.6246951 -0.5521576
vn 0.5521576 -0.6246951 0.5521576
vn -0.8660254 0 0.5
vn -0.5 0 0.8660254
vn 0.5 0 -0.8660254
vn 0.8660254 0 -0.5
vn -0.8660254 0 -0.5
vn -0.5 0 -0.8660254
vn 0.8660254 0 0.5
vn 0.5 0 0.8660254
vn -0.7071068 0 -0.7071068
vn 0.7071068 0 0.7071068
vn -0.7071068 0 0.7071068
vn 0.7071068 0 -0.7071068
vn 0.2645356 0.9643759 0
vn 0.1870549 0.9643759 0.1870549
vn 0.1870549 0.9643759 -0.1870549
vn 0 0.9643759 -0.2645356
vn 0 0.9643759 0.2645356
vn -0.1870549 0.9643759 -0.1870549
vn -0.1870549 0.9643759 0.1870549
vn -0.2645356 0.9643759 0
vn -0.1870549 -0.9643759 0.1870549
vn -0.1870549 -0.9643759 -0.1870549
vn -0.2645356 -0.9643759 0
vn 0 -0.9643759 0.2645356
vn 0 -0.9643759 -0.2645356
vn 0.1870549 -0.9643759 0.1870549
vn 0.1870549 -0.9643759 -0.1870549
vn 0.2645356 -0.9643759 0
vn 0 0.9078208 -0.4193585
vn -0.2965312 0.9078208 -0.2965312
vn 0.2965312 -0.9078208 0.2965312
vn 0 -0.9078208 0.4193585
vn 0.4193585 0.9078208 0
vn 0.2965312 0.9078208 -0.2965312
vn -0.2965312 -0.9078208 0.2965312
vn -0.4193585 -0.9078208 0
vn 0.2965312 0.9078208 0.2965312
vn 0 0.9078208 0.4193585
vn 0 -0.9078208 -0.4193585
vn -0.2965312 -0.9078208 -0.2965312
vn -0.2965312 0.9078208 0.2965312
vn -0.4193585 0.9078208 0
vn 0.2965312 -0.9078208 -0.2965312
vn 0.4193585 -0.9078208 0

vt 0.96875 0.275
vt 0.96875 0.325
vt 0.96875 0.2849636
vt 0.96875 0.355
vt 0.84375 0.225
vt 0.84375 0.105
vt 0.84375 0.075
vt 0.84375 0.15
vt 0.84375 0.175

usemtl colormap

f 3/2/1 2/1/1 1/1/1
f 1/1/2 2/1/2 3/2/2
f 6/2/3 5/1/3 4/1/3
f 4/1/4 5/1/4 6/2/4
f 9/2/4 8/1/4 7/1/4
f 7/1/3 8/1/3 9/2/3
f 12/2/2 11/1/2 10/1/2
f 10/1/1 11/1/1 12/2/1
f 15/1/6 14/3/5 13/1/5
f 14/3/5 15/1/6 16/2/7
f 16/2/7 15/1/6 17/2/6
f 13/1/9 14/3/9 15/1/8
f 16/2/10 15/1/8 14/3/9
f 17/2/8 15/1/8 16/2/10
f 9/2/11 18/1/12 8/1/11
f 18/1/12 9/2/11 19/2/12
f 8/1/13 18/1/14 9/2/13
f 19/2/14 9/2/13 18/1/14
f 19/2/12 10/1/15 18/1/12
f 10/1/15 19/2/12 12/2/15
f 18/1/14 10/1/16 19/2/14
f 12/2/16 19/2/14 10/1/16
f 20/1/17 17/2/6 15/1/6
f 17/2/6 20/1/17 21/2/17
f 21/2/17 20/1/17 22/3/17
f 15/1/8 17/2/8 20/1/18
f 21/2/18 20/1/18 17/2/8
f 22/3/18 20/1/18 21/2/18
f 25/2/20 24/1/19 23/3/19
f 24/1/19 25/2/20 26/2/8
f 24/1/19 26/2/8 27/1/8
f 23/3/22 24/1/22 25/2/21
f 26/2/6 25/2/21 24/1/22
f 27/1/6 26/2/6 24/1/22
f 28/2/10 27/1/8 26/2/8
f 27/1/8 28/2/10 29/1/9
f 29/1/9 28/2/10 30/3/9
f 26/2/6 27/1/6 28/2/7
f 29/1/5 28/2/7 27/1/6
f 30/3/5 28/2/7 29/1/5
f 6/2/13 31/1/14 5/1/13
f 31/1/14 6/2/13 32/2/14
f 5/1/11 31/1/12 6/2/11
f 32/2/12 6/2/11 31/1/12
f 32/2/14 1/1/16 31/1/14
f 1/1/16 32/2/14 3/2/16
f 31/1/12 1/1/15 32/2/12
f 3/2/15 32/2/12 1/1/15
f 33/4/25 32/2/24 6/2/23
f 32/2/24 33/4/25 34/4/24
f 6/2/28 32/2/27 33/4/26
f 34/4/27 33/4/26 32/2/27
f 16/2/31 36/4/30 35/4/29
f 36/4/30 16/2/31 17/2/30
f 35/4/34 36/4/33 16/2/32
f 17/2/33 16/2/32 36/4/33
f 36/4/30 21/2/36 37/4/35
f 21/2/36 36/4/30 17/2/30
f 37/4/38 21/2/37 36/4/33
f 17/2/33 36/4/33 21/2/37
f 9/2/40 35/4/29 38/4/39
f 35/4/29 9/2/40 39/2/41
f 35/4/29 39/2/41 16/2/31
f 38/4/43 35/4/34 9/2/42
f 39/2/44 9/2/42 35/4/34
f 16/2/32 39/2/44 35/4/34
f 40/4/45 28/2/46 26/2/45
f 28/2/46 40/4/45 41/4/47
f 26/2/48 28/2/49 40/4/48
f 41/4/50 40/4/48 28/2/49
f 9/2/40 42/4/51 19/2/51
f 42/4/51 9/2/40 38/4/39
f 19/2/52 42/4/52 9/2/42
f 38/4/43 9/2/42 42/4/52
f 25/2/53 40/4/45 26/2/45
f 40/4/45 25/2/53 43/4/54
f 26/2/48 40/4/48 25/2/55
f 43/4/56 25/2/55 40/4/48
f 37/4/35 3/2/58 44/4/57
f 3/2/58 37/4/35 45/2/59
f 45/2/59 37/4/35 21/2/36
f 44/4/61 3/2/60 37/4/38
f 45/2/62 37/4/38 3/2/60
f 21/2/37 37/4/38 45/2/62
f 46/2/63 43/4/54 25/2/53
f 43/4/54 46/2/63 47/4/64
f 47/4/64 46/2/63 12/2/65
f 25/2/55 43/4/56 46/2/66
f 47/4/67 46/2/66 43/4/56
f 12/2/68 46/2/66 47/4/67
f 19/2/51 47/4/64 12/2/65
f 47/4/64 19/2/51 42/4/51
f 12/2/68 47/4/67 19/2/52
f 42/4/52 19/2/52 47/4/67
f 41/4/47 48/2/69 28/2/46
f 48/2/69 41/4/47 33/4/25
f 48/2/69 33/4/25 6/2/23
f 28/2/49 48/2/70 41/4/50
f 33/4/26 41/4/50 48/2/70
f 6/2/28 33/4/26 48/2/70
f 44/4/57 32/2/24 34/4/24
f 32/2/24 44/4/57 3/2/58
f 34/4/27 32/2/27 44/4/61
f 3/2/60 44/4/61 32/2/27
f 45/2/59 2/1/71 3/2/58
f 2/1/71 45/2/59 21/2/36
f 2/1/71 21/2/36 49/1/71
f 49/1/71 21/2/36 50/1/71
f 3/2/60 2/1/72 45/2/62
f 21/2/37 45/2/62 2/1/72
f 49/1/72 21/2/37 2/1/72
f 50/1/72 21/2/37 49/1/72
f 50/1/73 22/3/73 20/1/73
f 22/3/73 50/1/73 21/2/73
f 20/1/74 22/3/74 50/1/74
f 21/2/74 50/1/74 22/3/74
f 29/1/75 24/1/75 27/1/75
f 51/1/75 24/1/75 29/1/75
f 24/1/75 51/1/75 52/1/75
f 51/1/75 29/1/75 53/1/75
f 53/1/75 29/1/75 54/1/75
f 51/1/75 53/1/75 4/1/75
f 51/1/75 4/1/75 11/1/75
f 11/1/75 4/1/75 5/1/75
f 11/1/75 5/1/75 10/1/75
f 10/1/75 5/1/75 18/1/75
f 18/1/75 5/1/75 31/1/75
f 18/1/75 31/1/75 1/1/75
f 18/1/75 1/1/75 8/1/75
f 8/1/75 1/1/75 7/1/75
f 7/1/75 1/1/75 2/1/75
f 7/1/75 2/1/75 49/1/75
f 7/1/75 49/1/75 55/1/75
f 55/1/75 49/1/75 20/1/75
f 20/1/75 49/1/75 50/1/75
f 13/1/75 55/1/75 20/1/75
f 15/1/75 13/1/75 20/1/75
f 55/1/75 13/1/75 56/1/75
f 27/1/76 24/1/76 29/1/76
f 29/1/76 24/1/76 51/1/76
f 52/1/76 51/1/76 24/1/76
f 53/1/76 29/1/76 51/1/76
f 54/1/76 29/1/76 53/1/76
f 4/1/76 53/1/76 51/1/76
f 11/1/76 4/1/76 51/1/76
f 5/1/76 4/1/76 11/1/76
f 10/1/76 5/1/76 11/1/76
f 18/1/76 5/1/76 10/1/76
f 31/1/76 5/1/76 18/1/76
f 1/1/76 31/1/76 18/1/76
f 8/1/76 1/1/76 18/1/76
f 7/1/76 1/1/76 8/1/76
f 2/1/76 1/1/76 7/1/76
f 49/1/76 2/1/76 7/1/76
f 55/1/76 49/1/76 7/1/76
f 20/1/76 49/1/76 55/1/76
f 50/1/76 49/1/76 20/1/76
f 20/1/76 55/1/76 13/1/76
f 20/1/76 13/1/76 15/1/76
f 56/1/76 13/1/76 55/1/76
f 28/2/46 53/1/77 54/1/77
f 53/1/77 28/2/46 48/2/69
f 53/1/77 48/2/69 4/1/77
f 4/1/77 48/2/69 6/2/23
f 54/1/78 53/1/78 28/2/49
f 48/2/70 28/2/49 53/1/78
f 4/1/78 48/2/70 53/1/78
f 6/2/28 48/2/70 4/1/78
f 54/1/79 30/3/9 28/2/10
f 30/3/9 54/1/79 29/1/9
f 28/2/7 30/3/5 54/1/80
f 29/1/5 54/1/80 30/3/5
f 13/1/5 16/2/7 56/1/80
f 16/2/7 13/1/5 14/3/5
f 56/1/79 16/2/10 13/1/9
f 14/3/9 13/1/9 16/2/10
f 51/1/81 25/2/53 52/1/81
f 25/2/53 51/1/81 46/2/63
f 46/2/63 51/1/81 11/1/81
f 46/2/63 11/1/81 12/2/65
f 52/1/82 25/2/55 51/1/82
f 46/2/66 51/1/82 25/2/55
f 11/1/82 51/1/82 46/2/66
f 12/2/68 11/1/82 46/2/66
f 7/1/83 39/2/41 9/2/40
f 39/2/41 7/1/83 16/2/31
f 16/2/31 7/1/83 55/1/83
f 16/2/31 55/1/83 56/1/83
f 9/2/42 39/2/44 7/1/84
f 16/2/32 7/1/84 39/2/44
f 55/1/84 7/1/84 16/2/32
f 56/1/84 55/1/84 16/2/32
f 25/2/20 23/3/19 52/1/74
f 24/1/19 52/1/74 23/3/19
f 52/1/73 23/3/22 25/2/21
f 23/3/22 52/1/73 24/1/22
f 59/5/76 58/5/76 57/5/76
f 58/5/76 59/5/76 60/5/76
f 58/5/76 60/5/76 61/5/76
f 61/5/76 62/5/76 58/5/76
f 61/5/76 60/5/76 63/5/76
f 62/5/76 61/5/76 64/5/76
f 63/5/76 60/5/76 65/5/76
f 63/5/76 65/5/76 66/5/76
f 66/5/76 65/5/76 67/5/76
f 67/5/76 65/5/76 68/5/76
f 62/5/76 64/5/76 69/5/76
f 69/5/76 64/5/76 70/5/76
f 69/5/76 70/5/76 71/5/76
f 67/5/76 68/5/76 72/5/76
f 69/5/76 71/5/76 73/5/76
f 73/5/76 71/5/76 72/5/76
f 72/5/76 68/5/76 74/5/76
f 72/5/76 74/5/76 73/5/76
f 73/5/76 74/5/76 75/5/76
f 75/5/76 74/5/76 76/5/76
f 57/5/75 58/5/75 59/5/75
f 60/5/75 59/5/75 58/5/75
f 61/5/75 60/5/75 58/5/75
f 58/5/75 62/5/75 61/5/75
f 63/5/75 60/5/75 61/5/75
f 64/5/75 61/5/75 62/5/75
f 65/5/75 60/5/75 63/5/75
f 66/5/75 65/5/75 63/5/75
f 67/5/75 65/5/75 66/5/75
f 68/5/75 65/5/75 67/5/75
f 69/5/75 64/5/75 62/5/75
f 70/5/75 64/5/75 69/5/75
f 71/5/75 70/5/75 69/5/75
f 72/5/75 68/5/75 67/5/75
f 73/5/75 71/5/75 69/5/75
f 72/5/75 71/5/75 73/5/75
f 74/5/75 68/5/75 72/5/75
f 73/5/75 74/5/75 72/5/75
f 75/5/75 74/5/75 73/5/75
f 76/5/75 74/5/75 75/5/75
f 44/6/86 75/5/85 37/6/85
f 75/5/85 44/6/86 73/5/86
f 37/6/88 75/5/88 44/6/87
f 73/5/87 44/6/87 75/5/88
f 74/5/89 38/6/90 35/6/89
f 38/6/90 74/5/89 68/5/90
f 35/6/91 38/6/92 74/5/91
f 68/5/92 74/5/91 38/6/92
f 58/5/91 40/6/8 57/5/8
f 40/6/8 58/5/91 41/6/91
f 57/5/6 40/6/6 58/5/89
f 41/6/89 58/5/89 40/6/6
f 62/5/92 34/6/14 33/6/92
f 34/6/14 62/5/92 69/5/14
f 33/6/90 34/6/12 62/5/90
f 69/5/12 62/5/90 34/6/12
f 62/5/92 41/6/91 58/5/91
f 41/6/91 62/5/92 33/6/92
f 58/5/89 41/6/89 62/5/90
f 33/6/90 62/5/90 41/6/89
f 68/5/90 42/6/12 38/6/90
f 42/6/12 68/5/90 65/5/12
f 38/6/92 42/6/14 68/5/92
f 65/5/14 68/5/92 42/6/14
f 36/6/6 74/5/89 35/6/89
f 74/5/89 36/6/6 76/5/6
f 35/6/91 74/5/91 36/6/8
f 76/5/8 36/6/8 74/5/91
f 37/6/85 76/5/6 36/6/6
f 76/5/6 37/6/85 75/5/85
f 36/6/8 76/5/8 37/6/88
f 75/5/88 37/6/88 76/5/8
f 69/5/14 44/6/86 34/6/14
f 44/6/86 69/5/14 73/5/86
f 34/6/12 44/6/87 69/5/12
f 73/5/87 69/5/12 44/6/87
f 57/5/8 43/6/88 59/5/88
f 43/6/88 57/5/8 40/6/8
f 59/5/85 43/6/85 57/5/6
f 40/6/6 57/5/6 43/6/85
f 59/5/88 47/6/87 60/5/87
f 47/6/87 59/5/88 43/6/88
f 60/5/86 47/6/86 59/5/85
f 43/6/85 59/5/85 47/6/86
f 65/5/12 47/6/87 42/6/12
f 47/6/87 65/5/12 60/5/87
f 42/6/14 47/6/86 65/5/14
f 60/5/86 65/5/14 47/6/86
f 77/8/93 66/7/12 67/7/93
f 66/7/12 77/8/93 78/8/12
f 67/7/94 66/7/14 77/8/94
f 78/8/14 77/8/94 66/7/14
f 72/7/6 77/8/93 67/7/93
f 77/8/93 72/7/6 79/8/6
f 67/7/94 77/8/94 72/7/8
f 79/8/8 72/7/8 77/8/94
f 71/7/95 79/8/6 72/7/6
f 79/8/6 71/7/95 80/8/95
f 72/7/8 79/8/8 71/7/96
f 80/8/96 71/7/96 79/8/8
f 81/8/14 71/7/95 70/7/14
f 71/7/95 81/8/14 80/8/95
f 70/7/12 71/7/96 81/8/12
f 80/8/96 81/8/12 71/7/96
f 82/8/94 70/7/14 64/7/94
f 70/7/14 82/8/94 81/8/14
f 64/7/93 70/7/12 82/8/93
f 81/8/12 82/8/93 70/7/12
f 82/8/94 61/7/8 83/8/8
f 61/7/8 82/8/94 64/7/94
f 83/8/6 61/7/6 82/8/93
f 64/7/93 82/8/93 61/7/6
f 83/8/8 63/7/96 84/8/96
f 63/7/96 83/8/8 61/7/8
f 84/8/95 63/7/95 83/8/6
f 61/7/6 83/8/6 63/7/95
f 78/8/12 63/7/96 66/7/12
f 63/7/96 78/8/12 84/8/96
f 66/7/14 63/7/95 78/8/14
f 84/8/95 78/8/14 63/7/95
f 87/9/99 86/9/98 85/9/97
f 86/9/98 87/9/99 88/9/100
f 86/9/98 88/9/100 89/9/101
f 89/9/101 88/9/100 90/9/102
f 89/9/101 90/9/102 91/9/103
f 91/9/103 90/9/102 92/9/104
f 85/9/107 86/9/106 87/9/105
f 88/9/108 87/9/105 86/9/106
f 89/9/109 88/9/108 86/9/106
f 90/9/110 88/9/108 89/9/109
f 91/9/111 90/9/110 89/9/109
f 92/9/112 90/9/110 91/9/111
f 77/8/114 88/9/100 78/8/113
f 88/9/100 77/8/114 90/9/102
f 78/8/116 88/9/108 77/8/115
f 90/9/110 77/8/115 88/9/108
f 84/8/118 85/9/97 83/8/117
f 85/9/97 84/8/118 87/9/99
f 83/8/120 85/9/107 84/8/119
f 87/9/105 84/8/119 85/9/107
f 86/9/98 81/8/122 82/8/121
f 81/8/122 86/9/98 89/9/101
f 82/8/124 81/8/123 86/9/106
f 89/9/109 86/9/106 81/8/123
f 92/9/104 80/8/125 91/9/103
f 80/8/125 92/9/104 79/8/126
f 91/9/111 80/8/127 92/9/112
f 79/8/128 92/9/112 80/8/127
f 78/8/113 87/9/99 84/8/118
f 87/9/99 78/8/113 88/9/100
f 84/8/119 87/9/105 78/8/116
f 88/9/108 78/8/116 87/9/105
f 85/9/97 82/8/121 83/8/117
f 82/8/121 85/9/97 86/9/98
f 83/8/120 82/8/124 85/9/107
f 86/9/106 85/9/107 82/8/124
f 91/9/103 81/8/122 89/9/101
f 81/8/122 91/9/103 80/8/125
f 89/9/109 81/8/123 91/9/111
f 80/8/127 91/9/111 81/8/123
f 77/8/114 92/9/104 90/9/102
f 92/9/104 77/8/114 79/8/126
f 90/9/110 92/9/112 77/8/115
f 79/8/128 77/8/115 92/9/112

g tower-round-bottom-b




usemtl colormap

f 3/2/1 2/1/1 1/1/1
f 1/1/2 2/1/2 3/2/2
f 6/2/3 5/1/3 4/1/3
f 4/1/4 5/1/4 6/2/4
f 9/2/4 8/1/4 7/1/4
f 7/1/3 8/1/3 9/2/3
f 12/2/2 11/1/2 10/1/2
f 10/1/1 11/1/1 12/2/1
f 15/1/6 14/3/5 13/1/5
f 14/3/5 15/1/6 16/2/7
f 16/2/7 15/1/6 17/2/6
f 13/1/9 14/3/9 15/1/8
f 16/2/10 15/1/8 14/3/9
f 17/2/8 15/1/8 16/2/10
f 9/2/11 18/1/12 8/1/11
f 18/1/12 9/2/11 19/2/12
f 8/1/13 18/1/14 9/2/13
f 19/2/14 9/2/13 18/1/14
f 19/2/12 10/1/15 18/1/12
f 10/1/15 19/2/12 12/2/15
f 18/1/14 10/1/16 19/2/14
f 12/2/16 19/2/14 10/1/16
f 20/1/17 17/2/6 15/1/6
f 17/2/6 20/1/17 21/2/17
f 21/2/17 20/1/17 22/3/17
f 15/1/8 17/2/8 20/1/18
f 21/2/18 20/1/18 17/2/8
f 22/3/18 20/1/18 21/2/18
f 25/2/20 24/1/19 23/3/19
f 24/1/19 25/2/20 26/2/8
f 24/1/19 26/2/8 27/1/8
f 23/3/22 24/1/22 25/2/21
f 26/2/6 25/2/21 24/1/22
f 27/1/6 26/2/6 24/1/22
f 28/2/10 27/1/8 26/2/8
f 27/1/8 28/2/10 29/1/9
f 29/1/9 28/2/10 30/3/9
f 26/2/6 27/1/6 28/2/7
f 29/1/5 28/2/7 27/1/6
f 30/3/5 28/2/7 29/1/5
f 6/2/13 31/1/14 5/1/13
f 31/1/14 6/2/13 32/2/14
f 5/1/11 31/1/12 6/2/11
f 32/2/12 6/2/11 31/1/12
f 32/2/14 1/1/16 31/1/14
f 1/1/16 32/2/14 3/2/16
f 31/1/12 1/1/15 32/2/12
f 3/2/15 32/2/12 1/1/15
f 33/4/25 32/2/24 6/2/23
f 32/2/24 33/4/25 34/4/24
f 6/2/28 32/2/27 33/4/26
f 34/4/27 33/4/26 32/2/27
f 16/2/31 36/4/30 35/4/29
f 36/4/30 16/2/31 17/2/30
f 35/4/34 36/4/33 16/2/32
f 17/2/33 16/2/32 36/4/33
f 36/4/30 21/2/36 37/4/35
f 21/2/36 36/4/30 17/2/30
f 37/4/38 21/2/37 36/4/33
f 17/2/33 36/4/33 21/2/37
f 9/2/40 35/4/29 38/4/39
f 35/4/29 9/2/40 39/2/41
f 35/4/29 39/2/41 16/2/31
f 38/4/43 35/4/34 9/2/42
f 39/2/44 9/2/42 35/4/34
f 16/2/32 39/2/44 35/4/34
f 40/4/45 28/2/46 26/2/45
f 28/2/46 40/4/45 41/4/47
f 26/2/48 28/2/49 40/4/48
f 41/4/50 40/4/48 28/2/49
f 9/2/40 42/4/51 19/2/51
f 42/4/51 9/2/40 38/4/39
f 19/2/52 42/4/52 9/2/42
f 38/4/43 9/2/42 42/4/52
f 25/2/53 40/4/45 26/2/45
f 40/4/45 25/2/53 43/4/54
f 26/2/48 40/4/48 25/2/55
f 43/4/56 25/2/55 40/4/48
f 37/4/35 3/2/58 44/4/57
f 3/2/58 37/4/35 45/2/59
f 45/2/59 37/4/35 21/2/36
f 44/4/61 3/2/60 37/4/38
f 45/2/62 37/4/38 3/2/60
f 21/2/37 37/4/38 45/2/62
f 46/2/63 43/4/54 25/2/53
f 43/4/54 46/2/63 47/4/64
f 47/4/64 46/2/63 12/2/65
f 25/2/55 43/4/56 46/2/66
f 47/4/67 46/2/66 43/4/56
f 12/2/68 46/2/66 47/4/67
f 19/2/51 47/4/64 12/2/65
f 47/4/64 19/2/51 42/4/51
f 12/2/68 47/4/67 19/2/52
f 42/4/52 19/2/52 47/4/67
f 41/4/47 48/2/69 28/2/46
f 48/2/69 41/4/47 33/4/25
f 48/2/69 33/4/25 6/2/23
f 28/2/49 48/2/70 41/4/50
f 33/4/26 41/4/50 48/2/70
f 6/2/28 33/4/26 48/2/70
f 44/4/57 32/2/24 34/4/24
f 32/2/24 44/4/57 3/2/58
f 34/4/27 32/2/27 44/4/61
f 3/2/60 44/4/61 32/2/27
f 45/2/59 2/1/71 3/2/58
f 2/1/71 45/2/59 21/2/36
f 2/1/71 21/2/36 49/1/71
f 49/1/71 21/2/36 50/1/71
f 3/2/60 2/1/72 45/2/62
f 21/2/37 45/2/62 2/1/72
f 49/1/72 21/2/37 2/1/72
f 50/1/72 21/2/37 49/1/72
f 50/1/73 22/3/73 20/1/73
f 22/3/73 50/1/73 21/2/73
f 20/1/74 22/3/74 50/1/74
f 21/2/74 50/1/74 22/3/74
f 29/1/75 24/1/75 27/1/75
f 51/1/75 24/1/75 29/1/75
f 24/1/75 51/1/75 52/1/75
f 51/1/75 29/1/75 53/1/75
f 53/1/75 29/1/75 54/1/75
f 51/1/75 53/1/75 4/1/75
f 51/1/75 4/1/75 11/1/75
f 11/1/75 4/1/75 5/1/75
f 11/1/75 5/1/75 10/1/75
f 10/1/75 5/1/75 18/1/75
f 18/1/75 5/1/75 31/1/75
f 18/1/75 31/1/75 1/1/75
f 18/1/75 1/1/75 8/1/75
f 8/1/75 1/1/75 7/1/75
f 7/1/75 1/1/75 2/1/75
f 7/1/75 2/1/75 49/1/75
f 7/1/75 49/1/75 55/1/75
f 55/1/75 49/1/75 20/1/75
f 20/1/75 49/1/75 50/1/75
f 13/1/75 55/1/75 20/1/75
f 15/1/75 13/1/75 20/1/75
f 55/1/75 13/1/75 56/1/75
f 27/1/76 24/1/76 29/1/76
f 29/1/76 24/1/76 51/1/76
f 52/1/76 51/1/76 24/1/76
f 53/1/76 29/1/76 51/1/76
f 54/1/76 29/1/76 53/1/76
f 4/1/76 53/1/76 51/1/76
f 11/1/76 4/1/76 51/1/76
f 5/1/76 4/1/76 11/1/76
f 10/1/76 5/1/76 11/1/76
f 18/1/76 5/1/76 10/1/76
f 31/1/76 5/1/76 18/1/76
f 1/1/76 31/1/76 18/1/76
f 8/1/76 1/1/76 18/1/76
f 7/1/76 1/1/76 8/1/76
f 2/1/76 1/1/76 7/1/76
f 49/1/76 2/1/76 7/1/76
f 55/1/76 49/1/76 7/1/76
f 20/1/76 49/1/76 55/1/76
f 50/1/76 49/1/76 20/1/76
f 20/1/76 55/1/76 13/1/76
f 20/1/76 13/1/76 15/1/76
f 56/1/76 13/1/76 55/1/76
f 28/2/46 53/1/77 54/1/77
f 53/1/77 28/2/46 48/2/69
f 53/1/77 48/2/69 4/1/77
f 4/1/77 48/2/69 6/2/23
f 54/1/78 53/1/78 28/2/49
f 48/2/70 28/2/49 53/1/78
f 4/1/78 48/2/70 53/1/78
f 6/2/28 48/2/70 4/1/78
f 54/1/79 30/3/9 28/2/10
f 30/3/9 54/1/79 29/1/9
f 28/2/7 30/3/5 54/1/80
f 29/1/5 54/1/80 30/3/5
f 13/1/5 16/2/7 56/1/80
f 16/2/7 13/1/5 14/3/5
f 56/1/79 16/2/10 13/1/9
f 14/3/9 13/1/9 16/2/10
f 51/1/81 25/2/53 52/1/81
f 25/2/53 51/1/81 46/2/63
f 46/2/63 51/1/81 11/1/81
f 46/2/63 11/1/81 12/2/65
f 52/1/82 25/2/55 51/1/82
f 46/2/66 51/1/82 25/2/55
f 11/1/82 51/1/82 46/2/66
f 12/2/68 11/1/82 46/2/66
f 7/1/83 39/2/41 9/2/40
f 39/2/41 7/1/83 16/2/31
f 16/2/31 7/1/83 55/1/83
f 16/2/31 55/1/83 56/1/83
f 9/2/42 39/2/44 7/1/84
f 16/2/32 7/1/84 39/2/44
f 55/1/84 7/1/84 16/2/32
f 56/1/84 55/1/84 16/2/32
f 25/2/20 23/3/19 52/1/74
f 24/1/19 52/1/74 23/3/19
f 52/1/73 23/3/22 25/2/21
f 23/3/22 52/1/73 24/1/22
f 59/5/76 58/5/76 57/5/76
f 58/5/76 59/5/76 60/5/76
f 58/5/76 60/5/76 61/5/76
f 61/5/76 62/5/76 58/5/76
f 61/5/76 60/5/76 63/5/76
f 62/5/76 61/5/76 64/5/76
f 63/5/76 60/5/76 65/5/76
f 63/5/76 65/5/76 66/5/76
f 66/5/76 65/5/76 67/5/76
f 67/5/76 65/5/76 68/5/76
f 62/5/76 64/5/76 69/5/76
f 69/5/76 64/5/76 70/5/76
f 69/5/76 70/5/76 71/5/76
f 67/5/76 68/5/76 72/5/76
f 69/5/76 71/5/76 73/5/76
f 73/5/76 71/5/76 72/5/76
f 72/5/76 68/5/76 74/5/76
f 72/5/76 74/5/76 73/5/76
f 73/5/76 74/5/76 75/5/76
f 75/5/76 74/5/76 76/5/76
f 57/5/75 58/5/75 59/5/75
f 60/5/75 59/5/75 58/5/75
f 61/5/75 60/5/75 58/5/75
f 58/5/75 62/5/75 61/5/75
f 63/5/75 60/5/75 61/5/75
f 64/5/75 61/5/75 62/5/75
f 65/5/75 60/5/75 63/5/75
f 66/5/75 65/5/75 63/5/75
f 67/5/75 65/5/75 66/5/75
f 68/5/75 65/5/75 67/5/75
f 69/5/75 64/5/75 62/5/75
f 70/5/75 64/5/75 69/5/75
f 71/5/75 70/5/75 69/5/75
f 72/5/75 68/5/75 67/5/75
f 73/5/75 71/5/75 69/5/75
f 72/5/75 71/5/75 73/5/75
f 74/5/75 68/5/75 72/5/75
f 73/5/75 74/5/75 72/5/75
f 75/5/75 74/5/75 73/5/75
f 76/5/75 74/5/75 75/5/75
f 44/6/86 75/5/85 37/6/85
f 75/5/85 44/6/86 73/5/86
f 37/6/88 75/5/88 44/6/87
f 73/5/87 44/6/87 75/5/88
f 74/5/89 38/6/90 35/6/89
f 38/6/90 74/5/89 68/5/90
f 35/6/91 38/6/92 74/5/91
f 68/5/92 74/5/91 38/6/92
f 58/5/91 40/6/8 57/5/8
f 40/6/8 58/5/91 41/6/91
f 57/5/6 40/6/6 58/5/89
f 41/6/89 58/5/89 40/6/6
f 62/5/92 34/6/14 33/6/92
f 34/6/14 62/5/92 69/5/14
f 33/6/90 34/6/12 62/5/90
f 69/5/12 62/5/90 34/6/12
f 62/5/92 41/6/91 58/5/91
f 41/6/91 62/5/92 33/6/92
f 58/5/89 41/6/89 62/5/90
f 33/6/90 62/5/90 41/6/89
f 68/5/90 42/6/12 38/6/90
f 42/6/12 68/5/90 65/5/12
f 38/6/92 42/6/14 68/5/92
f 65/5/14 68/5/92 42/6/14
f 36/6/6 74/5/89 35/6/89
f 74/5/89 36/6/6 76/5/6
f 35/6/91 74/5/91 36/6/8
f 76/5/8 36/6/8 74/5/91
f 37/6/85 76/5/6 36/6/6
f 76/5/6 37/6/85 75/5/85
f 36/6/8 76/5/8 37/6/88
f 75/5/88 37/6/88 76/5/8
f 69/5/14 44/6/86 34/6/14
f 44/6/86 69/5/14 73/5/86
f 34/6/12 44/6/87 69/5/12
f 73/5/87 69/5/12 44/6/87
f 57/5/8 43/6/88 59/5/88
f 43/6/88 57/5/8 40/6/8
f 59/5/85 43/6/85 57/5/6
f 40/6/6 57/5/6 43/6/85
f 59/5/88 47/6/87 60/5/87
f 47/6/87 59/5/88 43/6/88
f 60/5/86 47/6/86 59/5/85
f 43/6/85 59/5/85 47/6/86
f 65/5/12 47/6/87 42/6/12
f 47/6/87 65/5/12 60/5/87
f 42/6/14 47/6/86 65/5/14
f 60/5/86 65/5/14 47/6/86
f 77/8/93 66/7/12 67/7/93
f 66/7/12 77/8/93 78/8/12
f 67/7/94 66/7/14 77/8/94
f 78/8/14 77/8/94 66/7/14
f 72/7/6 77/8/93 67/7/93
f 77/8/93 72/7/6 79/8/6
f 67/7/94 77/8/94 72/7/8
f 79/8/8 72/7/8 77/8/94
f 71/7/95 79/8/6 72/7/6
f 79/8/6 71/7/95 80/8/95
f 72/7/8 79/8/8 71/7/96
f 80/8/96 71/7/96 79/8/8
f 81/8/14 71/7/95 70/7/14
f 71/7/95 81/8/14 80/8/95
f 70/7/12 71/7/96 81/8/12
f 80/8/96 81/8/12 71/7/96
f 82/8/94 70/7/14 64/7/94
f 70/7/14 82/8/94 81/8/14
f 64/7/93 70/7/12 82/8/93
f 81/8/12 82/8/93 70/7/12
f 82/8/94 61/7/8 83/8/8
f 61/7/8 82/8/94 64/7/94
f 83/8/6 61/7/6 82/8/93
f 64/7/93 82/8/93 61/7/6
f 83/8/8 63/7/96 84/8/96
f 63/7/96 83/8/8 61/7/8
f 84/8/95 63/7/95 83/8/6
f 61/7/6 83/8/6 63/7/95
f 78/8/12 63/7/96 66/7/12
f 63/7/96 78/8/12 84/8/96
f 66/7/14 63/7/95 78/8/14
f 84/8/95 78/8/14 63/7/95
f 87/9/99 86/9/98 85/9/97
f 86/9/98 87/9/99 88/9/100
f 86/9/98 88/9/100 89/9/101
f 89/9/101 88/9/100 90/9/102
f 89/9/101 90/9/102 91/9/103
f 91/9/103 90/9/102 92/9/104
f 85/9/107 86/9/106 87/9/105
f 88/9/108 87/9/105 86/9/106
f 89/9/109 88/9/108 86/9/106
f 90/9/110 88/9/108 89/9/109
f 91/9/111 90/9/110 89/9/109
f 92/9/112 90/9/110 91/9/111
f 77/8/114 88/9/100 78/8/113
f 88/9/100 77/8/114 90/9/102
f 78/8/116 88/9/108 77/8/115
f 90/9/110 77/8/115 88/9/108
f 84/8/118 85/9/97 83/8/117
f 85/9/97 84/8/118 87/9/99
f 83/8/120 85/9/107 84/8/119
f 87/9/105 84/8/119 85/9/107
f 86/9/98 81/8/122 82/8/121
f 81/8/122 86/9/98 89/9/101
f 82/8/124 81/8/123 86/9/106
f 89/9/109 86/9/106 81/8/123
f 92/9/104 80/8/125 91/9/103
f 80/8/125 92/9/104 79/8/126
f 91/9/111 80/8/127 92/9/112
f 79/8/128 92/9/112 80/8/127
f 78/8/113 87/9/99 84/8/118
f 87/9/99 78/8/113 88/9/100
f 84/8/119 87/9/105 78/8/116
f 88/9/108 78/8/116 87/9/105
f 85/9/97 82/8/121 83/8/117
f 82/8/121 85/9/97 86/9/98
f 83/8/120 82/8/124 85/9/107
f 86/9/106 85/9/107 82/8/124
f 91/9/103 81/8/122 89/9/101
f 81/8/122 91/9/103 80/8/125
f 89/9/109 81/8/123 91/9/111
f 80/8/127 91/9/111 81/8/123
f 77/8/114 92/9/104 90/9/102
f 92/9/104 77/8/114 79/8/126
f 90/9/110 92/9/112 77/8/115
f 79/8/128 77/8/115 92/9/112

