# Created by Kenney (www.kenney.nl)

mtllib weapon-ammo-arrow.mtl

g weapon-ammo-arrow

v 0.03 -0.03 0.3888 1 1 1
v -0.03 -0.03 0.3888 1 1 1
v 0.03 0.03 0.3888 1 1 1
v -0.03 0.03 0.3888 1 1 1
v -0.08 -0.08 0.248 1 1 1
v -0.08 0.08 0.248 1 1 1
v 0.08 -0.08 0.248 1 1 1
v 0.08 0.08 0.248 1 1 1
v 0.04 -0.04 0.1776 1 1 1
v -0.04 -0.04 0.1776 1 1 1
v -0.04 0.04 0.1776 1 1 1
v 0.04 0.04 0.1776 1 1 1
v 0.05 0.05 -0.2888 1 1 1
v 0.05 -0.05 -0.2888 1 1 1
v -0.05 -0.05 -0.2888 1 1 1
v -0.05 0.05 -0.2888 1 1 1
v -0.03125 -0.03125 -0.3888 1 1 1
v -0.03125 0.03125 -0.3888 1 1 1
v 0.03125 -0.03125 -0.3888 1 1 1
v 0.03125 0.03125 -0.3888 1 1 1

vn 0 0 1
vn 0 0 -1
vn -0.6318969 -0.6318969 0.4487904
vn -0.6318969 0.6318969 0.4487904
vn 0.6318969 0.6318969 -0.4487904
vn 0.6318969 -0.6318969 -0.4487904
vn 0.6318969 -0.6318969 0.4487904
vn -0.6318969 0.6318969 -0.4487904
vn 0.6318969 0.6318969 0.4487904
vn -0.6318969 -0.6318969 -0.4487904
vn 0.5512071 -0.5512071 -0.6263717
vn -0.5512071 -0.5512071 -0.6263717
vn 0.5512071 0.5512071 0.6263717
vn -0.5512071 0.5512071 0.6263717
vn -0.5512071 0.5512071 -0.6263717
vn 0.5512071 -0.5512071 0.6263717
vn 0.5512071 0.5512071 -0.6263717
vn -0.5512071 -0.5512071 0.6263717
vn 0.9970924 0 -0.07620171
vn 0.9997702 0 0.0214359
vn -0.9997702 0 -0.0214359
vn -0.9970924 0 0.07620171
vn 0 -0.9970924 -0.07620171
vn 0 -0.9997702 0.0214359
vn 0 0.9997702 -0.0214359
vn 0 0.9970924 0.07620171
vn 0 0.9970924 -0.07620171
vn 0 0.9997702 0.0214359
vn 0 -0.9970924 0.07620171
vn 0 -0.9997702 -0.0214359
vn -0.9970924 0 -0.07620171
vn -0.9997702 0 0.0214359
vn 0.9997702 0 -0.0214359
vn 0.9970924 0 0.07620171
vn -0.9828722 0 -0.1842885
vn 0.9828722 0 0.1842885
vn 0 -0.9828722 -0.1842885
vn 0 0.9828722 0.1842885
vn 0.9828722 0 -0.1842885
vn -0.9828722 0 0.1842885
vn 0 0.9828722 -0.1842885
vn 0 -0.9828722 0.1842885

vt 0.84375 0.025
vt 0.84375 0.1
vt 0.84375 0.225
vt 0.84375 0.125
vt 0.09375 0.4
vt 0.09375 0.275
vt 0.09375 0.375
vt 0.09375 0.353125

usemtl colormap

f 3/2/1 2/1/1 1/1/1
f 2/1/1 3/2/1 4/2/1
f 1/1/2 2/1/2 3/2/2
f 4/2/2 3/2/2 2/1/2
f 2/1/3 6/3/4 5/1/3
f 6/3/4 2/1/3 4/2/4
f 5/1/5 6/3/6 2/1/5
f 4/2/6 2/1/5 6/3/6
f 1/1/7 5/1/3 7/1/7
f 5/1/3 1/1/7 2/1/3
f 7/1/8 5/1/5 1/1/8
f 2/1/5 1/1/8 5/1/5
f 6/3/4 3/2/9 8/3/9
f 3/2/9 6/3/4 4/2/4
f 8/3/10 3/2/10 6/3/6
f 4/2/6 6/3/6 3/2/10
f 3/2/9 7/1/7 8/3/9
f 7/1/7 3/2/9 1/1/7
f 8/3/10 7/1/8 3/2/10
f 1/1/8 3/2/10 7/1/8
f 5/1/12 9/1/11 7/1/11
f 9/1/11 5/1/12 10/1/12
f 7/1/14 9/1/14 5/1/13
f 10/1/13 5/1/13 9/1/14
f 5/1/12 11/4/15 10/1/12
f 11/4/15 5/1/12 6/3/15
f 10/1/13 11/4/16 5/1/13
f 6/3/16 5/1/13 11/4/16
f 12/4/17 6/3/15 8/3/17
f 6/3/15 12/4/17 11/4/15
f 8/3/18 6/3/16 12/4/18
f 11/4/16 12/4/18 6/3/16
f 8/3/17 9/1/11 12/4/17
f 9/1/11 8/3/17 7/1/11
f 12/4/18 9/1/14 8/3/18
f 7/1/14 8/3/18 9/1/14
f 12/7/20 14/6/19 13/5/19
f 14/6/19 12/7/20 9/6/20
f 13/5/22 14/6/22 12/7/21
f 9/6/21 12/7/21 14/6/22
f 9/6/24 15/6/23 14/6/23
f 15/6/23 9/6/24 10/6/24
f 14/6/26 15/6/26 9/6/25
f 10/6/25 9/6/25 15/6/26
f 16/5/27 12/7/28 13/5/27
f 12/7/28 16/5/27 11/7/28
f 13/5/29 12/7/30 16/5/29
f 11/7/30 16/5/29 12/7/30
f 10/6/32 16/5/31 15/6/31
f 16/5/31 10/6/32 11/7/32
f 15/6/34 16/5/34 10/6/33
f 11/7/33 10/6/33 16/5/34
f 15/6/31 18/8/35 17/6/35
f 18/8/35 15/6/31 16/5/31
f 17/6/36 18/8/36 15/6/34
f 16/5/34 15/6/34 18/8/36
f 18/8/2 19/6/2 17/6/2
f 19/6/2 18/8/2 20/8/2
f 17/6/1 19/6/1 18/8/1
f 20/8/1 18/8/1 19/6/1
f 15/6/23 19/6/37 14/6/23
f 19/6/37 15/6/23 17/6/37
f 14/6/26 19/6/38 15/6/26
f 17/6/38 15/6/26 19/6/38
f 13/5/19 19/6/39 20/8/39
f 19/6/39 13/5/19 14/6/19
f 20/8/40 19/6/40 13/5/22
f 14/6/22 13/5/22 19/6/40
f 20/8/41 16/5/27 13/5/27
f 16/5/27 20/8/41 18/8/41
f 13/5/29 16/5/29 20/8/42
f 18/8/42 20/8/42 16/5/29

g weapon-ammo-arrow




usemtl colormap

f 3/2/1 2/1/1 1/1/1
f 2/1/1 3/2/1 4/2/1
f 1/1/2 2/1/2 3/2/2
f 4/2/2 3/2/2 2/1/2
f 2/1/3 6/3/4 5/1/3
f 6/3/4 2/1/3 4/2/4
f 5/1/5 6/3/6 2/1/5
f 4/2/6 2/1/5 6/3/6
f 1/1/7 5/1/3 7/1/7
f 5/1/3 1/1/7 2/1/3
f 7/1/8 5/1/5 1/1/8
f 2/1/5 1/1/8 5/1/5
f 6/3/4 3/2/9 8/3/9
f 3/2/9 6/3/4 4/2/4
f 8/3/10 3/2/10 6/3/6
f 4/2/6 6/3/6 3/2/10
f 3/2/9 7/1/7 8/3/9
f 7/1/7 3/2/9 1/1/7
f 8/3/10 7/1/8 3/2/10
f 1/1/8 3/2/10 7/1/8
f 5/1/12 9/1/11 7/1/11
f 9/1/11 5/1/12 10/1/12
f 7/1/14 9/1/14 5/1/13
f 10/1/13 5/1/13 9/1/14
f 5/1/12 11/4/15 10/1/12
f 11/4/15 5/1/12 6/3/15
f 10/1/13 11/4/16 5/1/13
f 6/3/16 5/1/13 11/4/16
f 12/4/17 6/3/15 8/3/17
f 6/3/15 12/4/17 11/4/15
f 8/3/18 6/3/16 12/4/18
f 11/4/16 12/4/18 6/3/16
f 8/3/17 9/1/11 12/4/17
f 9/1/11 8/3/17 7/1/11
f 12/4/18 9/1/14 8/3/18
f 7/1/14 8/3/18 9/1/14
f 12/7/20 14/6/19 13/5/19
f 14/6/19 12/7/20 9/6/20
f 13/5/22 14/6/22 12/7/21
f 9/6/21 12/7/21 14/6/22
f 9/6/24 15/6/23 14/6/23
f 15/6/23 9/6/24 10/6/24
f 14/6/26 15/6/26 9/6/25
f 10/6/25 9/6/25 15/6/26
f 16/5/27 12/7/28 13/5/27
f 12/7/28 16/5/27 11/7/28
f 13/5/29 12/7/30 16/5/29
f 11/7/30 16/5/29 12/7/30
f 10/6/32 16/5/31 15/6/31
f 16/5/31 10/6/32 11/7/32
f 15/6/34 16/5/34 10/6/33
f 11/7/33 10/6/33 16/5/34
f 15/6/31 18/8/35 17/6/35
f 18/8/35 15/6/31 16/5/31
f 17/6/36 18/8/36 15/6/34
f 16/5/34 15/6/34 18/8/36
f 18/8/2 19/6/2 17/6/2
f 19/6/2 18/8/2 20/8/2
f 17/6/1 19/6/1 18/8/1
f 20/8/1 18/8/1 19/6/1
f 15/6/23 19/6/37 14/6/23
f 19/6/37 15/6/23 17/6/37
f 14/6/26 19/6/38 15/6/26
f 17/6/38 15/6/26 19/6/38
f 13/5/19 19/6/39 20/8/39
f 19/6/39 13/5/19 14/6/19
f 20/8/40 19/6/40 13/5/22
f 14/6/22 13/5/22 19/6/40
f 20/8/41 16/5/27 13/5/27
f 16/5/27 20/8/41 18/8/41
f 13/5/29 16/5/29 20/8/42
f 18/8/42 20/8/42 16/5/29

