# Created by Kenney (www.kenney.nl)

mtllib wood-structure-high-part.mtl

g wood-structure-high-part

v -0.372 -5.009267E-32 -0.372 1 1 1
v -0.372 -5.009267E-32 -0.5 1 1 1
v -0.5 -5.009267E-32 -0.372 1 1 1
v -0.5 -5.009267E-32 -0.5 1 1 1
v -0.372 1 -0.5 1 1 1
v -0.372 1 -0.372 1 1 1
v -0.5 1 -0.5 1 1 1
v -0.5 1 -0.372 1 1 1
v 0.5 -5.009267E-32 -0.372 1 1 1
v 0.5 -5.009267E-32 -0.5 1 1 1
v 0.372 -5.009267E-32 -0.372 1 1 1
v 0.372 -5.009267E-32 -0.5 1 1 1
v 0.5 1 -0.5 1 1 1
v 0.5 1 -0.372 1 1 1
v 0.372 1 -0.5 1 1 1
v 0.372 1 -0.372 1 1 1
v 0.372 0.808 -0.468 1 1 1
v -0.372 0.808 -0.468 1 1 1
v 0.372 0.808 -0.404 1 1 1
v -0.372 0.808 -0.404 1 1 1
v -0.372 0.936 -0.468 1 1 1
v 0.372 0.936 -0.468 1 1 1
v -0.372 0.936 -0.404 1 1 1
v 0.372 0.936 -0.404 1 1 1
v 0.372 0.436 -0.468 1 1 1
v 0.372 0.436 -0.404 1 1 1
v -0.372 0.436 -0.468 1 1 1
v -0.372 0.436 -0.404 1 1 1
v -0.372 0.308 -0.468 1 1 1
v 0.372 0.308 -0.468 1 1 1
v 0.372 0.308 -0.404 1 1 1
v -0.372 0.308 -0.404 1 1 1

vn 0 -1 0
vn 0 1 0
vn 0 0 -1
vn 0 0 1
vn 1 0 0
vn -1 0 0

vt 0.09375 0.275
vt 0.09375 0.475

usemtl colormap

f 3/1/1 2/1/1 1/1/1
f 2/1/1 3/1/1 4/1/1
f 1/1/2 2/1/2 3/1/2
f 4/1/2 3/1/2 2/1/2
f 7/2/2 6/2/2 5/2/2
f 6/2/2 7/2/2 8/2/2
f 5/2/1 6/2/1 7/2/1
f 8/2/1 7/2/1 6/2/1
f 7/2/3 2/1/3 4/1/3
f 2/1/3 7/2/3 5/2/3
f 4/1/4 2/1/4 7/2/4
f 5/2/4 7/2/4 2/1/4
f 6/2/5 2/1/5 5/2/5
f 2/1/5 6/2/5 1/1/5
f 5/2/6 2/1/6 6/2/6
f 1/1/6 6/2/6 2/1/6
f 6/2/4 3/1/4 1/1/4
f 3/1/4 6/2/4 8/2/4
f 1/1/3 3/1/3 6/2/3
f 8/2/3 6/2/3 3/1/3
f 3/1/6 7/2/6 4/1/6
f 7/2/6 3/1/6 8/2/6
f 4/1/5 7/2/5 3/1/5
f 8/2/5 3/1/5 7/2/5
f 11/1/1 10/1/1 9/1/1
f 10/1/1 11/1/1 12/1/1
f 9/1/2 10/1/2 11/1/2
f 12/1/2 11/1/2 10/1/2
f 15/2/2 14/2/2 13/2/2
f 14/2/2 15/2/2 16/2/2
f 13/2/1 14/2/1 15/2/1
f 16/2/1 15/2/1 14/2/1
f 15/2/3 10/1/3 12/1/3
f 10/1/3 15/2/3 13/2/3
f 12/1/4 10/1/4 15/2/4
f 13/2/4 15/2/4 10/1/4
f 14/2/5 10/1/5 13/2/5
f 10/1/5 14/2/5 9/1/5
f 13/2/6 10/1/6 14/2/6
f 9/1/6 14/2/6 10/1/6
f 14/2/4 11/1/4 9/1/4
f 11/1/4 14/2/4 16/2/4
f 9/1/3 11/1/3 14/2/3
f 16/2/3 14/2/3 11/1/3
f 11/1/6 15/2/6 12/1/6
f 15/2/6 11/1/6 16/2/6
f 12/1/5 15/2/5 11/1/5
f 16/2/5 11/1/5 15/2/5
f 19/1/1 18/1/1 17/1/1
f 18/1/1 19/1/1 20/1/1
f 17/1/2 18/1/2 19/1/2
f 20/1/2 19/1/2 18/1/2
f 21/2/3 17/1/3 18/1/3
f 17/1/3 21/2/3 22/2/3
f 18/1/4 17/1/4 21/2/4
f 22/2/4 21/2/4 17/1/4
f 19/1/4 23/2/4 20/1/4
f 23/2/4 19/1/4 24/2/4
f 20/1/3 23/2/3 19/1/3
f 24/2/3 19/1/3 23/2/3
f 21/2/2 24/2/2 22/2/2
f 24/2/2 21/2/2 23/2/2
f 22/2/1 24/2/1 21/2/1
f 23/2/1 21/2/1 24/2/1
f 27/2/2 26/2/2 25/2/2
f 26/2/2 27/2/2 28/2/2
f 25/2/1 26/2/1 27/2/1
f 28/2/1 27/2/1 26/2/1
f 27/2/3 30/1/3 29/1/3
f 30/1/3 27/2/3 25/2/3
f 29/1/4 30/1/4 27/2/4
f 25/2/4 27/2/4 30/1/4
f 31/1/1 29/1/1 30/1/1
f 29/1/1 31/1/1 32/1/1
f 30/1/2 29/1/2 31/1/2
f 32/1/2 31/1/2 29/1/2
f 31/1/4 28/2/4 32/1/4
f 28/2/4 31/1/4 26/2/4
f 32/1/3 28/2/3 31/1/3
f 26/2/3 31/1/3 28/2/3

g wood-structure-high-part




usemtl colormap

f 3/1/1 2/1/1 1/1/1
f 2/1/1 3/1/1 4/1/1
f 1/1/2 2/1/2 3/1/2
f 4/1/2 3/1/2 2/1/2
f 7/2/2 6/2/2 5/2/2
f 6/2/2 7/2/2 8/2/2
f 5/2/1 6/2/1 7/2/1
f 8/2/1 7/2/1 6/2/1
f 7/2/3 2/1/3 4/1/3
f 2/1/3 7/2/3 5/2/3
f 4/1/4 2/1/4 7/2/4
f 5/2/4 7/2/4 2/1/4
f 6/2/5 2/1/5 5/2/5
f 2/1/5 6/2/5 1/1/5
f 5/2/6 2/1/6 6/2/6
f 1/1/6 6/2/6 2/1/6
f 6/2/4 3/1/4 1/1/4
f 3/1/4 6/2/4 8/2/4
f 1/1/3 3/1/3 6/2/3
f 8/2/3 6/2/3 3/1/3
f 3/1/6 7/2/6 4/1/6
f 7/2/6 3/1/6 8/2/6
f 4/1/5 7/2/5 3/1/5
f 8/2/5 3/1/5 7/2/5
f 11/1/1 10/1/1 9/1/1
f 10/1/1 11/1/1 12/1/1
f 9/1/2 10/1/2 11/1/2
f 12/1/2 11/1/2 10/1/2
f 15/2/2 14/2/2 13/2/2
f 14/2/2 15/2/2 16/2/2
f 13/2/1 14/2/1 15/2/1
f 16/2/1 15/2/1 14/2/1
f 15/2/3 10/1/3 12/1/3
f 10/1/3 15/2/3 13/2/3
f 12/1/4 10/1/4 15/2/4
f 13/2/4 15/2/4 10/1/4
f 14/2/5 10/1/5 13/2/5
f 10/1/5 14/2/5 9/1/5
f 13/2/6 10/1/6 14/2/6
f 9/1/6 14/2/6 10/1/6
f 14/2/4 11/1/4 9/1/4
f 11/1/4 14/2/4 16/2/4
f 9/1/3 11/1/3 14/2/3
f 16/2/3 14/2/3 11/1/3
f 11/1/6 15/2/6 12/1/6
f 15/2/6 11/1/6 16/2/6
f 12/1/5 15/2/5 11/1/5
f 16/2/5 11/1/5 15/2/5
f 19/1/1 18/1/1 17/1/1
f 18/1/1 19/1/1 20/1/1
f 17/1/2 18/1/2 19/1/2
f 20/1/2 19/1/2 18/1/2
f 21/2/3 17/1/3 18/1/3
f 17/1/3 21/2/3 22/2/3
f 18/1/4 17/1/4 21/2/4
f 22/2/4 21/2/4 17/1/4
f 19/1/4 23/2/4 20/1/4
f 23/2/4 19/1/4 24/2/4
f 20/1/3 23/2/3 19/1/3
f 24/2/3 19/1/3 23/2/3
f 21/2/2 24/2/2 22/2/2
f 24/2/2 21/2/2 23/2/2
f 22/2/1 24/2/1 21/2/1
f 23/2/1 21/2/1 24/2/1
f 27/2/2 26/2/2 25/2/2
f 26/2/2 27/2/2 28/2/2
f 25/2/1 26/2/1 27/2/1
f 28/2/1 27/2/1 26/2/1
f 27/2/3 30/1/3 29/1/3
f 30/1/3 27/2/3 25/2/3
f 29/1/4 30/1/4 27/2/4
f 25/2/4 27/2/4 30/1/4
f 31/1/1 29/1/1 30/1/1
f 29/1/1 31/1/1 32/1/1
f 30/1/2 29/1/2 31/1/2
f 32/1/2 31/1/2 29/1/2
f 31/1/4 28/2/4 32/1/4
f 28/2/4 31/1/4 26/2/4
f 32/1/3 28/2/3 31/1/3
f 26/2/3 31/1/3 28/2/3

