# Created by Kenney (www.kenney.nl)

mtllib wood-structure.mtl

g wood-structure

v -0.372 0 -0.372 1 1 1
v -0.372 0 -0.5 1 1 1
v -0.5 0 -0.372 1 1 1
v -0.5 0 -0.5 1 1 1
v -0.372 0.5 -0.5 1 1 1
v -0.372 0.5 -0.372 1 1 1
v -0.5 0.5 -0.5 1 1 1
v -0.5 0.5 -0.372 1 1 1
v 0.5 0 -0.372 1 1 1
v 0.5 0 -0.5 1 1 1
v 0.372 0 -0.372 1 1 1
v 0.372 0 -0.5 1 1 1
v 0.5 0.5 -0.5 1 1 1
v 0.5 0.5 -0.372 1 1 1
v 0.372 0.5 -0.5 1 1 1
v 0.372 0.5 -0.372 1 1 1
v 0.5 0 0.5 1 1 1
v 0.5 0 0.372 1 1 1
v 0.372 0 0.5 1 1 1
v 0.372 0 0.372 1 1 1
v 0.5 0.5 0.372 1 1 1
v 0.5 0.5 0.5 1 1 1
v 0.372 0.5 0.372 1 1 1
v 0.372 0.5 0.5 1 1 1
v -0.372 0 0.5 1 1 1
v -0.372 0 0.372 1 1 1
v -0.5 0 0.5 1 1 1
v -0.5 0 0.372 1 1 1
v -0.372 0.5 0.372 1 1 1
v -0.372 0.5 0.5 1 1 1
v -0.5 0.5 0.372 1 1 1
v -0.5 0.5 0.5 1 1 1
v 0.468 0.308 0.372 1 1 1
v 0.468 0.308 -0.372 1 1 1
v 0.404 0.308 0.372 1 1 1
v 0.404 0.308 -0.372 1 1 1
v 0.404 0.436 -0.372 1 1 1
v 0.404 0.436 0.372 1 1 1
v 0.468 0.436 -0.372 1 1 1
v 0.468 0.436 0.372 1 1 1
v 0.372 0.436 -0.468 1 1 1
v 0.372 0.436 -0.404 1 1 1
v -0.372 0.436 -0.468 1 1 1
v -0.372 0.436 -0.404 1 1 1
v 0.372 0.308 -0.468 1 1 1
v -0.372 0.308 -0.468 1 1 1
v 0.372 0.308 -0.404 1 1 1
v -0.372 0.308 -0.404 1 1 1
v 0.372 0.308 0.404 1 1 1
v -0.372 0.308 0.404 1 1 1
v 0.372 0.308 0.468 1 1 1
v -0.372 0.308 0.468 1 1 1
v -0.372 0.436 0.468 1 1 1
v 0.372 0.436 0.468 1 1 1
v -0.372 0.436 0.404 1 1 1
v 0.372 0.436 0.404 1 1 1
v -0.468 0.308 -0.372 1 1 1
v -0.468 0.436 -0.372 1 1 1
v -0.468 0.308 0.372 1 1 1
v -0.468 0.436 0.372 1 1 1
v -0.404 0.308 -0.372 1 1 1
v -0.404 0.308 0.372 1 1 1
v -0.404 0.436 -0.372 1 1 1
v -0.404 0.436 0.372 1 1 1

vn 0 -1 0
vn 0 1 0
vn 0 0 -1
vn 0 0 1
vn 1 0 0
vn -1 0 0

vt 0.09375 0.275
vt 0.09375 0.475

usemtl colormap

f 3/1/1 2/1/1 1/1/1
f 2/1/1 3/1/1 4/1/1
f 1/1/2 2/1/2 3/1/2
f 4/1/2 3/1/2 2/1/2
f 7/2/2 6/2/2 5/2/2
f 6/2/2 7/2/2 8/2/2
f 5/2/1 6/2/1 7/2/1
f 8/2/1 7/2/1 6/2/1
f 7/2/3 2/1/3 4/1/3
f 2/1/3 7/2/3 5/2/3
f 4/1/4 2/1/4 7/2/4
f 5/2/4 7/2/4 2/1/4
f 6/2/5 2/1/5 5/2/5
f 2/1/5 6/2/5 1/1/5
f 5/2/6 2/1/6 6/2/6
f 1/1/6 6/2/6 2/1/6
f 6/2/4 3/1/4 1/1/4
f 3/1/4 6/2/4 8/2/4
f 1/1/3 3/1/3 6/2/3
f 8/2/3 6/2/3 3/1/3
f 3/1/6 7/2/6 4/1/6
f 7/2/6 3/1/6 8/2/6
f 4/1/5 7/2/5 3/1/5
f 8/2/5 3/1/5 7/2/5
f 11/1/1 10/1/1 9/1/1
f 10/1/1 11/1/1 12/1/1
f 9/1/2 10/1/2 11/1/2
f 12/1/2 11/1/2 10/1/2
f 15/2/2 14/2/2 13/2/2
f 14/2/2 15/2/2 16/2/2
f 13/2/1 14/2/1 15/2/1
f 16/2/1 15/2/1 14/2/1
f 15/2/3 10/1/3 12/1/3
f 10/1/3 15/2/3 13/2/3
f 12/1/4 10/1/4 15/2/4
f 13/2/4 15/2/4 10/1/4
f 14/2/5 10/1/5 13/2/5
f 10/1/5 14/2/5 9/1/5
f 13/2/6 10/1/6 14/2/6
f 9/1/6 14/2/6 10/1/6
f 14/2/4 11/1/4 9/1/4
f 11/1/4 14/2/4 16/2/4
f 9/1/3 11/1/3 14/2/3
f 16/2/3 14/2/3 11/1/3
f 11/1/6 15/2/6 12/1/6
f 15/2/6 11/1/6 16/2/6
f 12/1/5 15/2/5 11/1/5
f 16/2/5 11/1/5 15/2/5
f 19/1/1 18/1/1 17/1/1
f 18/1/1 19/1/1 20/1/1
f 17/1/2 18/1/2 19/1/2
f 20/1/2 19/1/2 18/1/2
f 23/2/2 22/2/2 21/2/2
f 22/2/2 23/2/2 24/2/2
f 21/2/1 22/2/1 23/2/1
f 24/2/1 23/2/1 22/2/1
f 23/2/3 18/1/3 20/1/3
f 18/1/3 23/2/3 21/2/3
f 20/1/4 18/1/4 23/2/4
f 21/2/4 23/2/4 18/1/4
f 22/2/5 18/1/5 21/2/5
f 18/1/5 22/2/5 17/1/5
f 21/2/6 18/1/6 22/2/6
f 17/1/6 22/2/6 18/1/6
f 22/2/4 19/1/4 17/1/4
f 19/1/4 22/2/4 24/2/4
f 17/1/3 19/1/3 22/2/3
f 24/2/3 22/2/3 19/1/3
f 19/1/6 23/2/6 20/1/6
f 23/2/6 19/1/6 24/2/6
f 20/1/5 23/2/5 19/1/5
f 24/2/5 19/1/5 23/2/5
f 27/1/1 26/1/1 25/1/1
f 26/1/1 27/1/1 28/1/1
f 25/1/2 26/1/2 27/1/2
f 28/1/2 27/1/2 26/1/2
f 31/2/2 30/2/2 29/2/2
f 30/2/2 31/2/2 32/2/2
f 29/2/1 30/2/1 31/2/1
f 32/2/1 31/2/1 30/2/1
f 31/2/3 26/1/3 28/1/3
f 26/1/3 31/2/3 29/2/3
f 28/1/4 26/1/4 31/2/4
f 29/2/4 31/2/4 26/1/4
f 30/2/5 26/1/5 29/2/5
f 26/1/5 30/2/5 25/1/5
f 29/2/6 26/1/6 30/2/6
f 25/1/6 30/2/6 26/1/6
f 30/2/4 27/1/4 25/1/4
f 27/1/4 30/2/4 32/2/4
f 25/1/3 27/1/3 30/2/3
f 32/2/3 30/2/3 27/1/3
f 27/1/6 31/2/6 28/1/6
f 31/2/6 27/1/6 32/2/6
f 28/1/5 31/2/5 27/1/5
f 32/2/5 27/1/5 31/2/5
f 35/1/1 34/1/1 33/1/1
f 34/1/1 35/1/1 36/1/1
f 33/1/2 34/1/2 35/1/2
f 36/1/2 35/1/2 34/1/2
f 35/1/6 37/2/6 36/1/6
f 37/2/6 35/1/6 38/2/6
f 36/1/5 37/2/5 35/1/5
f 38/2/5 35/1/5 37/2/5
f 39/2/5 33/1/5 34/1/5
f 33/1/5 39/2/5 40/2/5
f 34/1/6 33/1/6 39/2/6
f 40/2/6 39/2/6 33/1/6
f 37/2/2 40/2/2 39/2/2
f 40/2/2 37/2/2 38/2/2
f 39/2/1 40/2/1 37/2/1
f 38/2/1 37/2/1 40/2/1
f 43/2/2 42/2/2 41/2/2
f 42/2/2 43/2/2 44/2/2
f 41/2/1 42/2/1 43/2/1
f 44/2/1 43/2/1 42/2/1
f 47/1/1 46/1/1 45/1/1
f 46/1/1 47/1/1 48/1/1
f 45/1/2 46/1/2 47/1/2
f 48/1/2 47/1/2 46/1/2
f 43/2/3 45/1/3 46/1/3
f 45/1/3 43/2/3 41/2/3
f 46/1/4 45/1/4 43/2/4
f 41/2/4 43/2/4 45/1/4
f 47/1/4 44/2/4 48/1/4
f 44/2/4 47/1/4 42/2/4
f 48/1/3 44/2/3 47/1/3
f 42/2/3 47/1/3 44/2/3
f 51/1/1 50/1/1 49/1/1
f 50/1/1 51/1/1 52/1/1
f 49/1/2 50/1/2 51/1/2
f 52/1/2 51/1/2 50/1/2
f 51/1/4 53/2/4 52/1/4
f 53/2/4 51/1/4 54/2/4
f 52/1/3 53/2/3 51/1/3
f 54/2/3 51/1/3 53/2/3
f 55/2/3 49/1/3 50/1/3
f 49/1/3 55/2/3 56/2/3
f 50/1/4 49/1/4 55/2/4
f 56/2/4 55/2/4 49/1/4
f 55/2/2 54/2/2 56/2/2
f 54/2/2 55/2/2 53/2/2
f 56/2/1 54/2/1 55/2/1
f 53/2/1 55/2/1 54/2/1
f 59/1/6 58/2/6 57/1/6
f 58/2/6 59/1/6 60/2/6
f 57/1/5 58/2/5 59/1/5
f 60/2/5 59/1/5 58/2/5
f 63/2/5 62/1/5 61/1/5
f 62/1/5 63/2/5 64/2/5
f 61/1/6 62/1/6 63/2/6
f 64/2/6 63/2/6 62/1/6
f 58/2/2 64/2/2 63/2/2
f 64/2/2 58/2/2 60/2/2
f 63/2/1 64/2/1 58/2/1
f 60/2/1 58/2/1 64/2/1
f 59/1/1 61/1/1 62/1/1
f 61/1/1 59/1/1 57/1/1
f 62/1/2 61/1/2 59/1/2
f 57/1/2 59/1/2 61/1/2

g wood-structure




usemtl colormap

f 3/1/1 2/1/1 1/1/1
f 2/1/1 3/1/1 4/1/1
f 1/1/2 2/1/2 3/1/2
f 4/1/2 3/1/2 2/1/2
f 7/2/2 6/2/2 5/2/2
f 6/2/2 7/2/2 8/2/2
f 5/2/1 6/2/1 7/2/1
f 8/2/1 7/2/1 6/2/1
f 7/2/3 2/1/3 4/1/3
f 2/1/3 7/2/3 5/2/3
f 4/1/4 2/1/4 7/2/4
f 5/2/4 7/2/4 2/1/4
f 6/2/5 2/1/5 5/2/5
f 2/1/5 6/2/5 1/1/5
f 5/2/6 2/1/6 6/2/6
f 1/1/6 6/2/6 2/1/6
f 6/2/4 3/1/4 1/1/4
f 3/1/4 6/2/4 8/2/4
f 1/1/3 3/1/3 6/2/3
f 8/2/3 6/2/3 3/1/3
f 3/1/6 7/2/6 4/1/6
f 7/2/6 3/1/6 8/2/6
f 4/1/5 7/2/5 3/1/5
f 8/2/5 3/1/5 7/2/5
f 11/1/1 10/1/1 9/1/1
f 10/1/1 11/1/1 12/1/1
f 9/1/2 10/1/2 11/1/2
f 12/1/2 11/1/2 10/1/2
f 15/2/2 14/2/2 13/2/2
f 14/2/2 15/2/2 16/2/2
f 13/2/1 14/2/1 15/2/1
f 16/2/1 15/2/1 14/2/1
f 15/2/3 10/1/3 12/1/3
f 10/1/3 15/2/3 13/2/3
f 12/1/4 10/1/4 15/2/4
f 13/2/4 15/2/4 10/1/4
f 14/2/5 10/1/5 13/2/5
f 10/1/5 14/2/5 9/1/5
f 13/2/6 10/1/6 14/2/6
f 9/1/6 14/2/6 10/1/6
f 14/2/4 11/1/4 9/1/4
f 11/1/4 14/2/4 16/2/4
f 9/1/3 11/1/3 14/2/3
f 16/2/3 14/2/3 11/1/3
f 11/1/6 15/2/6 12/1/6
f 15/2/6 11/1/6 16/2/6
f 12/1/5 15/2/5 11/1/5
f 16/2/5 11/1/5 15/2/5
f 19/1/1 18/1/1 17/1/1
f 18/1/1 19/1/1 20/1/1
f 17/1/2 18/1/2 19/1/2
f 20/1/2 19/1/2 18/1/2
f 23/2/2 22/2/2 21/2/2
f 22/2/2 23/2/2 24/2/2
f 21/2/1 22/2/1 23/2/1
f 24/2/1 23/2/1 22/2/1
f 23/2/3 18/1/3 20/1/3
f 18/1/3 23/2/3 21/2/3
f 20/1/4 18/1/4 23/2/4
f 21/2/4 23/2/4 18/1/4
f 22/2/5 18/1/5 21/2/5
f 18/1/5 22/2/5 17/1/5
f 21/2/6 18/1/6 22/2/6
f 17/1/6 22/2/6 18/1/6
f 22/2/4 19/1/4 17/1/4
f 19/1/4 22/2/4 24/2/4
f 17/1/3 19/1/3 22/2/3
f 24/2/3 22/2/3 19/1/3
f 19/1/6 23/2/6 20/1/6
f 23/2/6 19/1/6 24/2/6
f 20/1/5 23/2/5 19/1/5
f 24/2/5 19/1/5 23/2/5
f 27/1/1 26/1/1 25/1/1
f 26/1/1 27/1/1 28/1/1
f 25/1/2 26/1/2 27/1/2
f 28/1/2 27/1/2 26/1/2
f 31/2/2 30/2/2 29/2/2
f 30/2/2 31/2/2 32/2/2
f 29/2/1 30/2/1 31/2/1
f 32/2/1 31/2/1 30/2/1
f 31/2/3 26/1/3 28/1/3
f 26/1/3 31/2/3 29/2/3
f 28/1/4 26/1/4 31/2/4
f 29/2/4 31/2/4 26/1/4
f 30/2/5 26/1/5 29/2/5
f 26/1/5 30/2/5 25/1/5
f 29/2/6 26/1/6 30/2/6
f 25/1/6 30/2/6 26/1/6
f 30/2/4 27/1/4 25/1/4
f 27/1/4 30/2/4 32/2/4
f 25/1/3 27/1/3 30/2/3
f 32/2/3 30/2/3 27/1/3
f 27/1/6 31/2/6 28/1/6
f 31/2/6 27/1/6 32/2/6
f 28/1/5 31/2/5 27/1/5
f 32/2/5 27/1/5 31/2/5
f 35/1/1 34/1/1 33/1/1
f 34/1/1 35/1/1 36/1/1
f 33/1/2 34/1/2 35/1/2
f 36/1/2 35/1/2 34/1/2
f 35/1/6 37/2/6 36/1/6
f 37/2/6 35/1/6 38/2/6
f 36/1/5 37/2/5 35/1/5
f 38/2/5 35/1/5 37/2/5
f 39/2/5 33/1/5 34/1/5
f 33/1/5 39/2/5 40/2/5
f 34/1/6 33/1/6 39/2/6
f 40/2/6 39/2/6 33/1/6
f 37/2/2 40/2/2 39/2/2
f 40/2/2 37/2/2 38/2/2
f 39/2/1 40/2/1 37/2/1
f 38/2/1 37/2/1 40/2/1
f 43/2/2 42/2/2 41/2/2
f 42/2/2 43/2/2 44/2/2
f 41/2/1 42/2/1 43/2/1
f 44/2/1 43/2/1 42/2/1
f 47/1/1 46/1/1 45/1/1
f 46/1/1 47/1/1 48/1/1
f 45/1/2 46/1/2 47/1/2
f 48/1/2 47/1/2 46/1/2
f 43/2/3 45/1/3 46/1/3
f 45/1/3 43/2/3 41/2/3
f 46/1/4 45/1/4 43/2/4
f 41/2/4 43/2/4 45/1/4
f 47/1/4 44/2/4 48/1/4
f 44/2/4 47/1/4 42/2/4
f 48/1/3 44/2/3 47/1/3
f 42/2/3 47/1/3 44/2/3
f 51/1/1 50/1/1 49/1/1
f 50/1/1 51/1/1 52/1/1
f 49/1/2 50/1/2 51/1/2
f 52/1/2 51/1/2 50/1/2
f 51/1/4 53/2/4 52/1/4
f 53/2/4 51/1/4 54/2/4
f 52/1/3 53/2/3 51/1/3
f 54/2/3 51/1/3 53/2/3
f 55/2/3 49/1/3 50/1/3
f 49/1/3 55/2/3 56/2/3
f 50/1/4 49/1/4 55/2/4
f 56/2/4 55/2/4 49/1/4
f 55/2/2 54/2/2 56/2/2
f 54/2/2 55/2/2 53/2/2
f 56/2/1 54/2/1 55/2/1
f 53/2/1 55/2/1 54/2/1
f 59/1/6 58/2/6 57/1/6
f 58/2/6 59/1/6 60/2/6
f 57/1/5 58/2/5 59/1/5
f 60/2/5 59/1/5 58/2/5
f 63/2/5 62/1/5 61/1/5
f 62/1/5 63/2/5 64/2/5
f 61/1/6 62/1/6 63/2/6
f 64/2/6 63/2/6 62/1/6
f 58/2/2 64/2/2 63/2/2
f 64/2/2 58/2/2 60/2/2
f 63/2/1 64/2/1 58/2/1
f 60/2/1 58/2/1 64/2/1
f 59/1/1 61/1/1 62/1/1
f 61/1/1 59/1/1 57/1/1
f 62/1/2 61/1/2 59/1/2
f 57/1/2 59/1/2 61/1/2

